M48
METRIC,LZ,000.000
;FILE_FORMAT=3:3
;TYPE=PLATED
;Layer: PTH_Through_Via
;EasyEDA v6.5.20, 2023-08-27 05:19:39
;a67cddfb3fce44daa9051d46cbbcc19f,10
;Gerber Generator version 0.2
;Holesize 1 = 0.305 mm
T01C0.305
;Holesize 2 = 0.306 mm
T02C0.306
%
G05
G90
T01
X091156Y055800
X095000Y053000
X099000Y021000
X098000Y086000
X070000Y014999
X070000Y055000
X070000Y055000
X090000Y021000
X090000Y024000
X090000Y030000
X090000Y033000
X090000Y027000
X088000Y030000
X088000Y027000
X088000Y024000
X088000Y021000
X097000Y032000
X097000Y037000
X097000Y042000
X097000Y047000
T02
X066221Y081777
X071221Y091777
X071221Y086777
X071221Y081777
X076221Y091777
X076221Y086777
X076221Y081777
X081221Y091777
X046222Y081777
X051222Y091777
X051222Y086777
X051222Y081777
X056222Y091777
X056222Y086777
X056222Y081777
X061222Y091777
X026221Y081777
X031221Y091777
X031221Y086777
X031221Y081777
X031221Y076777
X036221Y091777
X036221Y086777
X036221Y081777
X036221Y076777
X041221Y091777
X041221Y076777
X046223Y066778
X046223Y061778
X051223Y071778
X051223Y066778
X051223Y061778
X051223Y056778
X056223Y071778
X056223Y066778
X056223Y061778
X056223Y056778
X061223Y071778
X061223Y056778
X066223Y071778
X066221Y065777
X066221Y060777
X071221Y070777
X071221Y065777
X071221Y060777
X076221Y070777
X076221Y065777
X076221Y060777
X026221Y067778
X031221Y072778
X031221Y067778
X031221Y062778
X031221Y057778
X036221Y072778
X036221Y067778
X036221Y062778
X036221Y057778
X041221Y072778
X041221Y067778
X041221Y062778
X041221Y057778
X046221Y072778
X066221Y048777
X066221Y043777
X071221Y053776
X071221Y048777
X071221Y043777
X071221Y038777
X076221Y053776
X076221Y048777
X076221Y043777
X076221Y038777
X086221Y043777
X046223Y048778
X046223Y043778
X051223Y053778
X051223Y048778
X051223Y043778
X051223Y038778
X056223Y053778
X056223Y048778
X056223Y043778
X056223Y038778
X061223Y053778
X026221Y048778
X026221Y043778
X026221Y038778
X031221Y053778
X031221Y048778
X031221Y043778
X031221Y038778
X036221Y053778
X036221Y048778
X036221Y043778
X036221Y038778
X041221Y053778
X093722Y047044
X093722Y042044
X093722Y037044
X093722Y032044
X046223Y026778
X046223Y021778
X051223Y031778
X051223Y026778
X051223Y021778
X051223Y016778
X056223Y031778
X056223Y026778
X056223Y021778
X056223Y016778
X061223Y031778
X061223Y016778
X066223Y031778
X026221Y027778
X031221Y032778
X031221Y027778
X031221Y022778
X031221Y017778
X036221Y032778
X036221Y027778
X036221Y022778
X036221Y017778
X041221Y032778
X041221Y027778
X041221Y022778
X041221Y017778
X046221Y032778
X066221Y025777
X066221Y020777
X071221Y030777
X071221Y025777
X071221Y020777
X076221Y030777
X076221Y025777
X076221Y020777
X001072Y088928
X001072Y083928
X001072Y078928
X001072Y073928
X001072Y068928
X001072Y063928
X001072Y058928
X001072Y053928
X001072Y048928
X001072Y043928
X001072Y038928
X001072Y033928
X001072Y028928
X001072Y023928
X001072Y018928
X001072Y013928
X001072Y008928
X006072Y088928
X006072Y083928
X006072Y078928
X006072Y073928
X006072Y068928
X006072Y063928
X006072Y058928
X006072Y053928
X006072Y048928
X006072Y043928
X006072Y038928
X006072Y033928
X006072Y028928
X006072Y023928
X006072Y018928
X006072Y013928
X011072Y098928
X011072Y093928
X011072Y088928
X011072Y083928
X011072Y078928
X011072Y073928
X011072Y068928
X011072Y063928
X011072Y058928
X011072Y053928
X011072Y048928
X011072Y043928
X011072Y038928
X011072Y033928
X011072Y028928
X011072Y023928
X011072Y018928
X011072Y013928
X011072Y008928
X011072Y003928
X016072Y098928
X016072Y093928
X016072Y088928
X016072Y083928
X016072Y078928
X016072Y073928
X016072Y068928
X016072Y063928
X016072Y058928
X016072Y053928
X016072Y048928
X016072Y043928
X016072Y038928
X016072Y033928
X016072Y028928
X016072Y023928
X016072Y018928
X016072Y013928
X016072Y008928
X016072Y003928
X021072Y098928
X021072Y093928
X021072Y073928
X021072Y053928
X021072Y033928
X021072Y013928
X021072Y008928
X021072Y003928
X026072Y098928
X026072Y093928
X026072Y073928
X026072Y033928
X026072Y013928
X026072Y008928
X026072Y003928
X031072Y098928
X031072Y013928
X031072Y008928
X031072Y003928
X036072Y098928
X036072Y013928
X036072Y008928
X036072Y003928
X041072Y098928
X041072Y013928
X041072Y008928
X041072Y003928
X046072Y098928
X046072Y013928
X046072Y008928
X046072Y003928
X051072Y098928
X051072Y013928
X051072Y008928
X051072Y003928
X056072Y098928
X056072Y013928
X056072Y008928
X056072Y003928
X061072Y098928
X061072Y013928
X061072Y008928
X061072Y003928
X066072Y098928
X066072Y013928
X066072Y008928
X066072Y003928
X071072Y098928
X071072Y013928
X071072Y008928
X071072Y003928
X076072Y098928
X076072Y013928
X076072Y008928
X076072Y003928
X081072Y098928
X081072Y013928
X081072Y008928
X081072Y003928
X086072Y098928
X086072Y093928
X086072Y088928
X086072Y083928
X086072Y078928
X086072Y053928
X086072Y013928
X086072Y008928
X086072Y003928
X091072Y098928
X091072Y088928
X091072Y083928
X091072Y013928
X096072Y088928
X096072Y073928
X096072Y068928
X096072Y063928
X096072Y013928
M30
