M48
METRIC,LZ,000.000
;FILE_FORMAT=3:3
;TYPE=PLATED
;Layer: PTH_Through
;EasyEDA v6.5.20, 2023-08-27 05:19:39
;a67cddfb3fce44daa9051d46cbbcc19f,10
;Gerber Generator version 0.2
;Holesize 1 = 0.889 mm
T01C0.889
;Holesize 2 = 1.850 mm
T02C1.850
%
G05
G90
T01
X096270Y026270
X093730Y026270
X096270Y023730
X093730Y023730
X093730Y076190
X096270Y076190
X093730Y078730
X096270Y078730
X093730Y081270
X096270Y081270
X093730Y083810
X096270Y083810
T02
X020000Y080300
X020000Y085000
X020000Y089700
X040000Y080300
X040000Y085000
X040000Y089700
X060000Y080300
X060000Y085000
X060000Y089700
X080000Y080300
X080000Y085000
X080000Y089700
X020000Y060300
X020000Y065000
X020000Y069700
X040000Y060300
X040000Y065000
X040000Y069700
X060000Y060300
X060000Y065000
X060000Y069700
X080000Y060300
X080000Y065000
X080000Y069700
X020000Y040300
X020000Y045000
X020000Y049700
X040000Y040300
X040000Y045000
X040000Y049700
X060000Y040300
X060000Y045000
X060000Y049700
X080000Y040300
X080000Y045000
X080000Y049700
X020000Y020300
X020000Y025000
X020000Y029700
X040000Y020300
X040000Y025000
X040000Y029700
X060000Y020300
X060000Y025000
X060000Y029700
X080000Y020300
X080000Y025000
X080000Y029700
M30
