G04 Layer: BottomSilkscreenLayer*
G04 EasyEDA v6.5.20, 2023-08-27 05:19:39*
G04 a67cddfb3fce44daa9051d46cbbcc19f,10*
G04 Gerber Generator version 0.2*
G04 Scale: 100 percent, Rotated: No, Reflected: No *
G04 Dimensions in millimeters *
G04 leading zeros omitted , absolute positions ,4 integer and 5 decimal *
%FSLAX45Y45*%
%MOMM*%

%ADD10C,0.2032*%
%ADD11C,0.1524*%
%ADD12C,0.2540*%
%ADD13C,0.2000*%

%LPD*%
D10*
X9663617Y2900903D02*
G01*
X9699980Y2805447D01*
X9663617Y2900903D02*
G01*
X9627252Y2805447D01*
X9686343Y2837266D02*
G01*
X9640890Y2837266D01*
X9569980Y2900903D02*
G01*
X9583618Y2896356D01*
X9592708Y2882722D01*
X9597252Y2859994D01*
X9597252Y2846357D01*
X9592708Y2823631D01*
X9583618Y2809994D01*
X9569980Y2805447D01*
X9560890Y2805447D01*
X9547252Y2809994D01*
X9538162Y2823631D01*
X9533618Y2846357D01*
X9533618Y2859994D01*
X9538162Y2882722D01*
X9547252Y2896356D01*
X9560890Y2900903D01*
X9569980Y2900903D01*
X9363618Y2900903D02*
G01*
X9399981Y2805447D01*
X9363618Y2900903D02*
G01*
X9327253Y2805447D01*
X9386343Y2837266D02*
G01*
X9340890Y2837266D01*
X9297253Y2882722D02*
G01*
X9288162Y2887266D01*
X9274528Y2900903D01*
X9274528Y2805447D01*
D11*
X9802002Y5829396D02*
G01*
X9807336Y5839810D01*
X9817750Y5850224D01*
X9827910Y5855304D01*
X9848738Y5855304D01*
X9859152Y5850224D01*
X9869566Y5839810D01*
X9874900Y5829396D01*
X9879980Y5813648D01*
X9879980Y5787740D01*
X9874900Y5772246D01*
X9869566Y5761832D01*
X9859152Y5751418D01*
X9848738Y5746338D01*
X9827910Y5746338D01*
X9817750Y5751418D01*
X9807336Y5761832D01*
X9802002Y5772246D01*
X9767712Y5834476D02*
G01*
X9757298Y5839810D01*
X9741804Y5855304D01*
X9741804Y5746338D01*
X2567404Y8901010D02*
G01*
X2567404Y8792044D01*
X2567404Y8901010D02*
G01*
X2520668Y8901010D01*
X2505174Y8895930D01*
X2499840Y8890596D01*
X2494760Y8880182D01*
X2494760Y8869768D01*
X2499840Y8859354D01*
X2505174Y8854274D01*
X2520668Y8849194D01*
X2567404Y8849194D01*
X2531082Y8849194D02*
G01*
X2494760Y8792044D01*
X2460470Y8880182D02*
G01*
X2450056Y8885516D01*
X2434308Y8901010D01*
X2434308Y8792044D01*
X4590709Y8904411D02*
G01*
X4590709Y8795445D01*
X4590709Y8904411D02*
G01*
X4543973Y8904411D01*
X4528479Y8899331D01*
X4523145Y8893997D01*
X4518065Y8883583D01*
X4518065Y8873169D01*
X4523145Y8862755D01*
X4528479Y8857675D01*
X4543973Y8852595D01*
X4590709Y8852595D01*
X4554387Y8852595D02*
G01*
X4518065Y8795445D01*
X4478441Y8878503D02*
G01*
X4478441Y8883583D01*
X4473361Y8893997D01*
X4468027Y8899331D01*
X4457613Y8904411D01*
X4437039Y8904411D01*
X4426625Y8899331D01*
X4421291Y8893997D01*
X4416211Y8883583D01*
X4416211Y8873169D01*
X4421291Y8862755D01*
X4431705Y8847261D01*
X4483775Y8795445D01*
X4410877Y8795445D01*
X6590736Y8904381D02*
G01*
X6590736Y8795415D01*
X6590736Y8904381D02*
G01*
X6544000Y8904381D01*
X6528506Y8899301D01*
X6523172Y8893967D01*
X6518092Y8883553D01*
X6518092Y8873139D01*
X6523172Y8862725D01*
X6528506Y8857645D01*
X6544000Y8852565D01*
X6590736Y8852565D01*
X6554414Y8852565D02*
G01*
X6518092Y8795415D01*
X6473388Y8904381D02*
G01*
X6416238Y8904381D01*
X6447226Y8862725D01*
X6431732Y8862725D01*
X6421318Y8857645D01*
X6416238Y8852565D01*
X6410904Y8836817D01*
X6410904Y8826403D01*
X6416238Y8810909D01*
X6426652Y8800495D01*
X6442146Y8795415D01*
X6457640Y8795415D01*
X6473388Y8800495D01*
X6478468Y8805575D01*
X6483802Y8815989D01*
X8583272Y8906921D02*
G01*
X8583272Y8797955D01*
X8583272Y8906921D02*
G01*
X8536536Y8906921D01*
X8521042Y8901841D01*
X8515708Y8896507D01*
X8510628Y8886093D01*
X8510628Y8875679D01*
X8515708Y8865265D01*
X8521042Y8860185D01*
X8536536Y8855105D01*
X8583272Y8855105D01*
X8546950Y8855105D02*
G01*
X8510628Y8797955D01*
X8424268Y8906921D02*
G01*
X8476338Y8834277D01*
X8398360Y8834277D01*
X8424268Y8906921D02*
G01*
X8424268Y8797955D01*
X2579110Y6174546D02*
G01*
X2579110Y6065580D01*
X2579110Y6174546D02*
G01*
X2532374Y6174546D01*
X2516880Y6169466D01*
X2511546Y6164132D01*
X2506466Y6153718D01*
X2506466Y6143304D01*
X2511546Y6132890D01*
X2516880Y6127810D01*
X2532374Y6122730D01*
X2579110Y6122730D01*
X2542788Y6122730D02*
G01*
X2506466Y6065580D01*
X2409692Y6174546D02*
G01*
X2461762Y6174546D01*
X2466842Y6127810D01*
X2461762Y6132890D01*
X2446014Y6138224D01*
X2430520Y6138224D01*
X2415026Y6132890D01*
X2404612Y6122730D01*
X2399278Y6106982D01*
X2399278Y6096568D01*
X2404612Y6081074D01*
X2415026Y6070660D01*
X2430520Y6065580D01*
X2446014Y6065580D01*
X2461762Y6070660D01*
X2466842Y6075740D01*
X2472176Y6086154D01*
X4576406Y6177175D02*
G01*
X4576406Y6068209D01*
X4576406Y6177175D02*
G01*
X4529670Y6177175D01*
X4514176Y6172095D01*
X4508842Y6166761D01*
X4503762Y6156347D01*
X4503762Y6145933D01*
X4508842Y6135519D01*
X4514176Y6130439D01*
X4529670Y6125359D01*
X4576406Y6125359D01*
X4540084Y6125359D02*
G01*
X4503762Y6068209D01*
X4406988Y6161681D02*
G01*
X4412322Y6172095D01*
X4427816Y6177175D01*
X4438230Y6177175D01*
X4453724Y6172095D01*
X4464138Y6156347D01*
X4469472Y6130439D01*
X4469472Y6104531D01*
X4464138Y6083703D01*
X4453724Y6073289D01*
X4438230Y6068209D01*
X4432896Y6068209D01*
X4417402Y6073289D01*
X4406988Y6083703D01*
X4401908Y6099197D01*
X4401908Y6104531D01*
X4406988Y6120025D01*
X4417402Y6130439D01*
X4432896Y6135519D01*
X4438230Y6135519D01*
X4453724Y6130439D01*
X4464138Y6120025D01*
X4469472Y6104531D01*
X6589064Y6184534D02*
G01*
X6589064Y6075568D01*
X6589064Y6184534D02*
G01*
X6542328Y6184534D01*
X6526834Y6179454D01*
X6521500Y6174120D01*
X6516420Y6163706D01*
X6516420Y6153292D01*
X6521500Y6142878D01*
X6526834Y6137798D01*
X6542328Y6132718D01*
X6589064Y6132718D01*
X6552742Y6132718D02*
G01*
X6516420Y6075568D01*
X6409232Y6184534D02*
G01*
X6461302Y6075568D01*
X6482130Y6184534D02*
G01*
X6409232Y6184534D01*
X8129968Y5765264D02*
G01*
X8129968Y5656298D01*
X8129968Y5765264D02*
G01*
X8083232Y5765264D01*
X8067738Y5760184D01*
X8062404Y5754850D01*
X8057324Y5744436D01*
X8057324Y5734022D01*
X8062404Y5723608D01*
X8067738Y5718528D01*
X8083232Y5713448D01*
X8129968Y5713448D01*
X8093646Y5713448D02*
G01*
X8057324Y5656298D01*
X7996872Y5765264D02*
G01*
X8012620Y5760184D01*
X8017700Y5749770D01*
X8017700Y5739356D01*
X8012620Y5728942D01*
X8002206Y5723608D01*
X7981378Y5718528D01*
X7965884Y5713448D01*
X7955470Y5703034D01*
X7950136Y5692620D01*
X7950136Y5676872D01*
X7955470Y5666458D01*
X7960550Y5661378D01*
X7976298Y5656298D01*
X7996872Y5656298D01*
X8012620Y5661378D01*
X8017700Y5666458D01*
X8023034Y5676872D01*
X8023034Y5692620D01*
X8017700Y5703034D01*
X8007286Y5713448D01*
X7991792Y5718528D01*
X7970964Y5723608D01*
X7960550Y5728942D01*
X7955470Y5739356D01*
X7955470Y5749770D01*
X7960550Y5760184D01*
X7976298Y5765264D01*
X7996872Y5765264D01*
X2599994Y4915306D02*
G01*
X2599994Y4806340D01*
X2599994Y4915306D02*
G01*
X2553258Y4915306D01*
X2537764Y4910226D01*
X2532430Y4904892D01*
X2527350Y4894478D01*
X2527350Y4884064D01*
X2532430Y4873650D01*
X2537764Y4868570D01*
X2553258Y4863490D01*
X2599994Y4863490D01*
X2563672Y4863490D02*
G01*
X2527350Y4806340D01*
X2425496Y4878984D02*
G01*
X2430576Y4863490D01*
X2440990Y4853076D01*
X2456484Y4847742D01*
X2461818Y4847742D01*
X2477312Y4853076D01*
X2487726Y4863490D01*
X2493060Y4878984D01*
X2493060Y4884064D01*
X2487726Y4899812D01*
X2477312Y4910226D01*
X2461818Y4915306D01*
X2456484Y4915306D01*
X2440990Y4910226D01*
X2430576Y4899812D01*
X2425496Y4878984D01*
X2425496Y4853076D01*
X2430576Y4826914D01*
X2440990Y4811420D01*
X2456484Y4806340D01*
X2466898Y4806340D01*
X2482646Y4811420D01*
X2487726Y4821834D01*
X4599990Y4915306D02*
G01*
X4599990Y4806340D01*
X4599990Y4915306D02*
G01*
X4553254Y4915306D01*
X4537760Y4910226D01*
X4532426Y4904892D01*
X4527346Y4894478D01*
X4527346Y4884064D01*
X4532426Y4873650D01*
X4537760Y4868570D01*
X4553254Y4863490D01*
X4599990Y4863490D01*
X4563668Y4863490D02*
G01*
X4527346Y4806340D01*
X4493056Y4894478D02*
G01*
X4482642Y4899812D01*
X4466894Y4915306D01*
X4466894Y4806340D01*
X4401616Y4915306D02*
G01*
X4417110Y4910226D01*
X4427524Y4894478D01*
X4432604Y4868570D01*
X4432604Y4853076D01*
X4427524Y4826914D01*
X4417110Y4811420D01*
X4401616Y4806340D01*
X4391202Y4806340D01*
X4375454Y4811420D01*
X4365040Y4826914D01*
X4359960Y4853076D01*
X4359960Y4868570D01*
X4365040Y4894478D01*
X4375454Y4910226D01*
X4391202Y4915306D01*
X4401616Y4915306D01*
X6599986Y4915306D02*
G01*
X6599986Y4806340D01*
X6599986Y4915306D02*
G01*
X6553250Y4915306D01*
X6537756Y4910226D01*
X6532422Y4904892D01*
X6527342Y4894478D01*
X6527342Y4884064D01*
X6532422Y4873650D01*
X6537756Y4868570D01*
X6553250Y4863490D01*
X6599986Y4863490D01*
X6563664Y4863490D02*
G01*
X6527342Y4806340D01*
X6493052Y4894478D02*
G01*
X6482638Y4899812D01*
X6466890Y4915306D01*
X6466890Y4806340D01*
X6432600Y4894478D02*
G01*
X6422186Y4899812D01*
X6406692Y4915306D01*
X6406692Y4806340D01*
X8610836Y4404474D02*
G01*
X8610836Y4295508D01*
X8610836Y4404474D02*
G01*
X8564100Y4404474D01*
X8548606Y4399394D01*
X8543272Y4394060D01*
X8538192Y4383646D01*
X8538192Y4373232D01*
X8543272Y4362818D01*
X8548606Y4357738D01*
X8564100Y4352658D01*
X8610836Y4352658D01*
X8574514Y4352658D02*
G01*
X8538192Y4295508D01*
X8503902Y4383646D02*
G01*
X8493488Y4388980D01*
X8477740Y4404474D01*
X8477740Y4295508D01*
X8438370Y4378566D02*
G01*
X8438370Y4383646D01*
X8433036Y4394060D01*
X8427956Y4399394D01*
X8417542Y4404474D01*
X8396714Y4404474D01*
X8386300Y4399394D01*
X8381220Y4394060D01*
X8375886Y4383646D01*
X8375886Y4373232D01*
X8381220Y4362818D01*
X8391634Y4347324D01*
X8443450Y4295508D01*
X8370806Y4295508D01*
X2599994Y2215311D02*
G01*
X2599994Y2106345D01*
X2599994Y2215311D02*
G01*
X2553258Y2215311D01*
X2537764Y2210231D01*
X2532430Y2204897D01*
X2527350Y2194483D01*
X2527350Y2184069D01*
X2532430Y2173655D01*
X2537764Y2168575D01*
X2553258Y2163495D01*
X2599994Y2163495D01*
X2563672Y2163495D02*
G01*
X2527350Y2106345D01*
X2493060Y2194483D02*
G01*
X2482646Y2199817D01*
X2466898Y2215311D01*
X2466898Y2106345D01*
X2422194Y2215311D02*
G01*
X2365044Y2215311D01*
X2396286Y2173655D01*
X2380792Y2173655D01*
X2370378Y2168575D01*
X2365044Y2163495D01*
X2359964Y2147747D01*
X2359964Y2137333D01*
X2365044Y2121839D01*
X2375458Y2111425D01*
X2391206Y2106345D01*
X2406700Y2106345D01*
X2422194Y2111425D01*
X2427528Y2116505D01*
X2432608Y2126919D01*
X4599990Y2215311D02*
G01*
X4599990Y2106345D01*
X4599990Y2215311D02*
G01*
X4553254Y2215311D01*
X4537760Y2210231D01*
X4532426Y2204897D01*
X4527346Y2194483D01*
X4527346Y2184069D01*
X4532426Y2173655D01*
X4537760Y2168575D01*
X4553254Y2163495D01*
X4599990Y2163495D01*
X4563668Y2163495D02*
G01*
X4527346Y2106345D01*
X4493056Y2194483D02*
G01*
X4482642Y2199817D01*
X4466894Y2215311D01*
X4466894Y2106345D01*
X4380788Y2215311D02*
G01*
X4432604Y2142667D01*
X4354880Y2142667D01*
X4380788Y2215311D02*
G01*
X4380788Y2106345D01*
X6599986Y2215311D02*
G01*
X6599986Y2106345D01*
X6599986Y2215311D02*
G01*
X6553250Y2215311D01*
X6537756Y2210231D01*
X6532422Y2204897D01*
X6527342Y2194483D01*
X6527342Y2184069D01*
X6532422Y2173655D01*
X6537756Y2168575D01*
X6553250Y2163495D01*
X6599986Y2163495D01*
X6563664Y2163495D02*
G01*
X6527342Y2106345D01*
X6493052Y2194483D02*
G01*
X6482638Y2199817D01*
X6466890Y2215311D01*
X6466890Y2106345D01*
X6370370Y2215311D02*
G01*
X6422186Y2215311D01*
X6427520Y2168575D01*
X6422186Y2173655D01*
X6406692Y2178989D01*
X6391198Y2178989D01*
X6375450Y2173655D01*
X6365036Y2163495D01*
X6359956Y2147747D01*
X6359956Y2137333D01*
X6365036Y2121839D01*
X6375450Y2111425D01*
X6391198Y2106345D01*
X6406692Y2106345D01*
X6422186Y2111425D01*
X6427520Y2116505D01*
X6432600Y2126919D01*
X8599982Y2215311D02*
G01*
X8599982Y2106345D01*
X8599982Y2215311D02*
G01*
X8553246Y2215311D01*
X8537752Y2210231D01*
X8532418Y2204897D01*
X8527338Y2194483D01*
X8527338Y2184069D01*
X8532418Y2173655D01*
X8537752Y2168575D01*
X8553246Y2163495D01*
X8599982Y2163495D01*
X8563660Y2163495D02*
G01*
X8527338Y2106345D01*
X8493048Y2194483D02*
G01*
X8482634Y2199817D01*
X8466886Y2215311D01*
X8466886Y2106345D01*
X8370366Y2199817D02*
G01*
X8375446Y2210231D01*
X8391194Y2215311D01*
X8401608Y2215311D01*
X8417102Y2210231D01*
X8427516Y2194483D01*
X8432596Y2168575D01*
X8432596Y2142667D01*
X8427516Y2121839D01*
X8417102Y2111425D01*
X8401608Y2106345D01*
X8396274Y2106345D01*
X8380780Y2111425D01*
X8370366Y2121839D01*
X8365032Y2137333D01*
X8365032Y2142667D01*
X8370366Y2158161D01*
X8380780Y2168575D01*
X8396274Y2173655D01*
X8401608Y2173655D01*
X8417102Y2168575D01*
X8427516Y2158161D01*
X8432596Y2142667D01*
X9157911Y2575311D02*
G01*
X9157911Y2492253D01*
X9163245Y2476505D01*
X9168325Y2471425D01*
X9178739Y2466345D01*
X9189153Y2466345D01*
X9199567Y2471425D01*
X9204901Y2476505D01*
X9209981Y2492253D01*
X9209981Y2502667D01*
X9118541Y2549403D02*
G01*
X9118541Y2554483D01*
X9113461Y2564897D01*
X9108127Y2570231D01*
X9097713Y2575311D01*
X9076885Y2575311D01*
X9066471Y2570231D01*
X9061391Y2564897D01*
X9056311Y2554483D01*
X9056311Y2544069D01*
X9061391Y2533655D01*
X9071805Y2518161D01*
X9123621Y2466345D01*
X9050977Y2466345D01*
X9459168Y1784469D02*
G01*
X9459168Y1675503D01*
X9459168Y1784469D02*
G01*
X9412432Y1784469D01*
X9396938Y1779389D01*
X9391604Y1774055D01*
X9386524Y1763641D01*
X9386524Y1753227D01*
X9391604Y1742813D01*
X9396938Y1737733D01*
X9412432Y1732653D01*
X9459168Y1732653D01*
X9422846Y1732653D02*
G01*
X9386524Y1675503D01*
X9352234Y1763641D02*
G01*
X9341820Y1768975D01*
X9326072Y1784469D01*
X9326072Y1675503D01*
X9265874Y1784469D02*
G01*
X9281368Y1779389D01*
X9286702Y1768975D01*
X9286702Y1758561D01*
X9281368Y1748147D01*
X9271208Y1742813D01*
X9250380Y1737733D01*
X9234632Y1732653D01*
X9224218Y1722239D01*
X9219138Y1711825D01*
X9219138Y1696077D01*
X9224218Y1685663D01*
X9229552Y1680583D01*
X9245046Y1675503D01*
X9265874Y1675503D01*
X9281368Y1680583D01*
X9286702Y1685663D01*
X9291782Y1696077D01*
X9291782Y1711825D01*
X9286702Y1722239D01*
X9276288Y1732653D01*
X9260794Y1737733D01*
X9239966Y1742813D01*
X9229552Y1748147D01*
X9224218Y1758561D01*
X9224218Y1768975D01*
X9229552Y1779389D01*
X9245046Y1784469D01*
X9265874Y1784469D01*
X9949980Y5645304D02*
G01*
X9949980Y5536338D01*
X9949980Y5645304D02*
G01*
X9903244Y5645304D01*
X9887750Y5640224D01*
X9882416Y5634890D01*
X9877336Y5624476D01*
X9877336Y5614062D01*
X9882416Y5603648D01*
X9887750Y5598568D01*
X9903244Y5593488D01*
X9949980Y5593488D01*
X9913658Y5593488D02*
G01*
X9877336Y5536338D01*
X9843046Y5624476D02*
G01*
X9832632Y5629810D01*
X9816884Y5645304D01*
X9816884Y5536338D01*
X9715030Y5608982D02*
G01*
X9720364Y5593488D01*
X9730778Y5583074D01*
X9746272Y5577740D01*
X9751606Y5577740D01*
X9767100Y5583074D01*
X9777514Y5593488D01*
X9782594Y5608982D01*
X9782594Y5614062D01*
X9777514Y5629810D01*
X9767100Y5640224D01*
X9751606Y5645304D01*
X9746272Y5645304D01*
X9730778Y5640224D01*
X9720364Y5629810D01*
X9715030Y5608982D01*
X9715030Y5583074D01*
X9720364Y5556912D01*
X9730778Y5541418D01*
X9746272Y5536338D01*
X9756686Y5536338D01*
X9772180Y5541418D01*
X9777514Y5551832D01*
X8499983Y5515305D02*
G01*
X8499983Y5437327D01*
X8494902Y5421833D01*
X8484488Y5411419D01*
X8468740Y5406339D01*
X8458327Y5406339D01*
X8442833Y5411419D01*
X8432418Y5421833D01*
X8427338Y5437327D01*
X8427338Y5515305D01*
X8393049Y5494477D02*
G01*
X8382634Y5499811D01*
X8366886Y5515305D01*
X8366886Y5406339D01*
X9523026Y8715321D02*
G01*
X9523026Y8632195D01*
X9528223Y8616607D01*
X9533417Y8611412D01*
X9543808Y8606218D01*
X9554199Y8606218D01*
X9564590Y8611412D01*
X9569787Y8616607D01*
X9574982Y8632195D01*
X9574982Y8642586D01*
X9488736Y8694539D02*
G01*
X9478347Y8699736D01*
X9462759Y8715321D01*
X9462759Y8606218D01*
X9759200Y1784525D02*
G01*
X9759200Y1675422D01*
X9759200Y1784525D02*
G01*
X9712441Y1784525D01*
X9696856Y1779330D01*
X9691659Y1774134D01*
X9686465Y1763742D01*
X9686465Y1753351D01*
X9691659Y1742960D01*
X9696856Y1737766D01*
X9712441Y1732572D01*
X9759200Y1732572D01*
X9722832Y1732572D02*
G01*
X9686465Y1675422D01*
X9652175Y1763742D02*
G01*
X9641784Y1768939D01*
X9626196Y1784525D01*
X9626196Y1675422D01*
X9519170Y1784525D02*
G01*
X9571126Y1675422D01*
X9591906Y1784525D02*
G01*
X9519170Y1784525D01*
D12*
X9410979Y5839965D02*
G01*
X9410979Y5759963D01*
X9521954Y5870950D02*
G01*
X9441957Y5870950D01*
X9521954Y5728985D02*
G01*
X9441957Y5728985D01*
X9579543Y5871532D02*
G01*
X9659543Y5871532D01*
X9690526Y5840549D02*
G01*
X9690526Y5760552D01*
X9579543Y5729571D02*
G01*
X9659543Y5729571D01*
D11*
X2433934Y8642604D02*
G01*
X2433934Y8738491D01*
X2566055Y8738491D01*
X2566055Y8642604D01*
X2433934Y8557361D02*
G01*
X2433934Y8461474D01*
X2566055Y8461474D01*
X2566055Y8557361D01*
X4433930Y8642604D02*
G01*
X4433930Y8738491D01*
X4566051Y8738491D01*
X4566051Y8642604D01*
X4433930Y8557361D02*
G01*
X4433930Y8461474D01*
X4566051Y8461474D01*
X4566051Y8557361D01*
X6433926Y8642604D02*
G01*
X6433926Y8738491D01*
X6566047Y8738491D01*
X6566047Y8642604D01*
X6433926Y8557361D02*
G01*
X6433926Y8461474D01*
X6566047Y8461474D01*
X6566047Y8557361D01*
X8433922Y8642604D02*
G01*
X8433922Y8738491D01*
X8566043Y8738491D01*
X8566043Y8642604D01*
X8433922Y8557361D02*
G01*
X8433922Y8461474D01*
X8566043Y8461474D01*
X8566043Y8557361D01*
X2566055Y6357365D02*
G01*
X2566055Y6261478D01*
X2433934Y6261478D01*
X2433934Y6357365D01*
X2566055Y6442608D02*
G01*
X2566055Y6538495D01*
X2433934Y6538495D01*
X2433934Y6442608D01*
X4566051Y6357365D02*
G01*
X4566051Y6261478D01*
X4433930Y6261478D01*
X4433930Y6357365D01*
X4566051Y6442608D02*
G01*
X4566051Y6538495D01*
X4433930Y6538495D01*
X4433930Y6442608D01*
X6566047Y6357365D02*
G01*
X6566047Y6261478D01*
X6433926Y6261478D01*
X6433926Y6357365D01*
X6566047Y6442608D02*
G01*
X6566047Y6538495D01*
X6433926Y6538495D01*
X6433926Y6442608D01*
X8257362Y5633928D02*
G01*
X8161474Y5633928D01*
X8161474Y5766048D01*
X8257362Y5766048D01*
X8342604Y5633928D02*
G01*
X8438492Y5633928D01*
X8438492Y5766048D01*
X8342604Y5766048D01*
X2433934Y4642612D02*
G01*
X2433934Y4738499D01*
X2566055Y4738499D01*
X2566055Y4642612D01*
X2433934Y4557369D02*
G01*
X2433934Y4461482D01*
X2566055Y4461482D01*
X2566055Y4557369D01*
X4433930Y4642612D02*
G01*
X4433930Y4738499D01*
X4566051Y4738499D01*
X4566051Y4642612D01*
X4433930Y4557369D02*
G01*
X4433930Y4461482D01*
X4566051Y4461482D01*
X4566051Y4557369D01*
X6433926Y4642612D02*
G01*
X6433926Y4738499D01*
X6566047Y4738499D01*
X6566047Y4642612D01*
X6433926Y4557369D02*
G01*
X6433926Y4461482D01*
X6566047Y4461482D01*
X6566047Y4557369D01*
X8433922Y4642612D02*
G01*
X8433922Y4738499D01*
X8566043Y4738499D01*
X8566043Y4642612D01*
X8433922Y4557369D02*
G01*
X8433922Y4461482D01*
X8566043Y4461482D01*
X8566043Y4557369D01*
X2566055Y2357373D02*
G01*
X2566055Y2261486D01*
X2433934Y2261486D01*
X2433934Y2357373D01*
X2566055Y2442616D02*
G01*
X2566055Y2538503D01*
X2433934Y2538503D01*
X2433934Y2442616D01*
X4566051Y2357373D02*
G01*
X4566051Y2261486D01*
X4433930Y2261486D01*
X4433930Y2357373D01*
X4566051Y2442616D02*
G01*
X4566051Y2538503D01*
X4433930Y2538503D01*
X4433930Y2442616D01*
X6566047Y2357373D02*
G01*
X6566047Y2261486D01*
X6433926Y2261486D01*
X6433926Y2357373D01*
X6566047Y2442616D02*
G01*
X6566047Y2538503D01*
X6433926Y2538503D01*
X6433926Y2442616D01*
X8566043Y2357373D02*
G01*
X8566043Y2261486D01*
X8433922Y2261486D01*
X8433922Y2357373D01*
X8566043Y2442616D02*
G01*
X8566043Y2538503D01*
X8433922Y2538503D01*
X8433922Y2442616D01*
D10*
X9245981Y2753995D02*
G01*
X9245981Y2245995D01*
X9753981Y2245995D01*
X9753981Y2753995D01*
X9245981Y2753995D01*
D11*
X9416041Y1957374D02*
G01*
X9416041Y1861487D01*
X9283920Y1861487D01*
X9283920Y1957374D01*
X9416041Y2042617D02*
G01*
X9416041Y2138504D01*
X9283920Y2138504D01*
X9283920Y2042617D01*
X9507359Y5533928D02*
G01*
X9411472Y5533928D01*
X9411472Y5666049D01*
X9507359Y5666049D01*
X9592602Y5533928D02*
G01*
X9688489Y5533928D01*
X9688489Y5666049D01*
X9592602Y5666049D01*
D12*
X9341756Y5548246D02*
G01*
X9341756Y5675246D01*
X9341756Y5324726D02*
G01*
X9341756Y5451726D01*
X8559436Y5700732D02*
G01*
X8559436Y5299240D01*
D10*
X9753981Y7491984D02*
G01*
X9245981Y7491984D01*
X9245981Y8507984D01*
X9753981Y8507984D01*
X9753981Y7491984D01*
D11*
X9716041Y1957374D02*
G01*
X9716041Y1861487D01*
X9583920Y1861487D01*
X9583920Y1957374D01*
X9716041Y2042617D02*
G01*
X9716041Y2138504D01*
X9583920Y2138504D01*
X9583920Y2042617D01*
D12*
G75*
G01*
X9690532Y5840550D02*
G03*
X9659549Y5871533I-30983J0D01*
G75*
G01*
X9659549Y5729567D02*
G03*
X9690532Y5760552I0J30983D01*
G75*
G01*
X9441962Y5870951D02*
G03*
X9410979Y5839965I0J-30983D01*
G75*
G01*
X9410979Y5759968D02*
G03*
X9441962Y5728985I30983J0D01*
G75*
G01*
X9341757Y5545706D02*
G03*
X9341757Y5451726I0J-46990D01*
D13*
G75*
G01
X9377164Y5195186D02*
G03X9377164Y5195186I-10008J0D01*
M02*
