G04 Layer: BottomLayer*
G04 EasyEDA v6.5.20, 2023-08-27 05:19:39*
G04 a67cddfb3fce44daa9051d46cbbcc19f,10*
G04 Gerber Generator version 0.2*
G04 Scale: 100 percent, Rotated: No, Reflected: No *
G04 Dimensions in millimeters *
G04 leading zeros omitted , absolute positions ,4 integer and 5 decimal *
%FSLAX45Y45*%
%MOMM*%

%AMMACRO1*21,1,$1,$2,0,0,$3*%
%ADD10C,1.0000*%
%ADD11C,0.5000*%
%ADD12C,0.3000*%
%ADD13C,1.5000*%
%ADD14MACRO1,0.8X0.9X0.0000*%
%ADD15R,0.8640X0.8065*%
%ADD16MACRO1,0.864X0.8065X0.0000*%
%ADD17MACRO1,0.864X0.8065X90.0000*%
%ADD18MACRO1,0.4X1.65X0.0000*%
%ADD19C,2.7000*%
%ADD20MACRO1,1.5748X1.5748X-90.0000*%
%ADD21C,1.5748*%
%ADD22MACRO1,1.5748X1.5748X90.0000*%
%ADD23C,0.6096*%
%ADD24C,0.6100*%
%ADD25C,0.0127*%

%LPD*%
G36*
X6821119Y7740903D02*
G01*
X6817258Y7741666D01*
X6813956Y7743850D01*
X6543852Y8013953D01*
X6541668Y8017256D01*
X6540906Y8021116D01*
X6540906Y8449157D01*
X6541770Y8453221D01*
X6544157Y8456625D01*
X6547764Y8458758D01*
X6554419Y8461044D01*
X6559296Y8464143D01*
X6563410Y8468207D01*
X6566458Y8473135D01*
X6568389Y8478570D01*
X6569100Y8484920D01*
X6569100Y8564422D01*
X6568389Y8570722D01*
X6566458Y8576208D01*
X6563410Y8581085D01*
X6559296Y8585200D01*
X6554419Y8588248D01*
X6548323Y8590381D01*
X6544767Y8592515D01*
X6542379Y8595918D01*
X6541516Y8599982D01*
X6542379Y8604046D01*
X6544767Y8607450D01*
X6548323Y8609584D01*
X6554419Y8611717D01*
X6559296Y8614765D01*
X6563410Y8618880D01*
X6566458Y8623757D01*
X6568389Y8629243D01*
X6569100Y8635542D01*
X6569100Y8715044D01*
X6568389Y8721394D01*
X6566458Y8726830D01*
X6563410Y8731758D01*
X6559296Y8735822D01*
X6554419Y8738870D01*
X6547662Y8741206D01*
X6544056Y8743340D01*
X6541617Y8746744D01*
X6540754Y8750808D01*
X6540754Y8978849D01*
X6541566Y8982710D01*
X6543751Y8986012D01*
X6813803Y9256064D01*
X6817106Y9258249D01*
X6820966Y9259062D01*
X8178749Y9259062D01*
X8182609Y9258300D01*
X8185912Y9256064D01*
X8456218Y8986012D01*
X8458403Y8982710D01*
X8459216Y8978798D01*
X8459216Y8750808D01*
X8458352Y8746744D01*
X8455914Y8743340D01*
X8452307Y8741206D01*
X8445550Y8738870D01*
X8440674Y8735822D01*
X8436559Y8731758D01*
X8433511Y8726830D01*
X8431580Y8721394D01*
X8430869Y8715044D01*
X8430869Y8635542D01*
X8431580Y8629243D01*
X8433511Y8623757D01*
X8436559Y8618880D01*
X8440674Y8614765D01*
X8445550Y8611717D01*
X8451646Y8609584D01*
X8455202Y8607450D01*
X8457590Y8604046D01*
X8458454Y8599982D01*
X8457590Y8595918D01*
X8455202Y8592515D01*
X8451646Y8590381D01*
X8445550Y8588248D01*
X8440674Y8585200D01*
X8436559Y8581085D01*
X8433511Y8576208D01*
X8432139Y8572347D01*
X8430006Y8568791D01*
X8426653Y8566404D01*
X8422589Y8565540D01*
X8153146Y8565540D01*
X8149386Y8566251D01*
X8146186Y8568334D01*
X8143951Y8571433D01*
X8142122Y8575344D01*
X8133130Y8590280D01*
X8122615Y8604148D01*
X8110626Y8616797D01*
X8097367Y8628075D01*
X8082940Y8637828D01*
X8067548Y8646007D01*
X8051342Y8652459D01*
X8034578Y8657132D01*
X8017357Y8659926D01*
X7999984Y8660892D01*
X7982610Y8659926D01*
X7965389Y8657132D01*
X7948625Y8652459D01*
X7932420Y8646007D01*
X7917027Y8637828D01*
X7902600Y8628075D01*
X7889341Y8616797D01*
X7877352Y8604148D01*
X7866837Y8590280D01*
X7857845Y8575344D01*
X7850530Y8559546D01*
X7844942Y8543036D01*
X7841234Y8526018D01*
X7839354Y8508695D01*
X7839354Y8491270D01*
X7841234Y8473948D01*
X7844942Y8456930D01*
X7850530Y8440420D01*
X7857845Y8424621D01*
X7866837Y8409686D01*
X7877352Y8395817D01*
X7889341Y8383168D01*
X7902600Y8371890D01*
X7917027Y8362137D01*
X7932420Y8353958D01*
X7948625Y8347506D01*
X7965389Y8342833D01*
X7982610Y8340039D01*
X7999984Y8339074D01*
X8017357Y8340039D01*
X8034578Y8342833D01*
X8051342Y8347506D01*
X8067548Y8353958D01*
X8082940Y8362137D01*
X8097367Y8371890D01*
X8110626Y8383168D01*
X8122615Y8395817D01*
X8133130Y8409686D01*
X8142122Y8424621D01*
X8149437Y8440420D01*
X8155025Y8456930D01*
X8158784Y8473948D01*
X8159902Y8478215D01*
X8162137Y8481161D01*
X8165287Y8483092D01*
X8168944Y8483752D01*
X8422589Y8483752D01*
X8426653Y8482888D01*
X8430006Y8480501D01*
X8432139Y8476945D01*
X8433511Y8473135D01*
X8436559Y8468207D01*
X8440674Y8464143D01*
X8445550Y8461095D01*
X8452307Y8458758D01*
X8455914Y8456625D01*
X8458352Y8453221D01*
X8459216Y8449157D01*
X8459216Y7800594D01*
X8460028Y7792110D01*
X8462365Y7784439D01*
X8466124Y7777378D01*
X8471509Y7770825D01*
X8484057Y7758277D01*
X8486292Y7754975D01*
X8487054Y7751064D01*
X8486292Y7747203D01*
X8484057Y7743901D01*
X8480755Y7741666D01*
X8476894Y7740903D01*
G37*

%LPC*%
G36*
X8073847Y8827312D02*
G01*
X8082940Y8832138D01*
X8097367Y8841892D01*
X8110626Y8853170D01*
X8122615Y8865819D01*
X8133130Y8879687D01*
X8142122Y8894622D01*
X8142833Y8896146D01*
X8073847Y8896146D01*
G37*
G36*
X7926120Y8827312D02*
G01*
X7926120Y8896146D01*
X7857134Y8896146D01*
X7857845Y8894622D01*
X7866837Y8879687D01*
X7877352Y8865819D01*
X7889341Y8853170D01*
X7902600Y8841892D01*
X7917027Y8832138D01*
G37*
G36*
X8073847Y9043822D02*
G01*
X8142833Y9043822D01*
X8142122Y9045346D01*
X8133130Y9060281D01*
X8122615Y9074150D01*
X8110626Y9086799D01*
X8097367Y9098076D01*
X8082940Y9107830D01*
X8073847Y9112656D01*
G37*
G36*
X7857134Y9043822D02*
G01*
X7926120Y9043822D01*
X7926120Y9112656D01*
X7917027Y9107830D01*
X7902600Y9098076D01*
X7889341Y9086799D01*
X7877352Y9074150D01*
X7866837Y9060281D01*
X7857845Y9045346D01*
G37*
G36*
X7999984Y7869072D02*
G01*
X8017357Y7870037D01*
X8034578Y7872831D01*
X8051342Y7877505D01*
X8067548Y7883956D01*
X8082940Y7892135D01*
X8097367Y7901889D01*
X8110626Y7913166D01*
X8122615Y7925816D01*
X8133130Y7939684D01*
X8142122Y7954619D01*
X8149437Y7970418D01*
X8155025Y7986928D01*
X8158734Y8003946D01*
X8160613Y8021269D01*
X8160613Y8038693D01*
X8158734Y8056016D01*
X8155025Y8073034D01*
X8149437Y8089544D01*
X8142122Y8105343D01*
X8133130Y8120278D01*
X8122615Y8134146D01*
X8110626Y8146796D01*
X8097367Y8158073D01*
X8082940Y8167827D01*
X8067548Y8176006D01*
X8051342Y8182457D01*
X8034578Y8187131D01*
X8017357Y8189925D01*
X7999984Y8190890D01*
X7982559Y8189925D01*
X7965389Y8187131D01*
X7948625Y8182457D01*
X7932420Y8176006D01*
X7917027Y8167827D01*
X7902600Y8158073D01*
X7889341Y8146796D01*
X7877352Y8134146D01*
X7866786Y8120278D01*
X7857845Y8105343D01*
X7850530Y8089544D01*
X7844942Y8073034D01*
X7841183Y8056016D01*
X7839303Y8038693D01*
X7839303Y8021269D01*
X7841183Y8003946D01*
X7844942Y7986928D01*
X7850530Y7970418D01*
X7857845Y7954619D01*
X7866786Y7939684D01*
X7877352Y7925816D01*
X7889341Y7913166D01*
X7902600Y7901889D01*
X7917027Y7892135D01*
X7932420Y7883956D01*
X7948625Y7877505D01*
X7965389Y7872831D01*
X7982559Y7870037D01*
G37*

%LPD*%
G36*
X4821123Y7640878D02*
G01*
X4817262Y7641640D01*
X4813960Y7643875D01*
X4543856Y7913928D01*
X4541672Y7917230D01*
X4540910Y7921142D01*
X4540910Y8449157D01*
X4541774Y8453221D01*
X4544161Y8456625D01*
X4547768Y8458758D01*
X4554423Y8461044D01*
X4559300Y8464143D01*
X4563414Y8468207D01*
X4566462Y8473135D01*
X4568393Y8478570D01*
X4569104Y8484920D01*
X4569104Y8564422D01*
X4568393Y8570722D01*
X4566462Y8576208D01*
X4563414Y8581085D01*
X4559300Y8585200D01*
X4554423Y8588248D01*
X4548327Y8590381D01*
X4544771Y8592515D01*
X4542383Y8595918D01*
X4541520Y8599982D01*
X4542383Y8604046D01*
X4544771Y8607450D01*
X4548327Y8609584D01*
X4554423Y8611717D01*
X4559300Y8614765D01*
X4563414Y8618880D01*
X4566462Y8623757D01*
X4568393Y8629243D01*
X4569104Y8635542D01*
X4569104Y8715044D01*
X4568393Y8721394D01*
X4566462Y8726830D01*
X4563414Y8731758D01*
X4559300Y8735822D01*
X4554423Y8738920D01*
X4547819Y8741206D01*
X4544263Y8743340D01*
X4541875Y8746744D01*
X4541012Y8750808D01*
X4541012Y8978849D01*
X4541824Y8982710D01*
X4544009Y8986012D01*
X4814062Y9256064D01*
X4817364Y9258249D01*
X4821224Y9259062D01*
X6676542Y9259062D01*
X6680453Y9258249D01*
X6683705Y9256064D01*
X6685940Y9252762D01*
X6686702Y9248902D01*
X6685940Y9244990D01*
X6683705Y9241688D01*
X6471310Y9029242D01*
X6465874Y9022689D01*
X6462115Y9015628D01*
X6459778Y9007957D01*
X6458966Y8999474D01*
X6458966Y8750808D01*
X6458102Y8746744D01*
X6455714Y8743340D01*
X6452158Y8741206D01*
X6445554Y8738920D01*
X6440678Y8735822D01*
X6436563Y8731758D01*
X6433515Y8726830D01*
X6431584Y8721394D01*
X6430873Y8715044D01*
X6430873Y8635542D01*
X6431584Y8629243D01*
X6433515Y8623757D01*
X6436563Y8618880D01*
X6440678Y8614765D01*
X6445554Y8611717D01*
X6451650Y8609584D01*
X6455206Y8607450D01*
X6457594Y8604046D01*
X6458458Y8599982D01*
X6457594Y8595918D01*
X6455206Y8592515D01*
X6451650Y8590381D01*
X6445554Y8588248D01*
X6440678Y8585200D01*
X6436563Y8581085D01*
X6433515Y8576208D01*
X6432143Y8572347D01*
X6430010Y8568791D01*
X6426657Y8566404D01*
X6422593Y8565540D01*
X6153150Y8565540D01*
X6149390Y8566251D01*
X6146190Y8568334D01*
X6143955Y8571433D01*
X6142126Y8575344D01*
X6133134Y8590280D01*
X6122619Y8604148D01*
X6110630Y8616797D01*
X6097371Y8628075D01*
X6082944Y8637828D01*
X6067552Y8646007D01*
X6051346Y8652459D01*
X6034582Y8657132D01*
X6017361Y8659926D01*
X5999988Y8660892D01*
X5982614Y8659926D01*
X5965393Y8657132D01*
X5948629Y8652459D01*
X5932424Y8646007D01*
X5917031Y8637828D01*
X5902604Y8628075D01*
X5889345Y8616797D01*
X5877356Y8604148D01*
X5866841Y8590280D01*
X5857849Y8575344D01*
X5850534Y8559546D01*
X5844946Y8543036D01*
X5841238Y8526018D01*
X5839358Y8508695D01*
X5839358Y8491270D01*
X5841238Y8473948D01*
X5844946Y8456930D01*
X5850534Y8440420D01*
X5857849Y8424621D01*
X5866841Y8409686D01*
X5877356Y8395817D01*
X5889345Y8383168D01*
X5902604Y8371890D01*
X5917031Y8362137D01*
X5932424Y8353958D01*
X5948629Y8347506D01*
X5965393Y8342833D01*
X5982614Y8340039D01*
X5999988Y8339074D01*
X6017361Y8340039D01*
X6034582Y8342833D01*
X6051346Y8347506D01*
X6067552Y8353958D01*
X6082944Y8362137D01*
X6097371Y8371890D01*
X6110630Y8383168D01*
X6122619Y8395817D01*
X6133134Y8409686D01*
X6142126Y8424621D01*
X6149441Y8440420D01*
X6155029Y8456930D01*
X6158788Y8473948D01*
X6159906Y8478215D01*
X6162141Y8481161D01*
X6165291Y8483092D01*
X6168948Y8483752D01*
X6422593Y8483752D01*
X6426657Y8482888D01*
X6430010Y8480501D01*
X6432143Y8476945D01*
X6433515Y8473135D01*
X6436563Y8468207D01*
X6440678Y8464143D01*
X6445554Y8461044D01*
X6452209Y8458758D01*
X6455816Y8456625D01*
X6458204Y8453221D01*
X6459067Y8449157D01*
X6459067Y8000492D01*
X6459931Y7992008D01*
X6462217Y7984337D01*
X6466027Y7977276D01*
X6471412Y7970723D01*
X6770725Y7671409D01*
X6777278Y7666024D01*
X6784340Y7662214D01*
X6789166Y7660792D01*
X6792772Y7658811D01*
X6795312Y7655610D01*
X6796379Y7651597D01*
X6795770Y7647584D01*
X6793585Y7644079D01*
X6790232Y7641742D01*
X6786219Y7640878D01*
G37*

%LPC*%
G36*
X5857138Y9043822D02*
G01*
X5926124Y9043822D01*
X5926124Y9112656D01*
X5917031Y9107830D01*
X5902604Y9098076D01*
X5889345Y9086799D01*
X5877356Y9074150D01*
X5866841Y9060281D01*
X5857849Y9045346D01*
G37*
G36*
X6073851Y8827312D02*
G01*
X6082944Y8832138D01*
X6097371Y8841892D01*
X6110630Y8853170D01*
X6122619Y8865819D01*
X6133134Y8879687D01*
X6142126Y8894622D01*
X6142837Y8896146D01*
X6073851Y8896146D01*
G37*
G36*
X5999988Y7869072D02*
G01*
X6017361Y7870037D01*
X6034582Y7872831D01*
X6051346Y7877505D01*
X6067552Y7883956D01*
X6082944Y7892135D01*
X6097371Y7901889D01*
X6110630Y7913166D01*
X6122619Y7925816D01*
X6133134Y7939684D01*
X6142126Y7954619D01*
X6149441Y7970418D01*
X6155029Y7986928D01*
X6158738Y8003946D01*
X6160617Y8021269D01*
X6160617Y8038693D01*
X6158738Y8056016D01*
X6155029Y8073034D01*
X6149441Y8089544D01*
X6142126Y8105343D01*
X6133134Y8120278D01*
X6122619Y8134146D01*
X6110630Y8146796D01*
X6097371Y8158073D01*
X6082944Y8167827D01*
X6067552Y8176006D01*
X6051346Y8182457D01*
X6034582Y8187131D01*
X6017361Y8189925D01*
X5999988Y8190890D01*
X5982563Y8189925D01*
X5965393Y8187131D01*
X5948629Y8182457D01*
X5932424Y8176006D01*
X5917031Y8167827D01*
X5902604Y8158073D01*
X5889345Y8146796D01*
X5877356Y8134146D01*
X5866790Y8120278D01*
X5857849Y8105343D01*
X5850534Y8089544D01*
X5844946Y8073034D01*
X5841187Y8056016D01*
X5839307Y8038693D01*
X5839307Y8021269D01*
X5841187Y8003946D01*
X5844946Y7986928D01*
X5850534Y7970418D01*
X5857849Y7954619D01*
X5866790Y7939684D01*
X5877356Y7925816D01*
X5889345Y7913166D01*
X5902604Y7901889D01*
X5917031Y7892135D01*
X5932424Y7883956D01*
X5948629Y7877505D01*
X5965393Y7872831D01*
X5982563Y7870037D01*
G37*
G36*
X5926124Y8827312D02*
G01*
X5926124Y8896146D01*
X5857138Y8896146D01*
X5857849Y8894622D01*
X5866841Y8879687D01*
X5877356Y8865819D01*
X5889345Y8853170D01*
X5902604Y8841892D01*
X5917031Y8832138D01*
G37*
G36*
X6073851Y9043822D02*
G01*
X6142837Y9043822D01*
X6142126Y9045346D01*
X6133134Y9060281D01*
X6122619Y9074150D01*
X6110630Y9086799D01*
X6097371Y9098076D01*
X6082944Y9107830D01*
X6073851Y9112656D01*
G37*

%LPD*%
G36*
X2821228Y7540752D02*
G01*
X2817368Y7541514D01*
X2814066Y7543749D01*
X2543759Y7814056D01*
X2541524Y7817358D01*
X2540762Y7821218D01*
X2540762Y8449157D01*
X2541625Y8453221D01*
X2544064Y8456625D01*
X2547670Y8458758D01*
X2554427Y8461095D01*
X2559304Y8464143D01*
X2563418Y8468207D01*
X2566466Y8473135D01*
X2568397Y8478570D01*
X2569108Y8484920D01*
X2569108Y8564422D01*
X2568397Y8570722D01*
X2566466Y8576208D01*
X2563418Y8581085D01*
X2559304Y8585200D01*
X2554427Y8588248D01*
X2548331Y8590381D01*
X2544775Y8592515D01*
X2542387Y8595918D01*
X2541524Y8599982D01*
X2542387Y8604046D01*
X2544775Y8607450D01*
X2548331Y8609584D01*
X2554427Y8611717D01*
X2559304Y8614765D01*
X2563418Y8618880D01*
X2566466Y8623757D01*
X2568397Y8629243D01*
X2569108Y8635542D01*
X2569108Y8715044D01*
X2568397Y8721394D01*
X2566466Y8726830D01*
X2563418Y8731758D01*
X2559304Y8735822D01*
X2554427Y8738870D01*
X2547670Y8741206D01*
X2544064Y8743340D01*
X2541625Y8746744D01*
X2540762Y8750808D01*
X2540762Y8978798D01*
X2541574Y8982710D01*
X2543759Y8986012D01*
X2814066Y9256064D01*
X2817368Y9258300D01*
X2821228Y9259062D01*
X4676800Y9259062D01*
X4680712Y9258249D01*
X4683963Y9256064D01*
X4686198Y9252762D01*
X4686960Y9248902D01*
X4686198Y9244990D01*
X4683963Y9241688D01*
X4471568Y9029242D01*
X4466132Y9022689D01*
X4462373Y9015628D01*
X4460036Y9007957D01*
X4459224Y8999474D01*
X4459224Y8750808D01*
X4458360Y8746744D01*
X4455922Y8743340D01*
X4452315Y8741206D01*
X4445558Y8738870D01*
X4440682Y8735822D01*
X4436567Y8731758D01*
X4433519Y8726830D01*
X4431588Y8721394D01*
X4430877Y8715044D01*
X4430877Y8635542D01*
X4431588Y8629243D01*
X4433519Y8623757D01*
X4436567Y8618880D01*
X4440682Y8614765D01*
X4445558Y8611717D01*
X4451654Y8609584D01*
X4455210Y8607450D01*
X4457598Y8604046D01*
X4458462Y8599982D01*
X4457598Y8595918D01*
X4455210Y8592515D01*
X4451654Y8590381D01*
X4445558Y8588248D01*
X4440682Y8585200D01*
X4436567Y8581085D01*
X4433519Y8576208D01*
X4432147Y8572347D01*
X4430014Y8568791D01*
X4426661Y8566404D01*
X4422597Y8565540D01*
X4153154Y8565540D01*
X4149394Y8566251D01*
X4146194Y8568334D01*
X4143959Y8571433D01*
X4142130Y8575344D01*
X4133189Y8590280D01*
X4122623Y8604148D01*
X4110634Y8616797D01*
X4097375Y8628075D01*
X4082948Y8637828D01*
X4067556Y8646007D01*
X4051350Y8652459D01*
X4034586Y8657132D01*
X4017416Y8659926D01*
X3999992Y8660892D01*
X3982618Y8659926D01*
X3965397Y8657132D01*
X3948633Y8652459D01*
X3932428Y8646007D01*
X3917035Y8637828D01*
X3902608Y8628075D01*
X3889349Y8616797D01*
X3877360Y8604148D01*
X3866845Y8590280D01*
X3857853Y8575344D01*
X3850538Y8559546D01*
X3844950Y8543036D01*
X3841242Y8526018D01*
X3839362Y8508695D01*
X3839362Y8491270D01*
X3841242Y8473948D01*
X3844950Y8456930D01*
X3850538Y8440420D01*
X3857853Y8424621D01*
X3866845Y8409686D01*
X3877360Y8395817D01*
X3889349Y8383168D01*
X3902608Y8371890D01*
X3917035Y8362137D01*
X3932428Y8353958D01*
X3948633Y8347506D01*
X3965397Y8342833D01*
X3982618Y8340039D01*
X3999992Y8339074D01*
X4017416Y8340039D01*
X4034586Y8342833D01*
X4051350Y8347506D01*
X4067556Y8353958D01*
X4082948Y8362137D01*
X4097375Y8371890D01*
X4110634Y8383168D01*
X4122623Y8395817D01*
X4133189Y8409686D01*
X4142130Y8424621D01*
X4149445Y8440420D01*
X4155033Y8456930D01*
X4158792Y8473948D01*
X4159910Y8478215D01*
X4162145Y8481161D01*
X4165295Y8483092D01*
X4168952Y8483752D01*
X4422597Y8483752D01*
X4426661Y8482888D01*
X4430014Y8480501D01*
X4432147Y8476945D01*
X4433519Y8473135D01*
X4436567Y8468207D01*
X4440682Y8464143D01*
X4445558Y8461044D01*
X4452213Y8458758D01*
X4455820Y8456625D01*
X4458208Y8453221D01*
X4459071Y8449157D01*
X4459071Y7900466D01*
X4459935Y7892034D01*
X4462221Y7884363D01*
X4466031Y7877302D01*
X4471416Y7870698D01*
X4770729Y7571435D01*
X4777282Y7565999D01*
X4784344Y7562240D01*
X4789576Y7560665D01*
X4793183Y7558684D01*
X4795723Y7555484D01*
X4796790Y7551470D01*
X4796180Y7547457D01*
X4794046Y7543952D01*
X4790643Y7541615D01*
X4786630Y7540752D01*
G37*

%LPC*%
G36*
X3926128Y8827312D02*
G01*
X3926128Y8896146D01*
X3857142Y8896146D01*
X3857853Y8894622D01*
X3866845Y8879687D01*
X3877360Y8865819D01*
X3889349Y8853170D01*
X3902608Y8841892D01*
X3917035Y8832138D01*
G37*
G36*
X3857142Y9043822D02*
G01*
X3926128Y9043822D01*
X3926128Y9112656D01*
X3917035Y9107830D01*
X3902608Y9098076D01*
X3889349Y9086799D01*
X3877360Y9074150D01*
X3866845Y9060281D01*
X3857853Y9045346D01*
G37*
G36*
X4073855Y9043822D02*
G01*
X4142841Y9043822D01*
X4142130Y9045346D01*
X4133138Y9060281D01*
X4122623Y9074150D01*
X4110634Y9086799D01*
X4097375Y9098076D01*
X4082948Y9107830D01*
X4073855Y9112656D01*
G37*
G36*
X4073855Y8827312D02*
G01*
X4082948Y8832138D01*
X4097375Y8841892D01*
X4110634Y8853170D01*
X4122623Y8865819D01*
X4133138Y8879687D01*
X4142130Y8894622D01*
X4142841Y8896146D01*
X4073855Y8896146D01*
G37*
G36*
X3999992Y7869072D02*
G01*
X4017365Y7870037D01*
X4034586Y7872831D01*
X4051350Y7877505D01*
X4067556Y7883956D01*
X4082948Y7892135D01*
X4097375Y7901889D01*
X4110634Y7913166D01*
X4122623Y7925816D01*
X4133138Y7939684D01*
X4142130Y7954619D01*
X4149445Y7970418D01*
X4155033Y7986928D01*
X4158742Y8003946D01*
X4160672Y8021269D01*
X4160672Y8038693D01*
X4158742Y8056016D01*
X4155033Y8073034D01*
X4149445Y8089544D01*
X4142130Y8105343D01*
X4133138Y8120278D01*
X4122623Y8134146D01*
X4110634Y8146796D01*
X4097375Y8158073D01*
X4082948Y8167827D01*
X4067556Y8176006D01*
X4051350Y8182457D01*
X4034586Y8187080D01*
X4017365Y8189925D01*
X3999992Y8190890D01*
X3982618Y8189925D01*
X3965397Y8187080D01*
X3948633Y8182457D01*
X3932428Y8176006D01*
X3917035Y8167827D01*
X3902608Y8158073D01*
X3889349Y8146796D01*
X3877360Y8134146D01*
X3866845Y8120278D01*
X3857853Y8105343D01*
X3850538Y8089544D01*
X3844950Y8073034D01*
X3841242Y8056016D01*
X3839311Y8038693D01*
X3839311Y8021269D01*
X3841242Y8003946D01*
X3844950Y7986928D01*
X3850538Y7970418D01*
X3857853Y7954619D01*
X3866845Y7939684D01*
X3877360Y7925816D01*
X3889349Y7913166D01*
X3902608Y7901889D01*
X3917035Y7892135D01*
X3932428Y7883956D01*
X3948633Y7877505D01*
X3965397Y7872831D01*
X3982618Y7870037D01*
G37*

%LPD*%
G36*
X4821123Y5540908D02*
G01*
X4817262Y5541670D01*
X4813960Y5543854D01*
X4544009Y5814060D01*
X4541774Y5817362D01*
X4541012Y5821222D01*
X4541012Y6249162D01*
X4541875Y6253226D01*
X4544263Y6256629D01*
X4547819Y6258763D01*
X4554423Y6261049D01*
X4559300Y6264148D01*
X4563414Y6268212D01*
X4566462Y6273139D01*
X4568393Y6278575D01*
X4569104Y6284925D01*
X4569104Y6364427D01*
X4568393Y6370726D01*
X4566462Y6376212D01*
X4563414Y6381089D01*
X4559300Y6385204D01*
X4554423Y6388252D01*
X4548327Y6390386D01*
X4544771Y6392519D01*
X4542383Y6395923D01*
X4541520Y6399987D01*
X4542383Y6404051D01*
X4544771Y6407454D01*
X4548327Y6409588D01*
X4554423Y6411722D01*
X4559300Y6414770D01*
X4563414Y6418884D01*
X4566462Y6423761D01*
X4568393Y6429248D01*
X4569104Y6435547D01*
X4569104Y6515049D01*
X4568393Y6521399D01*
X4566462Y6526834D01*
X4563414Y6531762D01*
X4559300Y6535826D01*
X4554423Y6538925D01*
X4547819Y6541211D01*
X4544263Y6543344D01*
X4541875Y6546748D01*
X4541012Y6550812D01*
X4541012Y6978853D01*
X4541824Y6982714D01*
X4544009Y6986016D01*
X4814062Y7256068D01*
X4817364Y7258253D01*
X4821224Y7259066D01*
X6786575Y7259066D01*
X6790588Y7258202D01*
X6793941Y7255865D01*
X6796125Y7252360D01*
X6796735Y7248296D01*
X6795668Y7244334D01*
X6793128Y7241133D01*
X6789521Y7239152D01*
X6784492Y7237628D01*
X6777380Y7233869D01*
X6770827Y7228484D01*
X6471310Y6929221D01*
X6465874Y6922617D01*
X6462115Y6915556D01*
X6459778Y6907885D01*
X6458966Y6899452D01*
X6458966Y6550812D01*
X6458102Y6546748D01*
X6455714Y6543344D01*
X6452158Y6541211D01*
X6445554Y6538925D01*
X6440678Y6535826D01*
X6436563Y6531762D01*
X6433515Y6526834D01*
X6432143Y6523024D01*
X6430010Y6519468D01*
X6426657Y6517081D01*
X6422593Y6516217D01*
X6168948Y6516217D01*
X6165291Y6516878D01*
X6162141Y6518808D01*
X6159906Y6521754D01*
X6158788Y6526022D01*
X6155029Y6543040D01*
X6149441Y6559550D01*
X6142126Y6575348D01*
X6133134Y6590284D01*
X6122619Y6604152D01*
X6110630Y6616801D01*
X6097371Y6628079D01*
X6082944Y6637832D01*
X6067552Y6646011D01*
X6051346Y6652463D01*
X6034582Y6657136D01*
X6017361Y6659930D01*
X5999988Y6660896D01*
X5982614Y6659930D01*
X5965393Y6657136D01*
X5948629Y6652463D01*
X5932424Y6646011D01*
X5917031Y6637832D01*
X5902604Y6628079D01*
X5889345Y6616801D01*
X5877356Y6604152D01*
X5866841Y6590284D01*
X5857849Y6575348D01*
X5850534Y6559550D01*
X5844946Y6543040D01*
X5841238Y6526022D01*
X5839358Y6508699D01*
X5839358Y6491274D01*
X5841238Y6473952D01*
X5844946Y6456934D01*
X5850534Y6440424D01*
X5857849Y6424625D01*
X5866841Y6409690D01*
X5877356Y6395821D01*
X5889345Y6383172D01*
X5902604Y6371894D01*
X5917031Y6362141D01*
X5932424Y6353962D01*
X5948629Y6347510D01*
X5965393Y6342837D01*
X5982614Y6340043D01*
X5999988Y6339078D01*
X6017361Y6340043D01*
X6034582Y6342837D01*
X6051346Y6347510D01*
X6067552Y6353962D01*
X6082944Y6362141D01*
X6097371Y6371894D01*
X6110630Y6383172D01*
X6122619Y6395821D01*
X6133134Y6409690D01*
X6142126Y6424625D01*
X6143955Y6428536D01*
X6146190Y6431635D01*
X6149390Y6433718D01*
X6153150Y6434429D01*
X6422593Y6434429D01*
X6426657Y6433566D01*
X6430010Y6431178D01*
X6432143Y6427622D01*
X6433515Y6423761D01*
X6436563Y6418884D01*
X6440678Y6414770D01*
X6445554Y6411722D01*
X6451650Y6409588D01*
X6455206Y6407454D01*
X6457594Y6404051D01*
X6458458Y6399987D01*
X6457594Y6395923D01*
X6455206Y6392519D01*
X6451650Y6390386D01*
X6445554Y6388252D01*
X6440678Y6385204D01*
X6436563Y6381089D01*
X6433515Y6376212D01*
X6431584Y6370726D01*
X6430873Y6364427D01*
X6430873Y6284925D01*
X6431584Y6278575D01*
X6433515Y6273139D01*
X6436563Y6268212D01*
X6440678Y6264148D01*
X6445554Y6261049D01*
X6452158Y6258763D01*
X6455714Y6256629D01*
X6458102Y6253226D01*
X6458966Y6249162D01*
X6458966Y5800598D01*
X6459778Y5792114D01*
X6462115Y5784443D01*
X6465874Y5777382D01*
X6471310Y5770829D01*
X6683857Y5558231D01*
X6686042Y5554929D01*
X6686854Y5551068D01*
X6686042Y5547156D01*
X6683857Y5543854D01*
X6680555Y5541670D01*
X6676694Y5540908D01*
G37*

%LPC*%
G36*
X5926124Y6827316D02*
G01*
X5926124Y6896150D01*
X5857138Y6896150D01*
X5857849Y6894626D01*
X5866841Y6879691D01*
X5877356Y6865823D01*
X5889345Y6853174D01*
X5902604Y6841896D01*
X5917031Y6832142D01*
G37*
G36*
X6073851Y6827316D02*
G01*
X6082944Y6832142D01*
X6097371Y6841896D01*
X6110630Y6853174D01*
X6122619Y6865823D01*
X6133134Y6879691D01*
X6142126Y6894626D01*
X6142837Y6896150D01*
X6073851Y6896150D01*
G37*
G36*
X6073851Y7043826D02*
G01*
X6142837Y7043826D01*
X6142126Y7045350D01*
X6133134Y7060285D01*
X6122619Y7074153D01*
X6110630Y7086803D01*
X6097371Y7098080D01*
X6082944Y7107834D01*
X6073851Y7112660D01*
G37*
G36*
X5857138Y7043826D02*
G01*
X5926124Y7043826D01*
X5926124Y7112660D01*
X5917031Y7107834D01*
X5902604Y7098080D01*
X5889345Y7086803D01*
X5877356Y7074153D01*
X5866841Y7060285D01*
X5857849Y7045350D01*
G37*
G36*
X5999988Y5869076D02*
G01*
X6017361Y5870041D01*
X6034582Y5872835D01*
X6051346Y5877509D01*
X6067552Y5883960D01*
X6082944Y5892139D01*
X6097371Y5901893D01*
X6110630Y5913170D01*
X6122619Y5925820D01*
X6133134Y5939688D01*
X6142126Y5954623D01*
X6149441Y5970422D01*
X6155029Y5986932D01*
X6158738Y6003950D01*
X6160617Y6021273D01*
X6160617Y6038697D01*
X6158738Y6056020D01*
X6155029Y6073038D01*
X6149441Y6089548D01*
X6142126Y6105347D01*
X6133134Y6120282D01*
X6122619Y6134150D01*
X6110630Y6146800D01*
X6097371Y6158077D01*
X6082944Y6167831D01*
X6067552Y6176010D01*
X6051346Y6182461D01*
X6034582Y6187135D01*
X6017361Y6189929D01*
X5999988Y6190894D01*
X5982563Y6189929D01*
X5965393Y6187135D01*
X5948629Y6182461D01*
X5932424Y6176010D01*
X5917031Y6167831D01*
X5902604Y6158077D01*
X5889345Y6146800D01*
X5877356Y6134150D01*
X5866790Y6120282D01*
X5857849Y6105347D01*
X5850534Y6089548D01*
X5844946Y6073038D01*
X5841187Y6056020D01*
X5839307Y6038697D01*
X5839307Y6021273D01*
X5841187Y6003950D01*
X5844946Y5986932D01*
X5850534Y5970422D01*
X5857849Y5954623D01*
X5866790Y5939688D01*
X5877356Y5925820D01*
X5889345Y5913170D01*
X5902604Y5901893D01*
X5917031Y5892139D01*
X5932424Y5883960D01*
X5948629Y5877509D01*
X5965393Y5872835D01*
X5982563Y5870041D01*
G37*

%LPD*%
G36*
X7978800Y5540756D02*
G01*
X7042658Y5540908D01*
X7039559Y5541365D01*
X7036816Y5542737D01*
X7028180Y5548782D01*
X7019239Y5552948D01*
X7009790Y5555488D01*
X6999986Y5556351D01*
X6990181Y5555488D01*
X6980732Y5552948D01*
X6971792Y5548782D01*
X6963156Y5542737D01*
X6960412Y5541365D01*
X6957314Y5540908D01*
X6821119Y5540908D01*
X6817207Y5541670D01*
X6813905Y5543854D01*
X6543751Y5814060D01*
X6541566Y5817362D01*
X6540754Y5821222D01*
X6540754Y6249162D01*
X6541617Y6253226D01*
X6544056Y6256629D01*
X6547662Y6258763D01*
X6554419Y6261100D01*
X6559296Y6264148D01*
X6563410Y6268212D01*
X6566458Y6273139D01*
X6568389Y6278575D01*
X6569100Y6284925D01*
X6569100Y6364427D01*
X6568389Y6370726D01*
X6566458Y6376212D01*
X6563410Y6381089D01*
X6559296Y6385204D01*
X6554419Y6388252D01*
X6548323Y6390386D01*
X6544767Y6392519D01*
X6542379Y6395923D01*
X6541516Y6399987D01*
X6542379Y6404051D01*
X6544767Y6407454D01*
X6548323Y6409588D01*
X6554419Y6411722D01*
X6559296Y6414770D01*
X6563410Y6418884D01*
X6566458Y6423761D01*
X6568389Y6429248D01*
X6569100Y6435547D01*
X6569100Y6515049D01*
X6568389Y6521399D01*
X6566458Y6526834D01*
X6563410Y6531762D01*
X6559296Y6535826D01*
X6554419Y6538874D01*
X6547662Y6541211D01*
X6544056Y6543344D01*
X6541617Y6546748D01*
X6540754Y6550812D01*
X6540754Y6878726D01*
X6541566Y6882638D01*
X6543751Y6885940D01*
X6814058Y7155992D01*
X6817359Y7158228D01*
X6821220Y7158990D01*
X8478977Y7158990D01*
X8482838Y7158177D01*
X8486140Y7155992D01*
X8615984Y7026148D01*
X8618220Y7022846D01*
X8618982Y7018985D01*
X8619642Y5920841D01*
X8618880Y5916930D01*
X8616696Y5913628D01*
X8613394Y5911443D01*
X8609482Y5910630D01*
X8576208Y5910630D01*
X8569909Y5909919D01*
X8564422Y5908040D01*
X8559546Y5904941D01*
X8555431Y5900877D01*
X8552383Y5895949D01*
X8550452Y5890514D01*
X8549741Y5884164D01*
X8549741Y5818378D01*
X8548979Y5814517D01*
X8546744Y5811215D01*
X8479434Y5743854D01*
X8476132Y5741670D01*
X8472271Y5740908D01*
X8450834Y5740908D01*
X8446719Y5741771D01*
X8443366Y5744159D01*
X8441232Y5747766D01*
X8438896Y5754420D01*
X8435848Y5759297D01*
X8431733Y5763412D01*
X8426856Y5766460D01*
X8423046Y5767832D01*
X8419490Y5769965D01*
X8417052Y5773318D01*
X8416239Y5777382D01*
X8416239Y6124143D01*
X8415375Y6132626D01*
X8413089Y6140297D01*
X8409279Y6147358D01*
X8403894Y6153912D01*
X8144306Y6413500D01*
X8142071Y6416903D01*
X8141360Y6420967D01*
X8142274Y6424930D01*
X8149437Y6440424D01*
X8155025Y6456934D01*
X8158784Y6473952D01*
X8160664Y6491274D01*
X8160664Y6508699D01*
X8158784Y6526022D01*
X8155025Y6543040D01*
X8149437Y6559550D01*
X8142122Y6575348D01*
X8133130Y6590284D01*
X8122615Y6604152D01*
X8110626Y6616801D01*
X8097367Y6628079D01*
X8082940Y6637832D01*
X8067548Y6646011D01*
X8051342Y6652463D01*
X8034578Y6657136D01*
X8017357Y6659930D01*
X7999984Y6660896D01*
X7982610Y6659930D01*
X7965389Y6657136D01*
X7948625Y6652463D01*
X7932420Y6646011D01*
X7917027Y6637832D01*
X7902600Y6628079D01*
X7889341Y6616801D01*
X7877352Y6604152D01*
X7866837Y6590284D01*
X7857845Y6575348D01*
X7850530Y6559550D01*
X7844942Y6543040D01*
X7841234Y6526022D01*
X7839354Y6508699D01*
X7839354Y6491274D01*
X7841234Y6473952D01*
X7844942Y6456934D01*
X7850530Y6440424D01*
X7857845Y6424625D01*
X7866837Y6409690D01*
X7877352Y6395821D01*
X7889341Y6383172D01*
X7902600Y6371894D01*
X7917027Y6362141D01*
X7932420Y6353962D01*
X7948625Y6347510D01*
X7965389Y6342837D01*
X7982610Y6340043D01*
X7999984Y6339078D01*
X8017357Y6340043D01*
X8034578Y6342837D01*
X8051342Y6347510D01*
X8067548Y6353962D01*
X8074355Y6357569D01*
X8078520Y6358737D01*
X8082737Y6358128D01*
X8086344Y6355791D01*
X8331453Y6110681D01*
X8333638Y6107379D01*
X8334400Y6103518D01*
X8334400Y5777382D01*
X8333587Y5773318D01*
X8331149Y5769965D01*
X8327593Y5767832D01*
X8323783Y5766460D01*
X8318855Y5763412D01*
X8314791Y5759297D01*
X8311692Y5754420D01*
X8309559Y5748324D01*
X8307425Y5744768D01*
X8304022Y5742381D01*
X8300008Y5741517D01*
X8295944Y5742381D01*
X8292541Y5744768D01*
X8290407Y5748324D01*
X8288274Y5754420D01*
X8285175Y5759297D01*
X8281111Y5763412D01*
X8276183Y5766460D01*
X8270748Y5768390D01*
X8264398Y5769102D01*
X8184896Y5769102D01*
X8178596Y5768390D01*
X8173110Y5766460D01*
X8168233Y5763412D01*
X8164118Y5759297D01*
X8161070Y5754420D01*
X8159140Y5748934D01*
X8158429Y5742635D01*
X8158429Y5720588D01*
X8157667Y5716727D01*
X8155431Y5713425D01*
X7986014Y5543753D01*
X7982712Y5541568D01*
G37*

%LPC*%
G36*
X8073847Y7043826D02*
G01*
X8142833Y7043826D01*
X8142122Y7045350D01*
X8133130Y7060285D01*
X8122615Y7074153D01*
X8110626Y7086803D01*
X8097367Y7098080D01*
X8082940Y7107834D01*
X8073847Y7112660D01*
G37*
G36*
X7857134Y7043826D02*
G01*
X7926120Y7043826D01*
X7926120Y7112660D01*
X7917027Y7107834D01*
X7902600Y7098080D01*
X7889341Y7086803D01*
X7877352Y7074153D01*
X7866837Y7060285D01*
X7857845Y7045350D01*
G37*
G36*
X7999984Y5869076D02*
G01*
X8017357Y5870041D01*
X8034578Y5872835D01*
X8051342Y5877509D01*
X8067548Y5883960D01*
X8082940Y5892139D01*
X8097367Y5901893D01*
X8110626Y5913170D01*
X8122615Y5925820D01*
X8133130Y5939688D01*
X8142122Y5954623D01*
X8149437Y5970422D01*
X8155025Y5986932D01*
X8158734Y6003950D01*
X8160613Y6021273D01*
X8160613Y6038697D01*
X8158734Y6056020D01*
X8155025Y6073038D01*
X8149437Y6089548D01*
X8142122Y6105347D01*
X8133130Y6120282D01*
X8122615Y6134150D01*
X8110626Y6146800D01*
X8097367Y6158077D01*
X8082940Y6167831D01*
X8067548Y6176010D01*
X8051342Y6182461D01*
X8034578Y6187135D01*
X8017357Y6189929D01*
X7999984Y6190894D01*
X7982559Y6189929D01*
X7965389Y6187135D01*
X7948625Y6182461D01*
X7932420Y6176010D01*
X7917027Y6167831D01*
X7902600Y6158077D01*
X7889341Y6146800D01*
X7877352Y6134150D01*
X7866786Y6120282D01*
X7857845Y6105347D01*
X7850530Y6089548D01*
X7844942Y6073038D01*
X7841183Y6056020D01*
X7839303Y6038697D01*
X7839303Y6021273D01*
X7841183Y6003950D01*
X7844942Y5986932D01*
X7850530Y5970422D01*
X7857845Y5954623D01*
X7866786Y5939688D01*
X7877352Y5925820D01*
X7889341Y5913170D01*
X7902600Y5901893D01*
X7917027Y5892139D01*
X7932420Y5883960D01*
X7948625Y5877509D01*
X7965389Y5872835D01*
X7982559Y5870041D01*
G37*
G36*
X8073847Y6827316D02*
G01*
X8082940Y6832142D01*
X8097367Y6841896D01*
X8110626Y6853174D01*
X8122615Y6865823D01*
X8133130Y6879691D01*
X8142122Y6894626D01*
X8142833Y6896150D01*
X8073847Y6896150D01*
G37*
G36*
X7926120Y6827316D02*
G01*
X7926120Y6896150D01*
X7857134Y6896150D01*
X7857845Y6894626D01*
X7866837Y6879691D01*
X7877352Y6865823D01*
X7889341Y6853174D01*
X7902600Y6841896D01*
X7917027Y6832142D01*
G37*

%LPD*%
G36*
X2821228Y5540756D02*
G01*
X2817368Y5541518D01*
X2814066Y5543753D01*
X2543759Y5814060D01*
X2541524Y5817362D01*
X2540762Y5821222D01*
X2540762Y6249162D01*
X2541625Y6253226D01*
X2544064Y6256629D01*
X2547670Y6258763D01*
X2554427Y6261100D01*
X2559304Y6264148D01*
X2563418Y6268212D01*
X2566466Y6273139D01*
X2568397Y6278575D01*
X2569108Y6284925D01*
X2569108Y6364427D01*
X2568397Y6370726D01*
X2566466Y6376212D01*
X2563418Y6381089D01*
X2559304Y6385204D01*
X2554427Y6388252D01*
X2548331Y6390386D01*
X2544775Y6392519D01*
X2542387Y6395923D01*
X2541524Y6399987D01*
X2542387Y6404051D01*
X2544775Y6407454D01*
X2548331Y6409588D01*
X2554427Y6411722D01*
X2559304Y6414770D01*
X2563418Y6418884D01*
X2566466Y6423761D01*
X2568397Y6429248D01*
X2569108Y6435547D01*
X2569108Y6515049D01*
X2568397Y6521399D01*
X2566466Y6526834D01*
X2563418Y6531762D01*
X2559304Y6535826D01*
X2554427Y6538874D01*
X2547670Y6541211D01*
X2544064Y6543344D01*
X2541625Y6546748D01*
X2540762Y6550812D01*
X2540762Y7078878D01*
X2541574Y7082790D01*
X2543759Y7086092D01*
X2814066Y7356144D01*
X2817368Y7358380D01*
X2821228Y7359142D01*
X4786579Y7359142D01*
X4790592Y7358278D01*
X4793945Y7355941D01*
X4796129Y7352436D01*
X4796739Y7348423D01*
X4795672Y7344409D01*
X4793132Y7341209D01*
X4789525Y7339228D01*
X4784445Y7337704D01*
X4777384Y7333945D01*
X4770831Y7328509D01*
X4471568Y7029246D01*
X4466132Y7022693D01*
X4462373Y7015632D01*
X4460036Y7007961D01*
X4459224Y6999478D01*
X4459224Y6550812D01*
X4458360Y6546748D01*
X4455922Y6543344D01*
X4452315Y6541211D01*
X4445558Y6538874D01*
X4440682Y6535826D01*
X4436567Y6531762D01*
X4433519Y6526834D01*
X4432147Y6523024D01*
X4430014Y6519468D01*
X4426661Y6517081D01*
X4422597Y6516217D01*
X4168952Y6516217D01*
X4165295Y6516878D01*
X4162145Y6518808D01*
X4159910Y6521754D01*
X4158792Y6526022D01*
X4155033Y6543040D01*
X4149445Y6559550D01*
X4142130Y6575348D01*
X4133138Y6590284D01*
X4122623Y6604152D01*
X4110634Y6616801D01*
X4097375Y6628079D01*
X4082948Y6637832D01*
X4067556Y6646011D01*
X4051350Y6652463D01*
X4034586Y6657136D01*
X4017365Y6659930D01*
X3999992Y6660896D01*
X3982618Y6659930D01*
X3965397Y6657136D01*
X3948633Y6652463D01*
X3932428Y6646011D01*
X3917035Y6637832D01*
X3902608Y6628079D01*
X3889349Y6616801D01*
X3877360Y6604152D01*
X3866845Y6590284D01*
X3857853Y6575348D01*
X3850538Y6559550D01*
X3844950Y6543040D01*
X3841242Y6526022D01*
X3839362Y6508699D01*
X3839362Y6491274D01*
X3841242Y6473952D01*
X3844950Y6456934D01*
X3850538Y6440424D01*
X3857853Y6424625D01*
X3866845Y6409690D01*
X3877360Y6395821D01*
X3889349Y6383172D01*
X3902608Y6371894D01*
X3917035Y6362141D01*
X3932428Y6353962D01*
X3948633Y6347510D01*
X3965397Y6342837D01*
X3982618Y6340043D01*
X3999992Y6339078D01*
X4017365Y6340043D01*
X4034586Y6342837D01*
X4051350Y6347510D01*
X4067556Y6353962D01*
X4082948Y6362141D01*
X4097375Y6371894D01*
X4110634Y6383172D01*
X4122623Y6395821D01*
X4133138Y6409690D01*
X4142130Y6424625D01*
X4143959Y6428536D01*
X4146194Y6431635D01*
X4149394Y6433718D01*
X4153154Y6434429D01*
X4422597Y6434429D01*
X4426661Y6433566D01*
X4430014Y6431178D01*
X4432147Y6427622D01*
X4433519Y6423761D01*
X4436567Y6418884D01*
X4440682Y6414770D01*
X4445558Y6411722D01*
X4451654Y6409588D01*
X4455210Y6407454D01*
X4457598Y6404051D01*
X4458462Y6399987D01*
X4457598Y6395923D01*
X4455210Y6392519D01*
X4451654Y6390386D01*
X4445558Y6388252D01*
X4440682Y6385204D01*
X4436567Y6381089D01*
X4433519Y6376212D01*
X4431588Y6370726D01*
X4430877Y6364427D01*
X4430877Y6284925D01*
X4431588Y6278575D01*
X4433519Y6273139D01*
X4436567Y6268212D01*
X4440682Y6264148D01*
X4445558Y6261100D01*
X4452315Y6258763D01*
X4455922Y6256629D01*
X4458360Y6253226D01*
X4459224Y6249162D01*
X4459224Y5800598D01*
X4460036Y5792114D01*
X4462373Y5784494D01*
X4466132Y5777382D01*
X4471517Y5770829D01*
X4683912Y5558231D01*
X4686147Y5554929D01*
X4686909Y5551068D01*
X4686147Y5547156D01*
X4683912Y5543854D01*
X4680661Y5541670D01*
X4676749Y5540908D01*
X3000502Y5540908D01*
X2998724Y5540756D01*
G37*

%LPC*%
G36*
X3857142Y7043826D02*
G01*
X3926128Y7043826D01*
X3926128Y7112660D01*
X3917035Y7107834D01*
X3902608Y7098080D01*
X3889349Y7086803D01*
X3877360Y7074153D01*
X3866845Y7060285D01*
X3857853Y7045350D01*
G37*
G36*
X4073855Y6827316D02*
G01*
X4082948Y6832142D01*
X4097375Y6841896D01*
X4110634Y6853174D01*
X4122623Y6865823D01*
X4133138Y6879691D01*
X4142130Y6894626D01*
X4142841Y6896150D01*
X4073855Y6896150D01*
G37*
G36*
X3926128Y6827316D02*
G01*
X3926128Y6896150D01*
X3857142Y6896150D01*
X3857853Y6894626D01*
X3866845Y6879691D01*
X3877360Y6865823D01*
X3889349Y6853174D01*
X3902608Y6841896D01*
X3917035Y6832142D01*
G37*
G36*
X4073855Y7043826D02*
G01*
X4142841Y7043826D01*
X4142130Y7045350D01*
X4133138Y7060285D01*
X4122623Y7074153D01*
X4110634Y7086803D01*
X4097375Y7098080D01*
X4082948Y7107834D01*
X4073855Y7112660D01*
G37*
G36*
X3999992Y5869076D02*
G01*
X4017365Y5870041D01*
X4034586Y5872835D01*
X4051350Y5877509D01*
X4067556Y5883960D01*
X4082948Y5892139D01*
X4097375Y5901893D01*
X4110634Y5913170D01*
X4122623Y5925820D01*
X4133138Y5939688D01*
X4142130Y5954623D01*
X4149445Y5970422D01*
X4155033Y5986932D01*
X4158742Y6003950D01*
X4160621Y6021273D01*
X4160621Y6038697D01*
X4158742Y6056020D01*
X4155033Y6073038D01*
X4149445Y6089548D01*
X4142130Y6105347D01*
X4133138Y6120282D01*
X4122623Y6134150D01*
X4110634Y6146800D01*
X4097375Y6158077D01*
X4082948Y6167831D01*
X4067556Y6176010D01*
X4051350Y6182461D01*
X4034586Y6187135D01*
X4017365Y6189929D01*
X3999992Y6190894D01*
X3982567Y6189929D01*
X3965397Y6187135D01*
X3948633Y6182461D01*
X3932428Y6176010D01*
X3917035Y6167831D01*
X3902608Y6158077D01*
X3889349Y6146800D01*
X3877360Y6134150D01*
X3866794Y6120282D01*
X3857853Y6105347D01*
X3850538Y6089548D01*
X3844950Y6073038D01*
X3841191Y6056020D01*
X3839311Y6038697D01*
X3839311Y6021273D01*
X3841191Y6003950D01*
X3844950Y5986932D01*
X3850538Y5970422D01*
X3857853Y5954623D01*
X3866794Y5939688D01*
X3877360Y5925820D01*
X3889349Y5913170D01*
X3902608Y5901893D01*
X3917035Y5892139D01*
X3932428Y5883960D01*
X3948633Y5877509D01*
X3965397Y5872835D01*
X3982567Y5870041D01*
G37*

%LPD*%
G36*
X8579256Y4636668D02*
G01*
X8575344Y4637430D01*
X8572093Y4639665D01*
X8569858Y4642967D01*
X8569096Y4646828D01*
X8569096Y4715052D01*
X8568385Y4721402D01*
X8566454Y4726838D01*
X8563406Y4731766D01*
X8559292Y4735830D01*
X8554415Y4738928D01*
X8547811Y4741214D01*
X8544255Y4743348D01*
X8541867Y4746752D01*
X8541004Y4750816D01*
X8541004Y4999482D01*
X8540191Y5007965D01*
X8537854Y5015636D01*
X8534095Y5022697D01*
X8528659Y5029250D01*
X8065008Y5492699D01*
X8062823Y5496001D01*
X8062010Y5499912D01*
X8062823Y5503773D01*
X8065008Y5507075D01*
X8185658Y5627878D01*
X8188959Y5630113D01*
X8192871Y5630875D01*
X8264398Y5630875D01*
X8270748Y5631586D01*
X8276183Y5633516D01*
X8281111Y5636564D01*
X8285175Y5640679D01*
X8288274Y5645556D01*
X8290407Y5651652D01*
X8292541Y5655208D01*
X8295944Y5657596D01*
X8300008Y5658459D01*
X8304022Y5657596D01*
X8307425Y5655208D01*
X8309559Y5651652D01*
X8311692Y5645556D01*
X8314791Y5640679D01*
X8318855Y5636564D01*
X8323783Y5633516D01*
X8329218Y5631586D01*
X8335568Y5630875D01*
X8415070Y5630875D01*
X8421370Y5631586D01*
X8426856Y5633516D01*
X8431733Y5636564D01*
X8435848Y5640679D01*
X8438896Y5645556D01*
X8441232Y5652211D01*
X8443366Y5655818D01*
X8446719Y5658205D01*
X8450834Y5659069D01*
X8492896Y5659069D01*
X8501380Y5659932D01*
X8509050Y5662218D01*
X8516112Y5666028D01*
X8522665Y5671413D01*
X8548420Y5697169D01*
X8551214Y5699150D01*
X8554466Y5700115D01*
X8557869Y5699912D01*
X8561019Y5698591D01*
X8564422Y5696458D01*
X8569909Y5694527D01*
X8576208Y5693816D01*
X8615070Y5693816D01*
X8621420Y5694527D01*
X8624773Y5695746D01*
X8628126Y5696305D01*
X8631478Y5695746D01*
X8634882Y5694527D01*
X8641232Y5693816D01*
X8680094Y5693816D01*
X8686393Y5694527D01*
X8689797Y5695746D01*
X8693150Y5696305D01*
X8696502Y5695746D01*
X8699906Y5694527D01*
X8706205Y5693816D01*
X8745067Y5693816D01*
X8751417Y5694527D01*
X8754770Y5695746D01*
X8758123Y5696305D01*
X8761476Y5695746D01*
X8764879Y5694527D01*
X8771229Y5693816D01*
X8810091Y5693816D01*
X8816390Y5694527D01*
X8819794Y5695746D01*
X8823147Y5696305D01*
X8826500Y5695746D01*
X8829903Y5694527D01*
X8836202Y5693816D01*
X8875064Y5693816D01*
X8881414Y5694527D01*
X8884767Y5695746D01*
X8888120Y5696305D01*
X8891473Y5695746D01*
X8894876Y5694527D01*
X8901226Y5693816D01*
X8940088Y5693816D01*
X8946388Y5694527D01*
X8949791Y5695746D01*
X8953144Y5696305D01*
X8956497Y5695746D01*
X8959900Y5694527D01*
X8966200Y5693816D01*
X9005062Y5693816D01*
X9011412Y5694527D01*
X9014764Y5695746D01*
X9018117Y5696305D01*
X9021470Y5695746D01*
X9024874Y5694527D01*
X9031224Y5693816D01*
X9064548Y5693816D01*
X9068460Y5693054D01*
X9071711Y5690870D01*
X9073946Y5687568D01*
X9074708Y5683656D01*
X9074708Y5622645D01*
X9074251Y5619597D01*
X9072880Y5616803D01*
X9066834Y5608167D01*
X9062669Y5599277D01*
X9060129Y5589778D01*
X9059265Y5579973D01*
X9060129Y5570220D01*
X9062669Y5560720D01*
X9066834Y5551830D01*
X9072473Y5543753D01*
X9079382Y5536844D01*
X9087459Y5531205D01*
X9096349Y5527040D01*
X9105849Y5524500D01*
X9115602Y5523636D01*
X9125407Y5524500D01*
X9134906Y5527040D01*
X9143796Y5531205D01*
X9151823Y5536844D01*
X9158782Y5543753D01*
X9164421Y5551830D01*
X9168587Y5560720D01*
X9171127Y5570220D01*
X9171990Y5579973D01*
X9171127Y5589778D01*
X9168587Y5599277D01*
X9164421Y5608167D01*
X9158376Y5616803D01*
X9157004Y5619597D01*
X9156547Y5622645D01*
X9156547Y5683656D01*
X9157309Y5687568D01*
X9159494Y5690870D01*
X9162796Y5693054D01*
X9166707Y5693816D01*
X9200083Y5693816D01*
X9206382Y5694527D01*
X9209786Y5695746D01*
X9213138Y5696305D01*
X9216491Y5695746D01*
X9219895Y5694527D01*
X9226194Y5693816D01*
X9265056Y5693816D01*
X9271406Y5694527D01*
X9274759Y5695746D01*
X9278112Y5696305D01*
X9281464Y5695746D01*
X9284868Y5694527D01*
X9291218Y5693816D01*
X9330080Y5693816D01*
X9336379Y5694527D01*
X9341459Y5695594D01*
X9345117Y5694730D01*
X9348266Y5692597D01*
X9370822Y5670042D01*
X9373006Y5666740D01*
X9373819Y5662879D01*
X9373819Y5600293D01*
X9374682Y5586780D01*
X9377273Y5573826D01*
X9381490Y5561330D01*
X9387332Y5549493D01*
X9394647Y5538520D01*
X9403384Y5528614D01*
X9413290Y5519877D01*
X9424263Y5512562D01*
X9436100Y5506720D01*
X9448596Y5502503D01*
X9461550Y5499912D01*
X9474708Y5499049D01*
X9487865Y5499912D01*
X9500819Y5502503D01*
X9513316Y5506720D01*
X9525152Y5512562D01*
X9536125Y5519877D01*
X9546031Y5528614D01*
X9553295Y5536844D01*
X9556597Y5539333D01*
X9560610Y5540298D01*
X9564674Y5539587D01*
X9568891Y5536590D01*
X9573768Y5533491D01*
X9577628Y5532170D01*
X9581184Y5530037D01*
X9583572Y5526633D01*
X9584436Y5522569D01*
X9584436Y5496407D01*
X9583623Y5492546D01*
X9581438Y5489244D01*
X9535972Y5443931D01*
X9532670Y5441696D01*
X9528810Y5440934D01*
X9250426Y5440934D01*
X9241942Y5440121D01*
X9234271Y5437784D01*
X9227210Y5434025D01*
X9220657Y5428589D01*
X9152026Y5359958D01*
X9146590Y5353405D01*
X9142831Y5346344D01*
X9140494Y5338673D01*
X9139682Y5330190D01*
X9139682Y5316270D01*
X9138920Y5312410D01*
X9136684Y5309108D01*
X9133382Y5306923D01*
X9129522Y5306110D01*
X9096197Y5306110D01*
X9089898Y5305399D01*
X9086494Y5304231D01*
X9083141Y5303672D01*
X9079788Y5304231D01*
X9076385Y5305399D01*
X9070086Y5306110D01*
X9031224Y5306110D01*
X9024874Y5305399D01*
X9021470Y5304231D01*
X9018117Y5303672D01*
X9014764Y5304231D01*
X9011412Y5305450D01*
X9005062Y5306161D01*
X8966200Y5306161D01*
X8959900Y5305450D01*
X8956497Y5304231D01*
X8953144Y5303672D01*
X8949791Y5304231D01*
X8946388Y5305399D01*
X8940088Y5306110D01*
X8901226Y5306110D01*
X8894876Y5305399D01*
X8891473Y5304231D01*
X8888120Y5303672D01*
X8884767Y5304231D01*
X8881414Y5305399D01*
X8875064Y5306110D01*
X8836202Y5306110D01*
X8829903Y5305399D01*
X8826500Y5304231D01*
X8823147Y5303672D01*
X8819794Y5304231D01*
X8816390Y5305399D01*
X8810091Y5306110D01*
X8771229Y5306110D01*
X8764879Y5305399D01*
X8761476Y5304231D01*
X8758123Y5303672D01*
X8754770Y5304231D01*
X8751417Y5305399D01*
X8745067Y5306110D01*
X8706205Y5306110D01*
X8699906Y5305399D01*
X8696502Y5304231D01*
X8693150Y5303672D01*
X8689797Y5304231D01*
X8686393Y5305399D01*
X8680094Y5306110D01*
X8641232Y5306110D01*
X8634882Y5305399D01*
X8631478Y5304231D01*
X8628126Y5303672D01*
X8624773Y5304231D01*
X8621420Y5305399D01*
X8615070Y5306110D01*
X8611971Y5306110D01*
X8611971Y5242102D01*
X8614003Y5238902D01*
X8614714Y5235143D01*
X8614714Y5160264D01*
X8614003Y5156555D01*
X8611971Y5153355D01*
X8611971Y5089042D01*
X8615984Y5087010D01*
X8618728Y5083505D01*
X8619744Y5079136D01*
X8619744Y4677206D01*
X8618982Y4673295D01*
X8616746Y4670044D01*
X8586419Y4639665D01*
X8583168Y4637430D01*
G37*

%LPC*%
G36*
X8549741Y5245303D02*
G01*
X8579307Y5245303D01*
X8579307Y5306110D01*
X8576208Y5306110D01*
X8569909Y5305399D01*
X8564422Y5303520D01*
X8559546Y5300421D01*
X8555431Y5296357D01*
X8552383Y5291429D01*
X8550452Y5285994D01*
X8549741Y5279644D01*
G37*
G36*
X8576208Y5089296D02*
G01*
X8579307Y5089296D01*
X8579307Y5150104D01*
X8549741Y5150104D01*
X8549741Y5115814D01*
X8550452Y5109464D01*
X8552383Y5104028D01*
X8555431Y5099100D01*
X8559546Y5095036D01*
X8564422Y5091938D01*
X8569909Y5090007D01*
G37*

%LPD*%
G36*
X6821220Y3740912D02*
G01*
X6817359Y3741674D01*
X6814058Y3743909D01*
X6543751Y4013962D01*
X6541566Y4017264D01*
X6540754Y4021175D01*
X6540754Y4449165D01*
X6541617Y4453229D01*
X6544056Y4456633D01*
X6547662Y4458766D01*
X6554419Y4461103D01*
X6559296Y4464151D01*
X6563410Y4468215D01*
X6566458Y4473143D01*
X6568389Y4478578D01*
X6569100Y4484928D01*
X6569100Y4564430D01*
X6568389Y4570730D01*
X6566458Y4576216D01*
X6563410Y4581093D01*
X6559296Y4585208D01*
X6554419Y4588256D01*
X6548323Y4590389D01*
X6544767Y4592523D01*
X6542379Y4595926D01*
X6541516Y4599990D01*
X6542379Y4604054D01*
X6544767Y4607458D01*
X6548323Y4609592D01*
X6554419Y4611725D01*
X6559296Y4614773D01*
X6563410Y4618888D01*
X6566458Y4623765D01*
X6568389Y4629251D01*
X6569100Y4635550D01*
X6569100Y4715052D01*
X6568389Y4721402D01*
X6566458Y4726838D01*
X6563410Y4731766D01*
X6559296Y4735830D01*
X6554419Y4738878D01*
X6547662Y4741214D01*
X6544056Y4743348D01*
X6541617Y4746752D01*
X6540754Y4750816D01*
X6540754Y5178704D01*
X6541566Y5182616D01*
X6543751Y5185918D01*
X6814058Y5455970D01*
X6817359Y5458206D01*
X6821220Y5458968D01*
X6957517Y5458968D01*
X6960565Y5458460D01*
X6963359Y5457139D01*
X6971792Y5451195D01*
X6980732Y5447030D01*
X6990181Y5444490D01*
X6999986Y5443626D01*
X7009790Y5444490D01*
X7019239Y5447030D01*
X7028180Y5451195D01*
X7036612Y5457139D01*
X7039406Y5458460D01*
X7042454Y5458968D01*
X7978851Y5458968D01*
X7982712Y5458206D01*
X7986014Y5455970D01*
X8456218Y4986020D01*
X8458403Y4982718D01*
X8459216Y4978806D01*
X8459216Y4750816D01*
X8458352Y4746752D01*
X8455914Y4743348D01*
X8452307Y4741214D01*
X8445550Y4738878D01*
X8440674Y4735830D01*
X8436559Y4731766D01*
X8433511Y4726838D01*
X8431580Y4721402D01*
X8430869Y4715052D01*
X8430869Y4635550D01*
X8431580Y4629251D01*
X8433511Y4623765D01*
X8436559Y4618888D01*
X8440674Y4614773D01*
X8445550Y4611725D01*
X8451646Y4609592D01*
X8455202Y4607458D01*
X8457590Y4604054D01*
X8458454Y4599990D01*
X8457590Y4595926D01*
X8455202Y4592523D01*
X8451646Y4590389D01*
X8445550Y4588256D01*
X8440674Y4585208D01*
X8436559Y4581093D01*
X8433511Y4576216D01*
X8431580Y4570730D01*
X8430869Y4564430D01*
X8430869Y4546396D01*
X8430107Y4542485D01*
X8427923Y4539183D01*
X8424621Y4536998D01*
X8420709Y4536236D01*
X8164626Y4536236D01*
X8160512Y4537100D01*
X8157108Y4539538D01*
X8154974Y4543145D01*
X8149437Y4559554D01*
X8142122Y4575352D01*
X8133130Y4590288D01*
X8122615Y4604156D01*
X8110626Y4616805D01*
X8097367Y4628083D01*
X8082940Y4637836D01*
X8067548Y4646015D01*
X8051342Y4652467D01*
X8034578Y4657140D01*
X8017357Y4659934D01*
X7999984Y4660900D01*
X7982610Y4659934D01*
X7965389Y4657140D01*
X7948625Y4652467D01*
X7932420Y4646015D01*
X7917027Y4637836D01*
X7902600Y4628083D01*
X7889341Y4616805D01*
X7877352Y4604156D01*
X7866837Y4590288D01*
X7857845Y4575352D01*
X7850530Y4559554D01*
X7844942Y4543044D01*
X7841234Y4526026D01*
X7839354Y4508703D01*
X7839354Y4491278D01*
X7841234Y4473956D01*
X7844942Y4456938D01*
X7850530Y4440428D01*
X7857845Y4424629D01*
X7866837Y4409694D01*
X7877352Y4395825D01*
X7889341Y4383176D01*
X7902600Y4371898D01*
X7917027Y4362145D01*
X7932420Y4353966D01*
X7948625Y4347514D01*
X7965389Y4342841D01*
X7982610Y4340047D01*
X7999984Y4339082D01*
X8017357Y4340047D01*
X8034578Y4342841D01*
X8051342Y4347514D01*
X8067548Y4353966D01*
X8082940Y4362145D01*
X8097367Y4371898D01*
X8110626Y4383176D01*
X8122615Y4395825D01*
X8133130Y4409694D01*
X8142122Y4424629D01*
X8149437Y4440428D01*
X8151825Y4447489D01*
X8153958Y4451096D01*
X8157362Y4453534D01*
X8161477Y4454398D01*
X8499398Y4454398D01*
X8508085Y4455210D01*
X8516975Y4457954D01*
X8519972Y4458411D01*
X8542629Y4458411D01*
X8548928Y4459122D01*
X8554415Y4461052D01*
X8559292Y4464151D01*
X8563406Y4468215D01*
X8566454Y4473143D01*
X8568385Y4478578D01*
X8569096Y4484928D01*
X8569096Y4502302D01*
X8569858Y4506163D01*
X8572042Y4509465D01*
X8661806Y4599330D01*
X8665108Y4601565D01*
X8669020Y4602327D01*
X8672880Y4601565D01*
X8676182Y4599381D01*
X8678367Y4596079D01*
X8679180Y4592167D01*
X8679180Y3941114D01*
X8678418Y3937254D01*
X8676182Y3933951D01*
X8486140Y3743909D01*
X8482838Y3741674D01*
X8478977Y3740912D01*
G37*

%LPC*%
G36*
X7926120Y4827320D02*
G01*
X7926120Y4896154D01*
X7857134Y4896154D01*
X7857845Y4894630D01*
X7866837Y4879695D01*
X7877352Y4865827D01*
X7889341Y4853178D01*
X7902600Y4841900D01*
X7917027Y4832146D01*
G37*
G36*
X8073847Y4827320D02*
G01*
X8082940Y4832146D01*
X8097367Y4841900D01*
X8110626Y4853178D01*
X8122615Y4865827D01*
X8133130Y4879695D01*
X8142122Y4894630D01*
X8142833Y4896154D01*
X8073847Y4896154D01*
G37*
G36*
X7999984Y3869080D02*
G01*
X8017357Y3870045D01*
X8034578Y3872839D01*
X8051342Y3877513D01*
X8067548Y3883964D01*
X8082940Y3892143D01*
X8097367Y3901897D01*
X8110626Y3913174D01*
X8122615Y3925824D01*
X8133130Y3939692D01*
X8142122Y3954627D01*
X8149437Y3970426D01*
X8155025Y3986936D01*
X8158734Y4003954D01*
X8160613Y4021277D01*
X8160613Y4038701D01*
X8158734Y4056024D01*
X8155025Y4073042D01*
X8149437Y4089552D01*
X8142122Y4105351D01*
X8133130Y4120286D01*
X8122615Y4134154D01*
X8110626Y4146804D01*
X8097367Y4158081D01*
X8082940Y4167835D01*
X8067548Y4176014D01*
X8051342Y4182465D01*
X8034578Y4187139D01*
X8017357Y4189933D01*
X7999984Y4190898D01*
X7982559Y4189933D01*
X7965389Y4187139D01*
X7948625Y4182465D01*
X7932420Y4176014D01*
X7917027Y4167835D01*
X7902600Y4158081D01*
X7889341Y4146804D01*
X7877352Y4134154D01*
X7866786Y4120286D01*
X7857845Y4105351D01*
X7850530Y4089552D01*
X7844942Y4073042D01*
X7841183Y4056024D01*
X7839303Y4038701D01*
X7839303Y4021277D01*
X7841183Y4003954D01*
X7844942Y3986936D01*
X7850530Y3970426D01*
X7857845Y3954627D01*
X7866786Y3939692D01*
X7877352Y3925824D01*
X7889341Y3913174D01*
X7902600Y3901897D01*
X7917027Y3892143D01*
X7932420Y3883964D01*
X7948625Y3877513D01*
X7965389Y3872839D01*
X7982559Y3870045D01*
G37*
G36*
X7857134Y5043830D02*
G01*
X7926120Y5043830D01*
X7926120Y5112664D01*
X7917027Y5107838D01*
X7902600Y5098084D01*
X7889341Y5086807D01*
X7877352Y5074158D01*
X7866837Y5060289D01*
X7857845Y5045354D01*
G37*
G36*
X8073847Y5043830D02*
G01*
X8142833Y5043830D01*
X8142122Y5045354D01*
X8133130Y5060289D01*
X8122615Y5074158D01*
X8110626Y5086807D01*
X8097367Y5098084D01*
X8082940Y5107838D01*
X8073847Y5112664D01*
G37*

%LPD*%
G36*
X4821224Y3640836D02*
G01*
X4817364Y3641598D01*
X4814062Y3643833D01*
X4544009Y3913886D01*
X4541824Y3917187D01*
X4541012Y3921048D01*
X4541012Y4449165D01*
X4541875Y4453229D01*
X4544263Y4456633D01*
X4547819Y4458766D01*
X4554423Y4461052D01*
X4559300Y4464151D01*
X4563414Y4468215D01*
X4566462Y4473143D01*
X4568393Y4478578D01*
X4569104Y4484928D01*
X4569104Y4564430D01*
X4568393Y4570730D01*
X4566462Y4576216D01*
X4563414Y4581093D01*
X4559300Y4585208D01*
X4554423Y4588256D01*
X4548327Y4590389D01*
X4544771Y4592523D01*
X4542383Y4595926D01*
X4541520Y4599990D01*
X4542383Y4604054D01*
X4544771Y4607458D01*
X4548327Y4609592D01*
X4554423Y4611725D01*
X4559300Y4614773D01*
X4563414Y4618888D01*
X4566462Y4623765D01*
X4568393Y4629251D01*
X4569104Y4635550D01*
X4569104Y4715052D01*
X4568393Y4721402D01*
X4566462Y4726838D01*
X4563414Y4731766D01*
X4559300Y4735830D01*
X4554423Y4738928D01*
X4547819Y4741214D01*
X4544263Y4743348D01*
X4541875Y4746752D01*
X4541012Y4750816D01*
X4541012Y5178755D01*
X4541824Y5182616D01*
X4544009Y5185918D01*
X4814062Y5455970D01*
X4817364Y5458155D01*
X4821224Y5458968D01*
X6676847Y5459069D01*
X6680758Y5458307D01*
X6684060Y5456123D01*
X6686245Y5452821D01*
X6687007Y5448909D01*
X6686245Y5445048D01*
X6684009Y5441746D01*
X6471310Y5229199D01*
X6465874Y5222595D01*
X6462115Y5215534D01*
X6459778Y5207863D01*
X6458966Y5199430D01*
X6458966Y4750816D01*
X6458102Y4746752D01*
X6455714Y4743348D01*
X6452158Y4741214D01*
X6445554Y4738928D01*
X6440678Y4735830D01*
X6436563Y4731766D01*
X6433515Y4726838D01*
X6431584Y4721402D01*
X6430873Y4715052D01*
X6430873Y4635550D01*
X6431584Y4629251D01*
X6433515Y4623765D01*
X6436563Y4618888D01*
X6440678Y4614773D01*
X6445554Y4611725D01*
X6451650Y4609592D01*
X6455206Y4607458D01*
X6457594Y4604054D01*
X6458458Y4599990D01*
X6457594Y4595926D01*
X6455206Y4592523D01*
X6451650Y4590389D01*
X6445554Y4588256D01*
X6440678Y4585208D01*
X6436563Y4581093D01*
X6433515Y4576216D01*
X6432143Y4572355D01*
X6430010Y4568799D01*
X6426657Y4566412D01*
X6422593Y4565548D01*
X6153150Y4565548D01*
X6149390Y4566259D01*
X6146190Y4568342D01*
X6143955Y4571441D01*
X6142126Y4575352D01*
X6133134Y4590288D01*
X6122619Y4604156D01*
X6110630Y4616805D01*
X6097371Y4628083D01*
X6082944Y4637836D01*
X6067552Y4646015D01*
X6051346Y4652467D01*
X6034582Y4657140D01*
X6017361Y4659934D01*
X5999988Y4660900D01*
X5982614Y4659934D01*
X5965393Y4657140D01*
X5948629Y4652467D01*
X5932424Y4646015D01*
X5917031Y4637836D01*
X5902604Y4628083D01*
X5889345Y4616805D01*
X5877356Y4604156D01*
X5866841Y4590288D01*
X5857849Y4575352D01*
X5850534Y4559554D01*
X5844946Y4543044D01*
X5841238Y4526026D01*
X5839358Y4508703D01*
X5839358Y4491278D01*
X5841238Y4473956D01*
X5844946Y4456938D01*
X5850534Y4440428D01*
X5857849Y4424629D01*
X5866841Y4409694D01*
X5877356Y4395825D01*
X5889345Y4383176D01*
X5902604Y4371898D01*
X5917031Y4362145D01*
X5932424Y4353966D01*
X5948629Y4347514D01*
X5965393Y4342841D01*
X5982614Y4340047D01*
X5999988Y4339082D01*
X6017361Y4340047D01*
X6034582Y4342841D01*
X6051346Y4347514D01*
X6067552Y4353966D01*
X6082944Y4362145D01*
X6097371Y4371898D01*
X6110630Y4383176D01*
X6122619Y4395825D01*
X6133134Y4409694D01*
X6142126Y4424629D01*
X6149441Y4440428D01*
X6155029Y4456938D01*
X6158788Y4473956D01*
X6159906Y4478223D01*
X6162141Y4481169D01*
X6165291Y4483100D01*
X6168948Y4483760D01*
X6422593Y4483760D01*
X6426657Y4482896D01*
X6430010Y4480509D01*
X6432143Y4476953D01*
X6433515Y4473143D01*
X6436563Y4468215D01*
X6440678Y4464151D01*
X6445554Y4461052D01*
X6452158Y4458766D01*
X6455714Y4456633D01*
X6458102Y4453229D01*
X6458966Y4449165D01*
X6458966Y4000500D01*
X6459778Y3992016D01*
X6462115Y3984345D01*
X6465874Y3977284D01*
X6471310Y3970731D01*
X6770827Y3671417D01*
X6777380Y3666032D01*
X6784441Y3662273D01*
X6789521Y3660749D01*
X6793128Y3658768D01*
X6795668Y3655568D01*
X6796735Y3651554D01*
X6796125Y3647541D01*
X6793941Y3644036D01*
X6790588Y3641699D01*
X6786575Y3640836D01*
G37*

%LPC*%
G36*
X5999988Y3869080D02*
G01*
X6017361Y3870045D01*
X6034582Y3872839D01*
X6051346Y3877513D01*
X6067552Y3883964D01*
X6082944Y3892143D01*
X6097371Y3901897D01*
X6110630Y3913174D01*
X6122619Y3925824D01*
X6133134Y3939692D01*
X6142126Y3954627D01*
X6149441Y3970426D01*
X6155029Y3986936D01*
X6158738Y4003954D01*
X6160617Y4021277D01*
X6160617Y4038701D01*
X6158738Y4056024D01*
X6155029Y4073042D01*
X6149441Y4089552D01*
X6142126Y4105351D01*
X6133134Y4120286D01*
X6122619Y4134154D01*
X6110630Y4146804D01*
X6097371Y4158081D01*
X6082944Y4167835D01*
X6067552Y4176014D01*
X6051346Y4182465D01*
X6034582Y4187139D01*
X6017361Y4189933D01*
X5999988Y4190898D01*
X5982563Y4189933D01*
X5965393Y4187139D01*
X5948629Y4182465D01*
X5932424Y4176014D01*
X5917031Y4167835D01*
X5902604Y4158081D01*
X5889345Y4146804D01*
X5877356Y4134154D01*
X5866790Y4120286D01*
X5857849Y4105351D01*
X5850534Y4089552D01*
X5844946Y4073042D01*
X5841187Y4056024D01*
X5839307Y4038701D01*
X5839307Y4021277D01*
X5841187Y4003954D01*
X5844946Y3986936D01*
X5850534Y3970426D01*
X5857849Y3954627D01*
X5866790Y3939692D01*
X5877356Y3925824D01*
X5889345Y3913174D01*
X5902604Y3901897D01*
X5917031Y3892143D01*
X5932424Y3883964D01*
X5948629Y3877513D01*
X5965393Y3872839D01*
X5982563Y3870045D01*
G37*
G36*
X6073851Y4827320D02*
G01*
X6082944Y4832146D01*
X6097371Y4841900D01*
X6110630Y4853178D01*
X6122619Y4865827D01*
X6133134Y4879695D01*
X6142126Y4894630D01*
X6142837Y4896154D01*
X6073851Y4896154D01*
G37*
G36*
X5926124Y4827320D02*
G01*
X5926124Y4896154D01*
X5857138Y4896154D01*
X5857849Y4894630D01*
X5866841Y4879695D01*
X5877356Y4865827D01*
X5889345Y4853178D01*
X5902604Y4841900D01*
X5917031Y4832146D01*
G37*
G36*
X6073851Y5043830D02*
G01*
X6142837Y5043830D01*
X6142126Y5045354D01*
X6133134Y5060289D01*
X6122619Y5074158D01*
X6110630Y5086807D01*
X6097371Y5098084D01*
X6082944Y5107838D01*
X6073851Y5112664D01*
G37*
G36*
X5857138Y5043830D02*
G01*
X5926124Y5043830D01*
X5926124Y5112664D01*
X5917031Y5107838D01*
X5902604Y5098084D01*
X5889345Y5086807D01*
X5877356Y5074158D01*
X5866841Y5060289D01*
X5857849Y5045354D01*
G37*

%LPD*%
G36*
X2821228Y3540760D02*
G01*
X2817368Y3541522D01*
X2814066Y3543757D01*
X2543759Y3814064D01*
X2541524Y3817365D01*
X2540762Y3821226D01*
X2540762Y4449165D01*
X2541625Y4453229D01*
X2544064Y4456633D01*
X2547670Y4458766D01*
X2554427Y4461103D01*
X2559304Y4464151D01*
X2563418Y4468215D01*
X2566466Y4473143D01*
X2568397Y4478578D01*
X2569108Y4484928D01*
X2569108Y4564430D01*
X2568397Y4570730D01*
X2566466Y4576216D01*
X2563418Y4581093D01*
X2559304Y4585208D01*
X2554427Y4588256D01*
X2548331Y4590389D01*
X2544775Y4592523D01*
X2542387Y4595926D01*
X2541524Y4599990D01*
X2542387Y4604054D01*
X2544775Y4607458D01*
X2548331Y4609592D01*
X2554427Y4611725D01*
X2559304Y4614773D01*
X2563418Y4618888D01*
X2566466Y4623765D01*
X2568397Y4629251D01*
X2569108Y4635550D01*
X2569108Y4715052D01*
X2568397Y4721402D01*
X2566466Y4726838D01*
X2563418Y4731766D01*
X2559304Y4735830D01*
X2554427Y4738878D01*
X2547670Y4741214D01*
X2544064Y4743348D01*
X2541625Y4746752D01*
X2540762Y4750816D01*
X2540762Y5178704D01*
X2541574Y5182616D01*
X2543759Y5185918D01*
X2814066Y5455970D01*
X2817368Y5458206D01*
X2821228Y5458968D01*
X4676952Y5459069D01*
X4680813Y5458307D01*
X4684115Y5456123D01*
X4686300Y5452821D01*
X4687112Y5448909D01*
X4686300Y5445048D01*
X4684115Y5441746D01*
X4471568Y5229148D01*
X4466132Y5222595D01*
X4462373Y5215534D01*
X4460036Y5207863D01*
X4459224Y5199380D01*
X4459224Y4750816D01*
X4458360Y4746752D01*
X4455922Y4743348D01*
X4452315Y4741214D01*
X4445558Y4738878D01*
X4440682Y4735830D01*
X4436567Y4731766D01*
X4433519Y4726838D01*
X4431588Y4721402D01*
X4430877Y4715052D01*
X4430877Y4635550D01*
X4431588Y4629251D01*
X4433519Y4623765D01*
X4436567Y4618888D01*
X4440682Y4614773D01*
X4445558Y4611725D01*
X4451654Y4609592D01*
X4455210Y4607458D01*
X4457598Y4604054D01*
X4458462Y4599990D01*
X4457598Y4595926D01*
X4455210Y4592523D01*
X4451654Y4590389D01*
X4445558Y4588256D01*
X4440682Y4585208D01*
X4436567Y4581093D01*
X4433519Y4576216D01*
X4432147Y4572355D01*
X4430014Y4568799D01*
X4426661Y4566412D01*
X4422597Y4565548D01*
X4153154Y4565548D01*
X4149394Y4566259D01*
X4146194Y4568342D01*
X4143959Y4571441D01*
X4142130Y4575352D01*
X4133138Y4590288D01*
X4122623Y4604156D01*
X4110634Y4616805D01*
X4097375Y4628083D01*
X4082948Y4637836D01*
X4067556Y4646015D01*
X4051350Y4652467D01*
X4034586Y4657140D01*
X4017365Y4659934D01*
X3999992Y4660900D01*
X3982618Y4659934D01*
X3965397Y4657140D01*
X3948633Y4652467D01*
X3932428Y4646015D01*
X3917035Y4637836D01*
X3902608Y4628083D01*
X3889349Y4616805D01*
X3877360Y4604156D01*
X3866845Y4590288D01*
X3857853Y4575352D01*
X3850538Y4559554D01*
X3844950Y4543044D01*
X3841242Y4526026D01*
X3839362Y4508703D01*
X3839362Y4491278D01*
X3841242Y4473956D01*
X3844950Y4456938D01*
X3850538Y4440428D01*
X3857853Y4424629D01*
X3866845Y4409694D01*
X3877360Y4395825D01*
X3889349Y4383176D01*
X3902608Y4371898D01*
X3917035Y4362145D01*
X3932428Y4353966D01*
X3948633Y4347514D01*
X3965397Y4342841D01*
X3982618Y4340047D01*
X3999992Y4339082D01*
X4017365Y4340047D01*
X4034586Y4342841D01*
X4051350Y4347514D01*
X4067556Y4353966D01*
X4082948Y4362145D01*
X4097375Y4371898D01*
X4110634Y4383176D01*
X4122623Y4395825D01*
X4133138Y4409694D01*
X4142130Y4424629D01*
X4149445Y4440428D01*
X4155033Y4456938D01*
X4158792Y4473956D01*
X4159910Y4478223D01*
X4162145Y4481169D01*
X4165295Y4483100D01*
X4168952Y4483760D01*
X4422597Y4483760D01*
X4426661Y4482896D01*
X4430014Y4480509D01*
X4432147Y4476953D01*
X4433519Y4473143D01*
X4436567Y4468215D01*
X4440682Y4464151D01*
X4445558Y4461103D01*
X4452315Y4458766D01*
X4455922Y4456633D01*
X4458360Y4453229D01*
X4459224Y4449165D01*
X4459224Y3900424D01*
X4460036Y3891940D01*
X4462373Y3884269D01*
X4466132Y3877208D01*
X4471568Y3870655D01*
X4770831Y3571392D01*
X4777384Y3565956D01*
X4784445Y3562197D01*
X4789525Y3560673D01*
X4793132Y3558692D01*
X4795672Y3555492D01*
X4796739Y3551478D01*
X4796129Y3547465D01*
X4793945Y3543960D01*
X4790592Y3541623D01*
X4786579Y3540760D01*
G37*

%LPC*%
G36*
X4073855Y4827320D02*
G01*
X4082948Y4832146D01*
X4097375Y4841900D01*
X4110634Y4853178D01*
X4122623Y4865827D01*
X4133138Y4879695D01*
X4142130Y4894630D01*
X4142841Y4896154D01*
X4073855Y4896154D01*
G37*
G36*
X3999992Y3869080D02*
G01*
X4017365Y3870045D01*
X4034586Y3872839D01*
X4051350Y3877513D01*
X4067556Y3883964D01*
X4082948Y3892143D01*
X4097375Y3901897D01*
X4110634Y3913174D01*
X4122623Y3925824D01*
X4133138Y3939692D01*
X4142130Y3954627D01*
X4149445Y3970426D01*
X4155033Y3986936D01*
X4158742Y4003954D01*
X4160621Y4021277D01*
X4160621Y4038701D01*
X4158742Y4056024D01*
X4155033Y4073042D01*
X4149445Y4089552D01*
X4142130Y4105351D01*
X4133138Y4120286D01*
X4122623Y4134154D01*
X4110634Y4146804D01*
X4097375Y4158081D01*
X4082948Y4167835D01*
X4067556Y4176014D01*
X4051350Y4182465D01*
X4034586Y4187139D01*
X4017365Y4189933D01*
X3999992Y4190898D01*
X3982567Y4189933D01*
X3965397Y4187139D01*
X3948633Y4182465D01*
X3932428Y4176014D01*
X3917035Y4167835D01*
X3902608Y4158081D01*
X3889349Y4146804D01*
X3877360Y4134154D01*
X3866794Y4120286D01*
X3857853Y4105351D01*
X3850538Y4089552D01*
X3844950Y4073042D01*
X3841191Y4056024D01*
X3839311Y4038701D01*
X3839311Y4021277D01*
X3841191Y4003954D01*
X3844950Y3986936D01*
X3850538Y3970426D01*
X3857853Y3954627D01*
X3866794Y3939692D01*
X3877360Y3925824D01*
X3889349Y3913174D01*
X3902608Y3901897D01*
X3917035Y3892143D01*
X3932428Y3883964D01*
X3948633Y3877513D01*
X3965397Y3872839D01*
X3982567Y3870045D01*
G37*
G36*
X3857142Y5043830D02*
G01*
X3926128Y5043830D01*
X3926128Y5112664D01*
X3917035Y5107838D01*
X3902608Y5098084D01*
X3889349Y5086807D01*
X3877360Y5074158D01*
X3866845Y5060289D01*
X3857853Y5045354D01*
G37*
G36*
X4073855Y5043830D02*
G01*
X4142841Y5043830D01*
X4142130Y5045354D01*
X4133138Y5060289D01*
X4122623Y5074158D01*
X4110634Y5086807D01*
X4097375Y5098084D01*
X4082948Y5107838D01*
X4073855Y5112664D01*
G37*
G36*
X3926128Y4827320D02*
G01*
X3926128Y4896154D01*
X3857142Y4896154D01*
X3857853Y4894630D01*
X3866845Y4879695D01*
X3877360Y4865827D01*
X3889349Y4853178D01*
X3902608Y4841900D01*
X3917035Y4832146D01*
G37*

%LPD*%
G36*
X9427413Y1965553D02*
G01*
X9423349Y1966417D01*
X9419945Y1968804D01*
X9417812Y1972360D01*
X9416491Y1976221D01*
X9413392Y1981098D01*
X9409277Y1985213D01*
X9404400Y1988261D01*
X9398304Y1990394D01*
X9394748Y1992528D01*
X9392361Y1995932D01*
X9391497Y1999996D01*
X9392361Y2004060D01*
X9394748Y2007463D01*
X9398304Y2009597D01*
X9404400Y2011730D01*
X9409277Y2014778D01*
X9413392Y2018893D01*
X9416491Y2023770D01*
X9418370Y2029256D01*
X9419082Y2035556D01*
X9419082Y2115058D01*
X9418370Y2121408D01*
X9416491Y2126843D01*
X9414256Y2131110D01*
X9413900Y2133904D01*
X9413900Y2270455D01*
X9414560Y2274112D01*
X9416542Y2277313D01*
X9419539Y2279548D01*
X9425279Y2282393D01*
X9436658Y2290013D01*
X9446971Y2299004D01*
X9455962Y2309317D01*
X9463582Y2320696D01*
X9469628Y2332939D01*
X9474047Y2345893D01*
X9476689Y2359355D01*
X9477603Y2372969D01*
X9476689Y2386634D01*
X9474047Y2400096D01*
X9469628Y2413050D01*
X9463582Y2425293D01*
X9455962Y2436672D01*
X9446971Y2446985D01*
X9436658Y2455976D01*
X9425279Y2463596D01*
X9413036Y2469642D01*
X9400082Y2474061D01*
X9386620Y2476703D01*
X9373006Y2477617D01*
X9359341Y2476703D01*
X9345879Y2474061D01*
X9339834Y2471978D01*
X9336125Y2471470D01*
X9332468Y2472334D01*
X9329369Y2474417D01*
X9293860Y2509977D01*
X9291675Y2513279D01*
X9290913Y2517140D01*
X9290913Y2537714D01*
X9291624Y2541473D01*
X9293707Y2544724D01*
X9296857Y2546959D01*
X9300616Y2547874D01*
X9304426Y2547264D01*
X9307728Y2545334D01*
X9309303Y2544013D01*
X9320682Y2536393D01*
X9327286Y2533142D01*
X9327286Y2581249D01*
X9301073Y2581249D01*
X9297162Y2582062D01*
X9293860Y2584246D01*
X9291675Y2587548D01*
X9290913Y2591409D01*
X9290913Y2662529D01*
X9291675Y2666441D01*
X9293860Y2669743D01*
X9297162Y2671927D01*
X9301073Y2672689D01*
X9327286Y2672689D01*
X9327286Y2720848D01*
X9320682Y2717596D01*
X9309303Y2709976D01*
X9307728Y2708656D01*
X9304426Y2706725D01*
X9300616Y2706116D01*
X9296857Y2707030D01*
X9293707Y2709265D01*
X9291624Y2712516D01*
X9290913Y2716276D01*
X9290913Y5079136D01*
X9291675Y5083048D01*
X9293860Y5086350D01*
X9297162Y5088534D01*
X9301073Y5089296D01*
X9330080Y5089296D01*
X9336379Y5090007D01*
X9341866Y5091938D01*
X9346742Y5095036D01*
X9350857Y5099100D01*
X9353905Y5104028D01*
X9355836Y5109464D01*
X9356547Y5115814D01*
X9356547Y5279644D01*
X9355836Y5285994D01*
X9353905Y5291429D01*
X9350857Y5296357D01*
X9346742Y5300421D01*
X9341866Y5303520D01*
X9336379Y5305399D01*
X9330080Y5306110D01*
X9291218Y5306110D01*
X9284868Y5305399D01*
X9281464Y5304231D01*
X9278112Y5303672D01*
X9274759Y5304231D01*
X9271406Y5305399D01*
X9265056Y5306110D01*
X9238386Y5306110D01*
X9234525Y5306923D01*
X9231223Y5309108D01*
X9228988Y5312410D01*
X9228226Y5316270D01*
X9228988Y5320182D01*
X9231223Y5323484D01*
X9263888Y5356148D01*
X9267190Y5358333D01*
X9271050Y5359146D01*
X9455200Y5359146D01*
X9459112Y5358333D01*
X9462414Y5356148D01*
X9464598Y5352846D01*
X9465360Y5348986D01*
X9464598Y5345074D01*
X9462414Y5341772D01*
X9456826Y5336235D01*
X9451187Y5328158D01*
X9447022Y5319268D01*
X9444482Y5309768D01*
X9443618Y5299964D01*
X9444482Y5290210D01*
X9447022Y5280710D01*
X9451187Y5271820D01*
X9456826Y5263743D01*
X9463735Y5256834D01*
X9471812Y5251196D01*
X9480702Y5247030D01*
X9490202Y5244490D01*
X9500006Y5243626D01*
X9509760Y5244490D01*
X9519259Y5247030D01*
X9528149Y5251196D01*
X9536785Y5257241D01*
X9539528Y5258562D01*
X9542576Y5259070D01*
X9578797Y5259070D01*
X9582658Y5258257D01*
X9585960Y5256072D01*
X9856012Y4986020D01*
X9858248Y4982718D01*
X9859010Y4978857D01*
X9859010Y2667050D01*
X9858248Y2663190D01*
X9856012Y2659888D01*
X9748977Y2552852D01*
X9745675Y2550617D01*
X9741814Y2549855D01*
X9737902Y2550617D01*
X9734600Y2552852D01*
X9732416Y2556154D01*
X9731654Y2560015D01*
X9731654Y2581249D01*
X9672726Y2581249D01*
X9672726Y2522321D01*
X9693960Y2522321D01*
X9697821Y2521559D01*
X9701123Y2519375D01*
X9703358Y2516073D01*
X9704120Y2512161D01*
X9703358Y2508300D01*
X9701123Y2504998D01*
X9670592Y2474417D01*
X9667494Y2472334D01*
X9663836Y2471470D01*
X9660128Y2471978D01*
X9654082Y2474061D01*
X9640620Y2476703D01*
X9627006Y2477617D01*
X9613341Y2476703D01*
X9599879Y2474061D01*
X9586925Y2469642D01*
X9574682Y2463596D01*
X9563303Y2455976D01*
X9552990Y2446985D01*
X9543999Y2436672D01*
X9536379Y2425293D01*
X9530334Y2413050D01*
X9525914Y2400096D01*
X9523272Y2386634D01*
X9522358Y2372969D01*
X9523272Y2359355D01*
X9525914Y2345893D01*
X9530334Y2332939D01*
X9536379Y2320696D01*
X9543999Y2309317D01*
X9552990Y2299004D01*
X9563303Y2290013D01*
X9574682Y2282393D01*
X9580372Y2279548D01*
X9583369Y2277313D01*
X9585350Y2274112D01*
X9586061Y2270455D01*
X9586061Y2133854D01*
X9585655Y2131060D01*
X9583470Y2126843D01*
X9581591Y2121408D01*
X9580880Y2115058D01*
X9580880Y2035556D01*
X9581591Y2029256D01*
X9583470Y2023770D01*
X9586569Y2018893D01*
X9590684Y2014778D01*
X9595561Y2011730D01*
X9601657Y2009597D01*
X9605213Y2007463D01*
X9607600Y2004060D01*
X9608464Y1999996D01*
X9607600Y1995932D01*
X9605213Y1992528D01*
X9601657Y1990394D01*
X9595561Y1988261D01*
X9590684Y1985213D01*
X9586569Y1981098D01*
X9583470Y1976221D01*
X9582150Y1972360D01*
X9580016Y1968804D01*
X9576612Y1966417D01*
X9572548Y1965553D01*
G37*

%LPC*%
G36*
X9418726Y2533142D02*
G01*
X9425279Y2536393D01*
X9436658Y2544013D01*
X9446971Y2553004D01*
X9455962Y2563317D01*
X9463582Y2574696D01*
X9466834Y2581249D01*
X9418726Y2581249D01*
G37*
G36*
X9418726Y2672689D02*
G01*
X9466834Y2672689D01*
X9463582Y2679293D01*
X9455962Y2690672D01*
X9446971Y2700985D01*
X9436658Y2709976D01*
X9425279Y2717596D01*
X9418726Y2720848D01*
G37*
G36*
X9672726Y2672689D02*
G01*
X9731654Y2672689D01*
X9731654Y2705150D01*
X9730892Y2711500D01*
X9729012Y2716936D01*
X9725914Y2721864D01*
X9721850Y2725928D01*
X9716922Y2729026D01*
X9711486Y2730906D01*
X9705136Y2731617D01*
X9672726Y2731617D01*
G37*
G36*
X9522358Y2672689D02*
G01*
X9581286Y2672689D01*
X9581286Y2731617D01*
X9548825Y2731617D01*
X9542475Y2730906D01*
X9537039Y2729026D01*
X9532112Y2725928D01*
X9528048Y2721864D01*
X9524949Y2716936D01*
X9523069Y2711500D01*
X9522358Y2705150D01*
G37*
G36*
X9548825Y2522321D02*
G01*
X9581286Y2522321D01*
X9581286Y2581249D01*
X9522358Y2581249D01*
X9522358Y2548839D01*
X9523069Y2542489D01*
X9524949Y2537053D01*
X9528048Y2532126D01*
X9532112Y2528062D01*
X9537039Y2524963D01*
X9542475Y2523083D01*
G37*

%LPD*%
G36*
X8796375Y1965452D02*
G01*
X8792464Y1966264D01*
X8789162Y1968449D01*
X8544001Y2213864D01*
X8541766Y2217166D01*
X8541004Y2221026D01*
X8541004Y2249170D01*
X8541867Y2253234D01*
X8544255Y2256637D01*
X8547811Y2258771D01*
X8554415Y2261057D01*
X8559292Y2264156D01*
X8563406Y2268220D01*
X8566454Y2273147D01*
X8568385Y2278583D01*
X8569096Y2284933D01*
X8569096Y2364435D01*
X8568385Y2370734D01*
X8566454Y2376220D01*
X8563406Y2381097D01*
X8559292Y2385212D01*
X8554415Y2388260D01*
X8548319Y2390394D01*
X8544763Y2392527D01*
X8542375Y2395931D01*
X8541512Y2399995D01*
X8542375Y2404059D01*
X8544763Y2407462D01*
X8548319Y2409596D01*
X8554415Y2411730D01*
X8559292Y2414778D01*
X8563406Y2418892D01*
X8566454Y2423769D01*
X8568385Y2429256D01*
X8569096Y2435555D01*
X8569096Y2515057D01*
X8568385Y2521407D01*
X8566454Y2526842D01*
X8563406Y2531770D01*
X8559292Y2535834D01*
X8554415Y2538933D01*
X8547811Y2541219D01*
X8544255Y2543352D01*
X8541867Y2546756D01*
X8541004Y2550820D01*
X8541004Y3078937D01*
X8541816Y3082798D01*
X8544001Y3086100D01*
X9144101Y3686251D01*
X9149537Y3692804D01*
X9153296Y3699865D01*
X9155633Y3707536D01*
X9156446Y3716020D01*
X9156446Y5079136D01*
X9157258Y5083048D01*
X9159443Y5086350D01*
X9162745Y5088534D01*
X9166606Y5089296D01*
X9198914Y5089296D01*
X9202826Y5088534D01*
X9206077Y5086350D01*
X9208312Y5083048D01*
X9209074Y5079136D01*
X9209074Y2496515D01*
X9209887Y2488031D01*
X9212224Y2480360D01*
X9215983Y2473299D01*
X9221419Y2466695D01*
X9271558Y2416606D01*
X9273641Y2413508D01*
X9274505Y2409850D01*
X9273997Y2406142D01*
X9271914Y2400096D01*
X9269272Y2386634D01*
X9268358Y2372969D01*
X9269272Y2359355D01*
X9271914Y2345893D01*
X9276334Y2332939D01*
X9282379Y2320696D01*
X9289999Y2309317D01*
X9298990Y2299004D01*
X9309303Y2290013D01*
X9320682Y2282393D01*
X9326372Y2279548D01*
X9329369Y2277313D01*
X9331350Y2274112D01*
X9332061Y2270455D01*
X9332061Y2151735D01*
X9331299Y2147824D01*
X9329064Y2144522D01*
X9325813Y2142337D01*
X9321901Y2141575D01*
X9307372Y2141575D01*
X9301022Y2140864D01*
X9295587Y2138934D01*
X9290659Y2135835D01*
X9286595Y2131771D01*
X9283496Y2126843D01*
X9281566Y2121408D01*
X9280855Y2115058D01*
X9280855Y2035556D01*
X9281566Y2029256D01*
X9283496Y2023770D01*
X9286595Y2018893D01*
X9290659Y2014778D01*
X9295587Y2011730D01*
X9301632Y2009597D01*
X9305188Y2007463D01*
X9307576Y2004060D01*
X9308439Y1999996D01*
X9307576Y1995932D01*
X9305188Y1992528D01*
X9301632Y1990394D01*
X9295587Y1988261D01*
X9290659Y1985213D01*
X9286595Y1981098D01*
X9283496Y1976221D01*
X9282125Y1972259D01*
X9279991Y1968703D01*
X9276588Y1966315D01*
X9272524Y1965452D01*
G37*

%LPD*%
G36*
X6776770Y1540814D02*
G01*
X4921250Y1540865D01*
X4917338Y1541627D01*
X4914036Y1543812D01*
X4544009Y1913889D01*
X4541824Y1917192D01*
X4541012Y1921052D01*
X4541012Y2249170D01*
X4541875Y2253234D01*
X4544263Y2256637D01*
X4547819Y2258771D01*
X4554423Y2261057D01*
X4559300Y2264156D01*
X4563414Y2268220D01*
X4566462Y2273147D01*
X4568393Y2278583D01*
X4569104Y2284933D01*
X4569104Y2364435D01*
X4568393Y2370734D01*
X4566462Y2376220D01*
X4563414Y2381097D01*
X4559300Y2385212D01*
X4554423Y2388260D01*
X4548327Y2390394D01*
X4544771Y2392527D01*
X4542383Y2395931D01*
X4541520Y2399995D01*
X4542383Y2404059D01*
X4544771Y2407462D01*
X4548327Y2409596D01*
X4554423Y2411730D01*
X4559300Y2414778D01*
X4563414Y2418892D01*
X4566462Y2423769D01*
X4568393Y2429256D01*
X4569104Y2435555D01*
X4569104Y2515057D01*
X4568393Y2521407D01*
X4566462Y2526842D01*
X4563414Y2531770D01*
X4559300Y2535834D01*
X4554423Y2538933D01*
X4547819Y2541219D01*
X4544263Y2543352D01*
X4541875Y2546756D01*
X4541012Y2550820D01*
X4541012Y2978861D01*
X4541824Y2982722D01*
X4544009Y2986024D01*
X4814062Y3256076D01*
X4817364Y3258261D01*
X4821224Y3259074D01*
X6786575Y3259074D01*
X6790588Y3258210D01*
X6793941Y3255873D01*
X6796125Y3252368D01*
X6796735Y3248304D01*
X6795668Y3244342D01*
X6793128Y3241141D01*
X6789521Y3239160D01*
X6784492Y3237636D01*
X6777380Y3233877D01*
X6770827Y3228492D01*
X6471310Y2929229D01*
X6465874Y2922625D01*
X6462115Y2915564D01*
X6459778Y2907893D01*
X6458966Y2899460D01*
X6458966Y2550820D01*
X6458102Y2546756D01*
X6455714Y2543352D01*
X6452158Y2541219D01*
X6445554Y2538933D01*
X6440678Y2535834D01*
X6436563Y2531770D01*
X6433515Y2526842D01*
X6432143Y2523032D01*
X6430010Y2519476D01*
X6426657Y2517089D01*
X6422593Y2516225D01*
X6168948Y2516225D01*
X6165291Y2516886D01*
X6162141Y2518816D01*
X6159906Y2521762D01*
X6158788Y2526030D01*
X6155029Y2543048D01*
X6149441Y2559558D01*
X6142126Y2575356D01*
X6133134Y2590292D01*
X6122619Y2604160D01*
X6110630Y2616809D01*
X6097371Y2628087D01*
X6082944Y2637840D01*
X6067552Y2646019D01*
X6051346Y2652471D01*
X6034582Y2657144D01*
X6017361Y2659938D01*
X5999988Y2660904D01*
X5982614Y2659938D01*
X5965393Y2657144D01*
X5948629Y2652471D01*
X5932424Y2646019D01*
X5917031Y2637840D01*
X5902604Y2628087D01*
X5889345Y2616809D01*
X5877356Y2604160D01*
X5866841Y2590292D01*
X5857849Y2575356D01*
X5850534Y2559558D01*
X5844946Y2543048D01*
X5841238Y2526030D01*
X5839358Y2508707D01*
X5839358Y2491282D01*
X5841238Y2473960D01*
X5844946Y2456942D01*
X5850534Y2440432D01*
X5857849Y2424633D01*
X5866841Y2409698D01*
X5877356Y2395829D01*
X5889345Y2383180D01*
X5902604Y2371902D01*
X5917031Y2362149D01*
X5932424Y2353970D01*
X5948629Y2347518D01*
X5965393Y2342845D01*
X5982614Y2340051D01*
X5999988Y2339086D01*
X6017361Y2340051D01*
X6034582Y2342845D01*
X6051346Y2347518D01*
X6067552Y2353970D01*
X6082944Y2362149D01*
X6097371Y2371902D01*
X6110630Y2383180D01*
X6122619Y2395829D01*
X6133134Y2409698D01*
X6142126Y2424633D01*
X6143955Y2428544D01*
X6146190Y2431643D01*
X6149390Y2433726D01*
X6153150Y2434437D01*
X6422593Y2434437D01*
X6426657Y2433574D01*
X6430010Y2431186D01*
X6432143Y2427630D01*
X6433515Y2423769D01*
X6436563Y2418892D01*
X6440678Y2414778D01*
X6445554Y2411730D01*
X6451650Y2409596D01*
X6455206Y2407462D01*
X6457594Y2404059D01*
X6458458Y2399995D01*
X6457594Y2395931D01*
X6455206Y2392527D01*
X6451650Y2390394D01*
X6445554Y2388260D01*
X6440678Y2385212D01*
X6436563Y2381097D01*
X6433515Y2376220D01*
X6431584Y2370734D01*
X6430873Y2364435D01*
X6430873Y2284933D01*
X6431584Y2278583D01*
X6433515Y2273147D01*
X6436563Y2268220D01*
X6440678Y2264156D01*
X6445554Y2261057D01*
X6452158Y2258771D01*
X6455714Y2256637D01*
X6458102Y2253234D01*
X6458966Y2249170D01*
X6458966Y1900428D01*
X6459778Y1891944D01*
X6462115Y1884273D01*
X6465874Y1877212D01*
X6471310Y1870659D01*
X6783984Y1558137D01*
X6786168Y1554886D01*
X6786930Y1550974D01*
X6786168Y1547063D01*
X6783984Y1543812D01*
X6780682Y1541576D01*
G37*

%LPC*%
G36*
X6073851Y2827324D02*
G01*
X6082944Y2832150D01*
X6097371Y2841904D01*
X6110630Y2853182D01*
X6122619Y2865831D01*
X6133134Y2879699D01*
X6142126Y2894634D01*
X6142837Y2896158D01*
X6073851Y2896158D01*
G37*
G36*
X6073851Y3043834D02*
G01*
X6142837Y3043834D01*
X6142126Y3045358D01*
X6133134Y3060293D01*
X6122619Y3074162D01*
X6110630Y3086811D01*
X6097371Y3098088D01*
X6082944Y3107842D01*
X6073851Y3112668D01*
G37*
G36*
X5857138Y3043834D02*
G01*
X5926124Y3043834D01*
X5926124Y3112668D01*
X5917031Y3107842D01*
X5902604Y3098088D01*
X5889345Y3086811D01*
X5877356Y3074162D01*
X5866841Y3060293D01*
X5857849Y3045358D01*
G37*
G36*
X5926124Y2827324D02*
G01*
X5926124Y2896158D01*
X5857138Y2896158D01*
X5857849Y2894634D01*
X5866841Y2879699D01*
X5877356Y2865831D01*
X5889345Y2853182D01*
X5902604Y2841904D01*
X5917031Y2832150D01*
G37*
G36*
X5999988Y1869084D02*
G01*
X6017361Y1870049D01*
X6034582Y1872843D01*
X6051346Y1877517D01*
X6067552Y1883968D01*
X6082944Y1892147D01*
X6097371Y1901901D01*
X6110630Y1913178D01*
X6122619Y1925828D01*
X6133134Y1939696D01*
X6142126Y1954631D01*
X6149441Y1970430D01*
X6155029Y1986940D01*
X6158738Y2003958D01*
X6160617Y2021281D01*
X6160617Y2038705D01*
X6158738Y2056028D01*
X6155029Y2073046D01*
X6149441Y2089556D01*
X6142126Y2105355D01*
X6133134Y2120290D01*
X6122619Y2134158D01*
X6110630Y2146808D01*
X6097371Y2158085D01*
X6082944Y2167839D01*
X6067552Y2176018D01*
X6051346Y2182469D01*
X6034582Y2187143D01*
X6017361Y2189937D01*
X5999988Y2190902D01*
X5982563Y2189937D01*
X5965393Y2187143D01*
X5948629Y2182469D01*
X5932424Y2176018D01*
X5917031Y2167839D01*
X5902604Y2158085D01*
X5889345Y2146808D01*
X5877356Y2134158D01*
X5866790Y2120290D01*
X5857849Y2105355D01*
X5850534Y2089556D01*
X5844946Y2073046D01*
X5841187Y2056028D01*
X5839307Y2038705D01*
X5839307Y2021281D01*
X5841187Y2003958D01*
X5844946Y1986940D01*
X5850534Y1970430D01*
X5857849Y1954631D01*
X5866790Y1939696D01*
X5877356Y1925828D01*
X5889345Y1913178D01*
X5902604Y1901901D01*
X5917031Y1892147D01*
X5932424Y1883968D01*
X5948629Y1877517D01*
X5965393Y1872843D01*
X5982563Y1870049D01*
G37*

%LPD*%
G36*
X2921050Y1540764D02*
G01*
X2917190Y1541526D01*
X2913888Y1543761D01*
X2543759Y1913889D01*
X2541524Y1917192D01*
X2540762Y1921052D01*
X2540762Y2249170D01*
X2541625Y2253234D01*
X2544064Y2256637D01*
X2547670Y2258771D01*
X2554427Y2261108D01*
X2559304Y2264156D01*
X2563418Y2268220D01*
X2566466Y2273147D01*
X2568397Y2278583D01*
X2569108Y2284933D01*
X2569108Y2364435D01*
X2568397Y2370734D01*
X2566466Y2376220D01*
X2563418Y2381097D01*
X2559304Y2385212D01*
X2554427Y2388260D01*
X2548331Y2390394D01*
X2544775Y2392527D01*
X2542387Y2395931D01*
X2541524Y2399995D01*
X2542387Y2404059D01*
X2544775Y2407462D01*
X2548331Y2409596D01*
X2554427Y2411730D01*
X2559304Y2414778D01*
X2563418Y2418892D01*
X2566466Y2423769D01*
X2568397Y2429256D01*
X2569108Y2435555D01*
X2569108Y2515057D01*
X2568397Y2521407D01*
X2566466Y2526842D01*
X2563418Y2531770D01*
X2559304Y2535834D01*
X2554427Y2538882D01*
X2547670Y2541219D01*
X2544064Y2543352D01*
X2541625Y2546756D01*
X2540762Y2550820D01*
X2540762Y3078886D01*
X2541574Y3082798D01*
X2543759Y3086100D01*
X2814066Y3356152D01*
X2817368Y3358387D01*
X2821228Y3359150D01*
X4786579Y3359150D01*
X4790592Y3358286D01*
X4793945Y3355949D01*
X4796129Y3352444D01*
X4796739Y3348431D01*
X4795672Y3344418D01*
X4793132Y3341217D01*
X4789525Y3339236D01*
X4784445Y3337712D01*
X4777384Y3333953D01*
X4770831Y3328517D01*
X4471568Y3029254D01*
X4466132Y3022701D01*
X4462373Y3015640D01*
X4460036Y3007969D01*
X4459224Y2999486D01*
X4459224Y2550820D01*
X4458360Y2546756D01*
X4455922Y2543352D01*
X4452315Y2541219D01*
X4445558Y2538882D01*
X4440682Y2535834D01*
X4436567Y2531770D01*
X4433519Y2526842D01*
X4432147Y2523032D01*
X4430014Y2519476D01*
X4426661Y2517089D01*
X4422597Y2516225D01*
X4168952Y2516225D01*
X4165295Y2516886D01*
X4162145Y2518816D01*
X4159910Y2521762D01*
X4158792Y2526030D01*
X4155033Y2543048D01*
X4149445Y2559558D01*
X4142130Y2575356D01*
X4133138Y2590292D01*
X4122623Y2604160D01*
X4110634Y2616809D01*
X4097375Y2628087D01*
X4082948Y2637840D01*
X4067556Y2646019D01*
X4051350Y2652471D01*
X4034586Y2657144D01*
X4017365Y2659938D01*
X3999992Y2660904D01*
X3982618Y2659938D01*
X3965397Y2657144D01*
X3948633Y2652471D01*
X3932428Y2646019D01*
X3917035Y2637840D01*
X3902608Y2628087D01*
X3889349Y2616809D01*
X3877360Y2604160D01*
X3866845Y2590292D01*
X3857853Y2575356D01*
X3850538Y2559558D01*
X3844950Y2543048D01*
X3841242Y2526030D01*
X3839362Y2508707D01*
X3839362Y2491282D01*
X3841242Y2473960D01*
X3844950Y2456942D01*
X3850538Y2440432D01*
X3857853Y2424633D01*
X3866845Y2409698D01*
X3877360Y2395829D01*
X3889349Y2383180D01*
X3902608Y2371902D01*
X3917035Y2362149D01*
X3932428Y2353970D01*
X3948633Y2347518D01*
X3965397Y2342845D01*
X3982618Y2340051D01*
X3999992Y2339086D01*
X4017365Y2340051D01*
X4034586Y2342845D01*
X4051350Y2347518D01*
X4067556Y2353970D01*
X4082948Y2362149D01*
X4097375Y2371902D01*
X4110634Y2383180D01*
X4122623Y2395829D01*
X4133138Y2409698D01*
X4142130Y2424633D01*
X4143959Y2428544D01*
X4146194Y2431643D01*
X4149394Y2433726D01*
X4153154Y2434437D01*
X4422597Y2434437D01*
X4426661Y2433574D01*
X4430014Y2431186D01*
X4432147Y2427630D01*
X4433519Y2423769D01*
X4436567Y2418892D01*
X4440682Y2414778D01*
X4445558Y2411730D01*
X4451654Y2409596D01*
X4455210Y2407462D01*
X4457598Y2404059D01*
X4458462Y2399995D01*
X4457598Y2395931D01*
X4455210Y2392527D01*
X4451654Y2390394D01*
X4445558Y2388260D01*
X4440682Y2385212D01*
X4436567Y2381097D01*
X4433519Y2376220D01*
X4431588Y2370734D01*
X4430877Y2364435D01*
X4430877Y2284933D01*
X4431588Y2278583D01*
X4433519Y2273147D01*
X4436567Y2268220D01*
X4440682Y2264156D01*
X4445558Y2261108D01*
X4452315Y2258771D01*
X4455922Y2256637D01*
X4458360Y2253234D01*
X4459224Y2249170D01*
X4459224Y1900428D01*
X4460036Y1891944D01*
X4462373Y1884273D01*
X4466132Y1877212D01*
X4471568Y1870659D01*
X4783988Y1558188D01*
X4786172Y1554886D01*
X4786934Y1551025D01*
X4786172Y1547114D01*
X4783988Y1543862D01*
X4780686Y1541627D01*
X4776774Y1540865D01*
G37*

%LPC*%
G36*
X3857142Y3043834D02*
G01*
X3926128Y3043834D01*
X3926128Y3112668D01*
X3917035Y3107842D01*
X3902608Y3098088D01*
X3889349Y3086811D01*
X3877360Y3074162D01*
X3866845Y3060293D01*
X3857853Y3045358D01*
G37*
G36*
X4073855Y2827324D02*
G01*
X4082948Y2832150D01*
X4097375Y2841904D01*
X4110634Y2853182D01*
X4122623Y2865831D01*
X4133138Y2879699D01*
X4142130Y2894634D01*
X4142841Y2896158D01*
X4073855Y2896158D01*
G37*
G36*
X3926128Y2827324D02*
G01*
X3926128Y2896158D01*
X3857142Y2896158D01*
X3857853Y2894634D01*
X3866845Y2879699D01*
X3877360Y2865831D01*
X3889349Y2853182D01*
X3902608Y2841904D01*
X3917035Y2832150D01*
G37*
G36*
X4073855Y3043834D02*
G01*
X4142841Y3043834D01*
X4142130Y3045358D01*
X4133138Y3060293D01*
X4122623Y3074162D01*
X4110634Y3086811D01*
X4097375Y3098088D01*
X4082948Y3107842D01*
X4073855Y3112668D01*
G37*
G36*
X3999992Y1869084D02*
G01*
X4017365Y1870049D01*
X4034586Y1872843D01*
X4051350Y1877517D01*
X4067556Y1883968D01*
X4082948Y1892147D01*
X4097375Y1901901D01*
X4110634Y1913178D01*
X4122623Y1925828D01*
X4133138Y1939696D01*
X4142130Y1954631D01*
X4149445Y1970430D01*
X4155033Y1986940D01*
X4158742Y2003958D01*
X4160621Y2021281D01*
X4160621Y2038705D01*
X4158742Y2056028D01*
X4155033Y2073046D01*
X4149445Y2089556D01*
X4142130Y2105355D01*
X4133138Y2120290D01*
X4122623Y2134158D01*
X4110634Y2146808D01*
X4097375Y2158085D01*
X4082948Y2167839D01*
X4067556Y2176018D01*
X4051350Y2182469D01*
X4034586Y2187143D01*
X4017365Y2189937D01*
X3999992Y2190902D01*
X3982567Y2189937D01*
X3965397Y2187143D01*
X3948633Y2182469D01*
X3932428Y2176018D01*
X3917035Y2167839D01*
X3902608Y2158085D01*
X3889349Y2146808D01*
X3877360Y2134158D01*
X3866794Y2120290D01*
X3857853Y2105355D01*
X3850538Y2089556D01*
X3844950Y2073046D01*
X3841191Y2056028D01*
X3839311Y2038705D01*
X3839311Y2021281D01*
X3841191Y2003958D01*
X3844950Y1986940D01*
X3850538Y1970430D01*
X3857853Y1954631D01*
X3866794Y1939696D01*
X3877360Y1925828D01*
X3889349Y1913178D01*
X3902608Y1901901D01*
X3917035Y1892147D01*
X3932428Y1883968D01*
X3948633Y1877517D01*
X3965397Y1872843D01*
X3982567Y1870049D01*
G37*

%LPD*%
G36*
X8313267Y1540764D02*
G01*
X7042607Y1540814D01*
X7039559Y1541272D01*
X7036765Y1542643D01*
X7028180Y1548688D01*
X7019239Y1552803D01*
X7009790Y1555343D01*
X6999986Y1556207D01*
X6990181Y1555343D01*
X6980732Y1552803D01*
X6971792Y1548688D01*
X6963206Y1542643D01*
X6960463Y1541272D01*
X6957364Y1540814D01*
X6921296Y1540814D01*
X6917385Y1541576D01*
X6914083Y1543761D01*
X6543751Y1913889D01*
X6541566Y1917192D01*
X6540754Y1921103D01*
X6540754Y2249170D01*
X6541617Y2253234D01*
X6544056Y2256637D01*
X6547662Y2258771D01*
X6554419Y2261108D01*
X6559296Y2264156D01*
X6563410Y2268220D01*
X6566458Y2273147D01*
X6568389Y2278583D01*
X6569100Y2284933D01*
X6569100Y2364435D01*
X6568389Y2370734D01*
X6566458Y2376220D01*
X6563410Y2381097D01*
X6559296Y2385212D01*
X6554419Y2388260D01*
X6548323Y2390394D01*
X6544767Y2392527D01*
X6542379Y2395931D01*
X6541516Y2399995D01*
X6542379Y2404059D01*
X6544767Y2407462D01*
X6548323Y2409596D01*
X6554419Y2411730D01*
X6559296Y2414778D01*
X6563410Y2418892D01*
X6566458Y2423769D01*
X6568389Y2429256D01*
X6569100Y2435555D01*
X6569100Y2515057D01*
X6568389Y2521407D01*
X6566458Y2526842D01*
X6563410Y2531770D01*
X6559296Y2535834D01*
X6554419Y2538882D01*
X6547662Y2541219D01*
X6544056Y2543352D01*
X6541617Y2546756D01*
X6540754Y2550820D01*
X6540754Y2878734D01*
X6541566Y2882646D01*
X6543751Y2885948D01*
X6814058Y3156000D01*
X6817359Y3158236D01*
X6821220Y3158998D01*
X8476640Y3158998D01*
X8480552Y3158185D01*
X8483803Y3156000D01*
X8486038Y3152698D01*
X8486800Y3148838D01*
X8486038Y3144926D01*
X8483803Y3141624D01*
X8471560Y3129330D01*
X8466124Y3122777D01*
X8462365Y3115716D01*
X8460028Y3108045D01*
X8459216Y3099562D01*
X8459216Y2550820D01*
X8458352Y2546756D01*
X8455914Y2543352D01*
X8452307Y2541219D01*
X8445550Y2538882D01*
X8440674Y2535834D01*
X8436559Y2531770D01*
X8433511Y2526842D01*
X8432139Y2523032D01*
X8430006Y2519476D01*
X8426653Y2517089D01*
X8422589Y2516225D01*
X8168944Y2516225D01*
X8165287Y2516886D01*
X8162137Y2518816D01*
X8159902Y2521762D01*
X8158784Y2526030D01*
X8155025Y2543048D01*
X8149437Y2559558D01*
X8142122Y2575356D01*
X8133130Y2590292D01*
X8122615Y2604160D01*
X8110626Y2616809D01*
X8097367Y2628087D01*
X8082940Y2637840D01*
X8067548Y2646019D01*
X8051342Y2652471D01*
X8034578Y2657144D01*
X8017357Y2659938D01*
X7999984Y2660904D01*
X7982610Y2659938D01*
X7965389Y2657144D01*
X7948625Y2652471D01*
X7932420Y2646019D01*
X7917027Y2637840D01*
X7902600Y2628087D01*
X7889341Y2616809D01*
X7877352Y2604160D01*
X7866837Y2590292D01*
X7857845Y2575356D01*
X7850530Y2559558D01*
X7844942Y2543048D01*
X7841234Y2526030D01*
X7839354Y2508707D01*
X7839354Y2491282D01*
X7841234Y2473960D01*
X7844942Y2456942D01*
X7850530Y2440432D01*
X7857845Y2424633D01*
X7866837Y2409698D01*
X7877352Y2395829D01*
X7889341Y2383180D01*
X7902600Y2371902D01*
X7917027Y2362149D01*
X7932420Y2353970D01*
X7948625Y2347518D01*
X7965389Y2342845D01*
X7982610Y2340051D01*
X7999984Y2339086D01*
X8017357Y2340051D01*
X8034578Y2342845D01*
X8051342Y2347518D01*
X8067548Y2353970D01*
X8082940Y2362149D01*
X8097367Y2371902D01*
X8110626Y2383180D01*
X8122615Y2395829D01*
X8133130Y2409698D01*
X8142122Y2424633D01*
X8143951Y2428544D01*
X8146186Y2431643D01*
X8149386Y2433726D01*
X8153146Y2434437D01*
X8422589Y2434437D01*
X8426653Y2433574D01*
X8430006Y2431186D01*
X8432139Y2427630D01*
X8433511Y2423769D01*
X8436559Y2418892D01*
X8440674Y2414778D01*
X8445550Y2411730D01*
X8451646Y2409596D01*
X8455202Y2407462D01*
X8457590Y2404059D01*
X8458454Y2399995D01*
X8457590Y2395931D01*
X8455202Y2392527D01*
X8451646Y2390394D01*
X8445550Y2388260D01*
X8440674Y2385212D01*
X8436559Y2381097D01*
X8433511Y2376220D01*
X8431580Y2370734D01*
X8430869Y2364435D01*
X8430869Y2284933D01*
X8431580Y2278583D01*
X8433511Y2273147D01*
X8436559Y2268220D01*
X8440674Y2264156D01*
X8445550Y2261108D01*
X8452307Y2258771D01*
X8455914Y2256637D01*
X8458352Y2253234D01*
X8459216Y2249170D01*
X8459216Y2200402D01*
X8460028Y2191918D01*
X8462365Y2184298D01*
X8466124Y2177186D01*
X8471509Y2170633D01*
X8734806Y1907082D01*
X8736990Y1903831D01*
X8737752Y1899920D01*
X8736990Y1896059D01*
X8734806Y1892757D01*
X8385809Y1543761D01*
X8382508Y1541526D01*
X8378647Y1540764D01*
G37*

%LPC*%
G36*
X7857134Y3043834D02*
G01*
X7926120Y3043834D01*
X7926120Y3112668D01*
X7917027Y3107842D01*
X7902600Y3098088D01*
X7889341Y3086811D01*
X7877352Y3074162D01*
X7866837Y3060293D01*
X7857845Y3045358D01*
G37*
G36*
X7926120Y2827324D02*
G01*
X7926120Y2896158D01*
X7857134Y2896158D01*
X7857845Y2894634D01*
X7866837Y2879699D01*
X7877352Y2865831D01*
X7889341Y2853182D01*
X7902600Y2841904D01*
X7917027Y2832150D01*
G37*
G36*
X8073847Y2827324D02*
G01*
X8082940Y2832150D01*
X8097367Y2841904D01*
X8110626Y2853182D01*
X8122615Y2865831D01*
X8133130Y2879699D01*
X8142122Y2894634D01*
X8142833Y2896158D01*
X8073847Y2896158D01*
G37*
G36*
X8073847Y3043834D02*
G01*
X8142833Y3043834D01*
X8142122Y3045358D01*
X8133130Y3060293D01*
X8122615Y3074162D01*
X8110626Y3086811D01*
X8097367Y3098088D01*
X8082940Y3107842D01*
X8073847Y3112668D01*
G37*
G36*
X7999984Y1869084D02*
G01*
X8017357Y1870049D01*
X8034578Y1872843D01*
X8051342Y1877517D01*
X8067548Y1883968D01*
X8082940Y1892147D01*
X8097367Y1901901D01*
X8110626Y1913178D01*
X8122615Y1925828D01*
X8133130Y1939696D01*
X8142122Y1954631D01*
X8149437Y1970430D01*
X8155025Y1986940D01*
X8158734Y2003958D01*
X8160613Y2021281D01*
X8160613Y2038705D01*
X8158734Y2056028D01*
X8155025Y2073046D01*
X8149437Y2089556D01*
X8142122Y2105355D01*
X8133130Y2120290D01*
X8122615Y2134158D01*
X8110626Y2146808D01*
X8097367Y2158085D01*
X8082940Y2167839D01*
X8067548Y2176018D01*
X8051342Y2182469D01*
X8034578Y2187143D01*
X8017357Y2189937D01*
X7999984Y2190902D01*
X7982559Y2189937D01*
X7965389Y2187143D01*
X7948625Y2182469D01*
X7932420Y2176018D01*
X7917027Y2167839D01*
X7902600Y2158085D01*
X7889341Y2146808D01*
X7877352Y2134158D01*
X7866786Y2120290D01*
X7857845Y2105355D01*
X7850530Y2089556D01*
X7844942Y2073046D01*
X7841183Y2056028D01*
X7839303Y2038705D01*
X7839303Y2021281D01*
X7841183Y2003958D01*
X7844942Y1986940D01*
X7850530Y1970430D01*
X7857845Y1954631D01*
X7866786Y1939696D01*
X7877352Y1925828D01*
X7889341Y1913178D01*
X7902600Y1901901D01*
X7917027Y1892147D01*
X7932420Y1883968D01*
X7948625Y1877517D01*
X7965389Y1872843D01*
X7982559Y1870049D01*
G37*

%LPD*%
G36*
X736041Y25908D02*
G01*
X732180Y26670D01*
X728929Y28803D01*
X726694Y32004D01*
X725881Y35814D01*
X726541Y39674D01*
X728624Y43027D01*
X731774Y45313D01*
X735380Y46939D01*
X762812Y61722D01*
X789279Y78130D01*
X814679Y96164D01*
X838962Y115722D01*
X861923Y136702D01*
X883615Y159105D01*
X903833Y182778D01*
X922578Y207670D01*
X939749Y233629D01*
X955243Y260654D01*
X969111Y288544D01*
X981202Y317246D01*
X991514Y346659D01*
X999947Y376631D01*
X1006551Y407060D01*
X1011275Y437845D01*
X1014120Y468884D01*
X1014984Y499973D01*
X1014120Y531114D01*
X1011275Y562152D01*
X1006551Y592937D01*
X999947Y623366D01*
X991514Y653338D01*
X981202Y682752D01*
X969111Y711454D01*
X955243Y739343D01*
X939749Y766368D01*
X922578Y792327D01*
X903833Y817219D01*
X883615Y840892D01*
X861923Y863295D01*
X838962Y884275D01*
X814679Y903833D01*
X789279Y921867D01*
X762812Y938276D01*
X735380Y953008D01*
X707085Y966063D01*
X678078Y977341D01*
X648360Y986790D01*
X618185Y994410D01*
X587552Y1000150D01*
X556666Y1003960D01*
X525576Y1005890D01*
X494436Y1005890D01*
X463346Y1003960D01*
X432409Y1000150D01*
X401828Y994410D01*
X371602Y986790D01*
X341934Y977341D01*
X312877Y966063D01*
X284581Y953008D01*
X257149Y938276D01*
X230682Y921867D01*
X205282Y903833D01*
X181051Y884275D01*
X158038Y863295D01*
X136398Y840892D01*
X116179Y817219D01*
X97434Y792327D01*
X80264Y766368D01*
X64719Y739343D01*
X50901Y711454D01*
X45415Y698500D01*
X43230Y695248D01*
X39928Y693064D01*
X36017Y692302D01*
X32156Y693064D01*
X28854Y695299D01*
X26670Y698601D01*
X25908Y702462D01*
X25908Y9297517D01*
X26670Y9301378D01*
X28854Y9304680D01*
X32156Y9306864D01*
X36017Y9307677D01*
X39928Y9306915D01*
X43230Y9304731D01*
X45415Y9301429D01*
X50901Y9288526D01*
X64719Y9260636D01*
X80264Y9233611D01*
X97434Y9207652D01*
X116179Y9182760D01*
X136398Y9159087D01*
X158038Y9136684D01*
X181051Y9115704D01*
X205282Y9096146D01*
X230682Y9078112D01*
X257149Y9061704D01*
X284581Y9046921D01*
X312877Y9033916D01*
X341934Y9022638D01*
X371602Y9013190D01*
X401828Y9005570D01*
X432409Y8999829D01*
X463346Y8996019D01*
X494436Y8994089D01*
X525576Y8994089D01*
X556666Y8996019D01*
X587552Y8999829D01*
X618185Y9005570D01*
X648360Y9013190D01*
X678078Y9022638D01*
X707085Y9033916D01*
X735380Y9046921D01*
X762812Y9061704D01*
X789279Y9078112D01*
X814679Y9096146D01*
X838962Y9115704D01*
X861923Y9136684D01*
X883615Y9159087D01*
X903833Y9182760D01*
X922578Y9207652D01*
X939749Y9233611D01*
X955243Y9260636D01*
X969111Y9288526D01*
X981202Y9317228D01*
X991514Y9346641D01*
X999947Y9376613D01*
X1006551Y9407042D01*
X1011275Y9437827D01*
X1014120Y9468866D01*
X1014984Y9499955D01*
X1014120Y9531096D01*
X1011275Y9562134D01*
X1006551Y9592919D01*
X999947Y9623348D01*
X991514Y9653320D01*
X981202Y9682734D01*
X969111Y9711436D01*
X955243Y9739325D01*
X939749Y9766350D01*
X922578Y9792309D01*
X903833Y9817201D01*
X883615Y9840874D01*
X861923Y9863277D01*
X838962Y9884257D01*
X814679Y9903815D01*
X789279Y9921849D01*
X762812Y9938258D01*
X735380Y9952990D01*
X731774Y9954666D01*
X728573Y9956952D01*
X726541Y9960305D01*
X725881Y9964115D01*
X726694Y9967976D01*
X728929Y9971176D01*
X732180Y9973310D01*
X736041Y9974072D01*
X9283954Y9974072D01*
X9287764Y9973310D01*
X9291066Y9971176D01*
X9293250Y9967976D01*
X9294114Y9964115D01*
X9293453Y9960305D01*
X9291370Y9956952D01*
X9288221Y9954666D01*
X9284563Y9952990D01*
X9257131Y9938258D01*
X9230664Y9921849D01*
X9205264Y9903815D01*
X9181033Y9884257D01*
X9158020Y9863277D01*
X9136380Y9840874D01*
X9116161Y9817201D01*
X9097416Y9792309D01*
X9080246Y9766350D01*
X9064701Y9739325D01*
X9050883Y9711436D01*
X9038793Y9682734D01*
X9028480Y9653320D01*
X9019997Y9623348D01*
X9013393Y9592919D01*
X9008668Y9562134D01*
X9005874Y9531096D01*
X9004960Y9500006D01*
X9005874Y9468866D01*
X9008668Y9437827D01*
X9013393Y9407042D01*
X9019997Y9376613D01*
X9028480Y9346641D01*
X9038793Y9317228D01*
X9050883Y9288526D01*
X9064701Y9260636D01*
X9080246Y9233611D01*
X9097416Y9207652D01*
X9116161Y9182760D01*
X9136380Y9159087D01*
X9158020Y9136684D01*
X9181033Y9115704D01*
X9205264Y9096146D01*
X9230664Y9078112D01*
X9257131Y9061704D01*
X9284563Y9046921D01*
X9312859Y9033916D01*
X9341916Y9022638D01*
X9371584Y9013190D01*
X9401810Y9005570D01*
X9432391Y8999829D01*
X9463328Y8996019D01*
X9494418Y8994089D01*
X9525558Y8994089D01*
X9556648Y8996019D01*
X9587534Y8999829D01*
X9618167Y9005570D01*
X9648342Y9013190D01*
X9678060Y9022638D01*
X9707067Y9033916D01*
X9735362Y9046921D01*
X9762794Y9061704D01*
X9789261Y9078112D01*
X9814661Y9096146D01*
X9838944Y9115704D01*
X9861905Y9136684D01*
X9883597Y9159087D01*
X9903815Y9182760D01*
X9922560Y9207652D01*
X9939731Y9233611D01*
X9955123Y9260382D01*
X9958070Y9263634D01*
X9962134Y9265310D01*
X9966553Y9265107D01*
X9970414Y9263075D01*
X9973106Y9259620D01*
X9974072Y9255302D01*
X9974072Y2117547D01*
X9973208Y2113483D01*
X9970820Y2110079D01*
X9967264Y2107946D01*
X9963150Y2107387D01*
X9959187Y2108555D01*
X9955987Y2111197D01*
X9954107Y2114905D01*
X9952939Y2119274D01*
X9948773Y2128164D01*
X9943134Y2136241D01*
X9936226Y2143150D01*
X9928148Y2148789D01*
X9919258Y2152954D01*
X9909759Y2155494D01*
X9900005Y2156358D01*
X9890201Y2155494D01*
X9880701Y2152954D01*
X9871811Y2148789D01*
X9863734Y2143150D01*
X9856825Y2136241D01*
X9851186Y2128164D01*
X9847021Y2119274D01*
X9844481Y2109774D01*
X9844074Y2105304D01*
X9843160Y2101900D01*
X9841179Y2099056D01*
X9725507Y1983384D01*
X9722205Y1981149D01*
X9718294Y1980387D01*
X9714433Y1981149D01*
X9711131Y1983384D01*
X9709302Y1985213D01*
X9704374Y1988261D01*
X9698329Y1990394D01*
X9694773Y1992528D01*
X9692386Y1995932D01*
X9691522Y1999996D01*
X9692386Y2004060D01*
X9694773Y2007463D01*
X9698329Y2009597D01*
X9704374Y2011730D01*
X9709302Y2014778D01*
X9713366Y2018893D01*
X9716465Y2023770D01*
X9718395Y2029256D01*
X9719106Y2035556D01*
X9719106Y2115058D01*
X9718395Y2121408D01*
X9716465Y2126843D01*
X9713366Y2131771D01*
X9709302Y2135835D01*
X9704374Y2138934D01*
X9698939Y2140864D01*
X9692589Y2141575D01*
X9678060Y2141575D01*
X9674148Y2142337D01*
X9670846Y2144522D01*
X9668662Y2147824D01*
X9667900Y2151735D01*
X9667900Y2270455D01*
X9668560Y2274112D01*
X9670542Y2277313D01*
X9673539Y2279548D01*
X9679279Y2282393D01*
X9690658Y2290013D01*
X9700971Y2299004D01*
X9709962Y2309317D01*
X9717582Y2320696D01*
X9723628Y2332939D01*
X9728047Y2345893D01*
X9730689Y2359355D01*
X9731603Y2372969D01*
X9730689Y2386634D01*
X9728047Y2400096D01*
X9725964Y2406142D01*
X9725456Y2409850D01*
X9726320Y2413508D01*
X9728403Y2416606D01*
X9928453Y2616657D01*
X9933889Y2623210D01*
X9937648Y2630271D01*
X9939985Y2637942D01*
X9940798Y2646426D01*
X9940798Y4999482D01*
X9939985Y5007965D01*
X9937648Y5015636D01*
X9933889Y5022697D01*
X9928453Y5029250D01*
X9629190Y5328513D01*
X9622637Y5333949D01*
X9615576Y5337708D01*
X9607905Y5340045D01*
X9599422Y5340858D01*
X9563404Y5340858D01*
X9559391Y5341721D01*
X9556038Y5344058D01*
X9553854Y5347563D01*
X9553244Y5351627D01*
X9554311Y5355590D01*
X9556851Y5358790D01*
X9560458Y5360771D01*
X9565487Y5362244D01*
X9572548Y5366004D01*
X9579102Y5371439D01*
X9653828Y5445912D01*
X9659264Y5452465D01*
X9663074Y5459526D01*
X9665411Y5467197D01*
X9666224Y5475630D01*
X9666224Y5522569D01*
X9667087Y5526633D01*
X9669475Y5530037D01*
X9673031Y5532170D01*
X9676841Y5533491D01*
X9681718Y5536590D01*
X9685832Y5540654D01*
X9688931Y5545582D01*
X9690811Y5551017D01*
X9691522Y5557367D01*
X9691522Y5642610D01*
X9690811Y5648960D01*
X9688931Y5654395D01*
X9685832Y5659323D01*
X9681718Y5663387D01*
X9676841Y5666486D01*
X9671354Y5668365D01*
X9665055Y5669076D01*
X9585756Y5669076D01*
X9581896Y5669889D01*
X9578594Y5672074D01*
X9576409Y5675376D01*
X9575596Y5679236D01*
X9575596Y5718911D01*
X9576409Y5722823D01*
X9578594Y5726125D01*
X9581896Y5728309D01*
X9585756Y5729071D01*
X9593630Y5729071D01*
X9593630Y5771134D01*
X9589312Y5771134D01*
X9584944Y5772099D01*
X9581438Y5774842D01*
X9579457Y5778804D01*
X9579356Y5783275D01*
X9580067Y5786932D01*
X9580930Y5800090D01*
X9580067Y5813247D01*
X9579356Y5816701D01*
X9579508Y5821172D01*
X9581489Y5825134D01*
X9584994Y5827877D01*
X9589363Y5828842D01*
X9593630Y5828842D01*
X9593630Y5870905D01*
X9580524Y5870905D01*
X9574225Y5870194D01*
X9568738Y5868263D01*
X9566656Y5866942D01*
X9563354Y5865622D01*
X9559798Y5865520D01*
X9556394Y5866638D01*
X9553651Y5868873D01*
X9551365Y5871413D01*
X9541459Y5880150D01*
X9530486Y5887466D01*
X9518650Y5893308D01*
X9506153Y5897524D01*
X9493199Y5900115D01*
X9490659Y5900267D01*
X9487103Y5901182D01*
X9484156Y5903214D01*
X9452000Y5935268D01*
X9449816Y5938570D01*
X9449003Y5942482D01*
X9449003Y7387285D01*
X9449765Y7391146D01*
X9452000Y7394448D01*
X9572447Y7515098D01*
X9575749Y7517282D01*
X9579660Y7518095D01*
X9598152Y7518095D01*
X9600133Y7517892D01*
X9613341Y7515250D01*
X9627006Y7514336D01*
X9640620Y7515250D01*
X9654082Y7517942D01*
X9667036Y7522311D01*
X9679279Y7528356D01*
X9690658Y7535976D01*
X9700971Y7545019D01*
X9709962Y7555280D01*
X9717582Y7566659D01*
X9723628Y7578953D01*
X9728047Y7591907D01*
X9730689Y7605318D01*
X9731603Y7618984D01*
X9730689Y7632649D01*
X9728047Y7646060D01*
X9723628Y7659014D01*
X9717582Y7671308D01*
X9709962Y7682687D01*
X9700971Y7692948D01*
X9690658Y7701991D01*
X9679279Y7709611D01*
X9667036Y7715656D01*
X9654082Y7720025D01*
X9640620Y7722717D01*
X9627006Y7723631D01*
X9613341Y7722717D01*
X9600133Y7720075D01*
X9598152Y7719872D01*
X9467646Y7719872D01*
X9464192Y7720482D01*
X9457436Y7722920D01*
X9451136Y7723631D01*
X9300972Y7723631D01*
X9297111Y7724394D01*
X9293809Y7726629D01*
X9291624Y7729880D01*
X9290812Y7733792D01*
X9290812Y7778902D01*
X9291624Y7782763D01*
X9293809Y7786065D01*
X9296450Y7788706D01*
X9299295Y7790738D01*
X9302648Y7791653D01*
X9306102Y7791399D01*
X9309303Y7789976D01*
X9320682Y7782356D01*
X9332925Y7776311D01*
X9345879Y7771942D01*
X9359341Y7769250D01*
X9373006Y7768336D01*
X9386620Y7769250D01*
X9400082Y7771942D01*
X9413036Y7776311D01*
X9425279Y7782356D01*
X9436658Y7789976D01*
X9446971Y7799019D01*
X9455962Y7809280D01*
X9463582Y7820659D01*
X9466427Y7826400D01*
X9468662Y7829397D01*
X9471863Y7831378D01*
X9475520Y7832090D01*
X9524441Y7832090D01*
X9528098Y7831378D01*
X9531299Y7829397D01*
X9533534Y7826400D01*
X9536379Y7820659D01*
X9543999Y7809280D01*
X9552990Y7799019D01*
X9563303Y7789976D01*
X9574682Y7782356D01*
X9586925Y7776311D01*
X9599879Y7771942D01*
X9613341Y7769250D01*
X9627006Y7768336D01*
X9640620Y7769250D01*
X9654082Y7771942D01*
X9667036Y7776311D01*
X9679279Y7782356D01*
X9690658Y7789976D01*
X9700971Y7799019D01*
X9709962Y7809280D01*
X9717582Y7820659D01*
X9723628Y7832953D01*
X9728047Y7845907D01*
X9730689Y7859318D01*
X9731603Y7872984D01*
X9730689Y7886649D01*
X9728047Y7900060D01*
X9723628Y7913014D01*
X9717582Y7925308D01*
X9709962Y7936687D01*
X9700971Y7946948D01*
X9690658Y7955991D01*
X9679279Y7963611D01*
X9667036Y7969656D01*
X9654082Y7974025D01*
X9640620Y7976717D01*
X9627006Y7977631D01*
X9613341Y7976717D01*
X9599879Y7974025D01*
X9586925Y7969656D01*
X9574682Y7963611D01*
X9563303Y7955991D01*
X9552990Y7946948D01*
X9543999Y7936687D01*
X9536379Y7925308D01*
X9533534Y7919567D01*
X9531299Y7916570D01*
X9528098Y7914589D01*
X9524441Y7913878D01*
X9475520Y7913878D01*
X9471863Y7914589D01*
X9468662Y7916570D01*
X9466427Y7919567D01*
X9463582Y7925308D01*
X9455962Y7936687D01*
X9446971Y7946948D01*
X9436658Y7955991D01*
X9425279Y7963611D01*
X9413036Y7969656D01*
X9400082Y7974025D01*
X9386620Y7976717D01*
X9373006Y7977631D01*
X9359341Y7976717D01*
X9345879Y7974025D01*
X9332925Y7969656D01*
X9320682Y7963611D01*
X9309303Y7955991D01*
X9298990Y7946948D01*
X9289999Y7936687D01*
X9282379Y7925308D01*
X9276334Y7913014D01*
X9271914Y7900060D01*
X9269272Y7886649D01*
X9268815Y7880248D01*
X9267952Y7876743D01*
X9265869Y7873746D01*
X9238792Y7846771D01*
X9235541Y7844586D01*
X9231630Y7843824D01*
X9227769Y7844586D01*
X9224467Y7846771D01*
X9222232Y7850073D01*
X9221470Y7853984D01*
X9221470Y7959547D01*
X9222282Y7963408D01*
X9224467Y7966709D01*
X9298838Y8041131D01*
X9301683Y8043113D01*
X9305036Y8044027D01*
X9308490Y8043773D01*
X9311690Y8042351D01*
X9320682Y8036356D01*
X9332925Y8030311D01*
X9345879Y8025942D01*
X9359341Y8023250D01*
X9373006Y8022336D01*
X9386620Y8023250D01*
X9400082Y8025942D01*
X9413036Y8030311D01*
X9425279Y8036356D01*
X9436658Y8043976D01*
X9446971Y8053019D01*
X9455962Y8063280D01*
X9463582Y8074659D01*
X9466427Y8080400D01*
X9468662Y8083397D01*
X9471863Y8085378D01*
X9475520Y8086090D01*
X9524441Y8086090D01*
X9528098Y8085378D01*
X9531299Y8083397D01*
X9533534Y8080400D01*
X9536379Y8074659D01*
X9543999Y8063280D01*
X9552990Y8053019D01*
X9563303Y8043976D01*
X9574682Y8036356D01*
X9586925Y8030311D01*
X9599879Y8025942D01*
X9613341Y8023250D01*
X9627006Y8022336D01*
X9640620Y8023250D01*
X9654082Y8025942D01*
X9667036Y8030311D01*
X9679279Y8036356D01*
X9690658Y8043976D01*
X9700971Y8053019D01*
X9709962Y8063280D01*
X9717582Y8074659D01*
X9723628Y8086953D01*
X9728047Y8099907D01*
X9730689Y8113318D01*
X9731603Y8126984D01*
X9730689Y8140649D01*
X9728047Y8154060D01*
X9723628Y8167014D01*
X9717582Y8179308D01*
X9709962Y8190687D01*
X9700971Y8200948D01*
X9690658Y8209991D01*
X9679279Y8217611D01*
X9667036Y8223656D01*
X9654082Y8228025D01*
X9640620Y8230717D01*
X9627006Y8231631D01*
X9613341Y8230717D01*
X9599879Y8228025D01*
X9586925Y8223656D01*
X9574682Y8217611D01*
X9563303Y8209991D01*
X9552990Y8200948D01*
X9543999Y8190687D01*
X9536379Y8179308D01*
X9533534Y8173567D01*
X9531299Y8170570D01*
X9528098Y8168589D01*
X9524441Y8167878D01*
X9475520Y8167878D01*
X9471863Y8168589D01*
X9468662Y8170570D01*
X9466427Y8173567D01*
X9463582Y8179308D01*
X9455962Y8190687D01*
X9446971Y8200948D01*
X9436658Y8209991D01*
X9425279Y8217611D01*
X9413036Y8223656D01*
X9400082Y8228025D01*
X9386620Y8230717D01*
X9373006Y8231631D01*
X9359341Y8230717D01*
X9345879Y8228025D01*
X9332925Y8223656D01*
X9320682Y8217611D01*
X9309303Y8209991D01*
X9298990Y8200948D01*
X9289999Y8190687D01*
X9282379Y8179308D01*
X9276334Y8167014D01*
X9271914Y8154060D01*
X9269272Y8140649D01*
X9268561Y8130082D01*
X9267698Y8126526D01*
X9265615Y8123580D01*
X9152026Y8009940D01*
X9146590Y8003387D01*
X9142831Y7996326D01*
X9140494Y7988655D01*
X9139682Y7980172D01*
X9139682Y5920790D01*
X9138920Y5916930D01*
X9136684Y5913628D01*
X9133382Y5911443D01*
X9129522Y5910630D01*
X9101582Y5910630D01*
X9097721Y5911443D01*
X9094419Y5913628D01*
X9092234Y5916930D01*
X9091422Y5920790D01*
X9091422Y7248906D01*
X9090609Y7257389D01*
X9088272Y7265060D01*
X9084513Y7272121D01*
X9079128Y7278674D01*
X8544001Y7814056D01*
X8541766Y7817358D01*
X8541004Y7821218D01*
X8541004Y8449157D01*
X8541867Y8453221D01*
X8544255Y8456625D01*
X8547811Y8458758D01*
X8554415Y8461044D01*
X8559292Y8464143D01*
X8563406Y8468207D01*
X8566454Y8473135D01*
X8568385Y8478570D01*
X8569096Y8484920D01*
X8569096Y8564422D01*
X8568385Y8570722D01*
X8566454Y8576208D01*
X8563406Y8581085D01*
X8559292Y8585200D01*
X8554415Y8588248D01*
X8548319Y8590381D01*
X8544763Y8592515D01*
X8542375Y8595918D01*
X8541512Y8599982D01*
X8542375Y8604046D01*
X8544763Y8607450D01*
X8548319Y8609584D01*
X8554415Y8611717D01*
X8559292Y8614765D01*
X8563406Y8618880D01*
X8566454Y8623757D01*
X8567826Y8627618D01*
X8569960Y8631174D01*
X8573363Y8633561D01*
X8577376Y8634425D01*
X9703511Y8634425D01*
X9707372Y8633663D01*
X9710674Y8631428D01*
X9741154Y8600948D01*
X9743186Y8598052D01*
X9744100Y8594648D01*
X9744506Y8590178D01*
X9747046Y8580729D01*
X9751161Y8571788D01*
X9756800Y8563762D01*
X9763760Y8556802D01*
X9771786Y8551164D01*
X9780727Y8547049D01*
X9790176Y8544509D01*
X9799980Y8543645D01*
X9809784Y8544509D01*
X9819233Y8547049D01*
X9828174Y8551164D01*
X9836200Y8556802D01*
X9843160Y8563762D01*
X9848799Y8571788D01*
X9852914Y8580729D01*
X9855454Y8590178D01*
X9856317Y8599982D01*
X9855454Y8609787D01*
X9852914Y8619236D01*
X9848799Y8628176D01*
X9843160Y8636203D01*
X9836200Y8643162D01*
X9828174Y8648801D01*
X9819233Y8652916D01*
X9809784Y8655456D01*
X9805314Y8655862D01*
X9801910Y8656777D01*
X9799015Y8658809D01*
X9753904Y8703919D01*
X9747351Y8709304D01*
X9740290Y8713063D01*
X9732619Y8715400D01*
X9724136Y8716213D01*
X8577376Y8716213D01*
X8573312Y8717076D01*
X8569960Y8719464D01*
X8567775Y8723020D01*
X8566454Y8726830D01*
X8563406Y8731758D01*
X8559292Y8735822D01*
X8554415Y8738920D01*
X8547811Y8741206D01*
X8544255Y8743340D01*
X8541867Y8746744D01*
X8541004Y8750808D01*
X8541004Y8999474D01*
X8540191Y9007957D01*
X8537854Y9015628D01*
X8534095Y9022689D01*
X8528659Y9029242D01*
X8229142Y9328556D01*
X8222589Y9333941D01*
X8215528Y9337700D01*
X8207857Y9340037D01*
X8199374Y9340850D01*
X2800604Y9340850D01*
X2792120Y9340037D01*
X2784500Y9337700D01*
X2777388Y9333941D01*
X2770835Y9328556D01*
X2471318Y9029293D01*
X2465882Y9022689D01*
X2462123Y9015628D01*
X2459786Y9007957D01*
X2458974Y8999524D01*
X2458974Y8750808D01*
X2458110Y8746744D01*
X2455722Y8743340D01*
X2452166Y8741206D01*
X2445562Y8738920D01*
X2440686Y8735822D01*
X2436571Y8731758D01*
X2433523Y8726830D01*
X2431592Y8721394D01*
X2430881Y8715044D01*
X2430881Y8635542D01*
X2431592Y8629243D01*
X2433523Y8623757D01*
X2436571Y8618880D01*
X2440686Y8614765D01*
X2445562Y8611717D01*
X2451658Y8609584D01*
X2455214Y8607450D01*
X2457602Y8604046D01*
X2458466Y8599982D01*
X2457602Y8595918D01*
X2455214Y8592515D01*
X2451658Y8590381D01*
X2445562Y8588248D01*
X2440686Y8585200D01*
X2436571Y8581085D01*
X2433523Y8576208D01*
X2432151Y8572347D01*
X2430018Y8568791D01*
X2426665Y8566404D01*
X2422601Y8565540D01*
X2153158Y8565540D01*
X2149398Y8566251D01*
X2146198Y8568334D01*
X2143963Y8571433D01*
X2142134Y8575344D01*
X2133142Y8590280D01*
X2122627Y8604148D01*
X2110638Y8616797D01*
X2097379Y8628075D01*
X2082952Y8637828D01*
X2067560Y8646007D01*
X2051354Y8652459D01*
X2034590Y8657132D01*
X2017369Y8659926D01*
X1999996Y8660892D01*
X1982622Y8659926D01*
X1965401Y8657132D01*
X1948637Y8652459D01*
X1932432Y8646007D01*
X1917039Y8637828D01*
X1902612Y8628075D01*
X1889353Y8616797D01*
X1877364Y8604148D01*
X1866849Y8590280D01*
X1857857Y8575344D01*
X1850542Y8559546D01*
X1844954Y8543036D01*
X1841246Y8526018D01*
X1839366Y8508695D01*
X1839366Y8491270D01*
X1841246Y8473948D01*
X1844954Y8456930D01*
X1850542Y8440420D01*
X1857857Y8424621D01*
X1866849Y8409686D01*
X1877364Y8395817D01*
X1889353Y8383168D01*
X1902612Y8371890D01*
X1917039Y8362137D01*
X1932432Y8353958D01*
X1948637Y8347506D01*
X1965401Y8342833D01*
X1982622Y8340039D01*
X1999996Y8339074D01*
X2017369Y8340039D01*
X2034590Y8342833D01*
X2051354Y8347506D01*
X2067560Y8353958D01*
X2082952Y8362137D01*
X2097379Y8371890D01*
X2110638Y8383168D01*
X2122627Y8395817D01*
X2133142Y8409686D01*
X2142134Y8424621D01*
X2149449Y8440420D01*
X2155037Y8456930D01*
X2158796Y8473948D01*
X2159914Y8478215D01*
X2162149Y8481161D01*
X2165299Y8483092D01*
X2168956Y8483752D01*
X2422601Y8483752D01*
X2426665Y8482888D01*
X2430018Y8480501D01*
X2432151Y8476945D01*
X2433523Y8473135D01*
X2436571Y8468207D01*
X2440686Y8464143D01*
X2445562Y8461044D01*
X2452166Y8458758D01*
X2455722Y8456625D01*
X2458110Y8453221D01*
X2458974Y8449157D01*
X2458974Y7800594D01*
X2459786Y7792110D01*
X2462123Y7784439D01*
X2465882Y7777378D01*
X2471318Y7770825D01*
X2770835Y7471308D01*
X2777388Y7465872D01*
X2784449Y7462113D01*
X2792526Y7459675D01*
X2796235Y7457592D01*
X2798826Y7454138D01*
X2799740Y7449921D01*
X2798826Y7445756D01*
X2796235Y7442301D01*
X2792526Y7440218D01*
X2784500Y7437780D01*
X2777388Y7434021D01*
X2770835Y7428636D01*
X2471318Y7129373D01*
X2465882Y7122769D01*
X2462123Y7115708D01*
X2459786Y7108037D01*
X2458974Y7099604D01*
X2458974Y6550812D01*
X2458110Y6546748D01*
X2455722Y6543344D01*
X2452166Y6541211D01*
X2445562Y6538925D01*
X2440686Y6535826D01*
X2436571Y6531762D01*
X2433523Y6526834D01*
X2432151Y6523024D01*
X2430018Y6519468D01*
X2426665Y6517081D01*
X2422601Y6516217D01*
X2168956Y6516217D01*
X2165299Y6516878D01*
X2162149Y6518808D01*
X2159914Y6521754D01*
X2158796Y6526022D01*
X2155037Y6543040D01*
X2149449Y6559550D01*
X2142134Y6575348D01*
X2133142Y6590284D01*
X2122627Y6604152D01*
X2110638Y6616801D01*
X2097379Y6628079D01*
X2082952Y6637832D01*
X2067560Y6646011D01*
X2051354Y6652463D01*
X2034590Y6657136D01*
X2017369Y6659930D01*
X1999996Y6660896D01*
X1982622Y6659930D01*
X1965401Y6657136D01*
X1948637Y6652463D01*
X1932432Y6646011D01*
X1917039Y6637832D01*
X1902612Y6628079D01*
X1889353Y6616801D01*
X1877364Y6604152D01*
X1866849Y6590284D01*
X1857857Y6575348D01*
X1850542Y6559550D01*
X1844954Y6543040D01*
X1841246Y6526022D01*
X1839366Y6508699D01*
X1839366Y6491274D01*
X1841246Y6473952D01*
X1844954Y6456934D01*
X1850542Y6440424D01*
X1857857Y6424625D01*
X1866849Y6409690D01*
X1877364Y6395821D01*
X1889353Y6383172D01*
X1902612Y6371894D01*
X1917039Y6362141D01*
X1932432Y6353962D01*
X1948637Y6347510D01*
X1965401Y6342837D01*
X1982622Y6340043D01*
X1999996Y6339078D01*
X2017369Y6340043D01*
X2034590Y6342837D01*
X2051354Y6347510D01*
X2067560Y6353962D01*
X2082952Y6362141D01*
X2097379Y6371894D01*
X2110638Y6383172D01*
X2122627Y6395821D01*
X2133142Y6409690D01*
X2142134Y6424625D01*
X2143963Y6428536D01*
X2146198Y6431635D01*
X2149398Y6433718D01*
X2153158Y6434429D01*
X2422601Y6434429D01*
X2426665Y6433566D01*
X2430018Y6431178D01*
X2432151Y6427622D01*
X2433523Y6423761D01*
X2436571Y6418884D01*
X2440686Y6414770D01*
X2445562Y6411722D01*
X2451658Y6409588D01*
X2455214Y6407454D01*
X2457602Y6404051D01*
X2458466Y6399987D01*
X2457602Y6395923D01*
X2455214Y6392519D01*
X2451658Y6390386D01*
X2445562Y6388252D01*
X2440686Y6385204D01*
X2436571Y6381089D01*
X2433523Y6376212D01*
X2431592Y6370726D01*
X2430881Y6364427D01*
X2430881Y6284925D01*
X2431592Y6278575D01*
X2433523Y6273139D01*
X2436571Y6268212D01*
X2440686Y6264148D01*
X2445562Y6261049D01*
X2452166Y6258763D01*
X2455722Y6256629D01*
X2458110Y6253226D01*
X2458974Y6249162D01*
X2458974Y5800598D01*
X2459786Y5792114D01*
X2462123Y5784443D01*
X2465882Y5777382D01*
X2471318Y5770829D01*
X2735021Y5507075D01*
X2737256Y5503773D01*
X2738018Y5499862D01*
X2737256Y5496001D01*
X2735021Y5492699D01*
X2471318Y5229199D01*
X2465882Y5222595D01*
X2462123Y5215534D01*
X2459786Y5207863D01*
X2458974Y5199430D01*
X2458974Y4750816D01*
X2458110Y4746752D01*
X2455722Y4743348D01*
X2452166Y4741214D01*
X2445562Y4738928D01*
X2440686Y4735830D01*
X2436571Y4731766D01*
X2433523Y4726838D01*
X2431592Y4721402D01*
X2430881Y4715052D01*
X2430881Y4635550D01*
X2431592Y4629251D01*
X2433523Y4623765D01*
X2436571Y4618888D01*
X2440686Y4614773D01*
X2445562Y4611725D01*
X2451658Y4609592D01*
X2455214Y4607458D01*
X2457602Y4604054D01*
X2458466Y4599990D01*
X2457602Y4595926D01*
X2455214Y4592523D01*
X2451658Y4590389D01*
X2445562Y4588256D01*
X2440686Y4585208D01*
X2436571Y4581093D01*
X2433523Y4576216D01*
X2432151Y4572355D01*
X2430018Y4568799D01*
X2426665Y4566412D01*
X2422601Y4565548D01*
X2153158Y4565548D01*
X2149398Y4566259D01*
X2146198Y4568342D01*
X2143963Y4571441D01*
X2142134Y4575352D01*
X2133142Y4590288D01*
X2122627Y4604156D01*
X2110638Y4616805D01*
X2097379Y4628083D01*
X2082952Y4637836D01*
X2067560Y4646015D01*
X2051354Y4652467D01*
X2034590Y4657140D01*
X2017369Y4659934D01*
X1999996Y4660900D01*
X1982622Y4659934D01*
X1965401Y4657140D01*
X1948637Y4652467D01*
X1932432Y4646015D01*
X1917039Y4637836D01*
X1902612Y4628083D01*
X1889353Y4616805D01*
X1877364Y4604156D01*
X1866849Y4590288D01*
X1857857Y4575352D01*
X1850542Y4559554D01*
X1844954Y4543044D01*
X1841246Y4526026D01*
X1839366Y4508703D01*
X1839366Y4491278D01*
X1841246Y4473956D01*
X1844954Y4456938D01*
X1850542Y4440428D01*
X1857857Y4424629D01*
X1866849Y4409694D01*
X1877364Y4395825D01*
X1889353Y4383176D01*
X1902612Y4371898D01*
X1917039Y4362145D01*
X1932432Y4353966D01*
X1948637Y4347514D01*
X1965401Y4342841D01*
X1982622Y4340047D01*
X1999996Y4339082D01*
X2017369Y4340047D01*
X2034590Y4342841D01*
X2051354Y4347514D01*
X2067560Y4353966D01*
X2082952Y4362145D01*
X2097379Y4371898D01*
X2110638Y4383176D01*
X2122627Y4395825D01*
X2133142Y4409694D01*
X2142134Y4424629D01*
X2149449Y4440428D01*
X2155037Y4456938D01*
X2158796Y4473956D01*
X2159914Y4478223D01*
X2162149Y4481169D01*
X2165299Y4483100D01*
X2168956Y4483760D01*
X2422601Y4483760D01*
X2426665Y4482896D01*
X2430018Y4480509D01*
X2432151Y4476953D01*
X2433523Y4473143D01*
X2436571Y4468215D01*
X2440686Y4464151D01*
X2445562Y4461052D01*
X2452166Y4458766D01*
X2455722Y4456633D01*
X2458110Y4453229D01*
X2458974Y4449165D01*
X2458974Y3800601D01*
X2459786Y3792118D01*
X2462123Y3784447D01*
X2465882Y3777386D01*
X2471318Y3770833D01*
X2770835Y3471316D01*
X2777388Y3465880D01*
X2784449Y3462121D01*
X2792526Y3459683D01*
X2796235Y3457600D01*
X2798826Y3454146D01*
X2799740Y3449929D01*
X2798826Y3445764D01*
X2796235Y3442309D01*
X2792526Y3440226D01*
X2784500Y3437788D01*
X2777388Y3434029D01*
X2770835Y3428644D01*
X2471318Y3129381D01*
X2465882Y3122777D01*
X2462123Y3115716D01*
X2459786Y3108045D01*
X2458974Y3099612D01*
X2458974Y2550820D01*
X2458110Y2546756D01*
X2455722Y2543352D01*
X2452166Y2541219D01*
X2445562Y2538933D01*
X2440686Y2535834D01*
X2436571Y2531770D01*
X2433523Y2526842D01*
X2432151Y2523032D01*
X2430018Y2519476D01*
X2426665Y2517089D01*
X2422601Y2516225D01*
X2168956Y2516225D01*
X2165299Y2516886D01*
X2162149Y2518816D01*
X2159914Y2521762D01*
X2158796Y2526030D01*
X2155037Y2543048D01*
X2149449Y2559558D01*
X2142134Y2575356D01*
X2133142Y2590292D01*
X2122627Y2604160D01*
X2110638Y2616809D01*
X2097379Y2628087D01*
X2082952Y2637840D01*
X2067560Y2646019D01*
X2051354Y2652471D01*
X2034590Y2657144D01*
X2017369Y2659938D01*
X1999996Y2660904D01*
X1982622Y2659938D01*
X1965401Y2657144D01*
X1948637Y2652471D01*
X1932432Y2646019D01*
X1917039Y2637840D01*
X1902612Y2628087D01*
X1889353Y2616809D01*
X1877364Y2604160D01*
X1866849Y2590292D01*
X1857857Y2575356D01*
X1850542Y2559558D01*
X1844954Y2543048D01*
X1841246Y2526030D01*
X1839366Y2508707D01*
X1839366Y2491282D01*
X1841246Y2473960D01*
X1844954Y2456942D01*
X1850542Y2440432D01*
X1857857Y2424633D01*
X1866849Y2409698D01*
X1877364Y2395829D01*
X1889353Y2383180D01*
X1902612Y2371902D01*
X1917039Y2362149D01*
X1932432Y2353970D01*
X1948637Y2347518D01*
X1965401Y2342845D01*
X1982622Y2340051D01*
X1999996Y2339086D01*
X2017369Y2340051D01*
X2034590Y2342845D01*
X2051354Y2347518D01*
X2067560Y2353970D01*
X2082952Y2362149D01*
X2097379Y2371902D01*
X2110638Y2383180D01*
X2122627Y2395829D01*
X2133142Y2409698D01*
X2142134Y2424633D01*
X2143963Y2428544D01*
X2146198Y2431643D01*
X2149398Y2433726D01*
X2153158Y2434437D01*
X2422601Y2434437D01*
X2426665Y2433574D01*
X2430018Y2431186D01*
X2432151Y2427630D01*
X2433523Y2423769D01*
X2436571Y2418892D01*
X2440686Y2414778D01*
X2445562Y2411730D01*
X2451658Y2409596D01*
X2455214Y2407462D01*
X2457602Y2404059D01*
X2458466Y2399995D01*
X2457602Y2395931D01*
X2455214Y2392527D01*
X2451658Y2390394D01*
X2445562Y2388260D01*
X2440686Y2385212D01*
X2436571Y2381097D01*
X2433523Y2376220D01*
X2431592Y2370734D01*
X2430881Y2364435D01*
X2430881Y2284933D01*
X2431592Y2278583D01*
X2433523Y2273147D01*
X2436571Y2268220D01*
X2440686Y2264156D01*
X2445562Y2261057D01*
X2452166Y2258771D01*
X2455722Y2256637D01*
X2458110Y2253234D01*
X2458974Y2249170D01*
X2458974Y1900428D01*
X2459786Y1891944D01*
X2462123Y1884273D01*
X2465882Y1877212D01*
X2471318Y1870659D01*
X2870657Y1471320D01*
X2877210Y1465884D01*
X2884271Y1462125D01*
X2891942Y1459788D01*
X2900426Y1458976D01*
X6957314Y1458976D01*
X6960412Y1458468D01*
X6963156Y1457147D01*
X6971792Y1451051D01*
X6980732Y1446936D01*
X6990181Y1444396D01*
X6999986Y1443532D01*
X7009790Y1444396D01*
X7019239Y1446936D01*
X7028180Y1451051D01*
X7036816Y1457147D01*
X7039559Y1458468D01*
X7042658Y1458976D01*
X8399272Y1458976D01*
X8407755Y1459788D01*
X8415426Y1462125D01*
X8422487Y1465884D01*
X8429040Y1471320D01*
X8838438Y1880666D01*
X8841740Y1882851D01*
X8845600Y1883664D01*
X9272625Y1883664D01*
X9276689Y1882800D01*
X9280042Y1880412D01*
X9282176Y1876856D01*
X9283496Y1873148D01*
X9286595Y1868220D01*
X9290659Y1864156D01*
X9295587Y1861057D01*
X9301022Y1859127D01*
X9307372Y1858416D01*
X9392615Y1858416D01*
X9398914Y1859127D01*
X9404400Y1861057D01*
X9409277Y1864156D01*
X9413392Y1868220D01*
X9416491Y1873148D01*
X9417761Y1876856D01*
X9419894Y1880412D01*
X9423298Y1882800D01*
X9427362Y1883664D01*
X9572548Y1883765D01*
X9576612Y1882902D01*
X9580016Y1880514D01*
X9582150Y1876958D01*
X9583470Y1873148D01*
X9586569Y1868220D01*
X9590684Y1864156D01*
X9595561Y1861057D01*
X9601047Y1859127D01*
X9607346Y1858416D01*
X9692589Y1858416D01*
X9698939Y1859127D01*
X9704374Y1861057D01*
X9709302Y1864156D01*
X9713366Y1868220D01*
X9716465Y1873148D01*
X9717887Y1877212D01*
X9719818Y1880514D01*
X9722815Y1882902D01*
X9726472Y1883968D01*
X9732619Y1884578D01*
X9740290Y1886915D01*
X9747351Y1890674D01*
X9753904Y1896059D01*
X9898989Y2041194D01*
X9901885Y2043175D01*
X9905288Y2044090D01*
X9909759Y2044496D01*
X9919258Y2047036D01*
X9928148Y2051202D01*
X9936226Y2056841D01*
X9943134Y2063750D01*
X9948773Y2071827D01*
X9952939Y2080717D01*
X9954107Y2085086D01*
X9955987Y2088794D01*
X9959187Y2091436D01*
X9963150Y2092604D01*
X9967264Y2092045D01*
X9970820Y2089912D01*
X9973208Y2086508D01*
X9974072Y2082444D01*
X9974072Y734669D01*
X9973056Y730300D01*
X9970262Y726744D01*
X9966248Y724763D01*
X9961727Y724763D01*
X9957663Y726643D01*
X9954818Y730148D01*
X9950246Y739343D01*
X9934702Y766368D01*
X9917531Y792327D01*
X9898786Y817219D01*
X9878568Y840892D01*
X9856927Y863295D01*
X9833914Y884275D01*
X9809683Y903833D01*
X9784283Y921867D01*
X9757816Y938276D01*
X9730384Y953058D01*
X9702088Y966063D01*
X9673031Y977341D01*
X9643364Y986790D01*
X9613138Y994410D01*
X9582556Y1000150D01*
X9551619Y1003960D01*
X9520529Y1005890D01*
X9489389Y1005890D01*
X9458299Y1003960D01*
X9427413Y1000150D01*
X9396780Y994410D01*
X9366605Y986790D01*
X9336887Y977341D01*
X9307880Y966063D01*
X9279585Y953058D01*
X9252153Y938276D01*
X9225686Y921867D01*
X9200286Y903833D01*
X9176004Y884275D01*
X9153042Y863295D01*
X9131350Y840892D01*
X9111132Y817219D01*
X9092387Y792327D01*
X9075216Y766368D01*
X9059722Y739343D01*
X9045854Y711454D01*
X9033764Y682752D01*
X9023451Y653338D01*
X9015018Y623366D01*
X9008414Y592937D01*
X9003690Y562152D01*
X9000845Y531114D01*
X8999982Y500024D01*
X9000845Y468884D01*
X9003690Y437845D01*
X9008414Y407060D01*
X9015018Y376631D01*
X9023451Y346659D01*
X9033764Y317246D01*
X9045854Y288544D01*
X9059722Y260654D01*
X9075216Y233629D01*
X9092387Y207670D01*
X9111132Y182778D01*
X9131350Y159105D01*
X9153042Y136702D01*
X9176004Y115722D01*
X9200286Y96164D01*
X9225686Y78130D01*
X9252153Y61722D01*
X9279585Y46939D01*
X9283192Y45313D01*
X9286392Y43027D01*
X9288424Y39674D01*
X9289084Y35814D01*
X9288272Y32004D01*
X9286036Y28803D01*
X9282785Y26670D01*
X9278924Y25908D01*
G37*

%LPC*%
G36*
X9646310Y5729071D02*
G01*
X9659416Y5729071D01*
X9665716Y5729782D01*
X9671202Y5731713D01*
X9676079Y5734761D01*
X9680194Y5738876D01*
X9683242Y5743752D01*
X9685172Y5749239D01*
X9685883Y5755538D01*
X9685883Y5771134D01*
X9646310Y5771134D01*
G37*
G36*
X9646310Y5828842D02*
G01*
X9685883Y5828842D01*
X9685883Y5844438D01*
X9685172Y5850737D01*
X9683242Y5856224D01*
X9680194Y5861100D01*
X9676079Y5865215D01*
X9671202Y5868263D01*
X9665716Y5870194D01*
X9659416Y5870905D01*
X9646310Y5870905D01*
G37*
G36*
X1999996Y5869076D02*
G01*
X2017369Y5870041D01*
X2034590Y5872835D01*
X2051354Y5877509D01*
X2067560Y5883960D01*
X2082952Y5892139D01*
X2097379Y5901893D01*
X2110638Y5913170D01*
X2122627Y5925820D01*
X2133142Y5939688D01*
X2142134Y5954623D01*
X2149449Y5970422D01*
X2155037Y5986932D01*
X2158746Y6003950D01*
X2160625Y6021273D01*
X2160625Y6038697D01*
X2158746Y6056020D01*
X2155037Y6073038D01*
X2149449Y6089548D01*
X2142134Y6105347D01*
X2133142Y6120282D01*
X2122627Y6134150D01*
X2110638Y6146800D01*
X2097379Y6158077D01*
X2082952Y6167831D01*
X2067560Y6176010D01*
X2051354Y6182461D01*
X2034590Y6187135D01*
X2017369Y6189929D01*
X1999996Y6190894D01*
X1982571Y6189929D01*
X1965401Y6187135D01*
X1948637Y6182461D01*
X1932432Y6176010D01*
X1917039Y6167831D01*
X1902612Y6158077D01*
X1889353Y6146800D01*
X1877364Y6134150D01*
X1866798Y6120282D01*
X1857857Y6105347D01*
X1850542Y6089548D01*
X1844954Y6073038D01*
X1841195Y6056020D01*
X1839315Y6038697D01*
X1839315Y6021273D01*
X1841195Y6003950D01*
X1844954Y5986932D01*
X1850542Y5970422D01*
X1857857Y5954623D01*
X1866798Y5939688D01*
X1877364Y5925820D01*
X1889353Y5913170D01*
X1902612Y5901893D01*
X1917039Y5892139D01*
X1932432Y5883960D01*
X1948637Y5877509D01*
X1965401Y5872835D01*
X1982571Y5870041D01*
G37*
G36*
X1926132Y6827316D02*
G01*
X1926132Y6896150D01*
X1857146Y6896150D01*
X1857857Y6894626D01*
X1866849Y6879691D01*
X1877364Y6865823D01*
X1889353Y6853174D01*
X1902612Y6841896D01*
X1917039Y6832142D01*
G37*
G36*
X2073859Y6827316D02*
G01*
X2082952Y6832142D01*
X2097379Y6841896D01*
X2110638Y6853174D01*
X2122627Y6865823D01*
X2133142Y6879691D01*
X2142134Y6894626D01*
X2142845Y6896150D01*
X2073859Y6896150D01*
G37*
G36*
X2073859Y7043826D02*
G01*
X2142845Y7043826D01*
X2142134Y7045350D01*
X2133142Y7060285D01*
X2122627Y7074153D01*
X2110638Y7086803D01*
X2097379Y7098080D01*
X2082952Y7107834D01*
X2073859Y7112660D01*
G37*
G36*
X1857146Y7043826D02*
G01*
X1926132Y7043826D01*
X1926132Y7112660D01*
X1917039Y7107834D01*
X1902612Y7098080D01*
X1889353Y7086803D01*
X1877364Y7074153D01*
X1866849Y7060285D01*
X1857857Y7045350D01*
G37*
G36*
X2073859Y9043822D02*
G01*
X2142845Y9043822D01*
X2142134Y9045346D01*
X2133142Y9060281D01*
X2122627Y9074150D01*
X2110638Y9086799D01*
X2097379Y9098076D01*
X2082952Y9107830D01*
X2073859Y9112656D01*
G37*
G36*
X1857146Y9043822D02*
G01*
X1926132Y9043822D01*
X1926132Y9112656D01*
X1917039Y9107830D01*
X1902612Y9098076D01*
X1889353Y9086799D01*
X1877364Y9074150D01*
X1866849Y9060281D01*
X1857857Y9045346D01*
G37*
G36*
X1999996Y1869084D02*
G01*
X2017369Y1870049D01*
X2034590Y1872843D01*
X2051354Y1877517D01*
X2067560Y1883968D01*
X2082952Y1892147D01*
X2097379Y1901901D01*
X2110638Y1913178D01*
X2122627Y1925828D01*
X2133142Y1939696D01*
X2142134Y1954631D01*
X2149449Y1970430D01*
X2155037Y1986940D01*
X2158746Y2003958D01*
X2160625Y2021281D01*
X2160625Y2038705D01*
X2158746Y2056028D01*
X2155037Y2073046D01*
X2149449Y2089556D01*
X2142134Y2105355D01*
X2133142Y2120290D01*
X2122627Y2134158D01*
X2110638Y2146808D01*
X2097379Y2158085D01*
X2082952Y2167839D01*
X2067560Y2176018D01*
X2051354Y2182469D01*
X2034590Y2187143D01*
X2017369Y2189937D01*
X1999996Y2190902D01*
X1982571Y2189937D01*
X1965401Y2187143D01*
X1948637Y2182469D01*
X1932432Y2176018D01*
X1917039Y2167839D01*
X1902612Y2158085D01*
X1889353Y2146808D01*
X1877364Y2134158D01*
X1866798Y2120290D01*
X1857857Y2105355D01*
X1850542Y2089556D01*
X1844954Y2073046D01*
X1841195Y2056028D01*
X1839315Y2038705D01*
X1839315Y2021281D01*
X1841195Y2003958D01*
X1844954Y1986940D01*
X1850542Y1970430D01*
X1857857Y1954631D01*
X1866798Y1939696D01*
X1877364Y1925828D01*
X1889353Y1913178D01*
X1902612Y1901901D01*
X1917039Y1892147D01*
X1932432Y1883968D01*
X1948637Y1877517D01*
X1965401Y1872843D01*
X1982571Y1870049D01*
G37*
G36*
X2073859Y5043830D02*
G01*
X2142845Y5043830D01*
X2142134Y5045354D01*
X2133142Y5060289D01*
X2122627Y5074158D01*
X2110638Y5086807D01*
X2097379Y5098084D01*
X2082952Y5107838D01*
X2073859Y5112664D01*
G37*
G36*
X1857146Y5043830D02*
G01*
X1926132Y5043830D01*
X1926132Y5112664D01*
X1917039Y5107838D01*
X1902612Y5098084D01*
X1889353Y5086807D01*
X1877364Y5074158D01*
X1866849Y5060289D01*
X1857857Y5045354D01*
G37*
G36*
X2073859Y4827320D02*
G01*
X2082952Y4832146D01*
X2097379Y4841900D01*
X2110638Y4853178D01*
X2122627Y4865827D01*
X2133142Y4879695D01*
X2142134Y4894630D01*
X2142845Y4896154D01*
X2073859Y4896154D01*
G37*
G36*
X1926132Y4827320D02*
G01*
X1926132Y4896154D01*
X1857146Y4896154D01*
X1857857Y4894630D01*
X1866849Y4879695D01*
X1877364Y4865827D01*
X1889353Y4853178D01*
X1902612Y4841900D01*
X1917039Y4832146D01*
G37*
G36*
X1999996Y7869072D02*
G01*
X2017369Y7870037D01*
X2034590Y7872831D01*
X2051354Y7877505D01*
X2067560Y7883956D01*
X2082952Y7892135D01*
X2097379Y7901889D01*
X2110638Y7913166D01*
X2122627Y7925816D01*
X2133142Y7939684D01*
X2142134Y7954619D01*
X2149449Y7970418D01*
X2155037Y7986928D01*
X2158746Y8003946D01*
X2160625Y8021269D01*
X2160625Y8038693D01*
X2158746Y8056016D01*
X2155037Y8073034D01*
X2149449Y8089544D01*
X2142134Y8105343D01*
X2133142Y8120278D01*
X2122627Y8134146D01*
X2110638Y8146796D01*
X2097379Y8158073D01*
X2082952Y8167827D01*
X2067560Y8176006D01*
X2051354Y8182457D01*
X2034590Y8187131D01*
X2017369Y8189925D01*
X1999996Y8190890D01*
X1982571Y8189925D01*
X1965401Y8187131D01*
X1948637Y8182457D01*
X1932432Y8176006D01*
X1917039Y8167827D01*
X1902612Y8158073D01*
X1889353Y8146796D01*
X1877364Y8134146D01*
X1866798Y8120278D01*
X1857857Y8105343D01*
X1850542Y8089544D01*
X1844954Y8073034D01*
X1841195Y8056016D01*
X1839315Y8038693D01*
X1839315Y8021269D01*
X1841195Y8003946D01*
X1844954Y7986928D01*
X1850542Y7970418D01*
X1857857Y7954619D01*
X1866798Y7939684D01*
X1877364Y7925816D01*
X1889353Y7913166D01*
X1902612Y7901889D01*
X1917039Y7892135D01*
X1932432Y7883956D01*
X1948637Y7877505D01*
X1965401Y7872831D01*
X1982571Y7870037D01*
G37*
G36*
X2073859Y3043834D02*
G01*
X2142845Y3043834D01*
X2142134Y3045358D01*
X2133142Y3060293D01*
X2122627Y3074162D01*
X2110638Y3086811D01*
X2097379Y3098088D01*
X2082952Y3107842D01*
X2073859Y3112668D01*
G37*
G36*
X1857146Y3043834D02*
G01*
X1926132Y3043834D01*
X1926132Y3112668D01*
X1917039Y3107842D01*
X1902612Y3098088D01*
X1889353Y3086811D01*
X1877364Y3074162D01*
X1866849Y3060293D01*
X1857857Y3045358D01*
G37*
G36*
X1926132Y2827324D02*
G01*
X1926132Y2896158D01*
X1857146Y2896158D01*
X1857857Y2894634D01*
X1866849Y2879699D01*
X1877364Y2865831D01*
X1889353Y2853182D01*
X1902612Y2841904D01*
X1917039Y2832150D01*
G37*
G36*
X2073859Y2827324D02*
G01*
X2082952Y2832150D01*
X2097379Y2841904D01*
X2110638Y2853182D01*
X2122627Y2865831D01*
X2133142Y2879699D01*
X2142134Y2894634D01*
X2142845Y2896158D01*
X2073859Y2896158D01*
G37*
G36*
X1926132Y8827312D02*
G01*
X1926132Y8896146D01*
X1857146Y8896146D01*
X1857857Y8894622D01*
X1866849Y8879687D01*
X1877364Y8865819D01*
X1889353Y8853170D01*
X1902612Y8841892D01*
X1917039Y8832138D01*
G37*
G36*
X2073859Y8827312D02*
G01*
X2082952Y8832138D01*
X2097379Y8841892D01*
X2110638Y8853170D01*
X2122627Y8865819D01*
X2133142Y8879687D01*
X2142134Y8894622D01*
X2142845Y8896146D01*
X2073859Y8896146D01*
G37*
G36*
X9672726Y8426704D02*
G01*
X9720834Y8426704D01*
X9717582Y8433308D01*
X9709962Y8444687D01*
X9700971Y8454948D01*
X9690658Y8463991D01*
X9679279Y8471611D01*
X9672726Y8474862D01*
G37*
G36*
X9279128Y8426704D02*
G01*
X9327286Y8426704D01*
X9327286Y8474862D01*
X9320682Y8471611D01*
X9309303Y8463991D01*
X9298990Y8454948D01*
X9289999Y8444687D01*
X9282379Y8433308D01*
G37*
G36*
X9533128Y8426704D02*
G01*
X9581286Y8426704D01*
X9581286Y8474862D01*
X9574682Y8471611D01*
X9563303Y8463991D01*
X9552990Y8454948D01*
X9543999Y8444687D01*
X9536379Y8433308D01*
G37*
G36*
X9418726Y8426704D02*
G01*
X9466834Y8426704D01*
X9463582Y8433308D01*
X9455962Y8444687D01*
X9446971Y8454948D01*
X9436658Y8463991D01*
X9425279Y8471611D01*
X9418726Y8474862D01*
G37*
G36*
X9327286Y8287105D02*
G01*
X9327286Y8335264D01*
X9279128Y8335264D01*
X9282379Y8328659D01*
X9289999Y8317280D01*
X9298990Y8307019D01*
X9309303Y8297976D01*
X9320682Y8290356D01*
G37*
G36*
X9418726Y8287105D02*
G01*
X9425279Y8290356D01*
X9436658Y8297976D01*
X9446971Y8307019D01*
X9455962Y8317280D01*
X9463582Y8328659D01*
X9466834Y8335264D01*
X9418726Y8335264D01*
G37*
G36*
X9672726Y8287105D02*
G01*
X9679279Y8290356D01*
X9690658Y8297976D01*
X9700971Y8307019D01*
X9709962Y8317280D01*
X9717582Y8328659D01*
X9720834Y8335264D01*
X9672726Y8335264D01*
G37*
G36*
X9581286Y8287105D02*
G01*
X9581286Y8335264D01*
X9533128Y8335264D01*
X9536379Y8328659D01*
X9543999Y8317280D01*
X9552990Y8307019D01*
X9563303Y8297976D01*
X9574682Y8290356D01*
G37*
G36*
X1999996Y3869080D02*
G01*
X2017369Y3870045D01*
X2034590Y3872839D01*
X2051354Y3877513D01*
X2067560Y3883964D01*
X2082952Y3892143D01*
X2097379Y3901897D01*
X2110638Y3913174D01*
X2122627Y3925824D01*
X2133142Y3939692D01*
X2142134Y3954627D01*
X2149449Y3970426D01*
X2155037Y3986936D01*
X2158746Y4003954D01*
X2160625Y4021277D01*
X2160625Y4038701D01*
X2158746Y4056024D01*
X2155037Y4073042D01*
X2149449Y4089552D01*
X2142134Y4105351D01*
X2133142Y4120286D01*
X2122627Y4134154D01*
X2110638Y4146804D01*
X2097379Y4158081D01*
X2082952Y4167835D01*
X2067560Y4176014D01*
X2051354Y4182465D01*
X2034590Y4187139D01*
X2017369Y4189933D01*
X1999996Y4190898D01*
X1982571Y4189933D01*
X1965401Y4187139D01*
X1948637Y4182465D01*
X1932432Y4176014D01*
X1917039Y4167835D01*
X1902612Y4158081D01*
X1889353Y4146804D01*
X1877364Y4134154D01*
X1866798Y4120286D01*
X1857857Y4105351D01*
X1850542Y4089552D01*
X1844954Y4073042D01*
X1841195Y4056024D01*
X1839315Y4038701D01*
X1839315Y4021277D01*
X1841195Y4003954D01*
X1844954Y3986936D01*
X1850542Y3970426D01*
X1857857Y3954627D01*
X1866798Y3939692D01*
X1877364Y3925824D01*
X1889353Y3913174D01*
X1902612Y3901897D01*
X1917039Y3892143D01*
X1932432Y3883964D01*
X1948637Y3877513D01*
X1965401Y3872839D01*
X1982571Y3870045D01*
G37*

%LPD*%
D10*
X9480041Y5800089D02*
G01*
X9373108Y5906770D01*
X9373108Y6072631D01*
X9480041Y5800089D02*
G01*
X9400031Y5800089D01*
X9373108Y5827013D01*
X9373108Y7618984D01*
D11*
X9310616Y5802246D02*
G01*
X9474644Y5638218D01*
X9474644Y5599988D01*
X9310624Y5802121D02*
G01*
X9480041Y5800089D01*
D12*
X9310616Y5802246D02*
G01*
X9399981Y5891611D01*
X9399981Y5999987D01*
D13*
X9474708Y5599937D02*
G01*
X9474708Y5800089D01*
X9480041Y5800089D01*
D10*
X9627108Y7618984D02*
G01*
X9568941Y7618984D01*
X9373108Y7422895D01*
X9373108Y6715505D01*
D13*
X9626981Y7618984D02*
G01*
X9372981Y7618984D01*
D12*
X9500108Y5299963D02*
G01*
X9599929Y5299963D01*
X9899904Y4999989D01*
X9899904Y2645918D01*
X9627108Y2373121D01*
X8224774Y5700013D02*
G01*
X8199881Y5700013D01*
X7999984Y5499862D01*
X6999986Y5499862D01*
X8500109Y4675378D02*
G01*
X8500109Y4999989D01*
X7999984Y5499862D01*
X6999986Y5499988D01*
X2999993Y5499988D02*
G01*
X6999986Y5499988D01*
X6999986Y5499988D02*
G01*
X7499979Y5499988D01*
X7499982Y5499986D01*
X2999996Y1499996D02*
G01*
X8313242Y1499870D01*
X9349993Y1924557D02*
G01*
X8824468Y1924557D01*
X8399779Y1499870D01*
X8299958Y1499870D01*
X8500109Y2324607D02*
G01*
X8500109Y2199894D01*
X8775191Y1924557D01*
X9504172Y1924557D01*
X8375319Y5699988D02*
G01*
X8375319Y6124651D01*
X7999984Y6499987D01*
X8595654Y5802243D02*
G01*
X8493399Y5699988D01*
X8375319Y5699988D01*
X4500118Y4675378D02*
G01*
X4500118Y5199887D01*
X4800091Y5499862D01*
X5700013Y5499862D01*
X4500118Y6324600D02*
G01*
X4500118Y5800089D01*
X4800091Y5499862D01*
X5893561Y5499862D01*
X6499859Y4675378D02*
G01*
X6499859Y5199887D01*
X6800088Y5499862D01*
X6999986Y5499862D01*
X6499859Y6324600D02*
G01*
X6499859Y5800089D01*
X6800088Y5499862D01*
X6999986Y5499862D01*
X2499868Y6324600D02*
G01*
X2499868Y5800089D01*
X2800095Y5499862D01*
X3943350Y5499862D01*
X2499868Y4675378D02*
G01*
X2499868Y5199887D01*
X2800095Y5499862D01*
X3499865Y5499862D01*
X2499868Y8675370D02*
G01*
X2499868Y8999981D01*
X2800095Y9299955D01*
X5800090Y9299955D01*
X4500118Y8675370D02*
G01*
X4500118Y8999981D01*
X4800091Y9299955D01*
X6997875Y9299955D01*
X6997875Y9299955D02*
G01*
X7835900Y9299955D01*
X6499859Y8675370D02*
G01*
X6499859Y8999981D01*
X6799834Y9299955D01*
X7638288Y9299955D01*
X8500109Y8675370D02*
G01*
X8500109Y8999981D01*
X8199881Y9299955D01*
X7400036Y9299955D01*
X9799980Y8599982D02*
G01*
X9724641Y8675321D01*
X8499983Y8675321D01*
X9899980Y2099995D02*
G01*
X9899977Y2099995D01*
X9724641Y1924657D01*
X9649978Y1924657D01*
X9649980Y1924659D02*
G01*
X9349981Y1924659D01*
X6499859Y2324607D02*
G01*
X6499859Y1899920D01*
X6900163Y1499870D01*
X6999986Y1499870D01*
X6999986Y1499870D02*
G01*
X8100059Y1499870D01*
X4500118Y2324607D02*
G01*
X4500118Y1899920D01*
X4900168Y1499870D01*
X6348475Y1499870D01*
X2499868Y2324607D02*
G01*
X2499868Y1899920D01*
X2899918Y1499870D01*
X2999993Y1499870D01*
X9245617Y5197726D02*
G01*
X9249981Y5193362D01*
X9249981Y2495994D01*
X9372981Y2372995D01*
X9115620Y5802246D02*
G01*
X9115620Y5579988D01*
X9649978Y2075334D02*
G01*
X9626970Y2098334D01*
X9626970Y2372997D01*
X9349978Y2075334D02*
G01*
X9372970Y2098334D01*
X9372970Y2372997D01*
X9245600Y5802121D02*
G01*
X9249918Y5806694D01*
X9249918Y7800086D01*
X9323070Y7872984D01*
X9373108Y7872984D01*
X9372981Y7872984D02*
G01*
X9626981Y7872984D01*
X9180575Y5802121D02*
G01*
X9180575Y7980679D01*
X9326879Y8126984D01*
X9373108Y8126984D01*
X9372981Y8126984D02*
G01*
X9626981Y8126984D01*
X9180575Y5197855D02*
G01*
X9180575Y5330697D01*
X9249918Y5400039D01*
X9549891Y5400039D01*
X9625329Y5475223D01*
X9625329Y5599937D01*
X9050527Y5802121D02*
G01*
X9050527Y7249413D01*
X8500109Y7800086D01*
X8500109Y8524747D01*
X9115552Y5197855D02*
G01*
X9115552Y3715512D01*
X8500109Y3100070D01*
X8500109Y2475229D01*
X9050527Y5197855D02*
G01*
X9050527Y3750563D01*
X8499856Y3199892D01*
X8091170Y3199892D01*
X8985504Y5197855D02*
G01*
X8990075Y5193284D01*
X8990075Y3789934D01*
X8499856Y3299968D01*
X8178800Y3299968D01*
X8920734Y5197855D02*
G01*
X8920734Y3820668D01*
X8500109Y3400044D01*
X8285479Y3400044D01*
X8855709Y5197855D02*
G01*
X8855709Y3855720D01*
X8499856Y3499865D01*
X8273034Y3499865D01*
X8790686Y5197855D02*
G01*
X8800084Y5188457D01*
X8800084Y3899915D01*
X8499856Y3599942D01*
X8069834Y3599942D01*
X8725661Y5197855D02*
G01*
X8720074Y5192013D01*
X8720074Y3919981D01*
X8500109Y3700018D01*
X8195056Y3700018D01*
X8660638Y5197855D02*
G01*
X8660638Y4656073D01*
X8500109Y4495292D01*
X2499868Y4524755D02*
G01*
X2499868Y3800094D01*
X2800095Y3499865D01*
X8500109Y3499865D01*
X8985504Y5802121D02*
G01*
X8990075Y5806694D01*
X8990075Y7210044D01*
X8500109Y7700010D01*
X8291068Y7700010D01*
X8920650Y5802246D02*
G01*
X8919992Y7137852D01*
X8236965Y7599934D02*
G01*
X8500109Y7599934D01*
X8920479Y7179563D01*
X8920479Y7132320D01*
X4495545Y7499858D02*
G01*
X8500109Y7499858D01*
X8855709Y7144258D01*
X8855709Y5802121D01*
X8195056Y7400036D02*
G01*
X8499856Y7400036D01*
X8780018Y7119873D01*
X8780018Y6949694D01*
X8287765Y7299960D02*
G01*
X8500109Y7299960D01*
X8725661Y7074408D01*
X8725661Y6860794D01*
X8209534Y7199884D02*
G01*
X8500109Y7199884D01*
X8659875Y7040118D01*
X8659875Y6887971D01*
X8660638Y5802121D02*
G01*
X8659875Y6999986D01*
X8725628Y5802246D02*
G01*
X8725628Y7029985D01*
X8790627Y5802246D02*
G01*
X8779982Y5812891D01*
X8779982Y7069985D01*
X6499986Y8524646D02*
G01*
X6499986Y7999984D01*
X6799986Y7699984D01*
X8499983Y7699984D01*
X2499868Y2475229D02*
G01*
X2499868Y3100070D01*
X2800095Y3400044D01*
X8500109Y3400044D01*
X4500118Y2475229D02*
G01*
X4500118Y2999994D01*
X4800091Y3299968D01*
X8500109Y3299968D01*
X6499859Y2475229D02*
G01*
X6499859Y2899918D01*
X6800088Y3199892D01*
X8500109Y3199892D01*
X6499859Y4524755D02*
G01*
X6499859Y3999992D01*
X6800088Y3700018D01*
X8500109Y3700018D01*
X4500118Y4524755D02*
G01*
X4500118Y3899915D01*
X4800091Y3599942D01*
X8500109Y3599942D01*
X4499990Y8524646D02*
G01*
X4499990Y7899984D01*
X4799990Y7599984D01*
X8499983Y7599984D01*
X2499868Y8524747D02*
G01*
X2499868Y7800086D01*
X2800095Y7499858D01*
X4800091Y7499858D01*
X2499868Y6475221D02*
G01*
X2499868Y7100062D01*
X2800095Y7400036D01*
X8500109Y7400036D01*
X4500118Y6475221D02*
G01*
X4500118Y6999986D01*
X4800091Y7299960D01*
X8500109Y7299960D01*
X6499859Y6475221D02*
G01*
X6499859Y6899910D01*
X6800088Y7199884D01*
X8500109Y7199884D01*
X1999990Y2499997D02*
G01*
X2024656Y2475331D01*
X2499995Y2475331D01*
X3999986Y2499997D02*
G01*
X4024652Y2475331D01*
X4499990Y2475331D01*
X5999982Y2499997D02*
G01*
X6024648Y2475331D01*
X6499986Y2475331D01*
X7999978Y2499997D02*
G01*
X8024644Y2475331D01*
X8499983Y2475331D01*
X7999984Y4499990D02*
G01*
X8004657Y4495317D01*
X8499983Y4495317D01*
X5999982Y4499993D02*
G01*
X6024643Y4524654D01*
X6499986Y4524654D01*
X3999986Y4499993D02*
G01*
X4024647Y4524654D01*
X4499990Y4524654D01*
X1999990Y4499993D02*
G01*
X2024651Y4524654D01*
X2499995Y4524654D01*
X1999990Y2499997D02*
G01*
X2024656Y2475331D01*
X2499995Y2475331D01*
X3999986Y2499997D02*
G01*
X4024652Y2475331D01*
X4499990Y2475331D01*
X5999982Y2499997D02*
G01*
X6024648Y2475331D01*
X6499986Y2475331D01*
X7999978Y8499985D02*
G01*
X8024639Y8524646D01*
X8499983Y8524646D01*
X5999982Y8499985D02*
G01*
X6024643Y8524646D01*
X6499986Y8524646D01*
X3999991Y8499980D02*
G01*
X4024657Y8524646D01*
X4499990Y8524646D01*
X1999990Y8499985D02*
G01*
X2024651Y8524646D01*
X2499995Y8524646D01*
X1999990Y6499989D02*
G01*
X2024656Y6475323D01*
X2499995Y6475323D01*
X3999986Y6499989D02*
G01*
X4024652Y6475323D01*
X4499990Y6475323D01*
X5999982Y6499989D02*
G01*
X6024648Y6475323D01*
X6499986Y6475323D01*
D14*
G01*
X9479981Y5799988D03*
G01*
X9619980Y5799988D03*
D15*
G01*
X2499995Y8675319D03*
D16*
G01*
X2499994Y8524657D03*
D15*
G01*
X4499990Y8675319D03*
D16*
G01*
X4499990Y8524657D03*
D15*
G01*
X6499986Y8675319D03*
D16*
G01*
X6499987Y8524657D03*
D15*
G01*
X8499983Y8675319D03*
D16*
G01*
X8499983Y8524657D03*
D15*
G01*
X2499995Y6324650D03*
D16*
G01*
X2499994Y6475312D03*
D15*
G01*
X4499990Y6324650D03*
D16*
G01*
X4499990Y6475312D03*
D15*
G01*
X6499986Y6324650D03*
D16*
G01*
X6499987Y6475312D03*
D17*
G01*
X8224658Y5699988D03*
G01*
X8375308Y5699988D03*
D15*
G01*
X2499995Y4675327D03*
D16*
G01*
X2499994Y4524665D03*
D15*
G01*
X4499990Y4675327D03*
D16*
G01*
X4499990Y4524665D03*
D15*
G01*
X6499986Y4675327D03*
D16*
G01*
X6499987Y4524665D03*
D15*
G01*
X8499983Y4675327D03*
D16*
G01*
X8499983Y4524665D03*
D15*
G01*
X2499995Y2324658D03*
D16*
G01*
X2499994Y2475320D03*
D15*
G01*
X4499990Y2324658D03*
D16*
G01*
X4499990Y2475320D03*
D15*
G01*
X6499986Y2324658D03*
D16*
G01*
X6499987Y2475320D03*
D15*
G01*
X8499983Y2324658D03*
D16*
G01*
X8499983Y2475320D03*
D15*
G01*
X9349981Y1924659D03*
D16*
G01*
X9349981Y2075320D03*
D17*
G01*
X9474655Y5599988D03*
G01*
X9625305Y5599988D03*
D18*
G01*
X8985636Y5197729D03*
G01*
X9050634Y5197726D03*
G01*
X9115633Y5197726D03*
G01*
X9180631Y5197726D03*
G01*
X9245630Y5197726D03*
G01*
X9310629Y5197726D03*
G01*
X8920637Y5197726D03*
G01*
X8595644Y5197726D03*
G01*
X8660643Y5197726D03*
G01*
X8725641Y5197726D03*
G01*
X8790640Y5197726D03*
G01*
X8855638Y5197726D03*
G01*
X9050634Y5802246D03*
G01*
X9115633Y5802246D03*
G01*
X9180631Y5802246D03*
G01*
X9245630Y5802246D03*
G01*
X9310629Y5802246D03*
G01*
X8985636Y5802246D03*
G01*
X8595644Y5802246D03*
G01*
X8660643Y5802246D03*
G01*
X8725641Y5802246D03*
G01*
X8790640Y5802246D03*
G01*
X8855638Y5802246D03*
G01*
X8920637Y5802243D03*
D15*
G01*
X9649980Y1924659D03*
D16*
G01*
X9649980Y2075320D03*
D19*
G01*
X1999990Y8029983D03*
G01*
X1999990Y8499985D03*
G01*
X1999990Y8969987D03*
G01*
X3999991Y8029978D03*
G01*
X3999991Y8499980D03*
G01*
X3999991Y8969982D03*
G01*
X5999982Y8029983D03*
G01*
X5999982Y8499985D03*
G01*
X5999982Y8969987D03*
G01*
X7999978Y8029983D03*
G01*
X7999978Y8499985D03*
G01*
X7999978Y8969987D03*
G01*
X1999990Y6029987D03*
G01*
X1999990Y6499989D03*
G01*
X1999990Y6969991D03*
G01*
X3999986Y6029987D03*
G01*
X3999986Y6499989D03*
G01*
X3999986Y6969991D03*
G01*
X5999982Y6029987D03*
G01*
X5999982Y6499989D03*
G01*
X5999982Y6969991D03*
G01*
X7999978Y6029987D03*
G01*
X7999978Y6499989D03*
G01*
X7999978Y6969991D03*
G01*
X1999990Y4029991D03*
G01*
X1999990Y4499993D03*
G01*
X1999990Y4969995D03*
G01*
X3999986Y4029991D03*
G01*
X3999986Y4499993D03*
G01*
X3999986Y4969995D03*
G01*
X5999982Y4029991D03*
G01*
X5999982Y4499993D03*
G01*
X5999982Y4969995D03*
G01*
X7999978Y4029991D03*
G01*
X7999978Y4499993D03*
G01*
X7999978Y4969995D03*
G01*
X1999990Y2029995D03*
G01*
X1999990Y2499997D03*
G01*
X1999990Y2969999D03*
G01*
X3999986Y2029995D03*
G01*
X3999986Y2499997D03*
G01*
X3999986Y2969999D03*
G01*
X5999982Y2029995D03*
G01*
X5999982Y2499997D03*
G01*
X5999982Y2969999D03*
G01*
X7999978Y2029995D03*
G01*
X7999978Y2499997D03*
G01*
X7999978Y2969999D03*
D20*
G01*
X9626980Y2626994D03*
D21*
G01*
X9372981Y2626995D03*
G01*
X9626981Y2372995D03*
G01*
X9372981Y2372995D03*
D22*
G01*
X9372980Y7618984D03*
D21*
G01*
X9626981Y7618984D03*
G01*
X9372981Y7872984D03*
G01*
X9626981Y7872984D03*
G01*
X9372981Y8126984D03*
G01*
X9626981Y8126984D03*
G01*
X9372981Y8380984D03*
G01*
X9626981Y8380984D03*
D23*
G01*
X9115620Y5579988D03*
G01*
X9499981Y5299989D03*
G01*
X9899980Y2099995D03*
G01*
X9799980Y8599982D03*
G01*
X6999986Y1499870D03*
G01*
X6999986Y5499988D03*
G01*
X6999986Y5499988D03*
G01*
X8999981Y2099995D03*
G01*
X8999981Y2399995D03*
G01*
X8999981Y2999994D03*
G01*
X8999981Y3299993D03*
G01*
X8999981Y2699994D03*
G01*
X8799982Y2999994D03*
G01*
X8799982Y2699994D03*
G01*
X8799982Y2399995D03*
G01*
X8799982Y2099995D03*
G01*
X9699980Y3199993D03*
G01*
X9699980Y3699992D03*
G01*
X9699980Y4199991D03*
G01*
X9699980Y4699990D03*
D24*
G01*
X6622069Y8177748D03*
G01*
X7122068Y9177746D03*
G01*
X7122068Y8677747D03*
G01*
X7122068Y8177748D03*
G01*
X7622067Y9177746D03*
G01*
X7622067Y8677747D03*
G01*
X7622067Y8177748D03*
G01*
X8122066Y9177746D03*
G01*
X4622205Y8177748D03*
G01*
X5122204Y9177746D03*
G01*
X5122204Y8677747D03*
G01*
X5122204Y8177748D03*
G01*
X5622203Y9177746D03*
G01*
X5622203Y8677747D03*
G01*
X5622203Y8177748D03*
G01*
X6122202Y9177746D03*
G01*
X2622077Y8177748D03*
G01*
X3122076Y9177746D03*
G01*
X3122076Y8677747D03*
G01*
X3122076Y8177748D03*
G01*
X3122076Y7677749D03*
G01*
X3622075Y9177746D03*
G01*
X3622075Y8677747D03*
G01*
X3622075Y8177748D03*
G01*
X3622075Y7677749D03*
G01*
X4122074Y9177746D03*
G01*
X4122074Y7677749D03*
G01*
X4622327Y6677751D03*
G01*
X4622327Y6177752D03*
G01*
X5122326Y7177750D03*
G01*
X5122326Y6677751D03*
G01*
X5122326Y6177752D03*
G01*
X5122326Y5677753D03*
G01*
X5622325Y7177750D03*
G01*
X5622325Y6677751D03*
G01*
X5622325Y6177752D03*
G01*
X5622325Y5677753D03*
G01*
X6122324Y7177750D03*
G01*
X6122324Y5677753D03*
G01*
X6622323Y7177750D03*
G01*
X6622069Y6577677D03*
G01*
X6622069Y6077678D03*
G01*
X7122068Y7077676D03*
G01*
X7122068Y6577677D03*
G01*
X7122068Y6077678D03*
G01*
X7622067Y7077676D03*
G01*
X7622067Y6577677D03*
G01*
X7622067Y6077678D03*
G01*
X2622077Y6777827D03*
G01*
X3122076Y7277826D03*
G01*
X3122076Y6777827D03*
G01*
X3122076Y6277828D03*
G01*
X3122076Y5777829D03*
G01*
X3622075Y7277826D03*
G01*
X3622075Y6777827D03*
G01*
X3622075Y6277828D03*
G01*
X3622075Y5777829D03*
G01*
X4122074Y7277826D03*
G01*
X4122074Y6777827D03*
G01*
X4122074Y6277828D03*
G01*
X4122074Y5777829D03*
G01*
X4622073Y7277826D03*
G01*
X6622069Y4877650D03*
G01*
X6622069Y4377651D03*
G01*
X7122068Y5377649D03*
G01*
X7122068Y4877650D03*
G01*
X7122068Y4377651D03*
G01*
X7122068Y3877652D03*
G01*
X7622067Y5377649D03*
G01*
X7622067Y4877650D03*
G01*
X7622067Y4377651D03*
G01*
X7622067Y3877652D03*
G01*
X8622065Y4377651D03*
G01*
X4622327Y4877780D03*
G01*
X4622327Y4377781D03*
G01*
X5122326Y5377779D03*
G01*
X5122326Y4877780D03*
G01*
X5122326Y4377781D03*
G01*
X5122326Y3877782D03*
G01*
X5622325Y5377779D03*
G01*
X5622325Y4877780D03*
G01*
X5622325Y4377781D03*
G01*
X5622325Y3877782D03*
G01*
X6122324Y5377779D03*
G01*
X2622077Y4877780D03*
G01*
X2622077Y4377781D03*
G01*
X2622077Y3877782D03*
G01*
X3122076Y5377779D03*
G01*
X3122076Y4877780D03*
G01*
X3122076Y4377781D03*
G01*
X3122076Y3877782D03*
G01*
X3622075Y5377779D03*
G01*
X3622075Y4877780D03*
G01*
X3622075Y4377781D03*
G01*
X3622075Y3877782D03*
G01*
X4122074Y5377779D03*
G01*
X9372191Y4704389D03*
G01*
X9372191Y4204390D03*
G01*
X9372191Y3704391D03*
G01*
X9372191Y3204392D03*
G01*
X4622327Y2677759D03*
G01*
X4622327Y2177760D03*
G01*
X5122326Y3177758D03*
G01*
X5122326Y2677759D03*
G01*
X5122326Y2177760D03*
G01*
X5122326Y1677761D03*
G01*
X5622325Y3177758D03*
G01*
X5622325Y2677759D03*
G01*
X5622325Y2177760D03*
G01*
X5622325Y1677761D03*
G01*
X6122324Y3177758D03*
G01*
X6122324Y1677761D03*
G01*
X6622323Y3177758D03*
G01*
X2622077Y2777835D03*
G01*
X3122076Y3277834D03*
G01*
X3122076Y2777835D03*
G01*
X3122076Y2277836D03*
G01*
X3122076Y1777837D03*
G01*
X3622075Y3277834D03*
G01*
X3622075Y2777835D03*
G01*
X3622075Y2277836D03*
G01*
X3622075Y1777837D03*
G01*
X4122074Y3277834D03*
G01*
X4122074Y2777835D03*
G01*
X4122074Y2277836D03*
G01*
X4122074Y1777837D03*
G01*
X4622073Y3277834D03*
G01*
X6622069Y2577685D03*
G01*
X6622069Y2077686D03*
G01*
X7122068Y3077684D03*
G01*
X7122068Y2577685D03*
G01*
X7122068Y2077686D03*
G01*
X7622067Y3077684D03*
G01*
X7622067Y2577685D03*
G01*
X7622067Y2077686D03*
G01*
X107205Y8892768D03*
G01*
X107205Y8392769D03*
G01*
X107205Y7892770D03*
G01*
X107205Y7392771D03*
G01*
X107205Y6892772D03*
G01*
X107205Y6392773D03*
G01*
X107205Y5892774D03*
G01*
X107205Y5392775D03*
G01*
X107205Y4892776D03*
G01*
X107205Y4392777D03*
G01*
X107205Y3892778D03*
G01*
X107205Y3392779D03*
G01*
X107205Y2892780D03*
G01*
X107205Y2392781D03*
G01*
X107205Y1892782D03*
G01*
X107205Y1392783D03*
G01*
X107205Y892784D03*
G01*
X607204Y8892768D03*
G01*
X607204Y8392769D03*
G01*
X607204Y7892770D03*
G01*
X607204Y7392771D03*
G01*
X607204Y6892772D03*
G01*
X607204Y6392773D03*
G01*
X607204Y5892774D03*
G01*
X607204Y5392775D03*
G01*
X607204Y4892776D03*
G01*
X607204Y4392777D03*
G01*
X607204Y3892778D03*
G01*
X607204Y3392779D03*
G01*
X607204Y2892780D03*
G01*
X607204Y2392781D03*
G01*
X607204Y1892782D03*
G01*
X607204Y1392783D03*
G01*
X1107203Y9892766D03*
G01*
X1107203Y9392767D03*
G01*
X1107203Y8892768D03*
G01*
X1107203Y8392769D03*
G01*
X1107203Y7892770D03*
G01*
X1107203Y7392771D03*
G01*
X1107203Y6892772D03*
G01*
X1107203Y6392773D03*
G01*
X1107203Y5892774D03*
G01*
X1107203Y5392775D03*
G01*
X1107203Y4892776D03*
G01*
X1107203Y4392777D03*
G01*
X1107203Y3892778D03*
G01*
X1107203Y3392779D03*
G01*
X1107203Y2892780D03*
G01*
X1107203Y2392781D03*
G01*
X1107203Y1892782D03*
G01*
X1107203Y1392783D03*
G01*
X1107203Y892784D03*
G01*
X1107203Y392785D03*
G01*
X1607202Y9892766D03*
G01*
X1607202Y9392767D03*
G01*
X1607202Y8892768D03*
G01*
X1607202Y8392769D03*
G01*
X1607202Y7892770D03*
G01*
X1607202Y7392771D03*
G01*
X1607202Y6892772D03*
G01*
X1607202Y6392773D03*
G01*
X1607202Y5892774D03*
G01*
X1607202Y5392775D03*
G01*
X1607202Y4892776D03*
G01*
X1607202Y4392777D03*
G01*
X1607202Y3892778D03*
G01*
X1607202Y3392779D03*
G01*
X1607202Y2892780D03*
G01*
X1607202Y2392781D03*
G01*
X1607202Y1892782D03*
G01*
X1607202Y1392783D03*
G01*
X1607202Y892784D03*
G01*
X1607202Y392785D03*
G01*
X2107201Y9892766D03*
G01*
X2107201Y9392767D03*
G01*
X2107201Y7392771D03*
G01*
X2107201Y5392775D03*
G01*
X2107201Y3392779D03*
G01*
X2107201Y1392783D03*
G01*
X2107201Y892784D03*
G01*
X2107201Y392785D03*
G01*
X2607200Y9892766D03*
G01*
X2607200Y9392767D03*
G01*
X2607200Y7392771D03*
G01*
X2607200Y3392779D03*
G01*
X2607200Y1392783D03*
G01*
X2607200Y892784D03*
G01*
X2607200Y392785D03*
G01*
X3107199Y9892766D03*
G01*
X3107199Y1392783D03*
G01*
X3107199Y892784D03*
G01*
X3107199Y392785D03*
G01*
X3607198Y9892766D03*
G01*
X3607198Y1392783D03*
G01*
X3607198Y892784D03*
G01*
X3607198Y392785D03*
G01*
X4107197Y9892766D03*
G01*
X4107197Y1392783D03*
G01*
X4107197Y892784D03*
G01*
X4107197Y392785D03*
G01*
X4607196Y9892766D03*
G01*
X4607196Y1392783D03*
G01*
X4607196Y892784D03*
G01*
X4607196Y392785D03*
G01*
X5107195Y9892766D03*
G01*
X5107195Y1392783D03*
G01*
X5107195Y892784D03*
G01*
X5107195Y392785D03*
G01*
X5607194Y9892766D03*
G01*
X5607194Y1392783D03*
G01*
X5607194Y892784D03*
G01*
X5607194Y392785D03*
G01*
X6107193Y9892766D03*
G01*
X6107193Y1392783D03*
G01*
X6107193Y892784D03*
G01*
X6107193Y392785D03*
G01*
X6607192Y9892766D03*
G01*
X6607192Y1392783D03*
G01*
X6607192Y892784D03*
G01*
X6607192Y392785D03*
G01*
X7107191Y9892766D03*
G01*
X7107191Y1392783D03*
G01*
X7107191Y892784D03*
G01*
X7107191Y392785D03*
G01*
X7607190Y9892766D03*
G01*
X7607190Y1392783D03*
G01*
X7607190Y892784D03*
G01*
X7607190Y392785D03*
G01*
X8107189Y9892766D03*
G01*
X8107189Y1392783D03*
G01*
X8107189Y892784D03*
G01*
X8107189Y392785D03*
G01*
X8607188Y9892766D03*
G01*
X8607188Y9392767D03*
G01*
X8607188Y8892768D03*
G01*
X8607188Y8392769D03*
G01*
X8607188Y7892770D03*
G01*
X8607188Y5392775D03*
G01*
X8607188Y1392783D03*
G01*
X8607188Y892784D03*
G01*
X8607188Y392785D03*
G01*
X9107187Y9892766D03*
G01*
X9107187Y8892768D03*
G01*
X9107187Y8392769D03*
G01*
X9107187Y1392783D03*
G01*
X9607186Y8892768D03*
G01*
X9607186Y7392771D03*
G01*
X9607186Y6892772D03*
G01*
X9607186Y6392773D03*
G01*
X9607186Y1392783D03*
M02*
