G04 Layer: TopLayer*
G04 EasyEDA v6.5.20, 2023-08-27 05:19:39*
G04 a67cddfb3fce44daa9051d46cbbcc19f,10*
G04 Gerber Generator version 0.2*
G04 Scale: 100 percent, Rotated: No, Reflected: No *
G04 Dimensions in millimeters *
G04 leading zeros omitted , absolute positions ,4 integer and 5 decimal *
%FSLAX45Y45*%
%MOMM*%

%AMMACRO1*21,1,$1,$2,0,0,$3*%
%ADD10C,0.3000*%
%ADD11C,2.7000*%
%ADD12MACRO1,1.5748X1.5748X-90.0000*%
%ADD13C,1.5748*%
%ADD14MACRO1,1.5748X1.5748X90.0000*%
%ADD15C,0.6096*%
%ADD16C,0.6100*%
%ADD17C,0.0159*%

%LPD*%
G36*
X731012Y25908D02*
G01*
X727202Y26670D01*
X723950Y28803D01*
X721715Y32004D01*
X720852Y35814D01*
X721563Y39674D01*
X723595Y43027D01*
X726795Y45313D01*
X730402Y46939D01*
X757834Y61722D01*
X784301Y78130D01*
X809701Y96164D01*
X833932Y115722D01*
X856945Y136702D01*
X878586Y159105D01*
X898855Y182778D01*
X917549Y207670D01*
X934719Y233629D01*
X950264Y260654D01*
X964133Y288544D01*
X976223Y317246D01*
X986485Y346659D01*
X994968Y376631D01*
X1001572Y407060D01*
X1006297Y437845D01*
X1009091Y468884D01*
X1010005Y499973D01*
X1009091Y531114D01*
X1006297Y562152D01*
X1001572Y592937D01*
X994968Y623366D01*
X986485Y653338D01*
X976223Y682752D01*
X964133Y711454D01*
X950264Y739343D01*
X934719Y766368D01*
X917549Y792327D01*
X898855Y817219D01*
X878586Y840892D01*
X856945Y863295D01*
X833932Y884275D01*
X809701Y903833D01*
X784301Y921867D01*
X757834Y938276D01*
X730402Y953058D01*
X702106Y966063D01*
X673049Y977341D01*
X643382Y986790D01*
X613206Y994410D01*
X582574Y1000150D01*
X551637Y1003960D01*
X520547Y1005890D01*
X489407Y1005890D01*
X458317Y1003960D01*
X427431Y1000150D01*
X396798Y994410D01*
X366623Y986790D01*
X336956Y977341D01*
X307898Y966063D01*
X279603Y953058D01*
X252171Y938276D01*
X225704Y921867D01*
X200304Y903833D01*
X176072Y884275D01*
X153060Y863295D01*
X131419Y840892D01*
X111150Y817219D01*
X92405Y792327D01*
X75234Y766368D01*
X59740Y739343D01*
X45872Y711454D01*
X43230Y707085D01*
X39928Y704900D01*
X36017Y704138D01*
X32156Y704951D01*
X28854Y707136D01*
X26670Y710438D01*
X25908Y714298D01*
X25908Y9285681D01*
X26670Y9289542D01*
X28854Y9292844D01*
X32156Y9295028D01*
X36017Y9295841D01*
X39928Y9295079D01*
X43230Y9292894D01*
X45872Y9288526D01*
X59740Y9260636D01*
X75234Y9233611D01*
X92405Y9207652D01*
X111150Y9182760D01*
X131419Y9159087D01*
X153060Y9136684D01*
X176072Y9115704D01*
X200304Y9096146D01*
X225704Y9078112D01*
X252171Y9061704D01*
X279603Y9046921D01*
X307898Y9033916D01*
X336956Y9022638D01*
X366623Y9013190D01*
X396798Y9005570D01*
X427431Y8999829D01*
X458317Y8996019D01*
X489407Y8994089D01*
X520547Y8994089D01*
X551637Y8996019D01*
X582574Y8999829D01*
X613206Y9005570D01*
X643382Y9013190D01*
X673049Y9022638D01*
X702106Y9033916D01*
X730402Y9046921D01*
X757834Y9061704D01*
X784301Y9078112D01*
X809701Y9096146D01*
X833932Y9115704D01*
X856945Y9136684D01*
X878586Y9159087D01*
X898855Y9182760D01*
X917549Y9207652D01*
X934719Y9233611D01*
X950264Y9260636D01*
X964133Y9288526D01*
X976223Y9317228D01*
X986485Y9346641D01*
X994968Y9376613D01*
X1001572Y9407042D01*
X1006297Y9437827D01*
X1009091Y9468866D01*
X1010005Y9499955D01*
X1009091Y9531096D01*
X1006297Y9562134D01*
X1001572Y9592919D01*
X994968Y9623348D01*
X986485Y9653320D01*
X976223Y9682734D01*
X964133Y9711436D01*
X950264Y9739325D01*
X934719Y9766350D01*
X917549Y9792309D01*
X898855Y9817201D01*
X878586Y9840874D01*
X856945Y9863277D01*
X833932Y9884257D01*
X809701Y9903815D01*
X784301Y9921849D01*
X757834Y9938258D01*
X730402Y9953040D01*
X726795Y9954666D01*
X723595Y9956952D01*
X721563Y9960305D01*
X720852Y9964115D01*
X721715Y9967976D01*
X723950Y9971176D01*
X727202Y9973310D01*
X731012Y9974072D01*
X9278975Y9974072D01*
X9282785Y9973310D01*
X9286036Y9971176D01*
X9288272Y9967976D01*
X9289084Y9964115D01*
X9288424Y9960305D01*
X9286392Y9956952D01*
X9283192Y9954666D01*
X9279585Y9953040D01*
X9252153Y9938258D01*
X9225686Y9921849D01*
X9200286Y9903815D01*
X9176054Y9884257D01*
X9153042Y9863277D01*
X9131401Y9840874D01*
X9111132Y9817201D01*
X9092387Y9792309D01*
X9075216Y9766350D01*
X9059722Y9739325D01*
X9045854Y9711436D01*
X9033764Y9682734D01*
X9023451Y9653320D01*
X9015018Y9623348D01*
X9008414Y9592919D01*
X9003690Y9562134D01*
X9000896Y9531096D01*
X8999982Y9500006D01*
X9000896Y9468866D01*
X9003690Y9437827D01*
X9008414Y9407042D01*
X9015018Y9376613D01*
X9023451Y9346641D01*
X9033764Y9317228D01*
X9045854Y9288526D01*
X9059722Y9260636D01*
X9075216Y9233611D01*
X9092387Y9207652D01*
X9111132Y9182760D01*
X9131401Y9159087D01*
X9153042Y9136684D01*
X9176054Y9115704D01*
X9200286Y9096146D01*
X9225686Y9078112D01*
X9252153Y9061704D01*
X9279585Y9046921D01*
X9307880Y9033916D01*
X9336938Y9022638D01*
X9366605Y9013190D01*
X9396780Y9005570D01*
X9427413Y8999829D01*
X9458299Y8996019D01*
X9489389Y8994089D01*
X9520529Y8994089D01*
X9551619Y8996019D01*
X9582556Y8999829D01*
X9613188Y9005570D01*
X9643364Y9013190D01*
X9673031Y9022638D01*
X9702088Y9033916D01*
X9730384Y9046921D01*
X9757816Y9061704D01*
X9784283Y9078112D01*
X9809683Y9096146D01*
X9833914Y9115704D01*
X9856927Y9136684D01*
X9878568Y9159087D01*
X9898837Y9182760D01*
X9917531Y9207652D01*
X9934702Y9233611D01*
X9950246Y9260636D01*
X9954818Y9269780D01*
X9957663Y9273286D01*
X9961727Y9275216D01*
X9966248Y9275165D01*
X9970262Y9273184D01*
X9973056Y9269679D01*
X9974072Y9265310D01*
X9974072Y2117547D01*
X9973208Y2113483D01*
X9970820Y2110079D01*
X9967264Y2107946D01*
X9963150Y2107387D01*
X9959187Y2108555D01*
X9955987Y2111197D01*
X9954107Y2114905D01*
X9952939Y2119274D01*
X9948773Y2128164D01*
X9942728Y2136800D01*
X9941356Y2139594D01*
X9940899Y2142642D01*
X9940899Y7345476D01*
X9940036Y7353960D01*
X9937750Y7361631D01*
X9933940Y7368692D01*
X9928555Y7375245D01*
X9728403Y7575397D01*
X9726320Y7578496D01*
X9725456Y7582153D01*
X9725964Y7585862D01*
X9728047Y7591907D01*
X9730689Y7605318D01*
X9731603Y7618984D01*
X9730689Y7632649D01*
X9728047Y7646060D01*
X9726015Y7652054D01*
X9725456Y7655763D01*
X9726320Y7659420D01*
X9728454Y7662519D01*
X9928504Y7862773D01*
X9933889Y7869326D01*
X9937648Y7876387D01*
X9939985Y7884058D01*
X9940798Y7892542D01*
X9940798Y8499551D01*
X9939985Y8508034D01*
X9937648Y8515705D01*
X9933889Y8522766D01*
X9928453Y8529320D01*
X9858806Y8599017D01*
X9856774Y8601913D01*
X9855860Y8605316D01*
X9855454Y8609787D01*
X9852914Y8619236D01*
X9848799Y8628176D01*
X9843160Y8636203D01*
X9836200Y8643162D01*
X9828174Y8648801D01*
X9819233Y8652916D01*
X9809784Y8655456D01*
X9799980Y8656320D01*
X9790176Y8655456D01*
X9780727Y8652916D01*
X9771786Y8648801D01*
X9763760Y8643162D01*
X9756800Y8636203D01*
X9751161Y8628176D01*
X9747046Y8619236D01*
X9744506Y8609787D01*
X9743643Y8599982D01*
X9744506Y8590178D01*
X9747046Y8580729D01*
X9751161Y8571788D01*
X9756800Y8563762D01*
X9763760Y8556802D01*
X9771786Y8551164D01*
X9780727Y8547049D01*
X9790176Y8544509D01*
X9794646Y8544102D01*
X9798050Y8543188D01*
X9800945Y8541156D01*
X9856012Y8486089D01*
X9858197Y8482787D01*
X9859010Y8478926D01*
X9859010Y7913166D01*
X9858197Y7909306D01*
X9856012Y7906003D01*
X9670592Y7720431D01*
X9667544Y7718298D01*
X9663887Y7717434D01*
X9660178Y7717993D01*
X9654082Y7720025D01*
X9640620Y7722717D01*
X9627006Y7723631D01*
X9613341Y7722717D01*
X9599879Y7720025D01*
X9586925Y7715656D01*
X9574682Y7709611D01*
X9563303Y7701991D01*
X9552990Y7692948D01*
X9543999Y7682687D01*
X9536379Y7671308D01*
X9533534Y7665567D01*
X9531299Y7662570D01*
X9528098Y7660589D01*
X9524441Y7659878D01*
X9487814Y7659878D01*
X9483902Y7660640D01*
X9480600Y7662875D01*
X9478416Y7666177D01*
X9477654Y7670038D01*
X9477654Y7697165D01*
X9476892Y7703464D01*
X9475012Y7708950D01*
X9471914Y7713827D01*
X9467850Y7717942D01*
X9462922Y7720990D01*
X9457486Y7722920D01*
X9451136Y7723631D01*
X9294825Y7723631D01*
X9288475Y7722920D01*
X9283039Y7720990D01*
X9278112Y7717942D01*
X9274048Y7713827D01*
X9270949Y7708950D01*
X9269069Y7703464D01*
X9268358Y7697165D01*
X9268358Y7540802D01*
X9269069Y7534503D01*
X9270949Y7529017D01*
X9274048Y7524140D01*
X9278112Y7520025D01*
X9283039Y7516977D01*
X9288475Y7515047D01*
X9294825Y7514336D01*
X9451136Y7514336D01*
X9457486Y7515047D01*
X9462922Y7516977D01*
X9467850Y7520025D01*
X9471914Y7524140D01*
X9475012Y7529017D01*
X9476892Y7534503D01*
X9477654Y7540802D01*
X9477654Y7567930D01*
X9478416Y7571790D01*
X9480600Y7575092D01*
X9483902Y7577277D01*
X9487814Y7578090D01*
X9524441Y7578090D01*
X9528098Y7577378D01*
X9531299Y7575397D01*
X9533534Y7572400D01*
X9536379Y7566659D01*
X9543999Y7555280D01*
X9552990Y7545019D01*
X9563303Y7535976D01*
X9574682Y7528356D01*
X9586925Y7522311D01*
X9599879Y7517942D01*
X9613341Y7515250D01*
X9627006Y7514336D01*
X9640620Y7515250D01*
X9654082Y7517942D01*
X9660128Y7519974D01*
X9663836Y7520533D01*
X9667494Y7519670D01*
X9670592Y7517536D01*
X9856114Y7332014D01*
X9858298Y7328712D01*
X9859060Y7324852D01*
X9859060Y2142642D01*
X9858603Y2139594D01*
X9857232Y2136800D01*
X9851186Y2128164D01*
X9847021Y2119274D01*
X9844481Y2109774D01*
X9843617Y2099970D01*
X9844481Y2090216D01*
X9847021Y2080717D01*
X9851186Y2071827D01*
X9856825Y2063750D01*
X9863734Y2056841D01*
X9871811Y2051202D01*
X9880701Y2047036D01*
X9890201Y2044496D01*
X9900005Y2043633D01*
X9909759Y2044496D01*
X9919258Y2047036D01*
X9928148Y2051202D01*
X9936226Y2056841D01*
X9943134Y2063750D01*
X9948773Y2071827D01*
X9952939Y2080717D01*
X9954107Y2085086D01*
X9955987Y2088794D01*
X9959187Y2091436D01*
X9963150Y2092604D01*
X9967264Y2092045D01*
X9970820Y2089912D01*
X9973208Y2086508D01*
X9974072Y2082444D01*
X9974072Y724611D01*
X9973056Y720191D01*
X9970262Y716686D01*
X9966248Y714705D01*
X9961727Y714705D01*
X9957663Y716584D01*
X9954818Y720090D01*
X9945268Y739343D01*
X9929723Y766368D01*
X9912553Y792327D01*
X9893808Y817219D01*
X9873589Y840892D01*
X9851898Y863295D01*
X9828936Y884275D01*
X9804704Y903833D01*
X9779254Y921867D01*
X9752787Y938276D01*
X9725355Y953058D01*
X9697110Y966063D01*
X9668052Y977341D01*
X9638385Y986790D01*
X9608159Y994410D01*
X9577527Y1000150D01*
X9546640Y1003960D01*
X9515551Y1005890D01*
X9484410Y1005890D01*
X9453321Y1003960D01*
X9422384Y1000150D01*
X9391802Y994410D01*
X9361576Y986790D01*
X9331909Y977341D01*
X9302851Y966063D01*
X9274606Y953058D01*
X9247174Y938276D01*
X9220708Y921867D01*
X9195257Y903833D01*
X9171025Y884275D01*
X9148013Y863295D01*
X9126372Y840892D01*
X9106154Y817219D01*
X9087408Y792327D01*
X9070238Y766368D01*
X9054693Y739343D01*
X9040876Y711454D01*
X9028785Y682752D01*
X9018473Y653338D01*
X9009989Y623366D01*
X9003385Y592937D01*
X8998661Y562152D01*
X8995867Y531114D01*
X8995003Y500024D01*
X8995867Y468884D01*
X8998661Y437845D01*
X9003385Y407060D01*
X9009989Y376631D01*
X9018473Y346659D01*
X9028785Y317246D01*
X9040876Y288544D01*
X9054693Y260654D01*
X9070238Y233629D01*
X9087408Y207670D01*
X9106154Y182778D01*
X9126372Y159105D01*
X9148013Y136702D01*
X9171025Y115722D01*
X9195257Y96164D01*
X9220708Y78130D01*
X9247174Y61722D01*
X9274606Y46939D01*
X9278213Y45313D01*
X9281363Y43027D01*
X9283446Y39674D01*
X9284106Y35814D01*
X9283293Y32004D01*
X9281058Y28803D01*
X9277807Y26670D01*
X9273946Y25908D01*
G37*

%LPC*%
G36*
X4073855Y9043822D02*
G01*
X4142841Y9043822D01*
X4142130Y9045346D01*
X4133138Y9060281D01*
X4122623Y9074150D01*
X4110634Y9086799D01*
X4097375Y9098076D01*
X4082948Y9107830D01*
X4073855Y9112656D01*
G37*
G36*
X1857146Y9043822D02*
G01*
X1926132Y9043822D01*
X1926132Y9112656D01*
X1917039Y9107830D01*
X1902612Y9098076D01*
X1889353Y9086799D01*
X1877364Y9074150D01*
X1866849Y9060281D01*
X1857857Y9045346D01*
G37*
G36*
X6999986Y1443532D02*
G01*
X7009790Y1444396D01*
X7019239Y1446936D01*
X7028180Y1451051D01*
X7036206Y1456690D01*
X7043166Y1463649D01*
X7048804Y1471676D01*
X7052919Y1480616D01*
X7055459Y1490065D01*
X7056323Y1499870D01*
X7055459Y1509674D01*
X7052919Y1519123D01*
X7048804Y1528064D01*
X7042708Y1536700D01*
X7041388Y1539443D01*
X7040880Y1542542D01*
X7040880Y5457342D01*
X7041388Y5460390D01*
X7042708Y5463184D01*
X7048804Y5471820D01*
X7052919Y5480710D01*
X7055459Y5490210D01*
X7056323Y5499963D01*
X7055459Y5509768D01*
X7052919Y5519267D01*
X7048804Y5528157D01*
X7043166Y5536234D01*
X7036206Y5543143D01*
X7028180Y5548782D01*
X7019239Y5552948D01*
X7009790Y5555488D01*
X6999986Y5556351D01*
X6990181Y5555488D01*
X6980732Y5552948D01*
X6971792Y5548782D01*
X6963765Y5543143D01*
X6956806Y5536234D01*
X6951167Y5528157D01*
X6947052Y5519267D01*
X6944512Y5509768D01*
X6943648Y5499963D01*
X6944512Y5490210D01*
X6947052Y5480710D01*
X6951167Y5471820D01*
X6957263Y5463184D01*
X6958584Y5460390D01*
X6959092Y5457342D01*
X6959092Y1542542D01*
X6958584Y1539443D01*
X6957263Y1536700D01*
X6951167Y1528064D01*
X6947052Y1519123D01*
X6944512Y1509674D01*
X6943648Y1499870D01*
X6944512Y1490065D01*
X6947052Y1480616D01*
X6951167Y1471676D01*
X6956806Y1463649D01*
X6963765Y1456690D01*
X6971792Y1451051D01*
X6980732Y1446936D01*
X6990181Y1444396D01*
G37*
G36*
X5999988Y1869084D02*
G01*
X6017361Y1870049D01*
X6034582Y1872843D01*
X6051346Y1877517D01*
X6067552Y1883968D01*
X6082944Y1892147D01*
X6097371Y1901901D01*
X6110630Y1913178D01*
X6122619Y1925828D01*
X6133134Y1939696D01*
X6142126Y1954631D01*
X6149441Y1970430D01*
X6155029Y1986940D01*
X6158738Y2003958D01*
X6160617Y2021281D01*
X6160617Y2038705D01*
X6158738Y2056028D01*
X6155029Y2073046D01*
X6149441Y2089556D01*
X6142126Y2105355D01*
X6133134Y2120290D01*
X6122619Y2134158D01*
X6110630Y2146808D01*
X6097371Y2158085D01*
X6082944Y2167839D01*
X6067552Y2176018D01*
X6051346Y2182469D01*
X6034582Y2187143D01*
X6017361Y2189937D01*
X5999988Y2190902D01*
X5982563Y2189937D01*
X5965393Y2187143D01*
X5948629Y2182469D01*
X5932424Y2176018D01*
X5917031Y2167839D01*
X5902604Y2158085D01*
X5889345Y2146808D01*
X5877356Y2134158D01*
X5866790Y2120290D01*
X5857849Y2105355D01*
X5850534Y2089556D01*
X5844946Y2073046D01*
X5841187Y2056028D01*
X5839307Y2038705D01*
X5839307Y2021281D01*
X5841187Y2003958D01*
X5844946Y1986940D01*
X5850534Y1970430D01*
X5857849Y1954631D01*
X5866790Y1939696D01*
X5877356Y1925828D01*
X5889345Y1913178D01*
X5902604Y1901901D01*
X5917031Y1892147D01*
X5932424Y1883968D01*
X5948629Y1877517D01*
X5965393Y1872843D01*
X5982563Y1870049D01*
G37*
G36*
X1999996Y1869084D02*
G01*
X2017369Y1870049D01*
X2034590Y1872843D01*
X2051354Y1877517D01*
X2067560Y1883968D01*
X2082952Y1892147D01*
X2097379Y1901901D01*
X2110638Y1913178D01*
X2122627Y1925828D01*
X2133142Y1939696D01*
X2142134Y1954631D01*
X2149449Y1970430D01*
X2155037Y1986940D01*
X2158746Y2003958D01*
X2160625Y2021281D01*
X2160625Y2038705D01*
X2158746Y2056028D01*
X2155037Y2073046D01*
X2149449Y2089556D01*
X2142134Y2105355D01*
X2133142Y2120290D01*
X2122627Y2134158D01*
X2110638Y2146808D01*
X2097379Y2158085D01*
X2082952Y2167839D01*
X2067560Y2176018D01*
X2051354Y2182469D01*
X2034590Y2187143D01*
X2017369Y2189937D01*
X1999996Y2190902D01*
X1982571Y2189937D01*
X1965401Y2187143D01*
X1948637Y2182469D01*
X1932432Y2176018D01*
X1917039Y2167839D01*
X1902612Y2158085D01*
X1889353Y2146808D01*
X1877364Y2134158D01*
X1866798Y2120290D01*
X1857857Y2105355D01*
X1850542Y2089556D01*
X1844954Y2073046D01*
X1841195Y2056028D01*
X1839315Y2038705D01*
X1839315Y2021281D01*
X1841195Y2003958D01*
X1844954Y1986940D01*
X1850542Y1970430D01*
X1857857Y1954631D01*
X1866798Y1939696D01*
X1877364Y1925828D01*
X1889353Y1913178D01*
X1902612Y1901901D01*
X1917039Y1892147D01*
X1932432Y1883968D01*
X1948637Y1877517D01*
X1965401Y1872843D01*
X1982571Y1870049D01*
G37*
G36*
X3999992Y1869084D02*
G01*
X4017365Y1870049D01*
X4034586Y1872843D01*
X4051350Y1877517D01*
X4067556Y1883968D01*
X4082948Y1892147D01*
X4097375Y1901901D01*
X4110634Y1913178D01*
X4122623Y1925828D01*
X4133138Y1939696D01*
X4142130Y1954631D01*
X4149445Y1970430D01*
X4155033Y1986940D01*
X4158742Y2003958D01*
X4160621Y2021281D01*
X4160621Y2038705D01*
X4158742Y2056028D01*
X4155033Y2073046D01*
X4149445Y2089556D01*
X4142130Y2105355D01*
X4133138Y2120290D01*
X4122623Y2134158D01*
X4110634Y2146808D01*
X4097375Y2158085D01*
X4082948Y2167839D01*
X4067556Y2176018D01*
X4051350Y2182469D01*
X4034586Y2187143D01*
X4017365Y2189937D01*
X3999992Y2190902D01*
X3982567Y2189937D01*
X3965397Y2187143D01*
X3948633Y2182469D01*
X3932428Y2176018D01*
X3917035Y2167839D01*
X3902608Y2158085D01*
X3889349Y2146808D01*
X3877360Y2134158D01*
X3866794Y2120290D01*
X3857853Y2105355D01*
X3850538Y2089556D01*
X3844950Y2073046D01*
X3841191Y2056028D01*
X3839311Y2038705D01*
X3839311Y2021281D01*
X3841191Y2003958D01*
X3844950Y1986940D01*
X3850538Y1970430D01*
X3857853Y1954631D01*
X3866794Y1939696D01*
X3877360Y1925828D01*
X3889349Y1913178D01*
X3902608Y1901901D01*
X3917035Y1892147D01*
X3932428Y1883968D01*
X3948633Y1877517D01*
X3965397Y1872843D01*
X3982567Y1870049D01*
G37*
G36*
X7999984Y1869084D02*
G01*
X8017357Y1870049D01*
X8034578Y1872843D01*
X8051342Y1877517D01*
X8067548Y1883968D01*
X8082940Y1892147D01*
X8097367Y1901901D01*
X8110626Y1913178D01*
X8122615Y1925828D01*
X8133130Y1939696D01*
X8142122Y1954631D01*
X8149437Y1970430D01*
X8155025Y1986940D01*
X8158734Y2003958D01*
X8160613Y2021281D01*
X8160613Y2038705D01*
X8158734Y2056028D01*
X8155025Y2073046D01*
X8149437Y2089556D01*
X8142122Y2105355D01*
X8133130Y2120290D01*
X8122615Y2134158D01*
X8110626Y2146808D01*
X8097367Y2158085D01*
X8082940Y2167839D01*
X8067548Y2176018D01*
X8051342Y2182469D01*
X8034578Y2187143D01*
X8017357Y2189937D01*
X7999984Y2190902D01*
X7982559Y2189937D01*
X7965389Y2187143D01*
X7948625Y2182469D01*
X7932420Y2176018D01*
X7917027Y2167839D01*
X7902600Y2158085D01*
X7889341Y2146808D01*
X7877352Y2134158D01*
X7866786Y2120290D01*
X7857845Y2105355D01*
X7850530Y2089556D01*
X7844942Y2073046D01*
X7841183Y2056028D01*
X7839303Y2038705D01*
X7839303Y2021281D01*
X7841183Y2003958D01*
X7844942Y1986940D01*
X7850530Y1970430D01*
X7857845Y1954631D01*
X7866786Y1939696D01*
X7877352Y1925828D01*
X7889341Y1913178D01*
X7902600Y1901901D01*
X7917027Y1892147D01*
X7932420Y1883968D01*
X7948625Y1877517D01*
X7965389Y1872843D01*
X7982559Y1870049D01*
G37*
G36*
X3857142Y9043822D02*
G01*
X3926128Y9043822D01*
X3926128Y9112656D01*
X3917035Y9107830D01*
X3902608Y9098076D01*
X3889349Y9086799D01*
X3877360Y9074150D01*
X3866845Y9060281D01*
X3857853Y9045346D01*
G37*
G36*
X2073859Y9043822D02*
G01*
X2142845Y9043822D01*
X2142134Y9045346D01*
X2133142Y9060281D01*
X2122627Y9074150D01*
X2110638Y9086799D01*
X2097379Y9098076D01*
X2082952Y9107830D01*
X2073859Y9112656D01*
G37*
G36*
X9373006Y2268372D02*
G01*
X9386620Y2269286D01*
X9400082Y2271928D01*
X9413036Y2276348D01*
X9425279Y2282393D01*
X9436658Y2290013D01*
X9446971Y2299004D01*
X9455962Y2309317D01*
X9463582Y2320696D01*
X9469628Y2332939D01*
X9474047Y2345893D01*
X9476689Y2359355D01*
X9477603Y2372969D01*
X9476689Y2386634D01*
X9474047Y2400096D01*
X9469628Y2413050D01*
X9463582Y2425293D01*
X9455962Y2436672D01*
X9446971Y2446985D01*
X9436658Y2455976D01*
X9425279Y2463596D01*
X9413036Y2469642D01*
X9400082Y2474061D01*
X9386620Y2476703D01*
X9373006Y2477617D01*
X9359341Y2476703D01*
X9345879Y2474061D01*
X9332925Y2469642D01*
X9320682Y2463596D01*
X9309303Y2455976D01*
X9298990Y2446985D01*
X9289999Y2436672D01*
X9282379Y2425293D01*
X9276334Y2413050D01*
X9271914Y2400096D01*
X9269272Y2386634D01*
X9268358Y2372969D01*
X9269272Y2359355D01*
X9271914Y2345893D01*
X9276334Y2332939D01*
X9282379Y2320696D01*
X9289999Y2309317D01*
X9298990Y2299004D01*
X9309303Y2290013D01*
X9320682Y2282393D01*
X9332925Y2276348D01*
X9345879Y2271928D01*
X9359341Y2269286D01*
G37*
G36*
X9627006Y2268372D02*
G01*
X9640620Y2269286D01*
X9654082Y2271928D01*
X9667036Y2276348D01*
X9679279Y2282393D01*
X9690658Y2290013D01*
X9700971Y2299004D01*
X9709962Y2309317D01*
X9717582Y2320696D01*
X9723628Y2332939D01*
X9728047Y2345893D01*
X9730689Y2359355D01*
X9731603Y2372969D01*
X9730689Y2386634D01*
X9728047Y2400096D01*
X9723628Y2413050D01*
X9717582Y2425293D01*
X9709962Y2436672D01*
X9700971Y2446985D01*
X9690658Y2455976D01*
X9679279Y2463596D01*
X9667036Y2469642D01*
X9654082Y2474061D01*
X9640620Y2476703D01*
X9627006Y2477617D01*
X9613341Y2476703D01*
X9599879Y2474061D01*
X9586925Y2469642D01*
X9574682Y2463596D01*
X9563303Y2455976D01*
X9552990Y2446985D01*
X9543999Y2436672D01*
X9536379Y2425293D01*
X9530334Y2413050D01*
X9525914Y2400096D01*
X9523272Y2386634D01*
X9522358Y2372969D01*
X9523272Y2359355D01*
X9525914Y2345893D01*
X9530334Y2332939D01*
X9536379Y2320696D01*
X9543999Y2309317D01*
X9552990Y2299004D01*
X9563303Y2290013D01*
X9574682Y2282393D01*
X9586925Y2276348D01*
X9599879Y2271928D01*
X9613341Y2269286D01*
G37*
G36*
X5999988Y2339086D02*
G01*
X6017361Y2340051D01*
X6034582Y2342845D01*
X6051346Y2347518D01*
X6067552Y2353970D01*
X6082944Y2362149D01*
X6097371Y2371902D01*
X6110630Y2383180D01*
X6122619Y2395829D01*
X6133134Y2409698D01*
X6142126Y2424633D01*
X6149441Y2440432D01*
X6155029Y2456942D01*
X6158788Y2473960D01*
X6160668Y2491282D01*
X6160668Y2508707D01*
X6158788Y2526030D01*
X6155029Y2543048D01*
X6149441Y2559558D01*
X6142126Y2575356D01*
X6133134Y2590292D01*
X6122619Y2604160D01*
X6110630Y2616809D01*
X6097371Y2628087D01*
X6082944Y2637840D01*
X6067552Y2646019D01*
X6051346Y2652471D01*
X6034582Y2657144D01*
X6017361Y2659938D01*
X5999988Y2660904D01*
X5982614Y2659938D01*
X5965393Y2657144D01*
X5948629Y2652471D01*
X5932424Y2646019D01*
X5917031Y2637840D01*
X5902604Y2628087D01*
X5889345Y2616809D01*
X5877356Y2604160D01*
X5866841Y2590292D01*
X5857849Y2575356D01*
X5850534Y2559558D01*
X5844946Y2543048D01*
X5841238Y2526030D01*
X5839358Y2508707D01*
X5839358Y2491282D01*
X5841238Y2473960D01*
X5844946Y2456942D01*
X5850534Y2440432D01*
X5857849Y2424633D01*
X5866841Y2409698D01*
X5877356Y2395829D01*
X5889345Y2383180D01*
X5902604Y2371902D01*
X5917031Y2362149D01*
X5932424Y2353970D01*
X5948629Y2347518D01*
X5965393Y2342845D01*
X5982614Y2340051D01*
G37*
G36*
X7999984Y2339086D02*
G01*
X8017357Y2340051D01*
X8034578Y2342845D01*
X8051342Y2347518D01*
X8067548Y2353970D01*
X8082940Y2362149D01*
X8097367Y2371902D01*
X8110626Y2383180D01*
X8122615Y2395829D01*
X8133130Y2409698D01*
X8142122Y2424633D01*
X8149437Y2440432D01*
X8155025Y2456942D01*
X8158784Y2473960D01*
X8160664Y2491282D01*
X8160664Y2508707D01*
X8158784Y2526030D01*
X8155025Y2543048D01*
X8149437Y2559558D01*
X8142122Y2575356D01*
X8133130Y2590292D01*
X8122615Y2604160D01*
X8110626Y2616809D01*
X8097367Y2628087D01*
X8082940Y2637840D01*
X8067548Y2646019D01*
X8051342Y2652471D01*
X8034578Y2657144D01*
X8017357Y2659938D01*
X7999984Y2660904D01*
X7982610Y2659938D01*
X7965389Y2657144D01*
X7948625Y2652471D01*
X7932420Y2646019D01*
X7917027Y2637840D01*
X7902600Y2628087D01*
X7889341Y2616809D01*
X7877352Y2604160D01*
X7866837Y2590292D01*
X7857845Y2575356D01*
X7850530Y2559558D01*
X7844942Y2543048D01*
X7841234Y2526030D01*
X7839354Y2508707D01*
X7839354Y2491282D01*
X7841234Y2473960D01*
X7844942Y2456942D01*
X7850530Y2440432D01*
X7857845Y2424633D01*
X7866837Y2409698D01*
X7877352Y2395829D01*
X7889341Y2383180D01*
X7902600Y2371902D01*
X7917027Y2362149D01*
X7932420Y2353970D01*
X7948625Y2347518D01*
X7965389Y2342845D01*
X7982610Y2340051D01*
G37*
G36*
X1999996Y2339086D02*
G01*
X2017369Y2340051D01*
X2034590Y2342845D01*
X2051354Y2347518D01*
X2067560Y2353970D01*
X2082952Y2362149D01*
X2097379Y2371902D01*
X2110638Y2383180D01*
X2122627Y2395829D01*
X2133142Y2409698D01*
X2142134Y2424633D01*
X2149449Y2440432D01*
X2155037Y2456942D01*
X2158796Y2473960D01*
X2160676Y2491282D01*
X2160676Y2508707D01*
X2158796Y2526030D01*
X2155037Y2543048D01*
X2149449Y2559558D01*
X2142134Y2575356D01*
X2133142Y2590292D01*
X2122627Y2604160D01*
X2110638Y2616809D01*
X2097379Y2628087D01*
X2082952Y2637840D01*
X2067560Y2646019D01*
X2051354Y2652471D01*
X2034590Y2657144D01*
X2017369Y2659938D01*
X1999996Y2660904D01*
X1982622Y2659938D01*
X1965401Y2657144D01*
X1948637Y2652471D01*
X1932432Y2646019D01*
X1917039Y2637840D01*
X1902612Y2628087D01*
X1889353Y2616809D01*
X1877364Y2604160D01*
X1866849Y2590292D01*
X1857857Y2575356D01*
X1850542Y2559558D01*
X1844954Y2543048D01*
X1841246Y2526030D01*
X1839366Y2508707D01*
X1839366Y2491282D01*
X1841246Y2473960D01*
X1844954Y2456942D01*
X1850542Y2440432D01*
X1857857Y2424633D01*
X1866849Y2409698D01*
X1877364Y2395829D01*
X1889353Y2383180D01*
X1902612Y2371902D01*
X1917039Y2362149D01*
X1932432Y2353970D01*
X1948637Y2347518D01*
X1965401Y2342845D01*
X1982622Y2340051D01*
G37*
G36*
X3999992Y2339086D02*
G01*
X4017365Y2340051D01*
X4034586Y2342845D01*
X4051350Y2347518D01*
X4067556Y2353970D01*
X4082948Y2362149D01*
X4097375Y2371902D01*
X4110634Y2383180D01*
X4122623Y2395829D01*
X4133138Y2409698D01*
X4142130Y2424633D01*
X4149445Y2440432D01*
X4155033Y2456942D01*
X4158792Y2473960D01*
X4160672Y2491282D01*
X4160672Y2508707D01*
X4158792Y2526030D01*
X4155033Y2543048D01*
X4149445Y2559558D01*
X4142130Y2575356D01*
X4133138Y2590292D01*
X4122623Y2604160D01*
X4110634Y2616809D01*
X4097375Y2628087D01*
X4082948Y2637840D01*
X4067556Y2646019D01*
X4051350Y2652471D01*
X4034586Y2657144D01*
X4017365Y2659938D01*
X3999992Y2660904D01*
X3982618Y2659938D01*
X3965397Y2657144D01*
X3948633Y2652471D01*
X3932428Y2646019D01*
X3917035Y2637840D01*
X3902608Y2628087D01*
X3889349Y2616809D01*
X3877360Y2604160D01*
X3866845Y2590292D01*
X3857853Y2575356D01*
X3850538Y2559558D01*
X3844950Y2543048D01*
X3841242Y2526030D01*
X3839362Y2508707D01*
X3839362Y2491282D01*
X3841242Y2473960D01*
X3844950Y2456942D01*
X3850538Y2440432D01*
X3857853Y2424633D01*
X3866845Y2409698D01*
X3877360Y2395829D01*
X3889349Y2383180D01*
X3902608Y2371902D01*
X3917035Y2362149D01*
X3932428Y2353970D01*
X3948633Y2347518D01*
X3965397Y2342845D01*
X3982618Y2340051D01*
G37*
G36*
X9672726Y2522321D02*
G01*
X9705136Y2522321D01*
X9711486Y2523083D01*
X9716922Y2524963D01*
X9721850Y2528062D01*
X9725914Y2532126D01*
X9729012Y2537053D01*
X9730892Y2542489D01*
X9731654Y2548839D01*
X9731654Y2581249D01*
X9672726Y2581249D01*
G37*
G36*
X9548825Y2522321D02*
G01*
X9581286Y2522321D01*
X9581286Y2581249D01*
X9522358Y2581249D01*
X9522358Y2548839D01*
X9523069Y2542489D01*
X9524949Y2537053D01*
X9528048Y2532126D01*
X9532112Y2528062D01*
X9537039Y2524963D01*
X9542475Y2523083D01*
G37*
G36*
X9418726Y2533142D02*
G01*
X9425279Y2536393D01*
X9436658Y2544013D01*
X9446971Y2553004D01*
X9455962Y2563317D01*
X9463582Y2574696D01*
X9466834Y2581249D01*
X9418726Y2581249D01*
G37*
G36*
X9327286Y2533142D02*
G01*
X9327286Y2581249D01*
X9279128Y2581249D01*
X9282379Y2574696D01*
X9289999Y2563317D01*
X9298990Y2553004D01*
X9309303Y2544013D01*
X9320682Y2536393D01*
G37*
G36*
X9279128Y2672689D02*
G01*
X9327286Y2672689D01*
X9327286Y2720848D01*
X9320682Y2717596D01*
X9309303Y2709976D01*
X9298990Y2700985D01*
X9289999Y2690672D01*
X9282379Y2679293D01*
G37*
G36*
X9418726Y2672689D02*
G01*
X9466834Y2672689D01*
X9463582Y2679293D01*
X9455962Y2690672D01*
X9446971Y2700985D01*
X9436658Y2709976D01*
X9425279Y2717596D01*
X9418726Y2720848D01*
G37*
G36*
X9522358Y2672689D02*
G01*
X9581286Y2672689D01*
X9581286Y2731617D01*
X9548825Y2731617D01*
X9542475Y2730906D01*
X9537039Y2729026D01*
X9532112Y2725928D01*
X9528048Y2721864D01*
X9524949Y2716936D01*
X9523069Y2711500D01*
X9522358Y2705150D01*
G37*
G36*
X9672726Y2672689D02*
G01*
X9731654Y2672689D01*
X9731654Y2705150D01*
X9730892Y2711500D01*
X9729012Y2716936D01*
X9725914Y2721864D01*
X9721850Y2725928D01*
X9716922Y2729026D01*
X9711486Y2730906D01*
X9705136Y2731617D01*
X9672726Y2731617D01*
G37*
G36*
X4073855Y2827324D02*
G01*
X4082948Y2832150D01*
X4097375Y2841904D01*
X4110634Y2853182D01*
X4122623Y2865831D01*
X4133138Y2879699D01*
X4142130Y2894634D01*
X4142841Y2896158D01*
X4073855Y2896158D01*
G37*
G36*
X5926124Y2827324D02*
G01*
X5926124Y2896158D01*
X5857138Y2896158D01*
X5857849Y2894634D01*
X5866841Y2879699D01*
X5877356Y2865831D01*
X5889345Y2853182D01*
X5902604Y2841904D01*
X5917031Y2832150D01*
G37*
G36*
X7926120Y2827324D02*
G01*
X7926120Y2896158D01*
X7857134Y2896158D01*
X7857845Y2894634D01*
X7866837Y2879699D01*
X7877352Y2865831D01*
X7889341Y2853182D01*
X7902600Y2841904D01*
X7917027Y2832150D01*
G37*
G36*
X6073851Y2827324D02*
G01*
X6082944Y2832150D01*
X6097371Y2841904D01*
X6110630Y2853182D01*
X6122619Y2865831D01*
X6133134Y2879699D01*
X6142126Y2894634D01*
X6142837Y2896158D01*
X6073851Y2896158D01*
G37*
G36*
X3926128Y2827324D02*
G01*
X3926128Y2896158D01*
X3857142Y2896158D01*
X3857853Y2894634D01*
X3866845Y2879699D01*
X3877360Y2865831D01*
X3889349Y2853182D01*
X3902608Y2841904D01*
X3917035Y2832150D01*
G37*
G36*
X8073847Y2827324D02*
G01*
X8082940Y2832150D01*
X8097367Y2841904D01*
X8110626Y2853182D01*
X8122615Y2865831D01*
X8133130Y2879699D01*
X8142122Y2894634D01*
X8142833Y2896158D01*
X8073847Y2896158D01*
G37*
G36*
X2073859Y2827324D02*
G01*
X2082952Y2832150D01*
X2097379Y2841904D01*
X2110638Y2853182D01*
X2122627Y2865831D01*
X2133142Y2879699D01*
X2142134Y2894634D01*
X2142845Y2896158D01*
X2073859Y2896158D01*
G37*
G36*
X1926132Y2827324D02*
G01*
X1926132Y2896158D01*
X1857146Y2896158D01*
X1857857Y2894634D01*
X1866849Y2879699D01*
X1877364Y2865831D01*
X1889353Y2853182D01*
X1902612Y2841904D01*
X1917039Y2832150D01*
G37*
G36*
X4073855Y3043834D02*
G01*
X4142841Y3043834D01*
X4142130Y3045358D01*
X4133138Y3060293D01*
X4122623Y3074162D01*
X4110634Y3086811D01*
X4097375Y3098088D01*
X4082948Y3107842D01*
X4073855Y3112668D01*
G37*
G36*
X5857138Y3043834D02*
G01*
X5926124Y3043834D01*
X5926124Y3112668D01*
X5917031Y3107842D01*
X5902604Y3098088D01*
X5889345Y3086811D01*
X5877356Y3074162D01*
X5866841Y3060293D01*
X5857849Y3045358D01*
G37*
G36*
X6073851Y3043834D02*
G01*
X6142837Y3043834D01*
X6142126Y3045358D01*
X6133134Y3060293D01*
X6122619Y3074162D01*
X6110630Y3086811D01*
X6097371Y3098088D01*
X6082944Y3107842D01*
X6073851Y3112668D01*
G37*
G36*
X7857134Y3043834D02*
G01*
X7926120Y3043834D01*
X7926120Y3112668D01*
X7917027Y3107842D01*
X7902600Y3098088D01*
X7889341Y3086811D01*
X7877352Y3074162D01*
X7866837Y3060293D01*
X7857845Y3045358D01*
G37*
G36*
X3857142Y3043834D02*
G01*
X3926128Y3043834D01*
X3926128Y3112668D01*
X3917035Y3107842D01*
X3902608Y3098088D01*
X3889349Y3086811D01*
X3877360Y3074162D01*
X3866845Y3060293D01*
X3857853Y3045358D01*
G37*
G36*
X8073847Y3043834D02*
G01*
X8142833Y3043834D01*
X8142122Y3045358D01*
X8133130Y3060293D01*
X8122615Y3074162D01*
X8110626Y3086811D01*
X8097367Y3098088D01*
X8082940Y3107842D01*
X8073847Y3112668D01*
G37*
G36*
X2073859Y3043834D02*
G01*
X2142845Y3043834D01*
X2142134Y3045358D01*
X2133142Y3060293D01*
X2122627Y3074162D01*
X2110638Y3086811D01*
X2097379Y3098088D01*
X2082952Y3107842D01*
X2073859Y3112668D01*
G37*
G36*
X1857146Y3043834D02*
G01*
X1926132Y3043834D01*
X1926132Y3112668D01*
X1917039Y3107842D01*
X1902612Y3098088D01*
X1889353Y3086811D01*
X1877364Y3074162D01*
X1866849Y3060293D01*
X1857857Y3045358D01*
G37*
G36*
X7999984Y3869080D02*
G01*
X8017357Y3870045D01*
X8034578Y3872839D01*
X8051342Y3877513D01*
X8067548Y3883964D01*
X8082940Y3892143D01*
X8097367Y3901897D01*
X8110626Y3913174D01*
X8122615Y3925824D01*
X8133130Y3939692D01*
X8142122Y3954627D01*
X8149437Y3970426D01*
X8155025Y3986936D01*
X8158734Y4003954D01*
X8160613Y4021277D01*
X8160613Y4038701D01*
X8158734Y4056024D01*
X8155025Y4073042D01*
X8149437Y4089552D01*
X8142122Y4105351D01*
X8133130Y4120286D01*
X8122615Y4134154D01*
X8110626Y4146804D01*
X8097367Y4158081D01*
X8082940Y4167835D01*
X8067548Y4176014D01*
X8051342Y4182465D01*
X8034578Y4187139D01*
X8017357Y4189933D01*
X7999984Y4190898D01*
X7982559Y4189933D01*
X7965389Y4187139D01*
X7948625Y4182465D01*
X7932420Y4176014D01*
X7917027Y4167835D01*
X7902600Y4158081D01*
X7889341Y4146804D01*
X7877352Y4134154D01*
X7866786Y4120286D01*
X7857845Y4105351D01*
X7850530Y4089552D01*
X7844942Y4073042D01*
X7841183Y4056024D01*
X7839303Y4038701D01*
X7839303Y4021277D01*
X7841183Y4003954D01*
X7844942Y3986936D01*
X7850530Y3970426D01*
X7857845Y3954627D01*
X7866786Y3939692D01*
X7877352Y3925824D01*
X7889341Y3913174D01*
X7902600Y3901897D01*
X7917027Y3892143D01*
X7932420Y3883964D01*
X7948625Y3877513D01*
X7965389Y3872839D01*
X7982559Y3870045D01*
G37*
G36*
X1999996Y3869080D02*
G01*
X2017369Y3870045D01*
X2034590Y3872839D01*
X2051354Y3877513D01*
X2067560Y3883964D01*
X2082952Y3892143D01*
X2097379Y3901897D01*
X2110638Y3913174D01*
X2122627Y3925824D01*
X2133142Y3939692D01*
X2142134Y3954627D01*
X2149449Y3970426D01*
X2155037Y3986936D01*
X2158746Y4003954D01*
X2160625Y4021277D01*
X2160625Y4038701D01*
X2158746Y4056024D01*
X2155037Y4073042D01*
X2149449Y4089552D01*
X2142134Y4105351D01*
X2133142Y4120286D01*
X2122627Y4134154D01*
X2110638Y4146804D01*
X2097379Y4158081D01*
X2082952Y4167835D01*
X2067560Y4176014D01*
X2051354Y4182465D01*
X2034590Y4187139D01*
X2017369Y4189933D01*
X1999996Y4190898D01*
X1982571Y4189933D01*
X1965401Y4187139D01*
X1948637Y4182465D01*
X1932432Y4176014D01*
X1917039Y4167835D01*
X1902612Y4158081D01*
X1889353Y4146804D01*
X1877364Y4134154D01*
X1866798Y4120286D01*
X1857857Y4105351D01*
X1850542Y4089552D01*
X1844954Y4073042D01*
X1841195Y4056024D01*
X1839315Y4038701D01*
X1839315Y4021277D01*
X1841195Y4003954D01*
X1844954Y3986936D01*
X1850542Y3970426D01*
X1857857Y3954627D01*
X1866798Y3939692D01*
X1877364Y3925824D01*
X1889353Y3913174D01*
X1902612Y3901897D01*
X1917039Y3892143D01*
X1932432Y3883964D01*
X1948637Y3877513D01*
X1965401Y3872839D01*
X1982571Y3870045D01*
G37*
G36*
X5999988Y3869080D02*
G01*
X6017361Y3870045D01*
X6034582Y3872839D01*
X6051346Y3877513D01*
X6067552Y3883964D01*
X6082944Y3892143D01*
X6097371Y3901897D01*
X6110630Y3913174D01*
X6122619Y3925824D01*
X6133134Y3939692D01*
X6142126Y3954627D01*
X6149441Y3970426D01*
X6155029Y3986936D01*
X6158738Y4003954D01*
X6160617Y4021277D01*
X6160617Y4038701D01*
X6158738Y4056024D01*
X6155029Y4073042D01*
X6149441Y4089552D01*
X6142126Y4105351D01*
X6133134Y4120286D01*
X6122619Y4134154D01*
X6110630Y4146804D01*
X6097371Y4158081D01*
X6082944Y4167835D01*
X6067552Y4176014D01*
X6051346Y4182465D01*
X6034582Y4187139D01*
X6017361Y4189933D01*
X5999988Y4190898D01*
X5982563Y4189933D01*
X5965393Y4187139D01*
X5948629Y4182465D01*
X5932424Y4176014D01*
X5917031Y4167835D01*
X5902604Y4158081D01*
X5889345Y4146804D01*
X5877356Y4134154D01*
X5866790Y4120286D01*
X5857849Y4105351D01*
X5850534Y4089552D01*
X5844946Y4073042D01*
X5841187Y4056024D01*
X5839307Y4038701D01*
X5839307Y4021277D01*
X5841187Y4003954D01*
X5844946Y3986936D01*
X5850534Y3970426D01*
X5857849Y3954627D01*
X5866790Y3939692D01*
X5877356Y3925824D01*
X5889345Y3913174D01*
X5902604Y3901897D01*
X5917031Y3892143D01*
X5932424Y3883964D01*
X5948629Y3877513D01*
X5965393Y3872839D01*
X5982563Y3870045D01*
G37*
G36*
X3999992Y3869080D02*
G01*
X4017365Y3870045D01*
X4034586Y3872839D01*
X4051350Y3877513D01*
X4067556Y3883964D01*
X4082948Y3892143D01*
X4097375Y3901897D01*
X4110634Y3913174D01*
X4122623Y3925824D01*
X4133138Y3939692D01*
X4142130Y3954627D01*
X4149445Y3970426D01*
X4155033Y3986936D01*
X4158742Y4003954D01*
X4160621Y4021277D01*
X4160621Y4038701D01*
X4158742Y4056024D01*
X4155033Y4073042D01*
X4149445Y4089552D01*
X4142130Y4105351D01*
X4133138Y4120286D01*
X4122623Y4134154D01*
X4110634Y4146804D01*
X4097375Y4158081D01*
X4082948Y4167835D01*
X4067556Y4176014D01*
X4051350Y4182465D01*
X4034586Y4187139D01*
X4017365Y4189933D01*
X3999992Y4190898D01*
X3982567Y4189933D01*
X3965397Y4187139D01*
X3948633Y4182465D01*
X3932428Y4176014D01*
X3917035Y4167835D01*
X3902608Y4158081D01*
X3889349Y4146804D01*
X3877360Y4134154D01*
X3866794Y4120286D01*
X3857853Y4105351D01*
X3850538Y4089552D01*
X3844950Y4073042D01*
X3841191Y4056024D01*
X3839311Y4038701D01*
X3839311Y4021277D01*
X3841191Y4003954D01*
X3844950Y3986936D01*
X3850538Y3970426D01*
X3857853Y3954627D01*
X3866794Y3939692D01*
X3877360Y3925824D01*
X3889349Y3913174D01*
X3902608Y3901897D01*
X3917035Y3892143D01*
X3932428Y3883964D01*
X3948633Y3877513D01*
X3965397Y3872839D01*
X3982567Y3870045D01*
G37*
G36*
X1999996Y4339082D02*
G01*
X2017369Y4340047D01*
X2034590Y4342841D01*
X2051354Y4347514D01*
X2067560Y4353966D01*
X2082952Y4362145D01*
X2097379Y4371898D01*
X2110638Y4383176D01*
X2122627Y4395825D01*
X2133142Y4409694D01*
X2142134Y4424629D01*
X2149449Y4440428D01*
X2155037Y4456938D01*
X2158796Y4473956D01*
X2160676Y4491278D01*
X2160676Y4508703D01*
X2158796Y4526026D01*
X2155037Y4543044D01*
X2149449Y4559554D01*
X2142134Y4575352D01*
X2133142Y4590288D01*
X2122627Y4604156D01*
X2110638Y4616805D01*
X2097379Y4628083D01*
X2082952Y4637836D01*
X2067560Y4646015D01*
X2051354Y4652467D01*
X2034590Y4657140D01*
X2017369Y4659934D01*
X1999996Y4660900D01*
X1982622Y4659934D01*
X1965401Y4657140D01*
X1948637Y4652467D01*
X1932432Y4646015D01*
X1917039Y4637836D01*
X1902612Y4628083D01*
X1889353Y4616805D01*
X1877364Y4604156D01*
X1866849Y4590288D01*
X1857857Y4575352D01*
X1850542Y4559554D01*
X1844954Y4543044D01*
X1841246Y4526026D01*
X1839366Y4508703D01*
X1839366Y4491278D01*
X1841246Y4473956D01*
X1844954Y4456938D01*
X1850542Y4440428D01*
X1857857Y4424629D01*
X1866849Y4409694D01*
X1877364Y4395825D01*
X1889353Y4383176D01*
X1902612Y4371898D01*
X1917039Y4362145D01*
X1932432Y4353966D01*
X1948637Y4347514D01*
X1965401Y4342841D01*
X1982622Y4340047D01*
G37*
G36*
X7999984Y4339082D02*
G01*
X8017357Y4340047D01*
X8034578Y4342841D01*
X8051342Y4347514D01*
X8067548Y4353966D01*
X8082940Y4362145D01*
X8097367Y4371898D01*
X8110626Y4383176D01*
X8122615Y4395825D01*
X8133130Y4409694D01*
X8142122Y4424629D01*
X8149437Y4440428D01*
X8155025Y4456938D01*
X8158784Y4473956D01*
X8160664Y4491278D01*
X8160664Y4508703D01*
X8158784Y4526026D01*
X8155025Y4543044D01*
X8149437Y4559554D01*
X8142122Y4575352D01*
X8133130Y4590288D01*
X8122615Y4604156D01*
X8110626Y4616805D01*
X8097367Y4628083D01*
X8082940Y4637836D01*
X8067548Y4646015D01*
X8051342Y4652467D01*
X8034578Y4657140D01*
X8017357Y4659934D01*
X7999984Y4660900D01*
X7982610Y4659934D01*
X7965389Y4657140D01*
X7948625Y4652467D01*
X7932420Y4646015D01*
X7917027Y4637836D01*
X7902600Y4628083D01*
X7889341Y4616805D01*
X7877352Y4604156D01*
X7866837Y4590288D01*
X7857845Y4575352D01*
X7850530Y4559554D01*
X7844942Y4543044D01*
X7841234Y4526026D01*
X7839354Y4508703D01*
X7839354Y4491278D01*
X7841234Y4473956D01*
X7844942Y4456938D01*
X7850530Y4440428D01*
X7857845Y4424629D01*
X7866837Y4409694D01*
X7877352Y4395825D01*
X7889341Y4383176D01*
X7902600Y4371898D01*
X7917027Y4362145D01*
X7932420Y4353966D01*
X7948625Y4347514D01*
X7965389Y4342841D01*
X7982610Y4340047D01*
G37*
G36*
X3999992Y4339082D02*
G01*
X4017365Y4340047D01*
X4034586Y4342841D01*
X4051350Y4347514D01*
X4067556Y4353966D01*
X4082948Y4362145D01*
X4097375Y4371898D01*
X4110634Y4383176D01*
X4122623Y4395825D01*
X4133138Y4409694D01*
X4142130Y4424629D01*
X4149445Y4440428D01*
X4155033Y4456938D01*
X4158792Y4473956D01*
X4160672Y4491278D01*
X4160672Y4508703D01*
X4158792Y4526026D01*
X4155033Y4543044D01*
X4149445Y4559554D01*
X4142130Y4575352D01*
X4133138Y4590288D01*
X4122623Y4604156D01*
X4110634Y4616805D01*
X4097375Y4628083D01*
X4082948Y4637836D01*
X4067556Y4646015D01*
X4051350Y4652467D01*
X4034586Y4657140D01*
X4017365Y4659934D01*
X3999992Y4660900D01*
X3982618Y4659934D01*
X3965397Y4657140D01*
X3948633Y4652467D01*
X3932428Y4646015D01*
X3917035Y4637836D01*
X3902608Y4628083D01*
X3889349Y4616805D01*
X3877360Y4604156D01*
X3866845Y4590288D01*
X3857853Y4575352D01*
X3850538Y4559554D01*
X3844950Y4543044D01*
X3841242Y4526026D01*
X3839362Y4508703D01*
X3839362Y4491278D01*
X3841242Y4473956D01*
X3844950Y4456938D01*
X3850538Y4440428D01*
X3857853Y4424629D01*
X3866845Y4409694D01*
X3877360Y4395825D01*
X3889349Y4383176D01*
X3902608Y4371898D01*
X3917035Y4362145D01*
X3932428Y4353966D01*
X3948633Y4347514D01*
X3965397Y4342841D01*
X3982618Y4340047D01*
G37*
G36*
X5999988Y4339082D02*
G01*
X6017361Y4340047D01*
X6034582Y4342841D01*
X6051346Y4347514D01*
X6067552Y4353966D01*
X6082944Y4362145D01*
X6097371Y4371898D01*
X6110630Y4383176D01*
X6122619Y4395825D01*
X6133134Y4409694D01*
X6142126Y4424629D01*
X6149441Y4440428D01*
X6155029Y4456938D01*
X6158788Y4473956D01*
X6160668Y4491278D01*
X6160668Y4508703D01*
X6158788Y4526026D01*
X6155029Y4543044D01*
X6149441Y4559554D01*
X6142126Y4575352D01*
X6133134Y4590288D01*
X6122619Y4604156D01*
X6110630Y4616805D01*
X6097371Y4628083D01*
X6082944Y4637836D01*
X6067552Y4646015D01*
X6051346Y4652467D01*
X6034582Y4657140D01*
X6017361Y4659934D01*
X5999988Y4660900D01*
X5982614Y4659934D01*
X5965393Y4657140D01*
X5948629Y4652467D01*
X5932424Y4646015D01*
X5917031Y4637836D01*
X5902604Y4628083D01*
X5889345Y4616805D01*
X5877356Y4604156D01*
X5866841Y4590288D01*
X5857849Y4575352D01*
X5850534Y4559554D01*
X5844946Y4543044D01*
X5841238Y4526026D01*
X5839358Y4508703D01*
X5839358Y4491278D01*
X5841238Y4473956D01*
X5844946Y4456938D01*
X5850534Y4440428D01*
X5857849Y4424629D01*
X5866841Y4409694D01*
X5877356Y4395825D01*
X5889345Y4383176D01*
X5902604Y4371898D01*
X5917031Y4362145D01*
X5932424Y4353966D01*
X5948629Y4347514D01*
X5965393Y4342841D01*
X5982614Y4340047D01*
G37*
G36*
X4073855Y4827320D02*
G01*
X4082948Y4832146D01*
X4097375Y4841900D01*
X4110634Y4853178D01*
X4122623Y4865827D01*
X4133138Y4879695D01*
X4142130Y4894630D01*
X4142841Y4896154D01*
X4073855Y4896154D01*
G37*
G36*
X7926120Y4827320D02*
G01*
X7926120Y4896154D01*
X7857134Y4896154D01*
X7857845Y4894630D01*
X7866837Y4879695D01*
X7877352Y4865827D01*
X7889341Y4853178D01*
X7902600Y4841900D01*
X7917027Y4832146D01*
G37*
G36*
X5926124Y4827320D02*
G01*
X5926124Y4896154D01*
X5857138Y4896154D01*
X5857849Y4894630D01*
X5866841Y4879695D01*
X5877356Y4865827D01*
X5889345Y4853178D01*
X5902604Y4841900D01*
X5917031Y4832146D01*
G37*
G36*
X3926128Y4827320D02*
G01*
X3926128Y4896154D01*
X3857142Y4896154D01*
X3857853Y4894630D01*
X3866845Y4879695D01*
X3877360Y4865827D01*
X3889349Y4853178D01*
X3902608Y4841900D01*
X3917035Y4832146D01*
G37*
G36*
X6073851Y4827320D02*
G01*
X6082944Y4832146D01*
X6097371Y4841900D01*
X6110630Y4853178D01*
X6122619Y4865827D01*
X6133134Y4879695D01*
X6142126Y4894630D01*
X6142837Y4896154D01*
X6073851Y4896154D01*
G37*
G36*
X8073847Y4827320D02*
G01*
X8082940Y4832146D01*
X8097367Y4841900D01*
X8110626Y4853178D01*
X8122615Y4865827D01*
X8133130Y4879695D01*
X8142122Y4894630D01*
X8142833Y4896154D01*
X8073847Y4896154D01*
G37*
G36*
X2073859Y4827320D02*
G01*
X2082952Y4832146D01*
X2097379Y4841900D01*
X2110638Y4853178D01*
X2122627Y4865827D01*
X2133142Y4879695D01*
X2142134Y4894630D01*
X2142845Y4896154D01*
X2073859Y4896154D01*
G37*
G36*
X1926132Y4827320D02*
G01*
X1926132Y4896154D01*
X1857146Y4896154D01*
X1857857Y4894630D01*
X1866849Y4879695D01*
X1877364Y4865827D01*
X1889353Y4853178D01*
X1902612Y4841900D01*
X1917039Y4832146D01*
G37*
G36*
X4073855Y5043830D02*
G01*
X4142841Y5043830D01*
X4142130Y5045354D01*
X4133138Y5060289D01*
X4122623Y5074158D01*
X4110634Y5086807D01*
X4097375Y5098084D01*
X4082948Y5107838D01*
X4073855Y5112664D01*
G37*
G36*
X3857142Y5043830D02*
G01*
X3926128Y5043830D01*
X3926128Y5112664D01*
X3917035Y5107838D01*
X3902608Y5098084D01*
X3889349Y5086807D01*
X3877360Y5074158D01*
X3866845Y5060289D01*
X3857853Y5045354D01*
G37*
G36*
X6073851Y5043830D02*
G01*
X6142837Y5043830D01*
X6142126Y5045354D01*
X6133134Y5060289D01*
X6122619Y5074158D01*
X6110630Y5086807D01*
X6097371Y5098084D01*
X6082944Y5107838D01*
X6073851Y5112664D01*
G37*
G36*
X8073847Y5043830D02*
G01*
X8142833Y5043830D01*
X8142122Y5045354D01*
X8133130Y5060289D01*
X8122615Y5074158D01*
X8110626Y5086807D01*
X8097367Y5098084D01*
X8082940Y5107838D01*
X8073847Y5112664D01*
G37*
G36*
X7857134Y5043830D02*
G01*
X7926120Y5043830D01*
X7926120Y5112664D01*
X7917027Y5107838D01*
X7902600Y5098084D01*
X7889341Y5086807D01*
X7877352Y5074158D01*
X7866837Y5060289D01*
X7857845Y5045354D01*
G37*
G36*
X5857138Y5043830D02*
G01*
X5926124Y5043830D01*
X5926124Y5112664D01*
X5917031Y5107838D01*
X5902604Y5098084D01*
X5889345Y5086807D01*
X5877356Y5074158D01*
X5866841Y5060289D01*
X5857849Y5045354D01*
G37*
G36*
X1857146Y5043830D02*
G01*
X1926132Y5043830D01*
X1926132Y5112664D01*
X1917039Y5107838D01*
X1902612Y5098084D01*
X1889353Y5086807D01*
X1877364Y5074158D01*
X1866849Y5060289D01*
X1857857Y5045354D01*
G37*
G36*
X2073859Y5043830D02*
G01*
X2142845Y5043830D01*
X2142134Y5045354D01*
X2133142Y5060289D01*
X2122627Y5074158D01*
X2110638Y5086807D01*
X2097379Y5098084D01*
X2082952Y5107838D01*
X2073859Y5112664D01*
G37*
G36*
X9500006Y5243626D02*
G01*
X9509760Y5244490D01*
X9519259Y5247030D01*
X9528149Y5251196D01*
X9536226Y5256834D01*
X9543135Y5263743D01*
X9548774Y5271820D01*
X9552940Y5280710D01*
X9555480Y5290210D01*
X9556343Y5299964D01*
X9555480Y5309768D01*
X9552940Y5319268D01*
X9548774Y5328158D01*
X9543135Y5336235D01*
X9536226Y5343144D01*
X9528149Y5348782D01*
X9519259Y5352948D01*
X9509760Y5355488D01*
X9500006Y5356352D01*
X9490202Y5355488D01*
X9480702Y5352948D01*
X9471812Y5348782D01*
X9463176Y5342737D01*
X9460382Y5341366D01*
X9457334Y5340908D01*
X9416796Y5340908D01*
X9412884Y5341670D01*
X9409582Y5343855D01*
X9174429Y5579008D01*
X9172397Y5581904D01*
X9171482Y5585307D01*
X9171127Y5589778D01*
X9168587Y5599277D01*
X9164421Y5608167D01*
X9158782Y5616194D01*
X9151823Y5623153D01*
X9143796Y5628792D01*
X9134906Y5632958D01*
X9125407Y5635498D01*
X9115602Y5636361D01*
X9105849Y5635498D01*
X9096349Y5632958D01*
X9087459Y5628792D01*
X9079382Y5623153D01*
X9072473Y5616194D01*
X9066834Y5608167D01*
X9062669Y5599277D01*
X9060129Y5589778D01*
X9059265Y5579973D01*
X9060129Y5570220D01*
X9062669Y5560720D01*
X9066834Y5551830D01*
X9072473Y5543753D01*
X9079382Y5536844D01*
X9087459Y5531205D01*
X9096349Y5527040D01*
X9105849Y5524500D01*
X9110268Y5524093D01*
X9113723Y5523179D01*
X9116568Y5521147D01*
X9366351Y5271414D01*
X9372904Y5266029D01*
X9379966Y5262219D01*
X9387636Y5259933D01*
X9396120Y5259070D01*
X9457334Y5259070D01*
X9460382Y5258612D01*
X9463176Y5257241D01*
X9471812Y5251196D01*
X9480702Y5247030D01*
X9490202Y5244490D01*
G37*
G36*
X8073847Y9043822D02*
G01*
X8142833Y9043822D01*
X8142122Y9045346D01*
X8133130Y9060281D01*
X8122615Y9074150D01*
X8110626Y9086799D01*
X8097367Y9098076D01*
X8082940Y9107830D01*
X8073847Y9112656D01*
G37*
G36*
X5857138Y9043822D02*
G01*
X5926124Y9043822D01*
X5926124Y9112656D01*
X5917031Y9107830D01*
X5902604Y9098076D01*
X5889345Y9086799D01*
X5877356Y9074150D01*
X5866841Y9060281D01*
X5857849Y9045346D01*
G37*
G36*
X7999984Y5869076D02*
G01*
X8017357Y5870041D01*
X8034578Y5872835D01*
X8051342Y5877509D01*
X8067548Y5883960D01*
X8082940Y5892139D01*
X8097367Y5901893D01*
X8110626Y5913170D01*
X8122615Y5925820D01*
X8133130Y5939688D01*
X8142122Y5954623D01*
X8149437Y5970422D01*
X8155025Y5986932D01*
X8158734Y6003950D01*
X8160613Y6021273D01*
X8160613Y6038697D01*
X8158734Y6056020D01*
X8155025Y6073038D01*
X8149437Y6089548D01*
X8142122Y6105347D01*
X8133130Y6120282D01*
X8122615Y6134150D01*
X8110626Y6146800D01*
X8097367Y6158077D01*
X8082940Y6167831D01*
X8067548Y6176010D01*
X8051342Y6182461D01*
X8034578Y6187135D01*
X8017357Y6189929D01*
X7999984Y6190894D01*
X7982559Y6189929D01*
X7965389Y6187135D01*
X7948625Y6182461D01*
X7932420Y6176010D01*
X7917027Y6167831D01*
X7902600Y6158077D01*
X7889341Y6146800D01*
X7877352Y6134150D01*
X7866786Y6120282D01*
X7857845Y6105347D01*
X7850530Y6089548D01*
X7844942Y6073038D01*
X7841183Y6056020D01*
X7839303Y6038697D01*
X7839303Y6021273D01*
X7841183Y6003950D01*
X7844942Y5986932D01*
X7850530Y5970422D01*
X7857845Y5954623D01*
X7866786Y5939688D01*
X7877352Y5925820D01*
X7889341Y5913170D01*
X7902600Y5901893D01*
X7917027Y5892139D01*
X7932420Y5883960D01*
X7948625Y5877509D01*
X7965389Y5872835D01*
X7982559Y5870041D01*
G37*
G36*
X5999988Y5869076D02*
G01*
X6017361Y5870041D01*
X6034582Y5872835D01*
X6051346Y5877509D01*
X6067552Y5883960D01*
X6082944Y5892139D01*
X6097371Y5901893D01*
X6110630Y5913170D01*
X6122619Y5925820D01*
X6133134Y5939688D01*
X6142126Y5954623D01*
X6149441Y5970422D01*
X6155029Y5986932D01*
X6158738Y6003950D01*
X6160617Y6021273D01*
X6160617Y6038697D01*
X6158738Y6056020D01*
X6155029Y6073038D01*
X6149441Y6089548D01*
X6142126Y6105347D01*
X6133134Y6120282D01*
X6122619Y6134150D01*
X6110630Y6146800D01*
X6097371Y6158077D01*
X6082944Y6167831D01*
X6067552Y6176010D01*
X6051346Y6182461D01*
X6034582Y6187135D01*
X6017361Y6189929D01*
X5999988Y6190894D01*
X5982563Y6189929D01*
X5965393Y6187135D01*
X5948629Y6182461D01*
X5932424Y6176010D01*
X5917031Y6167831D01*
X5902604Y6158077D01*
X5889345Y6146800D01*
X5877356Y6134150D01*
X5866790Y6120282D01*
X5857849Y6105347D01*
X5850534Y6089548D01*
X5844946Y6073038D01*
X5841187Y6056020D01*
X5839307Y6038697D01*
X5839307Y6021273D01*
X5841187Y6003950D01*
X5844946Y5986932D01*
X5850534Y5970422D01*
X5857849Y5954623D01*
X5866790Y5939688D01*
X5877356Y5925820D01*
X5889345Y5913170D01*
X5902604Y5901893D01*
X5917031Y5892139D01*
X5932424Y5883960D01*
X5948629Y5877509D01*
X5965393Y5872835D01*
X5982563Y5870041D01*
G37*
G36*
X3999992Y5869076D02*
G01*
X4017365Y5870041D01*
X4034586Y5872835D01*
X4051350Y5877509D01*
X4067556Y5883960D01*
X4082948Y5892139D01*
X4097375Y5901893D01*
X4110634Y5913170D01*
X4122623Y5925820D01*
X4133138Y5939688D01*
X4142130Y5954623D01*
X4149445Y5970422D01*
X4155033Y5986932D01*
X4158742Y6003950D01*
X4160621Y6021273D01*
X4160621Y6038697D01*
X4158742Y6056020D01*
X4155033Y6073038D01*
X4149445Y6089548D01*
X4142130Y6105347D01*
X4133138Y6120282D01*
X4122623Y6134150D01*
X4110634Y6146800D01*
X4097375Y6158077D01*
X4082948Y6167831D01*
X4067556Y6176010D01*
X4051350Y6182461D01*
X4034586Y6187135D01*
X4017365Y6189929D01*
X3999992Y6190894D01*
X3982567Y6189929D01*
X3965397Y6187135D01*
X3948633Y6182461D01*
X3932428Y6176010D01*
X3917035Y6167831D01*
X3902608Y6158077D01*
X3889349Y6146800D01*
X3877360Y6134150D01*
X3866794Y6120282D01*
X3857853Y6105347D01*
X3850538Y6089548D01*
X3844950Y6073038D01*
X3841191Y6056020D01*
X3839311Y6038697D01*
X3839311Y6021273D01*
X3841191Y6003950D01*
X3844950Y5986932D01*
X3850538Y5970422D01*
X3857853Y5954623D01*
X3866794Y5939688D01*
X3877360Y5925820D01*
X3889349Y5913170D01*
X3902608Y5901893D01*
X3917035Y5892139D01*
X3932428Y5883960D01*
X3948633Y5877509D01*
X3965397Y5872835D01*
X3982567Y5870041D01*
G37*
G36*
X1999996Y6339078D02*
G01*
X2017369Y6340043D01*
X2034590Y6342837D01*
X2051354Y6347510D01*
X2067560Y6353962D01*
X2082952Y6362141D01*
X2097379Y6371894D01*
X2110638Y6383172D01*
X2122627Y6395821D01*
X2133142Y6409690D01*
X2142134Y6424625D01*
X2149449Y6440424D01*
X2155037Y6456934D01*
X2158796Y6473952D01*
X2160676Y6491274D01*
X2160676Y6508699D01*
X2158796Y6526022D01*
X2155037Y6543040D01*
X2149449Y6559550D01*
X2142134Y6575348D01*
X2133142Y6590284D01*
X2122627Y6604152D01*
X2110638Y6616801D01*
X2097379Y6628079D01*
X2082952Y6637832D01*
X2067560Y6646011D01*
X2051354Y6652463D01*
X2034590Y6657136D01*
X2017369Y6659930D01*
X1999996Y6660896D01*
X1982622Y6659930D01*
X1965401Y6657136D01*
X1948637Y6652463D01*
X1932432Y6646011D01*
X1917039Y6637832D01*
X1902612Y6628079D01*
X1889353Y6616801D01*
X1877364Y6604152D01*
X1866849Y6590284D01*
X1857857Y6575348D01*
X1850542Y6559550D01*
X1844954Y6543040D01*
X1841246Y6526022D01*
X1839366Y6508699D01*
X1839366Y6491274D01*
X1841246Y6473952D01*
X1844954Y6456934D01*
X1850542Y6440424D01*
X1857857Y6424625D01*
X1866849Y6409690D01*
X1877364Y6395821D01*
X1889353Y6383172D01*
X1902612Y6371894D01*
X1917039Y6362141D01*
X1932432Y6353962D01*
X1948637Y6347510D01*
X1965401Y6342837D01*
X1982622Y6340043D01*
G37*
G36*
X3999992Y6339078D02*
G01*
X4017365Y6340043D01*
X4034586Y6342837D01*
X4051350Y6347510D01*
X4067556Y6353962D01*
X4082948Y6362141D01*
X4097375Y6371894D01*
X4110634Y6383172D01*
X4122623Y6395821D01*
X4133138Y6409690D01*
X4142130Y6424625D01*
X4149445Y6440424D01*
X4155033Y6456934D01*
X4158792Y6473952D01*
X4160672Y6491274D01*
X4160672Y6508699D01*
X4158792Y6526022D01*
X4155033Y6543040D01*
X4149445Y6559550D01*
X4142130Y6575348D01*
X4133138Y6590284D01*
X4122623Y6604152D01*
X4110634Y6616801D01*
X4097375Y6628079D01*
X4082948Y6637832D01*
X4067556Y6646011D01*
X4051350Y6652463D01*
X4034586Y6657136D01*
X4017365Y6659930D01*
X3999992Y6660896D01*
X3982618Y6659930D01*
X3965397Y6657136D01*
X3948633Y6652463D01*
X3932428Y6646011D01*
X3917035Y6637832D01*
X3902608Y6628079D01*
X3889349Y6616801D01*
X3877360Y6604152D01*
X3866845Y6590284D01*
X3857853Y6575348D01*
X3850538Y6559550D01*
X3844950Y6543040D01*
X3841242Y6526022D01*
X3839362Y6508699D01*
X3839362Y6491274D01*
X3841242Y6473952D01*
X3844950Y6456934D01*
X3850538Y6440424D01*
X3857853Y6424625D01*
X3866845Y6409690D01*
X3877360Y6395821D01*
X3889349Y6383172D01*
X3902608Y6371894D01*
X3917035Y6362141D01*
X3932428Y6353962D01*
X3948633Y6347510D01*
X3965397Y6342837D01*
X3982618Y6340043D01*
G37*
G36*
X5999988Y6339078D02*
G01*
X6017361Y6340043D01*
X6034582Y6342837D01*
X6051346Y6347510D01*
X6067552Y6353962D01*
X6082944Y6362141D01*
X6097371Y6371894D01*
X6110630Y6383172D01*
X6122619Y6395821D01*
X6133134Y6409690D01*
X6142126Y6424625D01*
X6149441Y6440424D01*
X6155029Y6456934D01*
X6158788Y6473952D01*
X6160668Y6491274D01*
X6160668Y6508699D01*
X6158788Y6526022D01*
X6155029Y6543040D01*
X6149441Y6559550D01*
X6142126Y6575348D01*
X6133134Y6590284D01*
X6122619Y6604152D01*
X6110630Y6616801D01*
X6097371Y6628079D01*
X6082944Y6637832D01*
X6067552Y6646011D01*
X6051346Y6652463D01*
X6034582Y6657136D01*
X6017361Y6659930D01*
X5999988Y6660896D01*
X5982614Y6659930D01*
X5965393Y6657136D01*
X5948629Y6652463D01*
X5932424Y6646011D01*
X5917031Y6637832D01*
X5902604Y6628079D01*
X5889345Y6616801D01*
X5877356Y6604152D01*
X5866841Y6590284D01*
X5857849Y6575348D01*
X5850534Y6559550D01*
X5844946Y6543040D01*
X5841238Y6526022D01*
X5839358Y6508699D01*
X5839358Y6491274D01*
X5841238Y6473952D01*
X5844946Y6456934D01*
X5850534Y6440424D01*
X5857849Y6424625D01*
X5866841Y6409690D01*
X5877356Y6395821D01*
X5889345Y6383172D01*
X5902604Y6371894D01*
X5917031Y6362141D01*
X5932424Y6353962D01*
X5948629Y6347510D01*
X5965393Y6342837D01*
X5982614Y6340043D01*
G37*
G36*
X7999984Y6339078D02*
G01*
X8017357Y6340043D01*
X8034578Y6342837D01*
X8051342Y6347510D01*
X8067548Y6353962D01*
X8082940Y6362141D01*
X8097367Y6371894D01*
X8110626Y6383172D01*
X8122615Y6395821D01*
X8133130Y6409690D01*
X8142122Y6424625D01*
X8149437Y6440424D01*
X8155025Y6456934D01*
X8158784Y6473952D01*
X8160664Y6491274D01*
X8160664Y6508699D01*
X8158784Y6526022D01*
X8155025Y6543040D01*
X8149437Y6559550D01*
X8142122Y6575348D01*
X8133130Y6590284D01*
X8122615Y6604152D01*
X8110626Y6616801D01*
X8097367Y6628079D01*
X8082940Y6637832D01*
X8067548Y6646011D01*
X8051342Y6652463D01*
X8034578Y6657136D01*
X8017357Y6659930D01*
X7999984Y6660896D01*
X7982610Y6659930D01*
X7965389Y6657136D01*
X7948625Y6652463D01*
X7932420Y6646011D01*
X7917027Y6637832D01*
X7902600Y6628079D01*
X7889341Y6616801D01*
X7877352Y6604152D01*
X7866837Y6590284D01*
X7857845Y6575348D01*
X7850530Y6559550D01*
X7844942Y6543040D01*
X7841234Y6526022D01*
X7839354Y6508699D01*
X7839354Y6491274D01*
X7841234Y6473952D01*
X7844942Y6456934D01*
X7850530Y6440424D01*
X7857845Y6424625D01*
X7866837Y6409690D01*
X7877352Y6395821D01*
X7889341Y6383172D01*
X7902600Y6371894D01*
X7917027Y6362141D01*
X7932420Y6353962D01*
X7948625Y6347510D01*
X7965389Y6342837D01*
X7982610Y6340043D01*
G37*
G36*
X4073855Y6827316D02*
G01*
X4082948Y6832142D01*
X4097375Y6841896D01*
X4110634Y6853174D01*
X4122623Y6865823D01*
X4133138Y6879691D01*
X4142130Y6894626D01*
X4142841Y6896150D01*
X4073855Y6896150D01*
G37*
G36*
X5926124Y6827316D02*
G01*
X5926124Y6896150D01*
X5857138Y6896150D01*
X5857849Y6894626D01*
X5866841Y6879691D01*
X5877356Y6865823D01*
X5889345Y6853174D01*
X5902604Y6841896D01*
X5917031Y6832142D01*
G37*
G36*
X3926128Y6827316D02*
G01*
X3926128Y6896150D01*
X3857142Y6896150D01*
X3857853Y6894626D01*
X3866845Y6879691D01*
X3877360Y6865823D01*
X3889349Y6853174D01*
X3902608Y6841896D01*
X3917035Y6832142D01*
G37*
G36*
X6073851Y6827316D02*
G01*
X6082944Y6832142D01*
X6097371Y6841896D01*
X6110630Y6853174D01*
X6122619Y6865823D01*
X6133134Y6879691D01*
X6142126Y6894626D01*
X6142837Y6896150D01*
X6073851Y6896150D01*
G37*
G36*
X8073847Y6827316D02*
G01*
X8082940Y6832142D01*
X8097367Y6841896D01*
X8110626Y6853174D01*
X8122615Y6865823D01*
X8133130Y6879691D01*
X8142122Y6894626D01*
X8142833Y6896150D01*
X8073847Y6896150D01*
G37*
G36*
X7926120Y6827316D02*
G01*
X7926120Y6896150D01*
X7857134Y6896150D01*
X7857845Y6894626D01*
X7866837Y6879691D01*
X7877352Y6865823D01*
X7889341Y6853174D01*
X7902600Y6841896D01*
X7917027Y6832142D01*
G37*
G36*
X1926132Y6827316D02*
G01*
X1926132Y6896150D01*
X1857146Y6896150D01*
X1857857Y6894626D01*
X1866849Y6879691D01*
X1877364Y6865823D01*
X1889353Y6853174D01*
X1902612Y6841896D01*
X1917039Y6832142D01*
G37*
G36*
X2073859Y6827316D02*
G01*
X2082952Y6832142D01*
X2097379Y6841896D01*
X2110638Y6853174D01*
X2122627Y6865823D01*
X2133142Y6879691D01*
X2142134Y6894626D01*
X2142845Y6896150D01*
X2073859Y6896150D01*
G37*
G36*
X4073855Y7043826D02*
G01*
X4142841Y7043826D01*
X4142130Y7045350D01*
X4133138Y7060285D01*
X4122623Y7074153D01*
X4110634Y7086803D01*
X4097375Y7098080D01*
X4082948Y7107834D01*
X4073855Y7112660D01*
G37*
G36*
X5857138Y7043826D02*
G01*
X5926124Y7043826D01*
X5926124Y7112660D01*
X5917031Y7107834D01*
X5902604Y7098080D01*
X5889345Y7086803D01*
X5877356Y7074153D01*
X5866841Y7060285D01*
X5857849Y7045350D01*
G37*
G36*
X3857142Y7043826D02*
G01*
X3926128Y7043826D01*
X3926128Y7112660D01*
X3917035Y7107834D01*
X3902608Y7098080D01*
X3889349Y7086803D01*
X3877360Y7074153D01*
X3866845Y7060285D01*
X3857853Y7045350D01*
G37*
G36*
X6073851Y7043826D02*
G01*
X6142837Y7043826D01*
X6142126Y7045350D01*
X6133134Y7060285D01*
X6122619Y7074153D01*
X6110630Y7086803D01*
X6097371Y7098080D01*
X6082944Y7107834D01*
X6073851Y7112660D01*
G37*
G36*
X8073847Y7043826D02*
G01*
X8142833Y7043826D01*
X8142122Y7045350D01*
X8133130Y7060285D01*
X8122615Y7074153D01*
X8110626Y7086803D01*
X8097367Y7098080D01*
X8082940Y7107834D01*
X8073847Y7112660D01*
G37*
G36*
X7857134Y7043826D02*
G01*
X7926120Y7043826D01*
X7926120Y7112660D01*
X7917027Y7107834D01*
X7902600Y7098080D01*
X7889341Y7086803D01*
X7877352Y7074153D01*
X7866837Y7060285D01*
X7857845Y7045350D01*
G37*
G36*
X2073859Y7043826D02*
G01*
X2142845Y7043826D01*
X2142134Y7045350D01*
X2133142Y7060285D01*
X2122627Y7074153D01*
X2110638Y7086803D01*
X2097379Y7098080D01*
X2082952Y7107834D01*
X2073859Y7112660D01*
G37*
G36*
X1857146Y7043826D02*
G01*
X1926132Y7043826D01*
X1926132Y7112660D01*
X1917039Y7107834D01*
X1902612Y7098080D01*
X1889353Y7086803D01*
X1877364Y7074153D01*
X1866849Y7060285D01*
X1857857Y7045350D01*
G37*
G36*
X7857134Y9043822D02*
G01*
X7926120Y9043822D01*
X7926120Y9112656D01*
X7917027Y9107830D01*
X7902600Y9098076D01*
X7889341Y9086799D01*
X7877352Y9074150D01*
X7866837Y9060281D01*
X7857845Y9045346D01*
G37*
G36*
X6073851Y9043822D02*
G01*
X6142837Y9043822D01*
X6142126Y9045346D01*
X6133134Y9060281D01*
X6122619Y9074150D01*
X6110630Y9086799D01*
X6097371Y9098076D01*
X6082944Y9107830D01*
X6073851Y9112656D01*
G37*
G36*
X1926132Y8827312D02*
G01*
X1926132Y8896146D01*
X1857146Y8896146D01*
X1857857Y8894622D01*
X1866849Y8879687D01*
X1877364Y8865819D01*
X1889353Y8853170D01*
X1902612Y8841892D01*
X1917039Y8832138D01*
G37*
G36*
X4073855Y8827312D02*
G01*
X4082948Y8832138D01*
X4097375Y8841892D01*
X4110634Y8853170D01*
X4122623Y8865819D01*
X4133138Y8879687D01*
X4142130Y8894622D01*
X4142841Y8896146D01*
X4073855Y8896146D01*
G37*
G36*
X9627006Y7768336D02*
G01*
X9640620Y7769250D01*
X9654082Y7771942D01*
X9667036Y7776311D01*
X9679279Y7782356D01*
X9690658Y7789976D01*
X9700971Y7799019D01*
X9709962Y7809280D01*
X9717582Y7820659D01*
X9723628Y7832953D01*
X9728047Y7845907D01*
X9730689Y7859318D01*
X9731603Y7872984D01*
X9730689Y7886649D01*
X9728047Y7900060D01*
X9723628Y7913014D01*
X9717582Y7925308D01*
X9709962Y7936687D01*
X9700971Y7946948D01*
X9690658Y7955991D01*
X9679279Y7963611D01*
X9667036Y7969656D01*
X9654082Y7974025D01*
X9640620Y7976717D01*
X9627006Y7977631D01*
X9613341Y7976717D01*
X9599879Y7974025D01*
X9586925Y7969656D01*
X9574682Y7963611D01*
X9563303Y7955991D01*
X9552990Y7946948D01*
X9543999Y7936687D01*
X9536379Y7925308D01*
X9530334Y7913014D01*
X9525914Y7900060D01*
X9523272Y7886649D01*
X9522358Y7872984D01*
X9523272Y7859318D01*
X9525914Y7845907D01*
X9530334Y7832953D01*
X9536379Y7820659D01*
X9543999Y7809280D01*
X9552990Y7799019D01*
X9563303Y7789976D01*
X9574682Y7782356D01*
X9586925Y7776311D01*
X9599879Y7771942D01*
X9613341Y7769250D01*
G37*
G36*
X9373006Y7768336D02*
G01*
X9386620Y7769250D01*
X9400082Y7771942D01*
X9413036Y7776311D01*
X9425279Y7782356D01*
X9436658Y7789976D01*
X9446971Y7799019D01*
X9455962Y7809280D01*
X9463582Y7820659D01*
X9469628Y7832953D01*
X9474047Y7845907D01*
X9476689Y7859318D01*
X9477603Y7872984D01*
X9476689Y7886649D01*
X9474047Y7900060D01*
X9469628Y7913014D01*
X9463582Y7925308D01*
X9455962Y7936687D01*
X9446971Y7946948D01*
X9436658Y7955991D01*
X9425279Y7963611D01*
X9413036Y7969656D01*
X9400082Y7974025D01*
X9386620Y7976717D01*
X9373006Y7977631D01*
X9359341Y7976717D01*
X9345879Y7974025D01*
X9332925Y7969656D01*
X9320682Y7963611D01*
X9309303Y7955991D01*
X9298990Y7946948D01*
X9289999Y7936687D01*
X9282379Y7925308D01*
X9276334Y7913014D01*
X9271914Y7900060D01*
X9269272Y7886649D01*
X9268358Y7872984D01*
X9269272Y7859318D01*
X9271914Y7845907D01*
X9276334Y7832953D01*
X9282379Y7820659D01*
X9289999Y7809280D01*
X9298990Y7799019D01*
X9309303Y7789976D01*
X9320682Y7782356D01*
X9332925Y7776311D01*
X9345879Y7771942D01*
X9359341Y7769250D01*
G37*
G36*
X7999984Y7869072D02*
G01*
X8017357Y7870037D01*
X8034578Y7872831D01*
X8051342Y7877505D01*
X8067548Y7883956D01*
X8082940Y7892135D01*
X8097367Y7901889D01*
X8110626Y7913166D01*
X8122615Y7925816D01*
X8133130Y7939684D01*
X8142122Y7954619D01*
X8149437Y7970418D01*
X8155025Y7986928D01*
X8158734Y8003946D01*
X8160613Y8021269D01*
X8160613Y8038693D01*
X8158734Y8056016D01*
X8155025Y8073034D01*
X8149437Y8089544D01*
X8142122Y8105343D01*
X8133130Y8120278D01*
X8122615Y8134146D01*
X8110626Y8146796D01*
X8097367Y8158073D01*
X8082940Y8167827D01*
X8067548Y8176006D01*
X8051342Y8182457D01*
X8034578Y8187131D01*
X8017357Y8189925D01*
X7999984Y8190890D01*
X7982559Y8189925D01*
X7965389Y8187131D01*
X7948625Y8182457D01*
X7932420Y8176006D01*
X7917027Y8167827D01*
X7902600Y8158073D01*
X7889341Y8146796D01*
X7877352Y8134146D01*
X7866786Y8120278D01*
X7857845Y8105343D01*
X7850530Y8089544D01*
X7844942Y8073034D01*
X7841183Y8056016D01*
X7839303Y8038693D01*
X7839303Y8021269D01*
X7841183Y8003946D01*
X7844942Y7986928D01*
X7850530Y7970418D01*
X7857845Y7954619D01*
X7866786Y7939684D01*
X7877352Y7925816D01*
X7889341Y7913166D01*
X7902600Y7901889D01*
X7917027Y7892135D01*
X7932420Y7883956D01*
X7948625Y7877505D01*
X7965389Y7872831D01*
X7982559Y7870037D01*
G37*
G36*
X5999988Y7869072D02*
G01*
X6017361Y7870037D01*
X6034582Y7872831D01*
X6051346Y7877505D01*
X6067552Y7883956D01*
X6082944Y7892135D01*
X6097371Y7901889D01*
X6110630Y7913166D01*
X6122619Y7925816D01*
X6133134Y7939684D01*
X6142126Y7954619D01*
X6149441Y7970418D01*
X6155029Y7986928D01*
X6158738Y8003946D01*
X6160617Y8021269D01*
X6160617Y8038693D01*
X6158738Y8056016D01*
X6155029Y8073034D01*
X6149441Y8089544D01*
X6142126Y8105343D01*
X6133134Y8120278D01*
X6122619Y8134146D01*
X6110630Y8146796D01*
X6097371Y8158073D01*
X6082944Y8167827D01*
X6067552Y8176006D01*
X6051346Y8182457D01*
X6034582Y8187131D01*
X6017361Y8189925D01*
X5999988Y8190890D01*
X5982563Y8189925D01*
X5965393Y8187131D01*
X5948629Y8182457D01*
X5932424Y8176006D01*
X5917031Y8167827D01*
X5902604Y8158073D01*
X5889345Y8146796D01*
X5877356Y8134146D01*
X5866790Y8120278D01*
X5857849Y8105343D01*
X5850534Y8089544D01*
X5844946Y8073034D01*
X5841187Y8056016D01*
X5839307Y8038693D01*
X5839307Y8021269D01*
X5841187Y8003946D01*
X5844946Y7986928D01*
X5850534Y7970418D01*
X5857849Y7954619D01*
X5866790Y7939684D01*
X5877356Y7925816D01*
X5889345Y7913166D01*
X5902604Y7901889D01*
X5917031Y7892135D01*
X5932424Y7883956D01*
X5948629Y7877505D01*
X5965393Y7872831D01*
X5982563Y7870037D01*
G37*
G36*
X1999996Y7869072D02*
G01*
X2017369Y7870037D01*
X2034590Y7872831D01*
X2051354Y7877505D01*
X2067560Y7883956D01*
X2082952Y7892135D01*
X2097379Y7901889D01*
X2110638Y7913166D01*
X2122627Y7925816D01*
X2133142Y7939684D01*
X2142134Y7954619D01*
X2149449Y7970418D01*
X2155037Y7986928D01*
X2158746Y8003946D01*
X2160625Y8021269D01*
X2160625Y8038693D01*
X2158746Y8056016D01*
X2155037Y8073034D01*
X2149449Y8089544D01*
X2142134Y8105343D01*
X2133142Y8120278D01*
X2122627Y8134146D01*
X2110638Y8146796D01*
X2097379Y8158073D01*
X2082952Y8167827D01*
X2067560Y8176006D01*
X2051354Y8182457D01*
X2034590Y8187131D01*
X2017369Y8189925D01*
X1999996Y8190890D01*
X1982571Y8189925D01*
X1965401Y8187131D01*
X1948637Y8182457D01*
X1932432Y8176006D01*
X1917039Y8167827D01*
X1902612Y8158073D01*
X1889353Y8146796D01*
X1877364Y8134146D01*
X1866798Y8120278D01*
X1857857Y8105343D01*
X1850542Y8089544D01*
X1844954Y8073034D01*
X1841195Y8056016D01*
X1839315Y8038693D01*
X1839315Y8021269D01*
X1841195Y8003946D01*
X1844954Y7986928D01*
X1850542Y7970418D01*
X1857857Y7954619D01*
X1866798Y7939684D01*
X1877364Y7925816D01*
X1889353Y7913166D01*
X1902612Y7901889D01*
X1917039Y7892135D01*
X1932432Y7883956D01*
X1948637Y7877505D01*
X1965401Y7872831D01*
X1982571Y7870037D01*
G37*
G36*
X3999992Y7869072D02*
G01*
X4017365Y7870037D01*
X4034586Y7872831D01*
X4051350Y7877505D01*
X4067556Y7883956D01*
X4082948Y7892135D01*
X4097375Y7901889D01*
X4110634Y7913166D01*
X4122623Y7925816D01*
X4133138Y7939684D01*
X4142130Y7954619D01*
X4149445Y7970418D01*
X4155033Y7986928D01*
X4158742Y8003946D01*
X4160672Y8021269D01*
X4160672Y8038693D01*
X4158742Y8056016D01*
X4155033Y8073034D01*
X4149445Y8089544D01*
X4142130Y8105343D01*
X4133138Y8120278D01*
X4122623Y8134146D01*
X4110634Y8146796D01*
X4097375Y8158073D01*
X4082948Y8167827D01*
X4067556Y8176006D01*
X4051350Y8182457D01*
X4034586Y8187080D01*
X4017365Y8189925D01*
X3999992Y8190890D01*
X3982618Y8189925D01*
X3965397Y8187080D01*
X3948633Y8182457D01*
X3932428Y8176006D01*
X3917035Y8167827D01*
X3902608Y8158073D01*
X3889349Y8146796D01*
X3877360Y8134146D01*
X3866845Y8120278D01*
X3857853Y8105343D01*
X3850538Y8089544D01*
X3844950Y8073034D01*
X3841242Y8056016D01*
X3839311Y8038693D01*
X3839311Y8021269D01*
X3841242Y8003946D01*
X3844950Y7986928D01*
X3850538Y7970418D01*
X3857853Y7954619D01*
X3866845Y7939684D01*
X3877360Y7925816D01*
X3889349Y7913166D01*
X3902608Y7901889D01*
X3917035Y7892135D01*
X3932428Y7883956D01*
X3948633Y7877505D01*
X3965397Y7872831D01*
X3982618Y7870037D01*
G37*
G36*
X9627006Y8022336D02*
G01*
X9640620Y8023250D01*
X9654082Y8025942D01*
X9667036Y8030311D01*
X9679279Y8036356D01*
X9690658Y8043976D01*
X9700971Y8053019D01*
X9709962Y8063280D01*
X9717582Y8074659D01*
X9723628Y8086953D01*
X9728047Y8099907D01*
X9730689Y8113318D01*
X9731603Y8126984D01*
X9730689Y8140649D01*
X9728047Y8154060D01*
X9723628Y8167014D01*
X9717582Y8179308D01*
X9709962Y8190687D01*
X9700971Y8200948D01*
X9690658Y8209991D01*
X9679279Y8217611D01*
X9667036Y8223656D01*
X9654082Y8228025D01*
X9640620Y8230717D01*
X9627006Y8231631D01*
X9613341Y8230717D01*
X9599879Y8228025D01*
X9586925Y8223656D01*
X9574682Y8217611D01*
X9563303Y8209991D01*
X9552990Y8200948D01*
X9543999Y8190687D01*
X9536379Y8179308D01*
X9530334Y8167014D01*
X9525914Y8154060D01*
X9523272Y8140649D01*
X9522358Y8126984D01*
X9523272Y8113318D01*
X9525914Y8099907D01*
X9530334Y8086953D01*
X9536379Y8074659D01*
X9543999Y8063280D01*
X9552990Y8053019D01*
X9563303Y8043976D01*
X9574682Y8036356D01*
X9586925Y8030311D01*
X9599879Y8025942D01*
X9613341Y8023250D01*
G37*
G36*
X9373006Y8022336D02*
G01*
X9386620Y8023250D01*
X9400082Y8025942D01*
X9413036Y8030311D01*
X9425279Y8036356D01*
X9436658Y8043976D01*
X9446971Y8053019D01*
X9455962Y8063280D01*
X9463582Y8074659D01*
X9469628Y8086953D01*
X9474047Y8099907D01*
X9476689Y8113318D01*
X9477603Y8126984D01*
X9476689Y8140649D01*
X9474047Y8154060D01*
X9469628Y8167014D01*
X9463582Y8179308D01*
X9455962Y8190687D01*
X9446971Y8200948D01*
X9436658Y8209991D01*
X9425279Y8217611D01*
X9413036Y8223656D01*
X9400082Y8228025D01*
X9386620Y8230717D01*
X9373006Y8231631D01*
X9359341Y8230717D01*
X9345879Y8228025D01*
X9332925Y8223656D01*
X9320682Y8217611D01*
X9309303Y8209991D01*
X9298990Y8200948D01*
X9289999Y8190687D01*
X9282379Y8179308D01*
X9276334Y8167014D01*
X9271914Y8154060D01*
X9269272Y8140649D01*
X9268358Y8126984D01*
X9269272Y8113318D01*
X9271914Y8099907D01*
X9276334Y8086953D01*
X9282379Y8074659D01*
X9289999Y8063280D01*
X9298990Y8053019D01*
X9309303Y8043976D01*
X9320682Y8036356D01*
X9332925Y8030311D01*
X9345879Y8025942D01*
X9359341Y8023250D01*
G37*
G36*
X9418726Y8287105D02*
G01*
X9425279Y8290356D01*
X9436658Y8297976D01*
X9446971Y8307019D01*
X9455962Y8317280D01*
X9463582Y8328659D01*
X9466834Y8335264D01*
X9418726Y8335264D01*
G37*
G36*
X9672726Y8287105D02*
G01*
X9679279Y8290356D01*
X9690658Y8297976D01*
X9700971Y8307019D01*
X9709962Y8317280D01*
X9717582Y8328659D01*
X9720834Y8335264D01*
X9672726Y8335264D01*
G37*
G36*
X9581286Y8287105D02*
G01*
X9581286Y8335264D01*
X9533128Y8335264D01*
X9536379Y8328659D01*
X9543999Y8317280D01*
X9552990Y8307019D01*
X9563303Y8297976D01*
X9574682Y8290356D01*
G37*
G36*
X9327286Y8287105D02*
G01*
X9327286Y8335264D01*
X9279128Y8335264D01*
X9282379Y8328659D01*
X9289999Y8317280D01*
X9298990Y8307019D01*
X9309303Y8297976D01*
X9320682Y8290356D01*
G37*
G36*
X1999996Y8339074D02*
G01*
X2017369Y8340039D01*
X2034590Y8342833D01*
X2051354Y8347506D01*
X2067560Y8353958D01*
X2082952Y8362137D01*
X2097379Y8371890D01*
X2110638Y8383168D01*
X2122627Y8395817D01*
X2133142Y8409686D01*
X2142134Y8424621D01*
X2149449Y8440420D01*
X2155037Y8456930D01*
X2158796Y8473948D01*
X2160676Y8491270D01*
X2160676Y8508695D01*
X2158796Y8526018D01*
X2155037Y8543036D01*
X2149449Y8559546D01*
X2142134Y8575344D01*
X2133142Y8590280D01*
X2122627Y8604148D01*
X2110638Y8616797D01*
X2097379Y8628075D01*
X2082952Y8637828D01*
X2067560Y8646007D01*
X2051354Y8652459D01*
X2034590Y8657132D01*
X2017369Y8659926D01*
X1999996Y8660892D01*
X1982622Y8659926D01*
X1965401Y8657132D01*
X1948637Y8652459D01*
X1932432Y8646007D01*
X1917039Y8637828D01*
X1902612Y8628075D01*
X1889353Y8616797D01*
X1877364Y8604148D01*
X1866849Y8590280D01*
X1857857Y8575344D01*
X1850542Y8559546D01*
X1844954Y8543036D01*
X1841246Y8526018D01*
X1839366Y8508695D01*
X1839366Y8491270D01*
X1841246Y8473948D01*
X1844954Y8456930D01*
X1850542Y8440420D01*
X1857857Y8424621D01*
X1866849Y8409686D01*
X1877364Y8395817D01*
X1889353Y8383168D01*
X1902612Y8371890D01*
X1917039Y8362137D01*
X1932432Y8353958D01*
X1948637Y8347506D01*
X1965401Y8342833D01*
X1982622Y8340039D01*
G37*
G36*
X7999984Y8339074D02*
G01*
X8017357Y8340039D01*
X8034578Y8342833D01*
X8051342Y8347506D01*
X8067548Y8353958D01*
X8082940Y8362137D01*
X8097367Y8371890D01*
X8110626Y8383168D01*
X8122615Y8395817D01*
X8133130Y8409686D01*
X8142122Y8424621D01*
X8149437Y8440420D01*
X8155025Y8456930D01*
X8158784Y8473948D01*
X8160664Y8491270D01*
X8160664Y8508695D01*
X8158784Y8526018D01*
X8155025Y8543036D01*
X8149437Y8559546D01*
X8142122Y8575344D01*
X8133130Y8590280D01*
X8122615Y8604148D01*
X8110626Y8616797D01*
X8097367Y8628075D01*
X8082940Y8637828D01*
X8067548Y8646007D01*
X8051342Y8652459D01*
X8034578Y8657132D01*
X8017357Y8659926D01*
X7999984Y8660892D01*
X7982610Y8659926D01*
X7965389Y8657132D01*
X7948625Y8652459D01*
X7932420Y8646007D01*
X7917027Y8637828D01*
X7902600Y8628075D01*
X7889341Y8616797D01*
X7877352Y8604148D01*
X7866837Y8590280D01*
X7857845Y8575344D01*
X7850530Y8559546D01*
X7844942Y8543036D01*
X7841234Y8526018D01*
X7839354Y8508695D01*
X7839354Y8491270D01*
X7841234Y8473948D01*
X7844942Y8456930D01*
X7850530Y8440420D01*
X7857845Y8424621D01*
X7866837Y8409686D01*
X7877352Y8395817D01*
X7889341Y8383168D01*
X7902600Y8371890D01*
X7917027Y8362137D01*
X7932420Y8353958D01*
X7948625Y8347506D01*
X7965389Y8342833D01*
X7982610Y8340039D01*
G37*
G36*
X3999992Y8339074D02*
G01*
X4017416Y8340039D01*
X4034586Y8342833D01*
X4051350Y8347506D01*
X4067556Y8353958D01*
X4082948Y8362137D01*
X4097375Y8371890D01*
X4110634Y8383168D01*
X4122623Y8395817D01*
X4133189Y8409686D01*
X4142130Y8424621D01*
X4149445Y8440420D01*
X4155033Y8456930D01*
X4158792Y8473948D01*
X4160672Y8491270D01*
X4160672Y8508695D01*
X4158792Y8526018D01*
X4155033Y8543036D01*
X4149445Y8559546D01*
X4142130Y8575344D01*
X4133189Y8590280D01*
X4122623Y8604148D01*
X4110634Y8616797D01*
X4097375Y8628075D01*
X4082948Y8637828D01*
X4067556Y8646007D01*
X4051350Y8652459D01*
X4034586Y8657132D01*
X4017416Y8659926D01*
X3999992Y8660892D01*
X3982618Y8659926D01*
X3965397Y8657132D01*
X3948633Y8652459D01*
X3932428Y8646007D01*
X3917035Y8637828D01*
X3902608Y8628075D01*
X3889349Y8616797D01*
X3877360Y8604148D01*
X3866845Y8590280D01*
X3857853Y8575344D01*
X3850538Y8559546D01*
X3844950Y8543036D01*
X3841242Y8526018D01*
X3839362Y8508695D01*
X3839362Y8491270D01*
X3841242Y8473948D01*
X3844950Y8456930D01*
X3850538Y8440420D01*
X3857853Y8424621D01*
X3866845Y8409686D01*
X3877360Y8395817D01*
X3889349Y8383168D01*
X3902608Y8371890D01*
X3917035Y8362137D01*
X3932428Y8353958D01*
X3948633Y8347506D01*
X3965397Y8342833D01*
X3982618Y8340039D01*
G37*
G36*
X5999988Y8339074D02*
G01*
X6017361Y8340039D01*
X6034582Y8342833D01*
X6051346Y8347506D01*
X6067552Y8353958D01*
X6082944Y8362137D01*
X6097371Y8371890D01*
X6110630Y8383168D01*
X6122619Y8395817D01*
X6133134Y8409686D01*
X6142126Y8424621D01*
X6149441Y8440420D01*
X6155029Y8456930D01*
X6158788Y8473948D01*
X6160668Y8491270D01*
X6160668Y8508695D01*
X6158788Y8526018D01*
X6155029Y8543036D01*
X6149441Y8559546D01*
X6142126Y8575344D01*
X6133134Y8590280D01*
X6122619Y8604148D01*
X6110630Y8616797D01*
X6097371Y8628075D01*
X6082944Y8637828D01*
X6067552Y8646007D01*
X6051346Y8652459D01*
X6034582Y8657132D01*
X6017361Y8659926D01*
X5999988Y8660892D01*
X5982614Y8659926D01*
X5965393Y8657132D01*
X5948629Y8652459D01*
X5932424Y8646007D01*
X5917031Y8637828D01*
X5902604Y8628075D01*
X5889345Y8616797D01*
X5877356Y8604148D01*
X5866841Y8590280D01*
X5857849Y8575344D01*
X5850534Y8559546D01*
X5844946Y8543036D01*
X5841238Y8526018D01*
X5839358Y8508695D01*
X5839358Y8491270D01*
X5841238Y8473948D01*
X5844946Y8456930D01*
X5850534Y8440420D01*
X5857849Y8424621D01*
X5866841Y8409686D01*
X5877356Y8395817D01*
X5889345Y8383168D01*
X5902604Y8371890D01*
X5917031Y8362137D01*
X5932424Y8353958D01*
X5948629Y8347506D01*
X5965393Y8342833D01*
X5982614Y8340039D01*
G37*
G36*
X9533128Y8426704D02*
G01*
X9581286Y8426704D01*
X9581286Y8474862D01*
X9574682Y8471611D01*
X9563303Y8463991D01*
X9552990Y8454948D01*
X9543999Y8444687D01*
X9536379Y8433308D01*
G37*
G36*
X9279128Y8426704D02*
G01*
X9327286Y8426704D01*
X9327286Y8474862D01*
X9320682Y8471611D01*
X9309303Y8463991D01*
X9298990Y8454948D01*
X9289999Y8444687D01*
X9282379Y8433308D01*
G37*
G36*
X9418726Y8426704D02*
G01*
X9466834Y8426704D01*
X9463582Y8433308D01*
X9455962Y8444687D01*
X9446971Y8454948D01*
X9436658Y8463991D01*
X9425279Y8471611D01*
X9418726Y8474862D01*
G37*
G36*
X9672726Y8426704D02*
G01*
X9720834Y8426704D01*
X9717582Y8433308D01*
X9709962Y8444687D01*
X9700971Y8454948D01*
X9690658Y8463991D01*
X9679279Y8471611D01*
X9672726Y8474862D01*
G37*
G36*
X5926124Y8827312D02*
G01*
X5926124Y8896146D01*
X5857138Y8896146D01*
X5857849Y8894622D01*
X5866841Y8879687D01*
X5877356Y8865819D01*
X5889345Y8853170D01*
X5902604Y8841892D01*
X5917031Y8832138D01*
G37*
G36*
X6073851Y8827312D02*
G01*
X6082944Y8832138D01*
X6097371Y8841892D01*
X6110630Y8853170D01*
X6122619Y8865819D01*
X6133134Y8879687D01*
X6142126Y8894622D01*
X6142837Y8896146D01*
X6073851Y8896146D01*
G37*
G36*
X7926120Y8827312D02*
G01*
X7926120Y8896146D01*
X7857134Y8896146D01*
X7857845Y8894622D01*
X7866837Y8879687D01*
X7877352Y8865819D01*
X7889341Y8853170D01*
X7902600Y8841892D01*
X7917027Y8832138D01*
G37*
G36*
X8073847Y8827312D02*
G01*
X8082940Y8832138D01*
X8097367Y8841892D01*
X8110626Y8853170D01*
X8122615Y8865819D01*
X8133130Y8879687D01*
X8142122Y8894622D01*
X8142833Y8896146D01*
X8073847Y8896146D01*
G37*
G36*
X2073859Y8827312D02*
G01*
X2082952Y8832138D01*
X2097379Y8841892D01*
X2110638Y8853170D01*
X2122627Y8865819D01*
X2133142Y8879687D01*
X2142134Y8894622D01*
X2142845Y8896146D01*
X2073859Y8896146D01*
G37*
G36*
X3926128Y8827312D02*
G01*
X3926128Y8896146D01*
X3857142Y8896146D01*
X3857853Y8894622D01*
X3866845Y8879687D01*
X3877360Y8865819D01*
X3889349Y8853170D01*
X3902608Y8841892D01*
X3917035Y8832138D01*
G37*
G36*
X1999996Y5869076D02*
G01*
X2017369Y5870041D01*
X2034590Y5872835D01*
X2051354Y5877509D01*
X2067560Y5883960D01*
X2082952Y5892139D01*
X2097379Y5901893D01*
X2110638Y5913170D01*
X2122627Y5925820D01*
X2133142Y5939688D01*
X2142134Y5954623D01*
X2149449Y5970422D01*
X2155037Y5986932D01*
X2158746Y6003950D01*
X2160625Y6021273D01*
X2160625Y6038697D01*
X2158746Y6056020D01*
X2155037Y6073038D01*
X2149449Y6089548D01*
X2142134Y6105347D01*
X2133142Y6120282D01*
X2122627Y6134150D01*
X2110638Y6146800D01*
X2097379Y6158077D01*
X2082952Y6167831D01*
X2067560Y6176010D01*
X2051354Y6182461D01*
X2034590Y6187135D01*
X2017369Y6189929D01*
X1999996Y6190894D01*
X1982571Y6189929D01*
X1965401Y6187135D01*
X1948637Y6182461D01*
X1932432Y6176010D01*
X1917039Y6167831D01*
X1902612Y6158077D01*
X1889353Y6146800D01*
X1877364Y6134150D01*
X1866798Y6120282D01*
X1857857Y6105347D01*
X1850542Y6089548D01*
X1844954Y6073038D01*
X1841195Y6056020D01*
X1839315Y6038697D01*
X1839315Y6021273D01*
X1841195Y6003950D01*
X1844954Y5986932D01*
X1850542Y5970422D01*
X1857857Y5954623D01*
X1866798Y5939688D01*
X1877364Y5925820D01*
X1889353Y5913170D01*
X1902612Y5901893D01*
X1917039Y5892139D01*
X1932432Y5883960D01*
X1948637Y5877509D01*
X1965401Y5872835D01*
X1982571Y5870041D01*
G37*

%LPD*%
D10*
X9626981Y7618984D02*
G01*
X9372981Y7618984D01*
X6999986Y1499996D02*
G01*
X6999986Y5499988D01*
X9627108Y7618984D02*
G01*
X9899898Y7892034D01*
X9899898Y8500064D01*
X9799980Y8599982D01*
X9626983Y7618984D02*
G01*
X9899985Y7345982D01*
X9899985Y3799992D01*
X9899985Y2099995D01*
X9899980Y2099995D01*
X9899980Y2199995D01*
X9899985Y2199995D01*
X9115623Y5579988D02*
G01*
X9395622Y5299989D01*
X9499981Y5299989D01*
D11*
G01*
X1999990Y8029983D03*
G01*
X1999990Y8499985D03*
G01*
X1999990Y8969987D03*
G01*
X3999991Y8029978D03*
G01*
X3999991Y8499980D03*
G01*
X3999991Y8969982D03*
G01*
X5999982Y8029983D03*
G01*
X5999982Y8499985D03*
G01*
X5999982Y8969987D03*
G01*
X7999978Y8029983D03*
G01*
X7999978Y8499985D03*
G01*
X7999978Y8969987D03*
G01*
X1999990Y6029987D03*
G01*
X1999990Y6499989D03*
G01*
X1999990Y6969991D03*
G01*
X3999986Y6029987D03*
G01*
X3999986Y6499989D03*
G01*
X3999986Y6969991D03*
G01*
X5999982Y6029987D03*
G01*
X5999982Y6499989D03*
G01*
X5999982Y6969991D03*
G01*
X7999978Y6029987D03*
G01*
X7999978Y6499989D03*
G01*
X7999978Y6969991D03*
G01*
X1999990Y4029991D03*
G01*
X1999990Y4499993D03*
G01*
X1999990Y4969995D03*
G01*
X3999986Y4029991D03*
G01*
X3999986Y4499993D03*
G01*
X3999986Y4969995D03*
G01*
X5999982Y4029991D03*
G01*
X5999982Y4499993D03*
G01*
X5999982Y4969995D03*
G01*
X7999978Y4029991D03*
G01*
X7999978Y4499993D03*
G01*
X7999978Y4969995D03*
G01*
X1999990Y2029995D03*
G01*
X1999990Y2499997D03*
G01*
X1999990Y2969999D03*
G01*
X3999986Y2029995D03*
G01*
X3999986Y2499997D03*
G01*
X3999986Y2969999D03*
G01*
X5999982Y2029995D03*
G01*
X5999982Y2499997D03*
G01*
X5999982Y2969999D03*
G01*
X7999978Y2029995D03*
G01*
X7999978Y2499997D03*
G01*
X7999978Y2969999D03*
D12*
G01*
X9626980Y2626994D03*
D13*
G01*
X9372981Y2626995D03*
G01*
X9626981Y2372995D03*
G01*
X9372981Y2372995D03*
D14*
G01*
X9372980Y7618984D03*
D13*
G01*
X9626981Y7618984D03*
G01*
X9372981Y7872984D03*
G01*
X9626981Y7872984D03*
G01*
X9372981Y8126984D03*
G01*
X9626981Y8126984D03*
G01*
X9372981Y8380984D03*
G01*
X9626981Y8380984D03*
D15*
G01*
X9115620Y5579988D03*
G01*
X9499981Y5299989D03*
G01*
X9899980Y2099995D03*
G01*
X9799980Y8599982D03*
G01*
X6999986Y1499870D03*
G01*
X6999986Y5499988D03*
G01*
X6999986Y5499988D03*
G01*
X8999981Y2099995D03*
G01*
X8999981Y2399995D03*
G01*
X8999981Y2999994D03*
G01*
X8999981Y3299993D03*
G01*
X8999981Y2699994D03*
G01*
X8799982Y2999994D03*
G01*
X8799982Y2699994D03*
G01*
X8799982Y2399995D03*
G01*
X8799982Y2099995D03*
G01*
X9699980Y3199993D03*
G01*
X9699980Y3699992D03*
G01*
X9699980Y4199991D03*
G01*
X9699980Y4699990D03*
D16*
G01*
X6622069Y8177748D03*
G01*
X7122068Y9177746D03*
G01*
X7122068Y8677747D03*
G01*
X7122068Y8177748D03*
G01*
X7622067Y9177746D03*
G01*
X7622067Y8677747D03*
G01*
X7622067Y8177748D03*
G01*
X8122066Y9177746D03*
G01*
X4622205Y8177748D03*
G01*
X5122204Y9177746D03*
G01*
X5122204Y8677747D03*
G01*
X5122204Y8177748D03*
G01*
X5622203Y9177746D03*
G01*
X5622203Y8677747D03*
G01*
X5622203Y8177748D03*
G01*
X6122202Y9177746D03*
G01*
X2622077Y8177748D03*
G01*
X3122076Y9177746D03*
G01*
X3122076Y8677747D03*
G01*
X3122076Y8177748D03*
G01*
X3122076Y7677749D03*
G01*
X3622075Y9177746D03*
G01*
X3622075Y8677747D03*
G01*
X3622075Y8177748D03*
G01*
X3622075Y7677749D03*
G01*
X4122074Y9177746D03*
G01*
X4122074Y7677749D03*
G01*
X4622327Y6677751D03*
G01*
X4622327Y6177752D03*
G01*
X5122326Y7177750D03*
G01*
X5122326Y6677751D03*
G01*
X5122326Y6177752D03*
G01*
X5122326Y5677753D03*
G01*
X5622325Y7177750D03*
G01*
X5622325Y6677751D03*
G01*
X5622325Y6177752D03*
G01*
X5622325Y5677753D03*
G01*
X6122324Y7177750D03*
G01*
X6122324Y5677753D03*
G01*
X6622323Y7177750D03*
G01*
X6622069Y6577677D03*
G01*
X6622069Y6077678D03*
G01*
X7122068Y7077676D03*
G01*
X7122068Y6577677D03*
G01*
X7122068Y6077678D03*
G01*
X7622067Y7077676D03*
G01*
X7622067Y6577677D03*
G01*
X7622067Y6077678D03*
G01*
X2622077Y6777827D03*
G01*
X3122076Y7277826D03*
G01*
X3122076Y6777827D03*
G01*
X3122076Y6277828D03*
G01*
X3122076Y5777829D03*
G01*
X3622075Y7277826D03*
G01*
X3622075Y6777827D03*
G01*
X3622075Y6277828D03*
G01*
X3622075Y5777829D03*
G01*
X4122074Y7277826D03*
G01*
X4122074Y6777827D03*
G01*
X4122074Y6277828D03*
G01*
X4122074Y5777829D03*
G01*
X4622073Y7277826D03*
G01*
X6622069Y4877650D03*
G01*
X6622069Y4377651D03*
G01*
X7122068Y5377649D03*
G01*
X7122068Y4877650D03*
G01*
X7122068Y4377651D03*
G01*
X7122068Y3877652D03*
G01*
X7622067Y5377649D03*
G01*
X7622067Y4877650D03*
G01*
X7622067Y4377651D03*
G01*
X7622067Y3877652D03*
G01*
X8622065Y4377651D03*
G01*
X4622327Y4877780D03*
G01*
X4622327Y4377781D03*
G01*
X5122326Y5377779D03*
G01*
X5122326Y4877780D03*
G01*
X5122326Y4377781D03*
G01*
X5122326Y3877782D03*
G01*
X5622325Y5377779D03*
G01*
X5622325Y4877780D03*
G01*
X5622325Y4377781D03*
G01*
X5622325Y3877782D03*
G01*
X6122324Y5377779D03*
G01*
X2622077Y4877780D03*
G01*
X2622077Y4377781D03*
G01*
X2622077Y3877782D03*
G01*
X3122076Y5377779D03*
G01*
X3122076Y4877780D03*
G01*
X3122076Y4377781D03*
G01*
X3122076Y3877782D03*
G01*
X3622075Y5377779D03*
G01*
X3622075Y4877780D03*
G01*
X3622075Y4377781D03*
G01*
X3622075Y3877782D03*
G01*
X4122074Y5377779D03*
G01*
X9372191Y4704389D03*
G01*
X9372191Y4204390D03*
G01*
X9372191Y3704391D03*
G01*
X9372191Y3204392D03*
G01*
X4622327Y2677759D03*
G01*
X4622327Y2177760D03*
G01*
X5122326Y3177758D03*
G01*
X5122326Y2677759D03*
G01*
X5122326Y2177760D03*
G01*
X5122326Y1677761D03*
G01*
X5622325Y3177758D03*
G01*
X5622325Y2677759D03*
G01*
X5622325Y2177760D03*
G01*
X5622325Y1677761D03*
G01*
X6122324Y3177758D03*
G01*
X6122324Y1677761D03*
G01*
X6622323Y3177758D03*
G01*
X2622077Y2777835D03*
G01*
X3122076Y3277834D03*
G01*
X3122076Y2777835D03*
G01*
X3122076Y2277836D03*
G01*
X3122076Y1777837D03*
G01*
X3622075Y3277834D03*
G01*
X3622075Y2777835D03*
G01*
X3622075Y2277836D03*
G01*
X3622075Y1777837D03*
G01*
X4122074Y3277834D03*
G01*
X4122074Y2777835D03*
G01*
X4122074Y2277836D03*
G01*
X4122074Y1777837D03*
G01*
X4622073Y3277834D03*
G01*
X6622069Y2577685D03*
G01*
X6622069Y2077686D03*
G01*
X7122068Y3077684D03*
G01*
X7122068Y2577685D03*
G01*
X7122068Y2077686D03*
G01*
X7622067Y3077684D03*
G01*
X7622067Y2577685D03*
G01*
X7622067Y2077686D03*
G01*
X107205Y8892768D03*
G01*
X107205Y8392769D03*
G01*
X107205Y7892770D03*
G01*
X107205Y7392771D03*
G01*
X107205Y6892772D03*
G01*
X107205Y6392773D03*
G01*
X107205Y5892774D03*
G01*
X107205Y5392775D03*
G01*
X107205Y4892776D03*
G01*
X107205Y4392777D03*
G01*
X107205Y3892778D03*
G01*
X107205Y3392779D03*
G01*
X107205Y2892780D03*
G01*
X107205Y2392781D03*
G01*
X107205Y1892782D03*
G01*
X107205Y1392783D03*
G01*
X107205Y892784D03*
G01*
X607204Y8892768D03*
G01*
X607204Y8392769D03*
G01*
X607204Y7892770D03*
G01*
X607204Y7392771D03*
G01*
X607204Y6892772D03*
G01*
X607204Y6392773D03*
G01*
X607204Y5892774D03*
G01*
X607204Y5392775D03*
G01*
X607204Y4892776D03*
G01*
X607204Y4392777D03*
G01*
X607204Y3892778D03*
G01*
X607204Y3392779D03*
G01*
X607204Y2892780D03*
G01*
X607204Y2392781D03*
G01*
X607204Y1892782D03*
G01*
X607204Y1392783D03*
G01*
X1107203Y9892766D03*
G01*
X1107203Y9392767D03*
G01*
X1107203Y8892768D03*
G01*
X1107203Y8392769D03*
G01*
X1107203Y7892770D03*
G01*
X1107203Y7392771D03*
G01*
X1107203Y6892772D03*
G01*
X1107203Y6392773D03*
G01*
X1107203Y5892774D03*
G01*
X1107203Y5392775D03*
G01*
X1107203Y4892776D03*
G01*
X1107203Y4392777D03*
G01*
X1107203Y3892778D03*
G01*
X1107203Y3392779D03*
G01*
X1107203Y2892780D03*
G01*
X1107203Y2392781D03*
G01*
X1107203Y1892782D03*
G01*
X1107203Y1392783D03*
G01*
X1107203Y892784D03*
G01*
X1107203Y392785D03*
G01*
X1607202Y9892766D03*
G01*
X1607202Y9392767D03*
G01*
X1607202Y8892768D03*
G01*
X1607202Y8392769D03*
G01*
X1607202Y7892770D03*
G01*
X1607202Y7392771D03*
G01*
X1607202Y6892772D03*
G01*
X1607202Y6392773D03*
G01*
X1607202Y5892774D03*
G01*
X1607202Y5392775D03*
G01*
X1607202Y4892776D03*
G01*
X1607202Y4392777D03*
G01*
X1607202Y3892778D03*
G01*
X1607202Y3392779D03*
G01*
X1607202Y2892780D03*
G01*
X1607202Y2392781D03*
G01*
X1607202Y1892782D03*
G01*
X1607202Y1392783D03*
G01*
X1607202Y892784D03*
G01*
X1607202Y392785D03*
G01*
X2107201Y9892766D03*
G01*
X2107201Y9392767D03*
G01*
X2107201Y7392771D03*
G01*
X2107201Y5392775D03*
G01*
X2107201Y3392779D03*
G01*
X2107201Y1392783D03*
G01*
X2107201Y892784D03*
G01*
X2107201Y392785D03*
G01*
X2607200Y9892766D03*
G01*
X2607200Y9392767D03*
G01*
X2607200Y7392771D03*
G01*
X2607200Y3392779D03*
G01*
X2607200Y1392783D03*
G01*
X2607200Y892784D03*
G01*
X2607200Y392785D03*
G01*
X3107199Y9892766D03*
G01*
X3107199Y1392783D03*
G01*
X3107199Y892784D03*
G01*
X3107199Y392785D03*
G01*
X3607198Y9892766D03*
G01*
X3607198Y1392783D03*
G01*
X3607198Y892784D03*
G01*
X3607198Y392785D03*
G01*
X4107197Y9892766D03*
G01*
X4107197Y1392783D03*
G01*
X4107197Y892784D03*
G01*
X4107197Y392785D03*
G01*
X4607196Y9892766D03*
G01*
X4607196Y1392783D03*
G01*
X4607196Y892784D03*
G01*
X4607196Y392785D03*
G01*
X5107195Y9892766D03*
G01*
X5107195Y1392783D03*
G01*
X5107195Y892784D03*
G01*
X5107195Y392785D03*
G01*
X5607194Y9892766D03*
G01*
X5607194Y1392783D03*
G01*
X5607194Y892784D03*
G01*
X5607194Y392785D03*
G01*
X6107193Y9892766D03*
G01*
X6107193Y1392783D03*
G01*
X6107193Y892784D03*
G01*
X6107193Y392785D03*
G01*
X6607192Y9892766D03*
G01*
X6607192Y1392783D03*
G01*
X6607192Y892784D03*
G01*
X6607192Y392785D03*
G01*
X7107191Y9892766D03*
G01*
X7107191Y1392783D03*
G01*
X7107191Y892784D03*
G01*
X7107191Y392785D03*
G01*
X7607190Y9892766D03*
G01*
X7607190Y1392783D03*
G01*
X7607190Y892784D03*
G01*
X7607190Y392785D03*
G01*
X8107189Y9892766D03*
G01*
X8107189Y1392783D03*
G01*
X8107189Y892784D03*
G01*
X8107189Y392785D03*
G01*
X8607188Y9892766D03*
G01*
X8607188Y9392767D03*
G01*
X8607188Y8892768D03*
G01*
X8607188Y8392769D03*
G01*
X8607188Y7892770D03*
G01*
X8607188Y5392775D03*
G01*
X8607188Y1392783D03*
G01*
X8607188Y892784D03*
G01*
X8607188Y392785D03*
G01*
X9107187Y9892766D03*
G01*
X9107187Y8892768D03*
G01*
X9107187Y8392769D03*
G01*
X9107187Y1392783D03*
G01*
X9607186Y8892768D03*
G01*
X9607186Y7392771D03*
G01*
X9607186Y6892772D03*
G01*
X9607186Y6392773D03*
G01*
X9607186Y1392783D03*
M02*
