G04 Layer: BottomPasteMaskLayer*
G04 EasyEDA v6.5.20, 2023-08-27 05:19:39*
G04 a67cddfb3fce44daa9051d46cbbcc19f,10*
G04 Gerber Generator version 0.2*
G04 Scale: 100 percent, Rotated: No, Reflected: No *
G04 Dimensions in millimeters *
G04 leading zeros omitted , absolute positions ,4 integer and 5 decimal *
%FSLAX45Y45*%
%MOMM*%

%AMMACRO1*21,1,$1,$2,0,0,$3*%
%ADD10MACRO1,0.8X0.9X0.0000*%
%ADD11MACRO1,0.4X1.65X0.0000*%

%LPD*%
G36*
X2459990Y8724493D02*
G01*
X2455011Y8719464D01*
X2455011Y8639505D01*
X2459990Y8634476D01*
X2484170Y8634476D01*
X2484170Y8671458D01*
X2517190Y8671458D01*
X2517190Y8634476D01*
X2540000Y8634476D01*
X2544978Y8639505D01*
X2544978Y8719464D01*
X2540000Y8724493D01*
G37*
G36*
X2459990Y8564473D02*
G01*
X2455011Y8559495D01*
X2455011Y8480501D01*
X2459990Y8475472D01*
X2540000Y8475472D01*
X2544978Y8480501D01*
X2544978Y8559495D01*
X2540000Y8564473D01*
X2517190Y8564473D01*
X2517190Y8526475D01*
X2484170Y8526475D01*
X2484170Y8564473D01*
G37*
G36*
X4459986Y8724493D02*
G01*
X4455007Y8719464D01*
X4455007Y8639505D01*
X4459986Y8634476D01*
X4484166Y8634476D01*
X4484166Y8671458D01*
X4517186Y8671458D01*
X4517186Y8634476D01*
X4539996Y8634476D01*
X4544974Y8639505D01*
X4544974Y8719464D01*
X4539996Y8724493D01*
G37*
G36*
X4459986Y8564473D02*
G01*
X4455007Y8559495D01*
X4455007Y8480501D01*
X4459986Y8475472D01*
X4539996Y8475472D01*
X4544974Y8480501D01*
X4544974Y8559495D01*
X4539996Y8564473D01*
X4517186Y8564473D01*
X4517186Y8526475D01*
X4484166Y8526475D01*
X4484166Y8564473D01*
G37*
G36*
X6459982Y8724493D02*
G01*
X6455003Y8719464D01*
X6455003Y8639505D01*
X6459982Y8634476D01*
X6484213Y8634476D01*
X6484213Y8671458D01*
X6517182Y8671458D01*
X6517182Y8634476D01*
X6539992Y8634476D01*
X6544970Y8639505D01*
X6544970Y8719464D01*
X6539992Y8724493D01*
G37*
G36*
X6459982Y8564473D02*
G01*
X6455003Y8559495D01*
X6455003Y8480501D01*
X6459982Y8475472D01*
X6539992Y8475472D01*
X6544970Y8480501D01*
X6544970Y8559495D01*
X6539992Y8564473D01*
X6517182Y8564473D01*
X6517182Y8526475D01*
X6484213Y8526475D01*
X6484213Y8564473D01*
G37*
G36*
X8459978Y8724493D02*
G01*
X8454999Y8719464D01*
X8454999Y8639505D01*
X8459978Y8634476D01*
X8484209Y8634476D01*
X8484209Y8671458D01*
X8517178Y8671458D01*
X8517178Y8634476D01*
X8539988Y8634476D01*
X8544966Y8639505D01*
X8544966Y8719464D01*
X8539988Y8724493D01*
G37*
G36*
X8459978Y8564473D02*
G01*
X8454999Y8559495D01*
X8454999Y8480501D01*
X8459978Y8475472D01*
X8539988Y8475472D01*
X8544966Y8480501D01*
X8544966Y8559495D01*
X8539988Y8564473D01*
X8517178Y8564473D01*
X8517178Y8526475D01*
X8484209Y8526475D01*
X8484209Y8564473D01*
G37*
G36*
X2459990Y6365494D02*
G01*
X2455011Y6360464D01*
X2455011Y6280505D01*
X2459990Y6275476D01*
X2540000Y6275476D01*
X2544978Y6280505D01*
X2544978Y6360464D01*
X2540000Y6365494D01*
X2515768Y6365494D01*
X2515768Y6328460D01*
X2482799Y6328460D01*
X2482799Y6365494D01*
G37*
G36*
X2459990Y6524498D02*
G01*
X2455011Y6519468D01*
X2455011Y6440474D01*
X2459990Y6435496D01*
X2482799Y6435496D01*
X2482799Y6473494D01*
X2515768Y6473494D01*
X2515768Y6435496D01*
X2540000Y6435496D01*
X2544978Y6440474D01*
X2544978Y6519468D01*
X2540000Y6524498D01*
G37*
G36*
X4459986Y6365494D02*
G01*
X4455007Y6360464D01*
X4455007Y6280505D01*
X4459986Y6275476D01*
X4539996Y6275476D01*
X4544974Y6280505D01*
X4544974Y6360464D01*
X4539996Y6365494D01*
X4515815Y6365494D01*
X4515815Y6328460D01*
X4482795Y6328460D01*
X4482795Y6365494D01*
G37*
G36*
X4459986Y6524498D02*
G01*
X4455007Y6519468D01*
X4455007Y6440474D01*
X4459986Y6435496D01*
X4482795Y6435496D01*
X4482795Y6473494D01*
X4515815Y6473494D01*
X4515815Y6435496D01*
X4539996Y6435496D01*
X4544974Y6440474D01*
X4544974Y6519468D01*
X4539996Y6524498D01*
G37*
G36*
X6459982Y6365494D02*
G01*
X6455003Y6360464D01*
X6455003Y6280505D01*
X6459982Y6275476D01*
X6539992Y6275476D01*
X6544970Y6280505D01*
X6544970Y6360464D01*
X6539992Y6365494D01*
X6515811Y6365494D01*
X6515811Y6328460D01*
X6482791Y6328460D01*
X6482791Y6365494D01*
G37*
G36*
X6459982Y6524498D02*
G01*
X6455003Y6519468D01*
X6455003Y6440474D01*
X6459982Y6435496D01*
X6482791Y6435496D01*
X6482791Y6473494D01*
X6515811Y6473494D01*
X6515811Y6435496D01*
X6539992Y6435496D01*
X6544970Y6440474D01*
X6544970Y6519468D01*
X6539992Y6524498D01*
G37*
G36*
X8180476Y5744972D02*
G01*
X8175498Y5739993D01*
X8175498Y5659983D01*
X8180476Y5655005D01*
X8260486Y5655005D01*
X8265464Y5659983D01*
X8265464Y5684164D01*
X8228482Y5684164D01*
X8228482Y5717184D01*
X8265464Y5717184D01*
X8265464Y5739993D01*
X8260486Y5744972D01*
G37*
G36*
X8340496Y5744972D02*
G01*
X8335467Y5739993D01*
X8335467Y5717184D01*
X8373465Y5717184D01*
X8373465Y5684164D01*
X8335467Y5684164D01*
X8335467Y5659983D01*
X8340496Y5655005D01*
X8419490Y5655005D01*
X8424468Y5659983D01*
X8424468Y5739993D01*
X8419490Y5744972D01*
G37*
G36*
X2459990Y4724501D02*
G01*
X2455011Y4719472D01*
X2455011Y4639513D01*
X2459990Y4634484D01*
X2484170Y4634484D01*
X2484170Y4671466D01*
X2517190Y4671466D01*
X2517190Y4634484D01*
X2540000Y4634484D01*
X2544978Y4639513D01*
X2544978Y4719472D01*
X2540000Y4724501D01*
G37*
G36*
X2459990Y4564481D02*
G01*
X2455011Y4559503D01*
X2455011Y4480509D01*
X2459990Y4475480D01*
X2540000Y4475480D01*
X2544978Y4480509D01*
X2544978Y4559503D01*
X2540000Y4564481D01*
X2517190Y4564481D01*
X2517190Y4526483D01*
X2484170Y4526483D01*
X2484170Y4564481D01*
G37*
G36*
X4459986Y4724501D02*
G01*
X4455007Y4719472D01*
X4455007Y4639513D01*
X4459986Y4634484D01*
X4484166Y4634484D01*
X4484166Y4671466D01*
X4517186Y4671466D01*
X4517186Y4634484D01*
X4539996Y4634484D01*
X4544974Y4639513D01*
X4544974Y4719472D01*
X4539996Y4724501D01*
G37*
G36*
X4459986Y4564481D02*
G01*
X4455007Y4559503D01*
X4455007Y4480509D01*
X4459986Y4475480D01*
X4539996Y4475480D01*
X4544974Y4480509D01*
X4544974Y4559503D01*
X4539996Y4564481D01*
X4517186Y4564481D01*
X4517186Y4526483D01*
X4484166Y4526483D01*
X4484166Y4564481D01*
G37*
G36*
X6459982Y4724501D02*
G01*
X6455003Y4719472D01*
X6455003Y4639513D01*
X6459982Y4634484D01*
X6484213Y4634484D01*
X6484213Y4671466D01*
X6517182Y4671466D01*
X6517182Y4634484D01*
X6539992Y4634484D01*
X6544970Y4639513D01*
X6544970Y4719472D01*
X6539992Y4724501D01*
G37*
G36*
X6459982Y4564481D02*
G01*
X6455003Y4559503D01*
X6455003Y4480509D01*
X6459982Y4475480D01*
X6539992Y4475480D01*
X6544970Y4480509D01*
X6544970Y4559503D01*
X6539992Y4564481D01*
X6517182Y4564481D01*
X6517182Y4526483D01*
X6484213Y4526483D01*
X6484213Y4564481D01*
G37*
G36*
X8459978Y4724501D02*
G01*
X8454999Y4719472D01*
X8454999Y4639513D01*
X8459978Y4634484D01*
X8484209Y4634484D01*
X8484209Y4671466D01*
X8517178Y4671466D01*
X8517178Y4634484D01*
X8539988Y4634484D01*
X8544966Y4639513D01*
X8544966Y4719472D01*
X8539988Y4724501D01*
G37*
G36*
X8459978Y4564481D02*
G01*
X8454999Y4559503D01*
X8454999Y4480509D01*
X8459978Y4475480D01*
X8539988Y4475480D01*
X8544966Y4480509D01*
X8544966Y4559503D01*
X8539988Y4564481D01*
X8517178Y4564481D01*
X8517178Y4526483D01*
X8484209Y4526483D01*
X8484209Y4564481D01*
G37*
G36*
X2459990Y2365502D02*
G01*
X2455011Y2360472D01*
X2455011Y2280513D01*
X2459990Y2275484D01*
X2540000Y2275484D01*
X2544978Y2280513D01*
X2544978Y2360472D01*
X2540000Y2365502D01*
X2515768Y2365502D01*
X2515768Y2328468D01*
X2482799Y2328468D01*
X2482799Y2365502D01*
G37*
G36*
X2459990Y2524506D02*
G01*
X2455011Y2519476D01*
X2455011Y2440482D01*
X2459990Y2435504D01*
X2482799Y2435504D01*
X2482799Y2473502D01*
X2515768Y2473502D01*
X2515768Y2435504D01*
X2540000Y2435504D01*
X2544978Y2440482D01*
X2544978Y2519476D01*
X2540000Y2524506D01*
G37*
G36*
X4459986Y2365502D02*
G01*
X4455007Y2360472D01*
X4455007Y2280513D01*
X4459986Y2275484D01*
X4539996Y2275484D01*
X4544974Y2280513D01*
X4544974Y2360472D01*
X4539996Y2365502D01*
X4515815Y2365502D01*
X4515815Y2328468D01*
X4482795Y2328468D01*
X4482795Y2365502D01*
G37*
G36*
X4459986Y2524506D02*
G01*
X4455007Y2519476D01*
X4455007Y2440482D01*
X4459986Y2435504D01*
X4482795Y2435504D01*
X4482795Y2473502D01*
X4515815Y2473502D01*
X4515815Y2435504D01*
X4539996Y2435504D01*
X4544974Y2440482D01*
X4544974Y2519476D01*
X4539996Y2524506D01*
G37*
G36*
X6459982Y2365502D02*
G01*
X6455003Y2360472D01*
X6455003Y2280513D01*
X6459982Y2275484D01*
X6539992Y2275484D01*
X6544970Y2280513D01*
X6544970Y2360472D01*
X6539992Y2365502D01*
X6515811Y2365502D01*
X6515811Y2328468D01*
X6482791Y2328468D01*
X6482791Y2365502D01*
G37*
G36*
X6459982Y2524506D02*
G01*
X6455003Y2519476D01*
X6455003Y2440482D01*
X6459982Y2435504D01*
X6482791Y2435504D01*
X6482791Y2473502D01*
X6515811Y2473502D01*
X6515811Y2435504D01*
X6539992Y2435504D01*
X6544970Y2440482D01*
X6544970Y2519476D01*
X6539992Y2524506D01*
G37*
G36*
X8459978Y2365502D02*
G01*
X8454999Y2360472D01*
X8454999Y2280513D01*
X8459978Y2275484D01*
X8539988Y2275484D01*
X8544966Y2280513D01*
X8544966Y2360472D01*
X8539988Y2365502D01*
X8515756Y2365502D01*
X8515756Y2328468D01*
X8482787Y2328468D01*
X8482787Y2365502D01*
G37*
G36*
X8459978Y2524506D02*
G01*
X8454999Y2519476D01*
X8454999Y2440482D01*
X8459978Y2435504D01*
X8482787Y2435504D01*
X8482787Y2473502D01*
X8515756Y2473502D01*
X8515756Y2435504D01*
X8539988Y2435504D01*
X8544966Y2440482D01*
X8544966Y2519476D01*
X8539988Y2524506D01*
G37*
G36*
X9309963Y1965502D02*
G01*
X9304985Y1960473D01*
X9304985Y1880514D01*
X9309963Y1875485D01*
X9389973Y1875485D01*
X9395002Y1880514D01*
X9395002Y1960473D01*
X9389973Y1965502D01*
X9365792Y1965502D01*
X9365792Y1928520D01*
X9332772Y1928520D01*
X9332772Y1965502D01*
G37*
G36*
X9309963Y2124506D02*
G01*
X9304985Y2119477D01*
X9304985Y2040483D01*
X9309963Y2035505D01*
X9332772Y2035505D01*
X9332772Y2073503D01*
X9365792Y2073503D01*
X9365792Y2035505D01*
X9389973Y2035505D01*
X9395002Y2040483D01*
X9395002Y2119477D01*
X9389973Y2124506D01*
G37*
G36*
X9430461Y5644997D02*
G01*
X9425482Y5639968D01*
X9425482Y5560009D01*
X9430461Y5554980D01*
X9510471Y5554980D01*
X9515500Y5560009D01*
X9515500Y5584190D01*
X9478467Y5584190D01*
X9478467Y5617210D01*
X9515500Y5617210D01*
X9515500Y5639968D01*
X9510471Y5644997D01*
G37*
G36*
X9590481Y5644997D02*
G01*
X9585502Y5639968D01*
X9585502Y5617210D01*
X9623501Y5617210D01*
X9623501Y5584190D01*
X9585502Y5584190D01*
X9585502Y5560009D01*
X9590481Y5554980D01*
X9669475Y5554980D01*
X9674504Y5560009D01*
X9674504Y5639968D01*
X9669475Y5644997D01*
G37*
G36*
X9609988Y1965502D02*
G01*
X9604959Y1960473D01*
X9604959Y1880514D01*
X9609988Y1875485D01*
X9689998Y1875485D01*
X9694976Y1880514D01*
X9694976Y1960473D01*
X9689998Y1965502D01*
X9665766Y1965502D01*
X9665766Y1928520D01*
X9632797Y1928520D01*
X9632797Y1965502D01*
G37*
G36*
X9609988Y2124506D02*
G01*
X9604959Y2119477D01*
X9604959Y2040483D01*
X9609988Y2035505D01*
X9632797Y2035505D01*
X9632797Y2073503D01*
X9665766Y2073503D01*
X9665766Y2035505D01*
X9689998Y2035505D01*
X9694976Y2040483D01*
X9694976Y2119477D01*
X9689998Y2124506D01*
G37*
D10*
G01*
X9479981Y5799988D03*
G01*
X9619980Y5799988D03*
D11*
G01*
X8985636Y5197729D03*
G01*
X9050634Y5197726D03*
G01*
X9115633Y5197726D03*
G01*
X9180631Y5197726D03*
G01*
X9245630Y5197726D03*
G01*
X9310629Y5197726D03*
G01*
X8920637Y5197726D03*
G01*
X8595644Y5197726D03*
G01*
X8660643Y5197726D03*
G01*
X8725641Y5197726D03*
G01*
X8790640Y5197726D03*
G01*
X8855638Y5197726D03*
G01*
X9050634Y5802246D03*
G01*
X9115633Y5802246D03*
G01*
X9180631Y5802246D03*
G01*
X9245630Y5802246D03*
G01*
X9310629Y5802246D03*
G01*
X8985636Y5802246D03*
G01*
X8595644Y5802246D03*
G01*
X8660643Y5802246D03*
G01*
X8725641Y5802246D03*
G01*
X8790640Y5802246D03*
G01*
X8855638Y5802246D03*
G01*
X8920637Y5802243D03*
M02*
