G04 Layer: TopSolderMaskLayer*
G04 EasyEDA v6.5.20, 2023-08-27 05:19:39*
G04 a67cddfb3fce44daa9051d46cbbcc19f,10*
G04 Gerber Generator version 0.2*
G04 Scale: 100 percent, Rotated: No, Reflected: No *
G04 Dimensions in millimeters *
G04 leading zeros omitted , absolute positions ,4 integer and 5 decimal *
%FSLAX45Y45*%
%MOMM*%

%AMMACRO1*1,1,$1,$2,$3*1,1,$1,$4,$5*1,1,$1,0-$2,0-$3*1,1,$1,0-$4,0-$5*20,1,$1,$2,$3,$4,$5,0*20,1,$1,$4,$5,0-$2,0-$3,0*20,1,$1,0-$2,0-$3,0-$4,0-$5,0*20,1,$1,0-$4,0-$5,$2,$3,0*4,1,4,$2,$3,$4,$5,0-$2,0-$3,0-$4,0-$5,$2,$3,0*%
%ADD10C,2.8016*%
%ADD11MACRO1,0.1016X-0.7874X0.7874X-0.7874X-0.7874*%
%ADD12C,1.6764*%
%ADD13MACRO1,0.1016X0.7874X-0.7874X0.7874X0.7874*%

%LPD*%
D10*
G01*
X1999990Y8029983D03*
G01*
X1999990Y8499985D03*
G01*
X1999990Y8969987D03*
G01*
X3999991Y8029978D03*
G01*
X3999991Y8499980D03*
G01*
X3999991Y8969982D03*
G01*
X5999982Y8029983D03*
G01*
X5999982Y8499985D03*
G01*
X5999982Y8969987D03*
G01*
X7999978Y8029983D03*
G01*
X7999978Y8499985D03*
G01*
X7999978Y8969987D03*
G01*
X1999990Y6029987D03*
G01*
X1999990Y6499989D03*
G01*
X1999990Y6969991D03*
G01*
X3999986Y6029987D03*
G01*
X3999986Y6499989D03*
G01*
X3999986Y6969991D03*
G01*
X5999982Y6029987D03*
G01*
X5999982Y6499989D03*
G01*
X5999982Y6969991D03*
G01*
X7999978Y6029987D03*
G01*
X7999978Y6499989D03*
G01*
X7999978Y6969991D03*
G01*
X1999990Y4029991D03*
G01*
X1999990Y4499993D03*
G01*
X1999990Y4969995D03*
G01*
X3999986Y4029991D03*
G01*
X3999986Y4499993D03*
G01*
X3999986Y4969995D03*
G01*
X5999982Y4029991D03*
G01*
X5999982Y4499993D03*
G01*
X5999982Y4969995D03*
G01*
X7999978Y4029991D03*
G01*
X7999978Y4499993D03*
G01*
X7999978Y4969995D03*
G01*
X1999990Y2029995D03*
G01*
X1999990Y2499997D03*
G01*
X1999990Y2969999D03*
G01*
X3999986Y2029995D03*
G01*
X3999986Y2499997D03*
G01*
X3999986Y2969999D03*
G01*
X5999982Y2029995D03*
G01*
X5999982Y2499997D03*
G01*
X5999982Y2969999D03*
G01*
X7999978Y2029995D03*
G01*
X7999978Y2499997D03*
G01*
X7999978Y2969999D03*
D11*
G01*
X9626980Y2626994D03*
D12*
G01*
X9372981Y2626995D03*
G01*
X9626981Y2372995D03*
G01*
X9372981Y2372995D03*
D13*
G01*
X9372980Y7618984D03*
D12*
G01*
X9626981Y7618984D03*
G01*
X9372981Y7872984D03*
G01*
X9626981Y7872984D03*
G01*
X9372981Y8126984D03*
G01*
X9626981Y8126984D03*
G01*
X9372981Y8380984D03*
G01*
X9626981Y8380984D03*
M02*
